<svg width="110" height="72" viewBox="0 0 110 72" fill="none" xmlns="http://www.w3.org/2000/svg">
<g filter="url(#filter0_f_613_14528)">
<rect x="10.322" y="55.6467" width="89.929" height="6.36479" fill="#64D481"/>
</g>
<path d="M94.9946 39.2614H93.4607V40.9688H94.9946V39.2614Z" fill="#E69917"/>
<path d="M76.8756 26.2606L71.8519 27.1755C71.4931 27.2425 71.15 27.002 71.083 26.6431L71.0712 26.5761C71.0041 26.2173 71.2447 25.8742 71.6035 25.8072L76.6271 24.8923L76.8756 26.2606Z" fill="#1B1C20"/>
<path d="M89.2067 47.1172L89.069 50.1149L89.971 50.1563L90.1087 47.1587L89.2067 47.1172Z" fill="#8E8E8E"/>
<path d="M85.19 49.7643L84.8718 50.6094L87.6802 51.6666L87.9983 50.8216L85.19 49.7643Z" fill="#8E8E8E"/>
<path d="M88.0207 52.9051L86.1473 55.2493L86.8528 55.813L88.7261 53.4688L88.0207 52.9051Z" fill="#8E8E8E"/>
<path d="M90.7649 53.0269L90.0107 53.5236L91.6613 56.0296L92.4154 55.5329L90.7649 53.0269Z" fill="#8E8E8E"/>
<path d="M93.8738 50.1609L90.9803 50.9563L91.2197 51.827L94.1131 51.0316L93.8738 50.1609Z" fill="#8E8E8E"/>
<path d="M92.0491 52.0255C91.9821 53.4648 90.7636 54.5807 89.3204 54.5137C87.8811 54.4467 86.7652 53.2282 86.8322 51.785C86.8992 50.3418 88.1177 49.2298 89.5609 49.2968C91.0002 49.3639 92.1161 50.5823 92.0491 52.0255Z" fill="#8E8E8E"/>
<path d="M97.889 51.8796C97.889 56.5168 94.1311 60.2747 89.4939 60.2747C84.8566 60.2747 81.0988 56.5168 81.0988 51.8796C81.0988 47.2424 84.8566 43.4845 89.4939 43.4845C94.1311 43.4845 97.889 47.2424 97.889 51.8796ZM93.7486 51.8796C93.7486 49.5294 91.844 47.6209 89.4899 47.6209C87.1358 47.6209 85.2312 49.5294 85.2312 51.8796C85.2312 54.2298 87.1358 56.1383 89.4899 56.1383C91.844 56.1383 93.7486 54.2298 93.7486 51.8796Z" fill="#1B1C20"/>
<path d="M94.5176 51.8796C94.5176 54.6557 92.266 56.9073 89.49 56.9073C86.714 56.9073 84.4624 54.6557 84.4624 51.8796C84.4624 49.1036 86.714 46.8521 89.49 46.8521C92.266 46.8521 94.5176 49.1036 94.5176 51.8796ZM93.7014 51.8796C93.7014 49.5532 91.8165 47.6683 89.49 47.6683C87.1635 47.6683 85.2786 49.5532 85.2786 51.8796C85.2786 54.2061 87.1635 56.091 89.49 56.091C91.8165 56.091 93.7014 54.2061 93.7014 51.8796Z" fill="#98989C"/>
<path d="M89.8133 52.0255L89.6674 52.1123C89.415 52.2582 89.0917 52.1754 88.9458 51.923L85.6256 46.2763L86.6824 45.6572L90.0026 51.3039C90.1485 51.5563 90.0657 51.8796 89.8173 52.0255H89.8133Z" fill="#EDEEEF"/>
<path d="M76.7674 28.2458L75.2004 29.1674L86.7464 48.7999L88.3134 47.8784L76.7674 28.2458Z" fill="#FEB329"/>
<path d="M85.8543 38.1889C79.624 38.1889 78.307 45.8387 78.307 50.5548C78.3346 50.5824 78.3504 50.6021 78.3819 50.6297H80.7203C81.4774 50.6297 82.1438 50.0974 82.2818 49.3521C82.8654 46.1621 85.5625 44.2378 88.9024 44.2378H97.4513V43.3151C96.4537 41.5603 92.9363 38.1849 85.8583 38.1849L85.8543 38.1889Z" fill="#FAC657"/>
<path d="M81.5523 48.6778C81.4103 49.4586 80.7084 49.7464 79.9158 49.7464H78.3188C78.3109 50.0146 78.307 50.2866 78.307 50.5587C78.3346 50.5863 78.3504 50.606 78.3819 50.6336H80.7203C81.4774 50.6336 82.1438 50.1013 82.2818 49.356C82.8654 46.166 85.5625 44.2417 88.9024 44.2417H97.4513V43.319H88.4923C84.9947 43.319 82.1674 45.33 81.5562 48.6778H81.5523Z" fill="white"/>
<path d="M86.8203 27.9482H83.1453V32.8733H86.8203V27.9482Z" fill="#E69917"/>
<path d="M87.0806 33.1414H87.3763C87.7746 33.1414 88.094 32.822 88.094 32.4238V28.3938C88.094 27.9955 87.7746 27.6761 87.3763 27.6761H87.0806C86.9347 27.6761 86.8203 27.7944 86.8203 27.9364V32.8812C86.8203 33.0271 86.9386 33.1414 87.0806 33.1414Z" fill="#1B1C20"/>
<path d="M37.2344 36.4026H20.5822V32.5776H37.2344C38.0624 32.5776 38.7367 33.2519 38.7367 34.08V34.9002C38.7367 35.7283 38.0624 36.4026 37.2344 36.4026Z" fill="#1B1C20"/>
<path d="M21.0318 16.8757L24.8843 34.4703L21.1501 35.2866L17.2976 17.6919C17.1201 16.8796 17.6327 16.0792 18.445 15.9017L19.2455 15.7282C20.0578 15.5508 20.8583 16.0634 21.0357 16.8757H21.0318Z" fill="#1B1C20"/>
<path d="M72.2975 53.5398H62.2225C60.7478 53.5398 59.2809 53.3347 57.8613 52.9286L54.2651 51.8994V48.4924H76.6863V49.1431C76.6863 51.5681 74.7186 53.5358 72.2935 53.5358L72.2975 53.5398Z" fill="#1B1C20"/>
<path d="M31.5404 51.8402H74.0128C74.4584 51.8402 74.8212 51.4774 74.8212 51.0318V50.7085H31.5404V51.8402Z" fill="#1B1C20"/>
<path d="M26.8479 53.4727C26.6744 53.4727 26.5325 53.3307 26.5325 53.1572C26.5325 52.9837 26.6744 52.8418 26.8479 52.8418H32.2501C32.3172 52.8418 40.3377 52.4396 44.5609 51.1817C44.7265 51.1304 44.9 51.225 44.9512 51.3907C45.0025 51.5563 44.9079 51.7298 44.7422 51.781C40.4481 53.0626 32.5971 53.453 32.2659 53.4687H26.8519L26.8479 53.4727Z" fill="black"/>
<path d="M26.8479 54.1943C26.6744 54.1943 26.5325 54.0523 26.5325 53.8788C26.5325 53.7053 26.6744 53.5633 26.8479 53.5633H32.2501C32.2856 53.5633 37.467 53.307 41.6784 52.5578C41.8479 52.5302 42.0135 52.6406 42.0411 52.8102C42.0727 52.9797 41.9583 53.1454 41.7888 53.173C37.534 53.9301 32.3172 54.1864 32.2659 54.1903H26.8519L26.8479 54.1943Z" fill="black"/>
<path d="M40.5827 51.8932L40.0505 51.9591L40.2497 53.5675L40.7819 53.5016L40.5827 51.8932Z" fill="black"/>
<path d="M33.6422 53.1809H28.2399C27.8929 53.1651 20.0459 52.7747 15.7478 51.4932C15.5822 51.4419 15.4876 51.2684 15.5388 51.1028C15.5901 50.9372 15.7636 50.8426 15.9292 50.8938C20.1524 52.1557 28.1769 52.55 28.2557 52.5539H33.6422C33.8157 52.5539 33.9537 52.6919 33.9537 52.8654C33.9537 53.0389 33.8117 53.1809 33.6422 53.1809Z" fill="black"/>
<path d="M17.0057 50.7283H15.9647V51.9783H17.0057V50.7283Z" fill="black"/>
<path d="M76.702 41.7219H74.7934C73.5277 41.7219 72.3132 42.0886 71.4141 42.7393L65.3416 47.1478V49.8213H76.702V41.7219Z" fill="#E69917"/>
<path d="M65.4166 37.1636H54.9276V48.7803H65.4166V37.1636Z" fill="#E69917"/>
<path d="M65.4166 40.0066H54.9276V40.8504H65.4166V40.0066Z" fill="#1B1C20"/>
<path d="M54.9158 46.0319H39.3164V48.8079H54.9158V46.0319Z" fill="#E69917"/>
<path d="M56.9702 34.7701L55.6335 25.0067C55.5507 24.4073 55.038 23.9578 54.4347 23.9578H53.7249C52.9324 23.9578 52.3251 24.6557 52.4316 25.4404L54.2415 38.6541H67.0649C67.4395 38.6541 67.7431 38.3505 67.7431 37.9759V36.3079C67.7431 36.0043 67.4986 35.7598 67.195 35.7598H58.1059C57.5341 35.7598 57.0491 35.3379 56.9702 34.7701Z" fill="#1B1C20"/>
<path d="M74.5688 27.1163C75.874 26.9665 76.5128 27.1992 76.2881 25.5785C76.1895 24.8727 75.9214 24.64 75.5073 24.5178C74.557 24.2417 73.6264 24.1156 73.0231 24.1826C70.7676 24.4389 67.8062 24.2378 63.8985 24.4902C63.7368 24.502 63.027 24.1432 62.9009 23.6976C61.6824 19.4389 59.352 16.3987 59.352 16.3987L56.1185 17.7512C57.6327 22.2465 60.2905 24.3048 62.0176 27.0257C62.128 27.1992 63.307 27.7078 66.4655 27.1794C71.3117 26.3671 71.4419 25.7283 73.0152 25.5233C73.9419 25.7796 74.0799 25.4839 74.2613 25.5864C74.5412 25.7441 74.561 26.2173 74.561 26.2528C74.561 26.6708 74.0523 26.6826 74.0483 26.6826C74.0483 26.6826 73.8591 27.1952 74.5688 27.1163Z" fill="#C16546"/>
<path d="M62.9126 23.3466C62.9126 23.3466 59.9394 24.987 59.2573 25.4562C58.0309 23.5516 56.4142 19.8174 56.1934 18.9854C55.8424 17.6683 56.0199 16.3513 57.1398 15.8545C58.2596 15.3576 59.4308 16.0595 59.6831 16.4696C59.9355 16.8797 62.2344 20.5666 62.9126 23.3505V23.3466Z" fill="#C9AC8F"/>
<path d="M55.7045 10.2905C55.6296 9.65173 55.9923 8.97349 56.5956 9.06813C56.7337 9.09179 56.8638 9.15094 56.9781 9.24163C57.2818 8.51214 57.7116 8.08233 58.2203 7.88911C59.2179 7.50662 61.1343 8.08627 61.1343 8.08627C61.1343 8.08627 61.6035 9.27712 61.5602 9.56498C61.5168 9.85283 61.1067 9.84889 61.2762 10.2866C61.4458 10.7243 62.0333 11.4735 62.0333 11.4735C62.266 11.7771 62.2226 12.0058 62.0964 12.1084C62.0215 12.1714 61.8796 12.2109 61.6311 12.203C61.3196 12.5184 61.7218 12.6683 61.4655 12.964C61.3275 13.1218 61.3275 13.2913 61.4143 13.4806C61.505 13.6699 61.6982 14.6162 60.2234 14.5965C59.8882 14.5926 59.5491 14.5334 59.2258 14.4309L58.7841 16.4814L55.2865 15.9609L56.2644 11.4262C55.9963 11.2408 55.7715 10.815 55.7084 10.2866L55.7045 10.2905Z" fill="#D17343"/>
<path d="M60.5822 9.88444C60.5822 9.88444 60.4324 9.77009 60.0302 9.9081C59.7936 9.98697 59.5412 10.1802 59.3204 10.2157C59.2218 10.2314 59.8803 10.5035 60.4955 10.4799C60.6572 10.4759 60.8504 10.1289 60.5822 9.88444Z" fill="white"/>
<path d="M60.5821 9.88443C60.7793 10.0658 60.7241 10.3024 60.6176 10.4168C60.5782 10.4444 60.5309 10.4601 60.4836 10.4601C60.3298 10.4562 60.2115 10.2906 60.2194 10.0895C60.2194 9.99484 60.2509 9.91203 60.2982 9.84894C60.5033 9.82528 60.5861 9.88837 60.5861 9.88837L60.5821 9.88443Z" fill="#1B1C20"/>
<path d="M61.4773 12.207C61.4773 12.207 61.1815 12.1794 60.9804 12.1991C60.8503 12.2109 60.4047 12.1912 60.1681 12.487C59.6279 13.1691 59.1784 13.7094 59.7304 13.8986C59.9079 13.9578 59.9355 13.7685 60.0183 13.5043C60.2904 12.6447 60.4757 12.901 60.9331 12.8419C61.3117 12.7906 61.4773 12.7985 61.4773 12.7985C61.4773 12.7985 61.7927 12.8695 61.7651 12.4042C61.7533 12.1991 61.4694 12.2031 61.4694 12.2031L61.4773 12.207Z" fill="#1B1C20"/>
<path d="M60.9371 12.8418C61.3156 12.7905 61.4812 12.7984 61.4812 12.7984C61.4812 12.7984 61.5325 12.7984 61.5562 12.7984C61.5483 12.8576 61.5128 12.9483 61.4734 13.0074C61.3984 13.1139 61.3156 13.1178 61.0554 13.0863C60.8543 13.0626 60.6965 12.9404 60.5782 12.8497C60.7005 12.8615 60.8267 12.8576 60.9371 12.8457V12.8418Z" fill="#E94F0A"/>
<path d="M61.6981 9.43493C61.6981 9.43493 61.7573 9.62814 61.635 9.77404C61.5522 9.86868 61.0357 9.63997 60.8385 9.55717C60.4126 9.37972 59.7778 9.49802 59.5451 9.54139C59.3125 9.58871 59.4347 9.40732 59.8014 9.34423C60.1051 9.28903 60.6453 9.22199 60.9607 9.26537C61.2644 9.3048 61.6469 9.37578 61.7021 9.43493H61.6981Z" fill="#1B1C20"/>
<path d="M59.1272 7.68016C59.1272 7.68016 58.9892 8.16912 58.8985 8.35051C58.8078 8.5319 58.3149 8.79609 58.169 9.47432C58.098 9.79767 58.2282 10.5074 58.4174 11.2054C58.587 11.8403 58.4332 12.4317 58.2597 12.3805C57.8141 12.2503 57.4553 12.069 57.404 11.8324C57.3252 11.4735 57.4277 10.9964 57.4198 10.7204C57.3922 9.88442 57.0767 9.50193 56.9269 9.39152C56.6312 9.17858 56.1777 9.04451 55.9253 9.47432C55.4758 10.2433 56.4064 11.442 56.3867 11.8718C56.367 12.3016 56.2881 13.6581 56.2171 13.8198C56.1777 13.9104 56.083 13.9657 55.9845 13.9499C55.6059 13.9026 54.7305 13.7291 54.9001 13.1967C55.4995 11.3434 54.4032 9.41123 55.6887 8.1218C56.2999 7.5106 58.9024 7.25035 59.1312 7.67227L59.1272 7.68016Z" fill="#1B1C20"/>
<path d="M59.9671 5.46794C60.8819 5.81889 61.3472 6.45375 61.4182 7.23845C61.4774 7.9088 61.2999 8.09413 61.1658 8.14933C60.7005 8.34649 59.8685 8.39775 58.8985 8.34255C58.5397 8.78813 56.6863 8.74081 56.4655 8.76842C55.9726 8.83151 55.6808 9.31652 55.5783 10.3299C55.531 10.7834 56.0121 12.9088 55.8938 13.1099C55.7912 13.2834 55.6769 13.9459 55.113 13.6974C54.6674 13.5003 55.0223 12.6959 54.4348 10.3851C53.7289 7.60911 54.7108 5.9017 56.5799 5.4088C58.445 4.91984 59.557 5.30627 59.9632 5.464L59.9671 5.46794Z" fill="#1B1C20"/>
<path d="M65.2194 36.4341L65.7597 30.9569C65.7597 30.9569 62.609 30.6848 62.5499 30.3497C61.2052 24.2929 62.5656 23.9971 61.1145 19.4033C60.385 17.0886 59.9434 17.0137 57.8298 14.8647C56.706 13.7172 53.8314 15.3063 53.9892 18.5752C54.2021 22.9916 55.8622 30.1249 56.0948 32.3173C56.4615 35.7913 58.3582 35.7322 60.1169 36.1304C61.7731 36.505 65.0223 36.4774 65.2234 36.4341H65.2194Z" fill="#D17343"/>
<path d="M75.6334 49.6163C77.2738 49.5571 77.8732 49.0918 77.8219 48.6147C77.7628 48.039 76.3629 48.2795 74.206 47.4909C73.6815 47.2977 72.8101 47.1281 72.0806 46.9428C72.7864 42.625 74.5806 40.681 75.6256 35.744C75.7991 34.9239 75.7715 33.2046 75.0262 32.7472C74.0522 32.1478 73.6737 31.9467 72.8771 31.6865C71.2762 31.166 69.1508 30.8702 61.1263 30.5981L61.1421 36.2961C63.8472 36.4065 68.9576 36.5327 71.5838 36.0792C70.0144 38.6581 71.359 39.8963 69.5767 45.9964C69.135 47.5027 69.0404 47.7314 69.1902 48.7961C69.3598 49.9909 70.2549 49.6163 72.0451 49.4664C74.1823 49.2851 73.9891 49.6794 75.6295 49.6202L75.6334 49.6163Z" fill="#D17343"/>
<path d="M58.5317 36.304C56.3077 36.0674 56.0988 33.5358 56.0988 33.5358L61.1264 30.5981C69.2415 30.8111 71.2644 30.9885 72.8456 31.5051C73.6421 31.7653 74.1626 32.1163 75.1366 32.7117C75.8779 33.1691 75.7951 34.9199 75.6216 35.7401C74.62 40.4562 73.2439 42.8813 72.4789 46.8127C71.5443 46.6273 69.486 47.0374 68.6264 47.7117C69.3361 44.9081 70.1603 39.2101 71.0554 36.2961C68.1295 36.6746 61.43 36.6155 58.5278 36.304H58.5317Z" fill="#D8BC98"/>
<path d="M55.4047 14.845C55.8819 14.7898 56.5798 14.9081 56.9386 15.0855C57.5065 15.3694 58.4252 15.5784 59.0404 15.7322C59.9434 16.5642 60.9804 17.5658 61.6153 19.4901C62.4946 22.1557 62.0293 23.5319 63.583 28.6541C63.6697 28.9459 63.8235 30.2906 64.1587 30.7125C62.6642 30.6257 59.829 31.5918 57.68 32.9838C56.6114 33.6778 56.1697 34.4152 56.0435 34.5295C56.0041 34.3087 55.6532 33.382 55.6926 32.3371C55.8148 28.8907 54.1271 22.9798 53.9142 18.5634C53.8314 16.8048 54.482 15.468 55.4087 14.845H55.4047Z" fill="#E2C59A"/>
<path d="M73.3661 27.4199C74.6753 27.2701 75.3062 27.5027 75.1524 25.8821C75.0854 25.1762 74.8251 24.9436 74.419 24.8214C73.4805 24.5453 72.5538 24.4191 71.9505 24.4862C69.6831 24.7425 66.7297 24.5414 62.8101 24.7938C62.6484 24.8056 61.9544 24.4467 61.848 24.0012C60.8188 19.7425 58.6224 16.7023 58.6224 16.7023L55.3298 18.0548C57.3843 25.0737 59.0562 25.0974 60.5546 27.3056C60.669 27.4751 62.0767 28.0114 65.2589 27.483C70.1406 26.6707 70.2983 26.0319 71.8795 25.8269C72.7943 26.0832 72.9481 25.7874 73.1216 25.89C73.3937 26.0477 73.3937 26.5209 73.3937 26.5564C73.3779 26.9744 72.8653 26.9862 72.8653 26.9862C72.8653 26.9862 72.6524 27.4988 73.3661 27.416V27.4199Z" fill="#D17343"/>
<path d="M61.8756 23.6502C61.8756 23.6502 58.8315 25.2905 58.1296 25.7598C56.9861 23.8552 55.535 20.121 55.3496 19.289C55.0578 17.9719 55.2905 16.6549 56.434 16.1581C57.5775 15.6612 58.7171 16.3631 58.9498 16.7732C59.1824 17.1833 61.3197 20.8702 61.8756 23.6541V23.6502Z" fill="#E8CCA7"/>
<path d="M72.8258 46.9152C72.8258 46.9152 72.4986 47.8379 71.426 47.897C70.3535 47.9562 69.344 47.9877 68.9536 47.897C68.9536 48.3742 69.0719 49.147 69.1035 49.2653C69.135 49.3836 69.135 49.8016 69.135 49.8016C69.135 49.8016 70.0577 49.8923 71.217 49.8923C72.0806 49.8923 72.7667 49.7424 73.8669 49.8607C74.967 49.979 77.3803 49.5926 77.7076 49.5335C78.0348 49.4743 78.0309 49.151 78.0033 48.9854C77.8574 48.8513 77.9757 48.4333 77.8259 48.315C77.676 48.1967 76.3984 47.9877 75.3535 47.6604C74.3085 47.3331 73.3897 47.0059 72.8219 46.9152H72.8258Z" fill="#39373A"/>
<path d="M55.1327 15.1802C55.1603 14.7267 55.4284 13.9972 55.4284 13.9972C55.4284 13.9972 56.1934 13.9972 57.1634 14.2101C57.8535 14.36 58.7486 14.7267 58.9261 14.8174C59.072 15.4246 59.1035 16.3 59.1035 16.3C59.1035 16.3 58.3977 15.5745 57.1358 15.2393C56.2368 15.0027 55.4915 14.9988 55.1366 15.1802H55.1327Z" fill="#D8BC98"/>
<path d="M28.1336 11.024C27.9956 11.024 27.8575 11.0082 27.7314 10.9569C27.6052 10.9057 27.4869 10.8189 27.4277 10.6967C27.8615 10.6651 28.662 10.677 28.662 10.677L28.7093 10.9845C28.7093 10.9845 28.3504 11.0319 28.1336 11.0279V11.024Z" fill="white"/>
<path d="M22.9482 8.31899C22.8772 7.69202 23.3464 7.1518 23.934 7.24644C24.068 7.26615 24.1942 7.32924 24.3086 7.41994C24.6043 6.70622 25.0262 6.28429 25.5231 6.09502C26.501 5.72041 28.378 6.28823 28.378 6.28823C28.378 6.28823 28.8393 7.45148 28.796 7.73539C28.7526 8.01931 28.4608 8.16915 28.6106 8.45306C28.8275 8.85921 29.2613 9.60448 29.2613 9.60448C29.49 9.90416 29.4466 10.125 29.3244 10.2275C29.2494 10.2906 29.0483 10.33 28.8078 10.3182C28.6974 10.4089 28.7644 10.8111 28.7644 10.8111C28.7644 10.8111 27.9166 10.8939 27.5302 10.7835C27.6761 11.3119 28.6382 11.3592 28.6382 11.3592C28.6382 11.3592 28.7053 12.4594 27.6524 12.483C27.3212 12.4909 26.9229 12.487 26.5483 12.5146L26.083 14.5098L22.6564 13.9972L23.3307 10.4917C23.24 9.7977 23.0152 8.83161 22.9521 8.31505L22.9482 8.31899Z" fill="#FCB681"/>
<path d="M28.1256 8.05086C28.1256 8.05086 27.9994 7.95622 27.6051 8.09029C27.3724 8.16916 27.3212 8.21648 27.128 8.2914C27.0373 8.32689 27.3961 8.64234 27.9994 8.62263C28.1571 8.61868 28.2399 8.26774 28.1256 8.05086Z" fill="white"/>
<path d="M27.7944 8.20464C27.8023 8.1376 27.826 8.07845 27.8536 8.02719C28.0547 7.99565 28.1256 8.05085 28.1256 8.05085C28.2084 8.21252 28.1848 8.45306 28.098 8.56347C28.0625 8.58319 28.0271 8.59502 27.9916 8.59107C27.8614 8.5753 27.7707 8.40574 27.7944 8.20858V8.20464Z" fill="#4E6984"/>
<path d="M28.8158 7.47509C28.8158 7.47509 28.8907 7.59733 28.8158 7.73534C28.7684 7.82603 28.4766 7.75506 28.3031 7.75111C27.9404 7.75111 27.8418 7.73928 27.6525 7.79449C27.4672 7.84969 27.4593 7.67619 27.7471 7.58156C27.9719 7.50663 28.0744 7.4672 28.3347 7.44749C28.5831 7.42777 28.7566 7.4396 28.8118 7.47509H28.8158Z" fill="#A55F38"/>
<path d="M23.9379 3.97748C25.7636 3.50036 26.9506 3.81187 27.3488 3.96566C28.2439 4.30872 28.6264 5.10524 28.654 5.46013C28.7013 6.11865 28.5476 6.34736 28.4214 6.41439C27.9403 6.67859 27.1359 6.59578 26.1895 6.54452C26.0712 6.63916 25.7124 7.2267 25.5271 7.54215C25.4679 7.64073 25.4837 8.11392 25.4245 8.75666C25.4009 9.04058 24.9513 9.00903 24.9435 8.87102C24.8883 8.05477 24.7739 7.77086 24.628 7.66439C24.3401 7.4554 23.7881 7.59736 23.7605 8.09026C23.7211 8.91439 23.7605 9.60446 23.445 10.401C23.4293 10.4404 23.2676 10.5666 23.24 10.263C23.24 10.2314 23.173 9.98695 23.0468 9.67149C22.9245 9.35603 22.6051 9.10761 22.3725 8.58316C21.296 6.1778 22.1122 4.45461 23.9419 3.97748H23.9379Z" fill="#A55F38"/>
<path d="M32.4987 34.2258L33.039 28.7487C33.039 28.7487 29.8883 28.4766 29.8292 28.1415C28.4845 22.0847 29.845 21.7889 28.3939 17.1951C27.6644 14.8804 27.3647 14.6596 25.1092 12.6564C24.0011 11.6706 21.2054 13.3662 21.3631 16.6352C21.576 21.0516 23.1375 27.9206 23.3702 30.1091C23.7369 33.5831 25.5271 33.8276 27.2858 34.2258C28.942 34.6005 32.2976 34.2692 32.4987 34.2258Z" fill="#F7A872"/>
<path d="M46.7535 47.4081C48.3623 47.3489 49.0129 46.8954 49.0366 46.4301C49.0603 45.8663 47.6644 46.1029 45.673 45.3339C45.3024 45.192 44.7385 45.0579 44.1864 44.9278C43.871 44.8529 43.6462 44.6084 43.6028 44.285C43.0626 40.3379 43.4293 36.7022 43.035 33.6305C42.9325 32.8418 43.173 31.3986 42.5185 30.953C41.6588 30.3694 37.065 29.1234 29.2771 28.8552L28.4136 34.5098C30.9964 34.8213 36.1462 35.05 38.7842 34.2456C38.3308 38.0666 40.0421 39.1746 40.5271 43.733C40.6849 45.2156 40.5942 45.5705 40.5863 46.6076C40.5784 47.7708 41.5051 47.4081 43.2756 47.2582C45.3852 47.0808 45.1407 47.4672 46.7495 47.4081H46.7535Z" fill="#F7A872"/>
<path d="M43.4963 44.009C43.2873 44.1588 43.6501 45.0263 42.5973 45.2511C40.882 45.6217 40.5113 44.6911 40.5231 45.3457C40.4995 45.74 40.2787 46.0555 40.2944 46.8954C40.2944 47.0137 40.255 47.4198 40.255 47.4198C40.255 47.4198 41.1422 47.5066 42.2779 47.5066C43.1217 47.5066 43.8078 47.3607 44.8646 47.479C45.9253 47.5933 48.3465 47.3055 48.6738 47.2463C49.0011 47.1872 49.1548 46.7929 49.1509 46.6312C49.1233 46.3315 49.1824 46.0713 48.8 45.8662C48.6462 45.7834 47.5933 45.602 46.5996 45.3299C44.5216 44.7621 43.7093 43.8591 43.5003 44.009H43.4963Z" fill="#D8DADC"/>
<path d="M49.1825 47.4041C50.8228 47.345 51.4222 46.8797 51.3709 46.4025C51.3118 45.8268 49.9119 46.0674 47.755 45.2787C47.3567 45.1328 46.7534 44.9988 46.1698 44.8607C45.8347 44.7819 45.5665 44.5335 45.4719 44.2022C44.3086 40.1565 44.1233 36.4262 43.2479 33.2795C43.0231 32.4712 43.0468 30.9925 42.3055 30.535C41.3315 29.9357 36.4301 28.6581 28.4056 28.386L28.4214 34.3718C31.1186 34.6912 36.434 34.9238 39.0129 34.0997C39.1391 38.0153 41.0358 38.9617 42.2345 43.6384C42.6249 45.1565 42.5894 45.5232 42.7392 46.5839C42.9088 47.7787 43.8039 47.4041 45.5941 47.2543C47.7313 47.0729 47.5381 47.4672 49.1785 47.4081L49.1825 47.4041Z" fill="#FCB681"/>
<path d="M25.811 34.0918C23.6777 33.4175 23.3781 31.3237 23.3781 31.3237L28.4057 28.386C36.5208 28.5989 37.9404 29.1746 39.9632 29.5532C40.7874 29.707 41.4459 29.9041 42.4159 30.5035C43.1572 30.9609 43.7881 33.8237 43.9774 35.401C43.4096 36.3158 40.6139 37.0059 39.1075 37.132C38.5397 35.9451 38.5634 35.1525 37.7984 34.636C34.0642 35.1565 28.7014 35.0066 25.811 34.0958V34.0918Z" fill="#C4001D"/>
<path d="M22.6446 12.9483C22.9048 12.7117 23.93 12.6604 24.3165 12.7669C25.389 13.0547 25.7045 13.3741 26.3157 13.524C27.2187 14.356 28.3583 15.7795 28.9931 17.7038C29.8725 20.3694 29.3046 21.3197 30.8583 26.4459C30.945 26.7377 31.0988 28.0823 31.434 28.5043C29.9395 28.4175 27.1043 29.3836 24.9553 30.7755C23.8867 31.4696 23.445 32.2069 23.3188 32.3213C23.2794 32.1005 22.9285 31.1738 22.9679 30.1289C23.0901 26.6825 21.4024 20.7716 21.1895 16.3552C21.1067 14.5965 22.3882 13.1888 22.6485 12.9522L22.6446 12.9483Z" fill="#4FAC25"/>
<path d="M45.393 43.9223C45.1958 44.0761 45.6848 44.9633 44.6359 45.196C42.9285 45.5745 42.4237 44.6203 42.5223 45.2945C42.5499 45.7007 42.3685 46.024 42.4947 46.8837C42.5144 47.0059 42.5263 47.4199 42.5263 47.4199C42.5263 47.4199 43.449 47.5106 44.6083 47.5106C45.4718 47.5106 46.158 47.3608 47.2581 47.4791C48.3583 47.5974 50.8031 47.3016 51.1304 47.2425C51.4577 47.1833 51.5641 46.7772 51.5365 46.6116C51.4655 46.304 51.4931 46.0359 51.0752 45.8269C50.9056 45.7401 49.8015 45.5548 48.7447 45.2748C46.5365 44.6912 45.5862 43.7685 45.389 43.9223H45.393Z" fill="#EDEEEF"/>
<path d="M27.9679 8.24412C27.9679 8.35059 28.0152 8.43734 28.0744 8.43734C28.1335 8.43734 28.1808 8.35059 28.1808 8.24412C28.1808 8.13765 28.1335 8.0509 28.0744 8.0509C28.0152 8.0509 27.9679 8.13765 27.9679 8.24412Z" fill="black"/>
<path d="M28.2124 8.10602C28.2164 7.97983 28.0863 7.86548 28.0863 7.86548C28.0863 7.86548 27.3883 7.9128 27.1281 8.29135C27.2858 8.26769 27.6722 8.11784 28.2124 8.10602Z" fill="#EF9C62"/>
<path d="M27.5262 10.7874C27.6721 11.3157 28.6343 11.3631 28.6343 11.3631C28.6343 11.3631 28.6382 11.4538 28.6225 11.576C27.7116 11.4419 27.542 10.9175 27.475 10.7321C28.3425 10.8307 28.5239 10.6099 28.7486 10.7006C28.7526 10.7676 28.7605 10.815 28.7605 10.815C28.7605 10.815 27.9127 10.8978 27.5262 10.7874Z" fill="#FC8B70"/>
<path d="M54.2692 12.6289H53.4923C52.964 12.6289 52.4987 12.3134 52.3054 11.8205L49.7384 5.32603L50.4561 5.04211L53.0231 11.5366C53.102 11.7338 53.2873 11.8599 53.4963 11.8599H54.2731V12.6289H54.2692Z" fill="#EDEEEF"/>
<path d="M55.5625 4.50977H54.2692V47.1044H55.5625V4.50977Z" fill="#EDEEEF"/>
<path d="M34.3638 26.5681H33.5317V33.173H34.3638V26.5681Z" fill="#EDEEEF"/>
<path d="M37.3724 28.0232H27.4276V28.6541H37.3724V28.0232Z" fill="#EDEEEF"/>
<path d="M37.2029 30.6888H30.9963V29.8529H37.2029C37.2778 29.8529 37.3409 29.7898 37.3409 29.7148V28.3623C37.3409 27.7117 37.1792 27.2306 36.8598 26.9349C36.4537 26.5603 35.9095 26.5918 35.9016 26.5918H35.8701H22.124V25.7559H35.8583C36.0002 25.748 36.7967 25.7401 37.4276 26.3197C37.9245 26.7811 38.1769 27.4672 38.1769 28.3584V29.7109C38.1769 30.2472 37.7392 30.6849 37.2029 30.6849V30.6888Z" fill="#EDEEEF"/>
<path d="M38.3385 29.6676C39.2928 29.6676 39.3756 28.5083 39.5807 26.8916C39.6674 26.1897 39.4663 25.9058 39.0917 25.6968C38.236 25.2236 37.3606 24.9002 36.7534 24.8372C34.486 24.5966 31.6469 23.7607 27.7628 23.1613C27.6012 23.1376 27.0018 22.6368 26.9939 22.1794C26.9072 17.7985 25.4245 14.3561 25.4245 14.3561L21.915 14.9633C22.4001 22.2622 24.0286 22.6487 25.0184 25.125C25.0933 25.3143 26.3512 26.1424 29.5767 26.3159C34.5176 26.5801 34.8172 26.0556 36.4064 26.1976C37.2305 26.7496 37.4868 26.7733 37.6012 26.7969C37.7392 27.1006 37.9206 27.3135 37.9639 27.6171C38.0822 28.3782 37.9915 28.8947 37.9876 28.8987C37.9876 28.8987 37.9876 29.6676 38.3385 29.6676Z" fill="#FCB681"/>
<path d="M27.0964 21.8403C27.0964 21.8403 23.7684 22.7827 22.9837 23.0863C22.2818 20.9807 21.6706 17.0217 21.6666 16.166C21.6666 14.8174 22.1792 13.5792 23.4016 13.3426C24.624 13.1021 25.5862 14.0367 25.7281 14.4862C25.8662 14.9357 27.1556 19.0012 27.0964 21.8363V21.8403Z" fill="#58BA24"/>
<path d="M24.3559 27.1873C26.2802 27.1873 28.1611 27.7867 29.7305 28.8986L34.3835 32.1991C36.1422 33.4452 37.3803 35.2906 37.8693 37.3884L39.1784 43.0114C39.7344 45.3931 41.8519 47.0769 44.2967 47.0769H50.0026C51.5562 47.0769 52.8141 45.819 52.8141 44.2654V35.2551C52.8141 34.8923 53.1098 34.5966 53.4726 34.5966H56.359C56.7218 34.5966 57.0176 34.8923 57.0176 35.2551V44.2654C57.0176 45.819 58.2754 47.0769 59.8291 47.0769H67.9166C70.4955 47.0769 72.6918 45.2078 73.1059 42.6644L75.1051 30.3498C75.2549 29.4192 75.2589 28.4688 75.113 27.5382L75.0578 27.1873L86.1264 27.1873C86.1422 27.2307 86.1619 27.2898 86.1737 27.3371C86.6863 29.0209 86.6429 30.8466 86.012 32.5264L80.5862 47.0453C79.762 49.2496 77.6564 50.7086 75.3062 50.7086H15.8149C15.0814 50.7086 14.3835 50.3813 13.9182 49.8135L13.1335 48.8632C12.1792 47.7078 11.6548 46.2567 11.6548 44.7543V27.1833H24.3559V27.1873Z" fill="#F9D915"/>
<path d="M85.9923 26.8126C85.9529 26.7101 85.9135 26.6115 85.874 26.5129C85.9174 26.6115 85.9568 26.714 85.9923 26.8126Z" fill="#F9D915"/>
<path d="M75.0538 27.1873L71.7927 6.50903H74.4071L74.9236 7.4002H74.8448C74.3953 7.4002 74.0719 7.83001 74.1981 8.25982L78.9536 24.5769C79.1665 25.3024 79.8329 25.8032 80.59 25.8032H85.527C85.7675 26.2488 85.9646 26.7101 86.1184 27.1833H75.0498L75.0538 27.1873Z" fill="#415D86"/>
<path d="M30.6522 59.7245C34.945 57.9727 37.0048 53.0725 35.253 48.7797C33.5011 44.4869 28.601 42.4271 24.3082 44.1789C20.0154 45.9308 17.9556 50.8309 19.7074 55.1237C21.4593 59.4165 26.3594 61.4764 30.6522 59.7245Z" fill="#1B1C20"/>
<path d="M32.4957 52.7693C32.9473 49.9964 31.0656 47.3826 28.2928 46.931C25.52 46.4794 22.9061 48.3611 22.4545 51.1339C22.0029 53.9067 23.8846 56.5206 26.6574 56.9722C29.4302 57.4238 32.0441 55.5421 32.4957 52.7693Z" fill="#98989C"/>
<path d="M28.9648 55.7432C31.0571 54.9227 32.0883 52.5615 31.2678 50.4691C30.4474 48.3767 28.0862 47.3456 25.9938 48.166C23.9014 48.9864 22.8703 51.3477 23.6907 53.4401C24.5111 55.5324 26.8724 56.5636 28.9648 55.7432Z" fill="#C3C5C8"/>
<path d="M30.2825 51.9546C30.2825 53.5043 29.0286 54.7583 27.4789 54.7583C25.9292 54.7583 24.6753 53.5043 24.6753 51.9546C24.6753 50.4049 25.9292 49.151 27.4789 49.151C29.0286 49.151 30.2825 50.4049 30.2825 51.9546Z" fill="#EDEEEF"/>
<path d="M27.475 39.7306C21.3235 39.7306 16.3314 44.1904 16.292 50.6336C16.3196 50.6612 16.3354 50.6809 16.3669 50.7085H19.2179C19.975 50.7085 20.6414 50.1801 20.7794 49.4348C21.363 46.2408 24.139 44.3205 27.4789 44.3205C30.8188 44.3205 33.5948 46.2408 34.1784 49.4348C34.3125 50.1801 34.9828 50.7085 35.7399 50.7085H38.6658C38.6658 44.2259 33.6579 39.7306 27.4828 39.7306H27.475Z" fill="#FAC657"/>
<path d="M66.43 50.7085H40.9686V50.5271C40.9686 49.8647 41.5049 49.3284 42.1674 49.3284H66.43C70.3062 49.3284 72.191 47.2661 72.9363 43.4333C73.2517 41.8008 75.1839 28.5398 75.2076 28.4136H75.3298C75.7084 28.4136 76.0081 28.7369 75.9805 29.1155C75.7636 31.8599 74.5727 42.341 74.2888 43.7921C73.374 48.5122 71.2131 50.7085 66.43 50.7085Z" fill="#EDEEEF"/>
<path d="M12.2463 46.8678H11.3867C10.7992 46.8678 10.322 46.3907 10.322 45.8032V43.3071C10.322 42.7196 10.7992 42.2424 11.3867 42.2424H12.2463V46.8678Z" fill="#EDEEEF"/>
<path d="M80.2076 25.8072H85.5349C85.5349 25.8072 85.5349 25.8072 85.5349 25.8032L74.9237 7.40417H74.4584C74.0089 7.40417 73.6855 7.83399 73.8117 8.2638L78.5672 24.5808C78.7802 25.3064 79.4466 25.8072 80.2037 25.8072H80.2076Z" fill="#8CC8DD"/>
<path d="M85.9529 26.7023H74.9789L75.1129 27.5422C75.1208 27.5856 75.1248 27.6329 75.1327 27.6762H86.2723C86.1894 27.345 86.079 27.0217 85.9529 26.7023Z" fill="#1B1C20"/>
<path d="M22.1634 30.1802H22.0924C21.6863 30.1802 21.359 29.8529 21.359 29.4467V26.1699H22.8929V29.4467C22.8929 29.8529 22.5656 30.1802 22.1595 30.1802H22.1634Z" fill="#586838"/>
<path d="M23.3701 28.3427H20.8859V28.9736H23.3701V28.3427Z" fill="#FEB329"/>
<path d="M13.851 30.1802H13.7801C13.3739 30.1802 13.0466 29.8529 13.0466 29.4467V26.1699H14.5805V29.4467C14.5805 29.8529 14.2533 30.1802 13.8471 30.1802H13.851Z" fill="#586838"/>
<path d="M15.0577 28.3427H12.5735V28.9736H15.0577V28.3427Z" fill="#FEB329"/>
<path d="M77.2501 36.028L85.7004 36.2922C86.15 36.308 86.5246 35.9452 86.5246 35.4957V35.3971C86.5246 34.9476 86.15 34.5848 85.7004 34.6006L77.2501 34.8648C76.9386 34.8727 76.6902 35.129 76.6902 35.4444V35.4563C76.6902 35.7678 76.9386 36.0241 77.2501 36.0359V36.028Z" fill="#EDEEEF"/>
<path d="M77.2739 31.576H81.1185C81.3393 31.576 81.5168 31.7535 81.5168 31.9743V33.3978C81.5168 33.6186 81.3393 33.7961 81.1185 33.7961H77.2739C77.0531 33.7961 76.8756 33.6186 76.8756 33.3978V31.9743C76.8756 31.7535 77.0531 31.576 77.2739 31.576Z" fill="#1B1C20"/>
<path d="M81.0199 31.9309H77.3684C77.2661 31.9309 77.1831 32.0139 77.1831 32.1162V33.2598C77.1831 33.3621 77.2661 33.4451 77.3684 33.4451H81.0199C81.1222 33.4451 81.2052 33.3621 81.2052 33.2598V32.1162C81.2052 32.0139 81.1222 31.9309 81.0199 31.9309Z" fill="#F7AF2C"/>
<path d="M95.5309 39.9317L93.6737 39.7188C92.9797 39.6399 92.4552 39.0524 92.4552 38.3505V38.0272C92.4552 37.3292 92.9797 36.7377 93.6737 36.6589L95.5309 36.4459V39.9278V39.9317Z" fill="#FEB329"/>
<path d="M95.6769 40.0894H95.8819C96.1579 40.0894 96.3788 39.8646 96.3788 39.5925V36.7929C96.3788 36.5168 96.154 36.296 95.8819 36.296H95.6769C95.5783 36.296 95.4955 36.3788 95.4955 36.4774V39.908C95.4955 40.0066 95.5783 40.0894 95.6769 40.0894Z" fill="#1B1C20"/>
<path d="M54.9158 5.36946H30.8622C28.5633 5.36946 26.6311 7.09659 26.3748 9.37971L24.3559 27.1912H11.6548V7.79848C11.6548 3.5753 15.1603 0.199901 19.3795 0.353687L55.3338 1.67861C55.4876 1.68255 55.6374 1.70227 55.7873 1.73381L76.292 5.81899C76.5247 5.8663 76.6903 6.06741 76.6903 6.304V6.50511H71.7967L54.9158 5.36157V5.36946Z" fill="#415D86"/>
<path d="M23.6698 34.8766H22.333V36.2133H23.6698V34.8766Z" fill="#F9D915"/>
<path d="M22.337 36.2134H21.0002V37.5501H22.337V36.2134Z" fill="#F9D915"/>
<path d="M21.0002 34.8766H19.6635V36.2133H21.0002V34.8766Z" fill="#F9D915"/>
<path d="M19.6674 36.2134H18.3307V37.5501H19.6674V36.2134Z" fill="#F9D915"/>
<path d="M18.3306 34.8766H16.9939V36.2133H18.3306V34.8766Z" fill="#F9D915"/>
<path d="M16.9978 36.2134H15.661V37.5501H16.9978V36.2134Z" fill="#F9D915"/>
<path d="M15.6611 34.8766H14.3243V36.2133H15.6611V34.8766Z" fill="#F9D915"/>
<path d="M14.3282 36.2134H12.9915V37.5501H14.3282V36.2134Z" fill="#F9D915"/>
<path d="M12.9915 34.8766H11.6548V36.2133H12.9915V34.8766Z" fill="#F9D915"/>
<path d="M23.6698 36.2134H22.333V37.5501H23.6698V36.2134Z" fill="black"/>
<path d="M22.337 34.8766H21.0002V36.2133H22.337V34.8766Z" fill="black"/>
<path d="M21.0002 36.2134H19.6635V37.5501H21.0002V36.2134Z" fill="black"/>
<path d="M19.6674 34.8766H18.3307V36.2133H19.6674V34.8766Z" fill="black"/>
<path d="M18.3306 36.2134H16.9939V37.5501H18.3306V36.2134Z" fill="black"/>
<path d="M16.9978 34.8766H15.661V36.2133H16.9978V34.8766Z" fill="black"/>
<path d="M15.6611 36.2134H14.3243V37.5501H15.6611V36.2134Z" fill="black"/>
<path d="M14.3282 34.8766H12.9915V36.2133H14.3282V34.8766Z" fill="black"/>
<path d="M12.9915 36.2134H11.6548V37.5501H12.9915V36.2134Z" fill="black"/>
<path d="M34.3441 34.8766H33.0073V36.2133H34.3441V34.8766Z" fill="#F9D915"/>
<path d="M33.0073 36.2134H31.6705V37.5501H33.0073V36.2134Z" fill="#F9D915"/>
<path d="M31.6745 34.8766H30.3378V36.2133H31.6745V34.8766Z" fill="#F9D915"/>
<path d="M30.3377 36.2134H29.001V37.5501H30.3377V36.2134Z" fill="#F9D915"/>
<path d="M29.005 34.8766H27.6682V36.2133H29.005V34.8766Z" fill="#F9D915"/>
<path d="M27.6682 36.2134H26.3314V37.5501H27.6682V36.2134Z" fill="#F9D915"/>
<path d="M26.3354 34.8766H24.9987V36.2133H26.3354V34.8766Z" fill="#F9D915"/>
<path d="M24.9986 36.2134H23.6619V37.5501H24.9986V36.2134Z" fill="#F9D915"/>
<path d="M34.3441 36.2134H33.0073V37.5501H34.3441V36.2134Z" fill="black"/>
<path d="M33.0073 34.8766H31.6705V36.2133H33.0073V34.8766Z" fill="black"/>
<path d="M31.6745 36.2134H30.3378V37.5501H31.6745V36.2134Z" fill="black"/>
<path d="M30.3377 34.8766H29.001V36.2133H30.3377V34.8766Z" fill="black"/>
<path d="M29.005 36.2134H27.6682V37.5501H29.005V36.2134Z" fill="black"/>
<path d="M27.6682 34.8766H26.3314V36.2133H27.6682V34.8766Z" fill="black"/>
<path d="M26.3354 36.2134H24.9987V37.5501H26.3354V36.2134Z" fill="black"/>
<path d="M24.9986 34.8766H23.6619V36.2133H24.9986V34.8766Z" fill="black"/>
<defs>
<filter id="filter0_f_613_14528" x="0.722021" y="46.0467" width="109.129" height="25.5647" filterUnits="userSpaceOnUse" color-interpolation-filters="sRGB">
<feFlood flood-opacity="0" result="BackgroundImageFix"/>
<feBlend mode="normal" in="SourceGraphic" in2="BackgroundImageFix" result="shape"/>
<feGaussianBlur stdDeviation="4.8" result="effect1_foregroundBlur_613_14528"/>
</filter>
</defs>
</svg>
