<svg width="63" height="81" viewBox="0 0 63 81" fill="none" xmlns="http://www.w3.org/2000/svg">
<g clip-path="url(#clip0_613_14850)">
<path d="M8.8859 41.2204C8.82318 46.8686 14.4204 48.5697 16.2588 45.4418C20.3861 51.8269 27.8413 45.5673 28.2882 44.3483C29.6169 48.0837 42.4851 51.239 45.0329 44.948C47.0946 48.1934 49.7208 46.214 49.7757 44.2659C55.0005 48.2209 57.7992 40.2875 57.7992 40.2875C57.7992 40.2875 55.3455 29.3282 54.7458 28.799C54.1461 28.2659 37.3739 22.2336 35.5317 22.0768C33.6894 21.92 18.7281 24.1542 17.9873 24.9538C17.2426 25.7535 9.28178 38.1552 8.8859 41.2243V41.2204Z" fill="#3E7F4C"/>
<path d="M45.856 32.8049C45.856 32.8049 43.6336 34.5649 41.5326 34.6511L42.6929 32.8755C42.6929 32.8755 41.9285 31.8642 41.6777 31.8015C40.1216 35.0705 35.4258 41.4007 35.4141 39.9583C35.4141 39.9583 36.2176 37.3909 37.3112 33.0401C39.5571 31.3939 40.4391 29.1048 41.8345 25.1695L40.8428 25.7221C37.3778 33.0989 37.029 32.8598 38.0167 25.7221C38.0167 25.7221 37.2681 25.5261 36.931 25.5967C36.8055 27.8309 36.4293 30.2924 35.9393 32.5815C35.1789 30.9588 34.3283 27.6584 34.7007 24.6481L33.9168 23.8721C33.6581 26.604 33.9168 32.0092 35.5473 34.2787C34.6145 38.0494 33.4542 40.9852 32.784 40.9617C31.6316 40.9225 32.733 21.2341 32.733 21.2341L30.3381 23.923C30.3381 23.923 31.2828 37.4497 30.589 37.4262C29.8991 37.4027 26.7948 29.9201 25.7325 27.1175L24.6664 28.0073C24.6664 28.0073 28.3273 35.972 29.0721 37.9553C29.8129 39.9387 31.3847 48.413 29.2014 48.1112C27.0182 47.8093 23.6512 30.8569 24.1333 30.1827L22.8124 31.7545C22.8124 31.7545 24.2862 39.6447 24.3685 40.6285C24.5527 42.8157 20.4802 38.0377 19.2063 34.6511C19.2063 34.6511 19.2298 36.5051 18.9476 38.1082C30.9535 48.4208 29.5189 77.3321 26.9006 79.7858C26.9006 79.7858 33.2975 82.5531 37.1152 79.5114C33.9677 69.8926 34.7673 43.5604 36.198 42.2238C37.6247 40.8872 39.0985 38.167 40.6586 36.117C40.6586 36.117 44.5233 36.0151 46.3146 33.875L45.8521 32.7932L45.856 32.8049Z" fill="#243628"/>
<path d="M61.0133 33.5654C64.8585 29.0695 60.8487 22.9784 57.7483 23.5977C59.418 19.6467 58.7791 11.1019 48.7213 10.8706C49.4896 6.27287 41.2622 0.350287 36.0099 3.87405C33.0584 -0.0259989 22.9183 -0.872643 18.0461 6.66876C12.5939 3.81917 6.1265 9.86719 7.96874 16.2993C2.64194 15.9191 -0.348755 22.606 3.59833 27.3527C-2.22627 32.6051 0.278388 40.801 2.45379 43.3371C5.33081 46.6923 10.9673 46.802 12.5626 44.1523C16.3254 44.2072 19.7238 40.899 19.7512 33.8437C23.3651 34.3062 24.5567 31.4017 24.6076 29.8966C27.1358 30.8334 30.5929 31.5546 31.9687 28.1994C32.345 28.2151 32.7213 28.2307 33.0937 28.2503C34.7282 30.6021 37.6522 29.9279 39.0986 28.6305C39.71 32.4718 42.7713 33.436 45.6013 33.3851C45.5895 36.7952 47.9452 39.0254 50.9516 39.2881C50.6694 41.3537 50.5361 46.6178 56.592 46.1553C60.5743 45.8535 65.372 38.4336 61.0133 33.5654Z" fill="#46A363"/>
<path d="M9.77957 24.3816C9.74429 24.4718 9.08187 24.0877 7.95301 24.268C7.39642 24.3542 6.74968 24.5659 6.10686 24.9382C5.46404 25.3028 4.83689 25.8593 4.36262 26.557C3.89226 27.2547 3.68844 28.0661 3.59437 28.8069C3.50029 29.5477 3.54733 30.2298 3.64924 30.7863C3.85698 31.9113 4.40573 32.4326 4.33518 32.4914C4.31558 32.511 4.15096 32.4169 3.93146 32.1543C3.71196 31.8956 3.45326 31.4605 3.29255 30.8726C3.13185 30.2885 3.04562 29.5595 3.12009 28.7599C3.19456 27.9681 3.39446 27.0705 3.93146 26.2748C4.46061 25.4948 5.15831 24.899 5.87168 24.5267C6.58506 24.1465 7.29843 23.9544 7.9099 23.9074C8.52136 23.8642 9.01916 23.9662 9.33273 24.0994C9.65022 24.2249 9.79133 24.3581 9.77565 24.3816H9.77957Z" fill="#22613C"/>
<path d="M21.0643 7.69179C21.0643 7.69179 21.0094 7.65651 20.9584 7.57812C20.9349 7.53892 20.9036 7.48797 20.8683 7.42917C20.8291 7.3743 20.7742 7.31942 20.7233 7.24887C20.6135 7.1156 20.4489 6.99409 20.2372 6.90002C20.0177 6.82163 19.7512 6.79811 19.4611 6.84906C18.8771 6.95489 18.2343 7.40173 17.8345 8.09159C17.7874 8.18174 17.7443 8.27581 17.6973 8.36597C17.6228 8.56979 17.5483 8.77361 17.4699 8.98135L17.4425 9.05974C17.4425 9.05974 17.4072 9.02447 17.3876 9.00487L17.274 8.8912L17.0466 8.66386L16.933 8.54627L16.8742 8.48748L16.8428 8.46004L16.7174 8.35421C16.3803 8.08375 15.9805 7.82897 15.5768 7.83289C15.173 7.81722 14.8163 8.07591 14.5576 8.413C14.2911 8.74617 14.1186 9.1499 13.9854 9.54186C13.7228 10.3297 13.6287 11.094 13.6209 11.729C13.6052 12.3679 13.6914 12.8775 13.7776 13.2224C13.8678 13.5673 13.9579 13.7476 13.9227 13.7672C13.8991 13.7829 13.7463 13.634 13.5856 13.289C13.4327 12.9441 13.2838 12.411 13.2524 11.7369C13.2132 11.0666 13.272 10.2592 13.5268 9.39683C13.664 8.96959 13.8404 8.51883 14.1539 8.10727C14.3029 7.89953 14.5028 7.70747 14.7419 7.5546C14.9771 7.39781 15.2828 7.3155 15.5807 7.31942C15.7335 7.31158 15.8707 7.35078 16.0118 7.37822C16.1412 7.42917 16.2823 7.46445 16.396 7.53108C16.5175 7.5938 16.6351 7.65651 16.737 7.7349C16.8467 7.80546 16.9486 7.88385 17.0388 7.96616L17.1799 8.08767L17.2152 8.11903L17.223 8.13079C17.2308 8.13863 17.2426 8.15822 17.2504 8.15822L17.2583 8.14647C17.3132 8.04456 17.368 7.94264 17.4229 7.84073C17.9168 7.04897 18.689 6.56293 19.4023 6.48062C19.759 6.44142 20.0922 6.50021 20.3548 6.62956C20.6057 6.77067 20.786 6.95097 20.884 7.11952C20.931 7.20575 20.978 7.28022 21.0055 7.34686C21.0251 7.41741 21.0447 7.47621 21.0564 7.52716C21.0799 7.62515 21.0839 7.67611 21.0643 7.68395V7.69179Z" fill="#22613C"/>
<path d="M45.711 12.164C45.711 12.164 45.6679 12.1131 45.6405 12.0229C45.6287 11.9759 45.6091 11.921 45.5934 11.8544C45.566 11.7917 45.5346 11.7211 45.4993 11.6388C45.4131 11.4899 45.2994 11.3096 45.0917 11.2037C44.8918 11.0901 44.6213 11.0352 44.3195 11.0587C44.0177 11.0822 43.6806 11.1802 43.3553 11.3448C43.273 11.384 43.1946 11.435 43.1162 11.482C43.077 11.5055 43.0378 11.533 42.9986 11.5604L42.9359 11.6075C42.8967 11.6349 42.8575 11.6662 42.8183 11.7015L42.591 11.8975L42.4773 11.9955L42.4185 12.0465C42.4185 12.0465 42.4028 12.0112 42.3911 11.9955C42.3323 11.8074 42.2735 11.6192 42.2147 11.4271C42.1794 11.3096 42.1676 11.2782 42.148 11.2272L42.0932 11.0744C42.0579 10.9685 42.0109 10.8706 41.9677 10.7686C41.8815 10.5609 41.7835 10.3571 41.6698 10.1611C41.4464 9.7613 41.1603 9.38501 40.8036 9.07144C40.0902 8.43646 39.1652 8.1856 38.3225 8.09545C37.4837 8.02097 36.6958 8.11505 36.0883 8.29535C35.4729 8.47957 35.0613 8.79707 34.881 9.09496C34.7007 9.39285 34.685 9.60843 34.6341 9.60059C34.6145 9.60059 34.6066 9.54572 34.6066 9.44381C34.5988 9.33798 34.6302 9.18903 34.7007 9.00089C34.8536 8.6246 35.3122 8.19344 35.9668 7.95042C36.6213 7.7074 37.4406 7.5663 38.3617 7.62117C39.2593 7.6878 40.3176 7.9465 41.1446 8.68339C41.5562 9.044 41.8737 9.47516 42.1128 9.91416C42.2343 10.1337 42.3401 10.3571 42.4263 10.5805C42.4695 10.6903 42.5165 10.8 42.5518 10.9098C42.5831 11.0038 42.6145 11.0979 42.6458 11.188L42.6576 11.2468C42.6576 11.2468 42.6733 11.2429 42.6811 11.239H42.689L42.7517 11.192C42.7987 11.1606 42.8457 11.1293 42.8928 11.1057C42.9868 11.0509 43.0809 10.9999 43.1789 10.9568C43.563 10.7843 43.9511 10.6942 44.3117 10.6942C44.6723 10.6903 45.0133 10.7843 45.2563 10.9646C45.5111 11.1371 45.6248 11.384 45.6914 11.5683C45.711 11.6662 45.7306 11.7525 45.7502 11.827C45.7541 11.9014 45.7502 11.9641 45.7502 12.019C45.7502 12.1209 45.7345 12.1719 45.7188 12.1758L45.711 12.164Z" fill="#22613C"/>
<path d="M34.9319 15.3468C34.9123 15.3547 34.8614 15.2959 34.7791 15.194C34.685 15.0999 34.5361 14.9784 34.3009 14.9353C34.0696 14.8882 33.7639 14.9313 33.4542 15.0764C33.3014 15.1469 33.1407 15.2449 33.0035 15.3743C32.929 15.4331 32.8702 15.5075 32.8075 15.582C32.7722 15.6251 32.7056 15.7309 32.6585 15.8289C32.6076 15.923 32.5566 16.021 32.5057 16.119C32.4195 16.0288 32.3293 15.9191 32.2352 15.8133L32.0941 15.6526C32.051 15.6016 32.0314 15.5938 32 15.5624C31.8903 15.4566 31.7688 15.3547 31.6355 15.2606C31.3729 15.0724 31.075 14.9039 30.7418 14.7785C30.0833 14.5159 29.3072 14.4061 28.5116 14.4375C27.516 14.4845 26.5831 14.7589 25.8344 15.1704C25.078 15.5781 24.5174 16.1386 24.1921 16.6952C23.8668 17.2518 23.757 17.7809 23.7178 18.1494C23.6747 18.5178 23.6786 18.7295 23.6355 18.7334C23.6081 18.7373 23.5336 18.5335 23.514 18.1415C23.4944 17.7535 23.5493 17.1655 23.8707 16.5227C24.0353 16.2052 24.2548 15.876 24.5449 15.5742C24.8389 15.2723 25.1916 14.9941 25.5953 14.7589C26.4028 14.2846 27.4101 13.9749 28.4841 13.924C29.3504 13.8887 30.1931 14.022 30.9221 14.3277C31.2867 14.4727 31.6159 14.6766 31.906 14.8961C32.051 15.0058 32.1843 15.1273 32.3058 15.2528L32.3881 15.3351L32.4038 15.3586C32.4038 15.3586 32.4273 15.3939 32.439 15.4056L32.4586 15.3821C32.4586 15.3821 32.4665 15.3782 32.4978 15.3351C32.5802 15.241 32.6664 15.1548 32.7605 15.0842C32.9408 14.9392 33.1367 14.8373 33.3249 14.7667C33.7051 14.6217 34.0775 14.6099 34.3597 14.704C34.6458 14.7942 34.8104 14.9862 34.8771 15.1195C34.9398 15.2606 34.9476 15.339 34.928 15.3429L34.9319 15.3468Z" fill="#22613C"/>
<path d="M10.1911 35.0587C10.1911 35.141 9.88927 35.1802 9.45811 35.3331C9.03479 35.4899 8.48996 35.8113 8.16854 36.3953C7.85105 36.9794 7.83146 37.6222 7.87457 38.0769C7.92161 38.5355 8.00392 38.8255 7.92945 38.8608C7.87457 38.8882 7.66683 38.6413 7.51396 38.1474C7.36894 37.6653 7.31798 36.8814 7.71387 36.1445C7.91377 35.7839 8.20382 35.4977 8.50172 35.3096C8.79961 35.1097 9.10926 35.0313 9.36404 34.9803C9.88143 34.9059 10.1911 35.0038 10.1872 35.0626L10.1911 35.0587Z" fill="#22613C"/>
<path d="M59.3671 26.6393C59.32 26.6432 59.3004 26.4041 59.1593 26.02C59.0809 25.8319 58.9712 25.6085 58.7791 25.4125C58.5871 25.2165 58.3048 25.0754 57.9677 25.0519C57.6307 25.0244 57.2504 25.1263 56.8938 25.338L56.7879 25.3968C56.7409 25.4242 56.6978 25.4595 56.6507 25.4909C56.5645 25.5497 56.4783 25.6085 56.3881 25.6673L56.2549 25.7574L56.1882 25.8044C56.1882 25.8044 56.1765 25.7966 56.1765 25.7848V25.7456C56.1686 25.6359 56.1647 25.5261 56.1608 25.4164C56.1529 25.2243 56.149 25.0323 56.1412 24.8324C56.1412 24.7069 56.1373 24.5815 56.1334 24.4561C56.1177 23.4487 56.1765 22.3395 55.9178 21.2616C55.663 20.1876 54.981 19.3174 54.1461 18.8667C53.3073 18.3924 52.4254 18.2121 51.6924 18.1533C50.199 18.0396 49.3328 18.5139 49.3053 18.4277C49.2936 18.4041 49.4817 18.2474 49.8894 18.0867C50.2931 17.9259 50.9202 17.777 51.7081 17.7848C52.4881 17.8005 53.4406 17.9495 54.3773 18.4473C55.3337 18.9255 56.1451 19.9406 56.4195 21.1361C56.7056 22.3277 56.6194 23.4644 56.6115 24.46C56.6115 24.5854 56.6115 24.7069 56.6115 24.8284C56.6115 24.8912 56.6115 24.9617 56.6115 24.95V24.9735C56.6115 24.9735 56.6037 25.0166 56.6194 25.0009L56.6939 24.9656C57.1172 24.7422 57.5836 24.6325 58.0069 24.6952C58.4303 24.7461 58.787 24.9656 58.9947 25.2243C59.2064 25.483 59.2965 25.7535 59.3553 25.9651C59.4455 26.4041 59.3945 26.6432 59.371 26.6432L59.3671 26.6393Z" fill="#22613C"/>
<path d="M44.9937 26.2277C45.0094 26.2473 44.9349 26.3414 44.7389 26.4276C44.6409 26.4668 44.5116 26.5021 44.3548 26.5021C44.2764 26.5021 44.1901 26.4942 44.1039 26.4707C44.0608 26.4629 44.0334 26.4551 44.002 26.4472C43.9785 26.506 43.9746 26.5883 43.955 26.6628C43.904 26.8039 43.8648 26.9607 43.7864 27.1136C43.6571 27.4271 43.4493 27.7525 43.1593 28.0425C42.8692 28.3326 42.4851 28.5756 42.0461 28.7128C41.6071 28.85 41.1289 28.8892 40.6507 28.846C39.8393 28.7755 39.1103 28.5011 38.5027 28.1797C37.8952 27.8583 37.4013 27.4742 37.029 27.1175C36.2764 26.3923 36.0373 25.773 36.0882 25.7495C36.1588 25.7025 36.4998 26.2277 37.268 26.8431C37.6522 27.1488 38.1343 27.4781 38.7144 27.7564C39.2906 28.0347 39.9687 28.2698 40.6899 28.3326C41.1132 28.3678 41.5248 28.3404 41.8932 28.2307C42.2617 28.1209 42.5831 27.9367 42.8339 27.7054C43.0887 27.4742 43.2847 27.2076 43.4219 26.9372C43.5003 26.8078 43.5473 26.6667 43.6061 26.5452C43.6767 26.3492 43.7315 26.1493 43.7982 26.0004C43.9314 26.0788 44.0686 26.165 44.1745 26.2042C44.2411 26.2277 44.3038 26.2473 44.3626 26.2591C44.4841 26.2787 44.5939 26.2787 44.684 26.2669C44.8643 26.2434 44.9662 26.2042 44.9819 26.2316L44.9937 26.2277Z" fill="#22613C"/>
<path d="M50.8104 33.8946C50.83 33.9534 50.442 34.1415 49.76 34.2317C49.0858 34.3218 48.1098 34.314 47.1103 33.9259C46.6125 33.726 46.1735 33.432 45.8442 33.091C45.515 32.7422 45.3269 32.3424 45.2328 32.0014C45.1544 31.6564 45.1387 31.3703 45.174 31.1783C45.1975 30.9862 45.2289 30.8843 45.2641 30.8843C45.2994 30.8843 45.3386 30.9901 45.3739 31.1665C45.3974 31.3468 45.4719 31.5977 45.5777 31.8838C45.7031 32.166 45.8874 32.4796 46.1813 32.7579C46.4753 33.0283 46.8594 33.2674 47.2984 33.4477C48.1921 33.7966 49.0936 33.8632 49.7365 33.871C50.3832 33.875 50.7869 33.8201 50.8065 33.8985L50.8104 33.8946Z" fill="#22613C"/>
<path d="M21.5855 28.2817C21.6169 28.2739 21.711 28.5796 21.5228 29.0735C21.4209 29.3086 21.2641 29.6144 20.9114 29.8182C20.7389 29.9162 20.4998 29.9907 20.2568 29.924C20.198 29.9123 20.1431 29.8848 20.0843 29.8613C20.0765 29.8613 20.0647 29.8535 20.0569 29.8496C20.0373 29.8417 20.0294 29.83 20.0177 29.8221C19.9824 29.7633 20.0255 29.877 20.0334 29.8966V29.9083C20.0334 29.9083 20.0373 29.9123 20.0373 29.9083C20.0373 29.9005 20.0373 29.9044 20.0373 29.9319C20.0412 30.0103 20.0451 30.0887 20.053 30.171C20.0647 30.3317 20.0726 30.4963 20.053 30.6609C20.0255 31.3312 19.8099 32.025 19.4611 32.6717C19.0064 33.5066 18.3322 34.1729 17.5953 34.5649C16.8584 34.9647 16.0667 35.0431 15.4513 34.949C15.1456 34.8785 14.8673 34.8236 14.6517 34.7021C14.4283 34.6002 14.2362 34.51 14.1069 34.3963C13.8325 34.1886 13.6992 34.0632 13.7188 34.0357C13.7384 34.0083 13.9148 34.0789 14.2048 34.2239C14.342 34.3101 14.5341 34.365 14.7497 34.4355C14.9574 34.5257 15.2161 34.5492 15.4944 34.5923C16.051 34.6315 16.7252 34.5257 17.3641 34.1533C18.003 33.7888 18.5948 33.1852 19.0064 32.4326C19.32 31.8525 19.5277 31.2293 19.563 30.6335C19.5904 30.4845 19.5865 30.3395 19.5787 30.1945C19.5787 30.1239 19.5787 30.0495 19.5748 29.9789V29.8888C19.5748 29.8496 19.563 29.8104 19.5591 29.7751L19.5199 29.5595C19.418 29.0147 19.2886 28.3914 19.2925 28.2229C19.4297 28.4267 19.5669 28.6305 19.7002 28.8304L19.7982 28.9755C19.8335 29.0264 19.8648 29.0735 19.8805 29.0931L20.0138 29.2538C20.1 29.3518 20.1901 29.4929 20.2646 29.5125C20.296 29.5242 20.3273 29.5477 20.3626 29.5556C20.4959 29.6026 20.637 29.5752 20.7624 29.5164C21.0211 29.3988 21.1975 29.1636 21.3112 28.9716C21.5385 28.5717 21.5385 28.2817 21.5934 28.2856L21.5855 28.2817Z" fill="#22613C"/>
<path d="M25.6071 42.8197C25.6699 42.9451 25.1721 43.2901 24.4548 43.294C23.7335 43.3057 23.2318 42.9412 23.3024 42.8197C23.3651 42.6864 23.8551 42.7883 24.4548 42.7766C25.0505 42.7766 25.5523 42.6825 25.6111 42.8197H25.6071Z" fill="#225D31"/>
<path d="M25.2033 43.5684C25.2504 43.7016 25.0701 43.8937 24.7683 43.9525C24.4665 44.0074 24.2195 43.8858 24.2234 43.7447C24.2274 43.5997 24.4351 43.49 24.6742 43.4468C24.9172 43.3998 25.1563 43.4351 25.2033 43.5723V43.5684Z" fill="#225D31"/>
<path d="M30.8516 38.3826C30.9927 38.3082 31.3102 38.9314 31.0907 39.68C30.9966 40.0406 30.7379 40.4091 30.4008 40.464C30.3263 40.4836 30.2558 40.4718 30.197 40.464C30.1382 40.4561 30.0951 40.4326 30.0637 40.4091C29.9971 40.3621 29.9736 40.3229 29.9853 40.2915C30.0049 40.217 30.1656 40.2131 30.2832 40.123C30.3969 40.0485 30.5106 39.8368 30.5929 39.5429C30.6752 39.2528 30.7144 38.9667 30.7418 38.7589C30.7732 38.5512 30.781 38.4179 30.8516 38.3866V38.3826Z" fill="#225D31"/>
<path d="M30.2754 38.7275C30.1461 38.6569 30.1422 38.4139 30.0795 38.1788C30.0246 37.9357 29.9344 37.6731 30.0442 37.5751C30.1383 37.4811 30.4714 37.63 30.5812 38.0612C30.6321 38.2728 30.5851 38.4806 30.5067 38.5942C30.4283 38.7157 30.3342 38.7549 30.2715 38.7275H30.2754Z" fill="#225D31"/>
<path d="M35.0613 43.1097C35.1044 43.1606 35.0299 43.3214 34.8222 43.4977C34.6184 43.6741 34.2734 43.8505 33.8658 43.9211C33.4581 43.9916 33.0779 43.9407 32.8271 43.8466C32.5723 43.7525 32.4469 43.6349 32.4665 43.5722C32.5174 43.435 33.0975 43.5369 33.7795 43.4115C34.4616 43.3057 34.9633 43.0039 35.0613 43.1097Z" fill="#225D31"/>
<path d="M35.9235 41.9534C35.9549 42.0161 35.8726 42.1337 35.708 42.263C35.5394 42.3924 35.2846 42.5492 34.9436 42.6315C34.7751 42.6707 34.5987 42.6824 34.4341 42.6628C34.2695 42.6354 34.1205 42.5766 34.0225 42.4943C33.8187 42.3297 33.7991 42.1611 33.8501 42.1258C33.9088 42.0788 34.0304 42.1415 34.1911 42.1689C34.3478 42.2042 34.5556 42.1925 34.826 42.1297C35.3591 41.9886 35.8608 41.8123 35.9275 41.9534H35.9235Z" fill="#225D31"/>
<path d="M31.2005 50.0827C31.2397 50.1141 31.1809 50.408 30.7341 50.655C30.6204 50.7099 30.4714 50.7451 30.3107 50.7373C30.1539 50.7255 29.9932 50.6667 29.8521 50.5844C29.5699 50.4159 29.3504 50.1572 29.1623 49.8828C28.7938 49.3223 28.6057 48.7657 28.492 48.3581C28.3862 47.9504 28.3666 47.6878 28.4293 47.6643C28.4959 47.6408 28.641 47.8642 28.8291 48.2248C29.0212 48.5854 29.2603 49.0989 29.5856 49.5967C29.7502 49.8436 29.9227 50.0553 30.103 50.1846C30.2794 50.3179 30.444 50.3453 30.6047 50.314C30.93 50.2317 31.1378 50.0239 31.1966 50.0866L31.2005 50.0827Z" fill="#225D31"/>
<path d="M30.7379 49.5065C30.8085 49.628 30.6791 49.8397 30.3969 49.8789C30.2597 49.8946 30.1225 49.8515 30.0481 49.7809C29.9697 49.7104 29.9579 49.628 29.9893 49.5653C30.0716 49.4438 30.197 49.3889 30.3381 49.3654C30.4871 49.3497 30.6674 49.3811 30.7379 49.5065Z" fill="#225D31"/>
<path d="M34.2538 60.3993C34.2695 60.4228 34.1833 60.5365 33.952 60.6619C33.8932 60.6893 33.8266 60.7207 33.7482 60.7481C33.6659 60.7599 33.5757 60.7834 33.4777 60.7873C33.2817 60.7795 33.0387 60.7364 32.8388 60.5913C32.4116 60.3209 32.1254 59.8192 31.902 59.2665C31.6864 58.706 31.5532 58.0671 31.4905 57.389C31.3846 56.0445 31.5571 54.7511 32.1686 53.9789C32.3371 53.8025 32.5135 53.6496 32.7134 53.5987C32.9015 53.536 33.0818 53.5438 33.2073 53.5791C33.466 53.6418 33.5718 53.7476 33.56 53.7711C33.5444 53.8143 33.4072 53.7711 33.1877 53.779C32.9643 53.7751 32.6742 53.8809 32.4586 54.2023C32.0353 54.8608 31.902 56.0759 32.0079 57.3459C32.0667 57.9848 32.1803 58.5884 32.3528 59.1058C32.5292 59.6153 32.7604 60.0661 33.0544 60.2934C33.3405 60.5365 33.6659 60.5365 33.8854 60.4737C34.1049 60.4189 34.2342 60.364 34.2538 60.3993Z" fill="#225D31"/>
<path d="M33.564 59.537C33.5052 59.4899 33.6188 59.2312 33.6188 58.757C33.6267 58.2827 33.56 57.6203 33.4738 56.8716C33.3719 56.1347 33.3915 55.3939 33.317 54.9823C33.2935 54.5865 32.8976 54.9 32.8741 54.8099C32.8545 54.7864 32.8819 54.704 33.0113 54.6021C33.0623 54.5512 33.2034 54.4963 33.3484 54.5316C33.4189 54.5512 33.4934 54.61 33.5483 54.6688C33.5992 54.7315 33.6345 54.7942 33.6659 54.8648C33.7795 55.1352 33.8148 55.4409 33.8619 55.7623C33.9011 56.0877 33.9442 56.4444 33.9912 56.8167C34.0774 57.5732 34.0892 58.2827 33.9834 58.7962C33.9285 59.0549 33.8462 59.2587 33.7599 59.3841C33.6698 59.5095 33.5953 59.5566 33.5679 59.537H33.564Z" fill="#225D31"/>
<path d="M31.4278 59.4193C31.4278 59.4781 31.1456 59.5448 30.6909 59.4468C30.2441 59.3488 29.6405 59.0039 29.2367 58.4198C28.8291 57.8397 28.6605 57.2361 28.5861 56.801C28.5155 56.3659 28.5351 56.0916 28.6018 56.0759C28.6762 56.0602 28.7821 56.3111 28.9388 56.6991C29.0956 57.0872 29.3112 57.6202 29.6601 58.1141C30.0089 58.6119 30.4518 58.9255 30.8124 59.0979C31.177 59.2665 31.4357 59.337 31.4278 59.4154V59.4193Z" fill="#225D31"/>
<path d="M30.8516 60.2268C30.8634 60.364 30.4949 60.5051 30.0677 60.3326C29.6404 60.1602 29.4758 59.7956 29.5817 59.7094C29.6914 59.6114 29.9579 59.7368 30.2598 59.8544C30.5616 59.9799 30.8399 60.0818 30.8477 60.2268H30.8516Z" fill="#225D31"/>
<path d="M35.2926 70.0298C35.3396 70.0768 35.2024 70.3159 34.8575 70.5824C34.5165 70.849 33.956 71.1116 33.2975 71.1978C32.639 71.2841 32.0275 71.1704 31.6316 70.9901C31.2318 70.8137 31.0476 70.606 31.0829 70.5511C31.1221 70.4844 31.3612 70.5668 31.7414 70.6412C32.1216 70.7157 32.6507 70.7588 33.2308 70.6843C33.8109 70.606 34.3166 70.4335 34.6693 70.2689C35.0221 70.1082 35.2377 69.9749 35.2926 70.0298Z" fill="#225D31"/>
<path d="M34.5987 69.1636C34.6418 69.2185 34.6026 69.3361 34.4733 69.4576C34.3478 69.5791 34.1244 69.7045 33.8461 69.7437C33.5678 69.779 33.3091 69.7085 33.1563 69.6105C32.9995 69.5086 32.9485 69.3988 32.9799 69.3361C33.0622 69.2146 33.3954 69.2891 33.7756 69.2303C34.1636 69.1832 34.5007 69.05 34.5948 69.1636H34.5987Z" fill="#225D31"/>
<path d="M34.9476 67.4351C34.9751 67.5762 34.8065 67.7251 34.5674 67.7761C34.3283 67.827 34.1128 67.7486 34.0853 67.6075C34.0579 67.4664 34.2264 67.3136 34.4655 67.2665C34.7046 67.2195 34.9202 67.294 34.9476 67.4351Z" fill="#225D31"/>
<path d="M31.7178 76.1954C31.7256 76.3248 31.0357 76.5325 30.1225 76.4581C29.6678 76.4149 29.2601 76.2738 29.0015 76.1092C28.7428 75.9485 28.6252 75.7878 28.6644 75.729C28.7506 75.6114 29.3542 75.8819 30.1734 75.9407C30.9926 76.0073 31.7138 76.0347 31.7178 76.1915V76.1954Z" fill="#225D31"/>
<path d="M30.7967 77.8104C30.8516 77.9437 30.4126 78.2024 29.8403 78.1749C29.2759 78.1553 28.8683 77.9437 28.8957 77.8104C28.9232 77.6654 29.3582 77.6458 29.856 77.6575C30.3499 77.681 30.7497 77.6732 30.8007 77.8104H30.7967Z" fill="#225D31"/>
<path d="M34.7164 50.5452C34.7477 50.604 34.6928 50.7177 34.5321 50.8C34.3714 50.8823 34.1167 50.9059 33.8736 50.8392C33.3837 50.6981 33.1446 50.3689 33.2191 50.2591C33.2975 50.1337 33.6463 50.2395 34.0069 50.3414C34.1872 50.3924 34.3401 50.4198 34.4616 50.4433C34.5831 50.4669 34.685 50.4825 34.7164 50.5492V50.5452Z" fill="#225D31"/>
<path d="M34.5988 48.9893C34.5988 49.1304 34.3675 49.2519 34.0696 49.2401C33.7678 49.2283 33.5365 49.0716 33.564 48.9305C33.5914 48.7894 33.8188 48.711 34.0931 48.7227C34.3675 48.7345 34.6027 48.8442 34.6027 48.9893H34.5988Z" fill="#225D31"/>
<path d="M33.2151 59.0196C33.1798 59.0705 32.9407 58.9804 32.7134 58.6668C32.4821 58.3572 32.3175 57.8437 32.3096 57.2753C32.3018 56.7109 32.4429 56.2053 32.6193 55.8799C32.7957 55.5507 32.9917 55.4057 33.0426 55.4449C33.1053 55.488 33.0309 55.6918 32.9603 56.0093C32.8858 56.3268 32.8192 56.7736 32.8231 57.2675C32.8309 57.7614 32.9172 58.1964 33.0309 58.4904C33.1367 58.7883 33.2621 58.9569 33.2112 59.0196H33.2151Z" fill="#225D31"/>
<path d="M41.0544 35.9015C41.0623 35.9682 40.9799 36.0505 40.8036 36.0779C40.635 36.1014 40.3567 36.0505 40.1568 35.8035C39.953 35.5488 40 35.2156 40.0941 35.0745C40.1921 34.9216 40.3058 34.8863 40.3606 34.9177C40.4234 34.9569 40.4312 35.0588 40.443 35.1764C40.4586 35.294 40.49 35.3959 40.5605 35.4821C40.7016 35.6781 41.0348 35.7565 41.0505 35.8976L41.0544 35.9015Z" fill="#225D31"/>
<path d="M42.1519 35.6153C42.1833 35.7446 41.807 35.9485 41.3249 35.7642C41.0897 35.6702 40.9211 35.4899 40.8584 35.3331C40.7957 35.1763 40.8192 35.0665 40.8819 35.0352C41.0191 34.9842 41.223 35.1763 41.5169 35.2821C41.8109 35.4036 42.1284 35.4663 42.148 35.6114L42.1519 35.6153Z" fill="#225D31"/>
<path d="M37.711 32.1542C37.711 32.2953 37.4954 32.4208 37.1897 32.3972C36.88 32.3698 36.6762 32.1699 36.7272 32.0406C36.7781 31.9073 36.9976 31.8642 37.2367 31.8838C37.4797 31.9034 37.711 32.0092 37.7071 32.1542H37.711Z" fill="#225D31"/>
<path d="M7.11034 18.3258C7.1025 18.412 6.72229 18.4002 6.21666 18.6511C5.7071 18.8863 5.1074 19.4389 4.64488 20.1876C4.41362 20.5639 4.24899 20.948 4.12357 21.3086C4.01774 21.6731 3.93542 22.0063 3.92758 22.2924C3.88447 22.8647 4.0099 23.2175 3.92758 23.2528C3.88055 23.2841 3.61401 22.947 3.55914 22.2964C3.51994 21.971 3.5709 21.5908 3.66105 21.1753C3.77472 20.7677 3.94718 20.3326 4.20196 19.9171C4.46458 19.5056 4.76639 19.145 5.09172 18.8706C5.42489 18.604 5.76198 18.4002 6.07947 18.3101C6.71445 18.1141 7.12602 18.2748 7.10642 18.3258H7.11034Z" fill="#457643"/>
<path d="M9.26605 18.1181C9.26605 18.2592 8.99167 18.3768 8.65066 18.3768C8.30965 18.3768 8.03528 18.2592 8.03528 18.1181C8.03528 17.977 8.30965 17.8594 8.65066 17.8594C8.99167 17.8594 9.26605 17.973 9.26605 18.1181Z" fill="#457643"/>
<path d="M16.3175 8.98138C16.3136 9.06761 16.0196 9.06761 15.6551 9.22832C15.4748 9.31063 15.2867 9.44782 15.1142 9.63988C14.9496 9.8437 14.8085 10.0985 14.7026 10.3925C14.4949 10.9922 14.4635 11.5879 14.4753 12.0152C14.487 12.4424 14.5419 12.7129 14.4674 12.7442C14.4087 12.7717 14.2205 12.5287 14.1108 12.0622C14.001 11.6036 13.9696 10.9255 14.2127 10.2161C14.3381 9.86722 14.5302 9.54973 14.7653 9.31063C15.0084 9.07545 15.2906 8.93042 15.5375 8.87555C15.7844 8.82459 15.9883 8.83243 16.1176 8.87555C16.2509 8.91082 16.3175 8.9461 16.3136 8.98138H16.3175Z" fill="#457643"/>
<path d="M16.933 10.2827C16.8311 10.3807 16.6233 10.3376 16.443 10.1965C16.2627 10.0554 16.1726 9.85545 16.247 9.73394C16.3254 9.61243 16.5606 9.63203 16.7605 9.78882C16.9643 9.9456 17.0349 10.1847 16.929 10.2827H16.933Z" fill="#457643"/>
<path d="M9.67767 11.1724C9.54049 11.1685 9.52089 10.2513 10.1088 9.31841C10.2578 9.09107 10.4342 8.88725 10.6223 8.73047C10.8183 8.58152 11.0182 8.46393 11.2063 8.42473C11.5826 8.33066 11.81 8.44433 11.8021 8.50313C11.7982 8.58152 11.5905 8.6168 11.3435 8.76574C11.0887 8.90685 10.8026 9.20082 10.5439 9.60063C10.0304 10.4081 9.8227 11.1959 9.68159 11.1724H9.67767Z" fill="#457643"/>
<path d="M27.8804 2.34149C27.8569 2.41988 27.5316 2.36108 27.0259 2.4042C26.7751 2.41596 26.4772 2.48651 26.1519 2.56882C25.8305 2.66682 25.4855 2.80008 25.1367 2.97647C24.439 3.33316 23.8706 3.76824 23.4865 4.11317C23.0985 4.45809 22.8829 4.70895 22.8162 4.66584C22.7614 4.63448 22.875 4.30131 23.22 3.86231C23.561 3.42331 24.1411 2.89808 24.9054 2.51395C25.2895 2.32581 25.6737 2.18862 26.0382 2.10631C26.4066 2.03967 26.7437 2.0044 27.0259 2.03967C27.5943 2.09063 27.9039 2.28661 27.8804 2.34149Z" fill="#457643"/>
<path d="M27.8805 2.89021C27.857 3.03524 27.5277 3.09012 27.1867 3.18811C26.8457 3.27826 26.5439 3.40761 26.442 3.30178C26.344 3.20771 26.5556 2.83142 27.0456 2.69031C27.5355 2.55704 27.9079 2.75695 27.8805 2.89021Z" fill="#457643"/>
<path d="M31.6472 3.85056C31.5297 3.93679 31.0946 3.54875 30.4792 3.20382C29.8716 2.84321 29.319 2.69034 29.3229 2.54924C29.3268 2.47868 29.4914 2.41989 29.7619 2.43949C30.0284 2.45516 30.389 2.55707 30.7379 2.75698C31.4513 3.15678 31.7727 3.77609 31.6512 3.85056H31.6472Z" fill="#457643"/>
<path d="M29.7305 12.266C29.6992 12.3366 29.3738 12.2425 28.8564 12.1602C28.339 12.074 27.61 12.0152 26.83 12.1171C26.4419 12.1719 26.0813 12.2699 25.7677 12.3836C25.462 12.5169 25.1916 12.6541 24.9956 12.8148C24.5879 13.1205 24.3998 13.4027 24.3253 13.3596C24.2744 13.34 24.3488 12.9716 24.7486 12.5404C24.9407 12.317 25.2347 12.1249 25.5757 11.9485C25.9245 11.7878 26.3283 11.6663 26.7594 11.6036C27.6257 11.4899 28.4135 11.6193 28.9427 11.8035C29.4797 11.9877 29.7579 12.2072 29.7305 12.2621V12.266Z" fill="#457643"/>
<path d="M26.3087 17.538C26.3322 17.6125 26.0892 17.7418 25.7952 18.0319C25.4934 18.318 25.1563 18.7884 24.8819 19.3763C24.3136 20.5561 24.2587 21.6379 24.1215 21.6458C24.0549 21.6536 23.9647 21.3675 23.9765 20.905C23.9883 20.4424 24.1137 19.8035 24.4155 19.1568C24.7173 18.514 25.1602 17.9966 25.5718 17.7457C25.9834 17.487 26.2969 17.4792 26.3087 17.5419V17.538Z" fill="#457643"/>
<path d="M27.7472 16.9892C27.7472 17.1342 27.5316 17.24 27.3121 17.2988C27.0926 17.3498 26.8849 17.3733 26.7908 17.2636C26.6928 17.1577 26.8496 16.8833 27.1828 16.7971C27.5042 16.7148 27.755 16.8481 27.7511 16.9892H27.7472Z" fill="#457643"/>
<path d="M6.73401 27.7329C6.67914 27.7212 6.6909 27.3175 6.99271 26.753C7.13774 26.4708 7.37684 26.169 7.67865 25.875C7.99222 25.5928 8.37635 25.3263 8.81927 25.1225C9.26611 24.9304 9.7247 24.8246 10.148 24.7893C10.5713 24.7658 10.9555 24.805 11.2612 24.8951C11.8805 25.0715 12.1706 25.3537 12.1392 25.4008C12.1 25.4752 11.7551 25.3224 11.1867 25.2557C10.9045 25.2165 10.5635 25.2204 10.1951 25.2636C9.82662 25.3224 9.42681 25.4243 9.02701 25.5967C8.63112 25.777 8.28619 26.0005 7.99222 26.2317C7.70609 26.4747 7.46699 26.7178 7.29844 26.949C6.9496 27.4037 6.81241 27.7525 6.73401 27.729V27.7329Z" fill="#457643"/>
<path d="M5.91085 30.5393C5.77758 30.5393 5.62863 30.0886 5.65999 29.4732C5.67959 29.1675 5.76974 28.8853 5.88733 28.7049C6.001 28.5246 6.12643 28.4502 6.18522 28.4854C6.30281 28.5678 6.2009 28.9715 6.17738 29.5085C6.14995 30.0494 6.06371 30.5433 5.91085 30.5393Z" fill="#457643"/>
<path d="M3.72366 40.6011C3.68054 40.6442 3.33953 40.4012 3.00636 39.825C2.82998 39.5428 2.69279 39.1744 2.57128 38.755C2.46937 38.3316 2.40274 37.8534 2.40666 37.3517C2.41842 36.85 2.50073 36.3718 2.61832 35.9524C2.75551 35.5369 2.90837 35.1724 3.10044 34.898C3.46496 34.3414 3.82557 34.1219 3.86477 34.1651C3.92356 34.2239 3.6727 34.5257 3.42185 35.0744C3.28466 35.3449 3.18275 35.6898 3.08084 36.0739C2.99853 36.462 2.93581 36.8971 2.92797 37.3596C2.92797 37.8221 2.97109 38.2572 3.04164 38.6491C3.12787 39.0372 3.21803 39.3899 3.33953 39.6643C3.56295 40.2288 3.79029 40.5462 3.72758 40.6011H3.72366Z" fill="#457643"/>
<path d="M1.66978 36.8382C1.53651 36.8421 1.37973 36.266 1.55219 35.5447C1.64234 35.1881 1.81089 34.8823 1.98335 34.7059C2.1519 34.5256 2.30476 34.4668 2.35572 34.51C2.45763 34.6158 2.19501 35.0548 2.05783 35.6702C1.90888 36.2856 1.82265 36.8343 1.6737 36.8343L1.66978 36.8382Z" fill="#457643"/>
<path d="M18.0971 31.1548C18.1558 31.1822 18.0853 31.535 17.8227 32.0524C17.6894 32.3111 17.5052 32.609 17.2347 32.9029C16.9682 33.1969 16.5998 33.4791 16.1412 33.632C15.9099 33.7025 15.6786 33.7496 15.4395 33.7378C15.2083 33.73 14.9927 33.6829 14.8006 33.6124C14.4126 33.4752 14.1069 33.2518 13.903 33.0166C13.6953 32.7853 13.5973 32.5462 13.562 32.3816C13.5267 32.2131 13.5463 32.119 13.5777 32.1112C13.66 32.0916 13.758 32.4326 14.1578 32.754C14.538 33.0676 15.2749 33.389 15.9765 33.1381C16.6977 32.8951 17.1838 32.2836 17.5091 31.8564C17.8344 31.4135 18.0265 31.1195 18.0931 31.1508L18.0971 31.1548Z" fill="#457643"/>
<path d="M17.1367 31.3625C17.0269 31.2567 17.3954 30.7511 17.5521 30.0534C17.7168 29.3596 17.607 28.7364 17.7521 28.6933C17.8187 28.6737 17.9324 28.8108 18.0186 29.0774C18.1048 29.34 18.1479 29.7437 18.0539 30.167C17.9559 30.5943 17.7403 30.9353 17.5482 31.1352C17.3522 31.3351 17.1876 31.4096 17.1367 31.3625Z" fill="#457643"/>
<path d="M30.4831 27.1881C30.5067 27.2155 30.4479 27.3017 30.3185 27.4389C30.197 27.5839 29.9736 27.7486 29.6757 27.921C29.37 28.07 28.9741 28.2307 28.5076 28.2503C28.0451 28.2816 27.5317 28.2072 27.0378 28.019C26.05 27.6271 25.3641 26.9333 24.98 26.3885C24.5919 25.8358 24.4743 25.4321 24.5292 25.4046C24.5998 25.3654 24.831 25.6986 25.2622 26.1533C25.6933 26.608 26.3558 27.1881 27.2259 27.533C27.661 27.6976 28.0961 27.7682 28.488 27.7682C28.8879 27.776 29.2367 27.6702 29.5268 27.58C29.809 27.4664 30.0441 27.3605 30.197 27.2704C30.3577 27.1881 30.4596 27.1528 30.4831 27.1802V27.1881Z" fill="#457643"/>
<path d="M30.5536 26.0906C30.6124 26.2121 30.4165 26.4747 29.9971 26.6041C29.7854 26.6629 29.5659 26.6472 29.4326 26.5806C29.2954 26.5178 29.2366 26.4277 29.2562 26.3611C29.2758 26.2905 29.366 26.2513 29.4718 26.216C29.5816 26.1808 29.707 26.1455 29.8599 26.1024C30.1617 26.0122 30.4909 25.9495 30.5576 26.0867L30.5536 26.0906Z" fill="#457643"/>
<path d="M42.6654 25.4086C42.7046 25.4595 42.4459 25.7261 41.9168 25.9456C41.3916 26.1651 40.5919 26.3415 39.7022 26.2004C39.2593 26.122 38.8438 25.9573 38.5185 25.7143C38.1931 25.4595 37.9932 25.1303 37.9031 24.8402C37.8247 24.5463 37.8129 24.3072 37.8521 24.1465C37.8796 23.9858 37.9109 23.9034 37.9462 23.9034C37.9815 23.9034 38.0207 23.9936 38.0559 24.1386C38.0795 24.2836 38.1461 24.4875 38.248 24.707C38.3617 24.9265 38.5381 25.1499 38.8007 25.3302C39.0711 25.4987 39.4121 25.6242 39.7923 25.6947C40.5645 25.8201 41.2975 25.7182 41.807 25.6006C42.3205 25.4831 42.6262 25.3459 42.6694 25.4086H42.6654Z" fill="#457643"/>
<path d="M40.6115 11.8544C40.537 11.874 40.4234 11.6741 40.1999 11.3997C39.9804 11.1214 39.6355 10.7687 39.2044 10.4394C38.7693 10.1102 38.342 9.87106 38.0128 9.73388C37.6875 9.58885 37.464 9.53789 37.464 9.46342C37.4601 9.39679 37.711 9.31447 38.1147 9.38111C38.5145 9.4399 39.0358 9.66332 39.5179 10.0278C40 10.3963 40.3489 10.8392 40.5135 11.2077C40.686 11.5761 40.6781 11.8387 40.6115 11.8544Z" fill="#457643"/>
<path d="M41.9129 13.5007C41.7678 13.5007 41.6659 13.2067 41.5875 12.8853C41.517 12.5639 41.4582 12.2895 41.5719 12.1994C41.6816 12.1092 41.9913 12.3405 42.0892 12.7638C42.1872 13.1793 42.0501 13.5086 41.9129 13.5007Z" fill="#457643"/>
<path d="M42.5987 5.76722C42.5047 5.87305 41.7599 5.36349 40.686 5.15967C40.1568 5.04992 39.6669 5.02248 39.3141 5.03816C38.9613 5.04992 38.7301 5.0852 38.6987 5.01464C38.6713 4.95585 38.8672 4.7873 39.2553 4.67755C39.6394 4.56388 40.1999 4.53253 40.7918 4.65404C41.3837 4.77946 41.8815 5.02248 42.195 5.2655C42.5125 5.5046 42.6458 5.72018 42.5987 5.77114V5.76722Z" fill="#457643"/>
<path d="M43.077 7.20174C42.9476 7.26837 42.6066 6.87641 42.0618 6.57067C41.5287 6.24926 41.0192 6.11599 41.0231 5.97097C41.027 5.90041 41.176 5.84162 41.4229 5.84946C41.6659 5.85338 42.003 5.93569 42.3244 6.12775C42.6458 6.3159 42.8849 6.57459 43.0025 6.79017C43.124 7.00575 43.1358 7.16646 43.077 7.20174Z" fill="#457643"/>
<path d="M56.1489 16.1661C56.0745 16.1974 55.8471 15.7741 55.3846 15.1705C54.926 14.5708 54.2126 13.779 53.2523 13.1675C52.7702 12.8697 52.2763 12.658 51.806 12.5443C51.5708 12.513 51.3435 12.4542 51.1318 12.4698C51.026 12.4698 50.9201 12.4581 50.8221 12.4738C50.7242 12.4894 50.6301 12.5012 50.5399 12.5169C50.3557 12.5286 50.2068 12.611 50.0617 12.6423C49.9167 12.6776 49.803 12.7403 49.705 12.7834C49.5091 12.8697 49.3876 12.9049 49.368 12.8775C49.3444 12.8501 49.4268 12.756 49.5992 12.611C49.6854 12.5404 49.7913 12.4424 49.9402 12.3797C50.0892 12.3131 50.246 12.2033 50.4498 12.1602C50.5517 12.1328 50.6536 12.1053 50.7633 12.0779C50.8731 12.0504 50.9907 12.0544 51.1161 12.0387C51.3631 12.0034 51.6218 12.0504 51.8961 12.074C52.4331 12.1759 52.9976 12.4032 53.5228 12.7285C54.5732 13.3949 55.2788 14.2807 55.6825 14.9627C56.0901 15.6526 56.1999 16.1426 56.1411 16.1622L56.1489 16.1661Z" fill="#457643"/>
<path d="M54.781 16.2365C54.7066 16.2287 54.6595 16.1072 54.5851 15.9543C54.5106 15.8014 54.393 15.6172 54.2088 15.4291C53.8443 15.0567 53.4248 14.8019 53.4797 14.6608C53.5189 14.5354 54.0833 14.5746 54.5811 15.0685C54.8242 15.3154 54.9496 15.6447 54.9417 15.8798C54.9378 16.1189 54.8477 16.2444 54.781 16.2326V16.2365Z" fill="#457643"/>
<path d="M54.0284 26.7766C53.9578 26.7648 53.9618 26.4081 54.0049 25.8437C54.0441 25.2832 54.1342 24.511 54.0715 23.6918C54.0362 23.2842 53.95 22.9079 53.8285 22.5865C53.7031 22.2651 53.5267 22.0103 53.3542 21.8104C53.0014 21.4184 52.6879 21.2421 52.7271 21.1637C52.7428 21.1323 52.8329 21.1441 52.9936 21.195C53.1543 21.2421 53.3699 21.3596 53.609 21.5439C53.8403 21.7398 54.0872 22.0221 54.2636 22.3905C54.436 22.759 54.5458 23.1901 54.585 23.6448C54.6516 24.5542 54.4948 25.3459 54.3655 25.8986C54.2283 26.4552 54.099 26.7844 54.0284 26.7727V26.7766Z" fill="#457643"/>
<path d="M54.8476 28.2818C54.7144 28.223 54.7575 27.8702 54.8359 27.4939C54.9182 27.1215 54.9809 26.8001 55.122 26.7727C55.2592 26.7413 55.4434 27.1215 55.3415 27.5958C55.2435 28.0623 54.9731 28.3366 54.8476 28.2778V28.2818Z" fill="#457643"/>
<path d="M61.4876 37.1793C61.4131 37.195 61.2877 36.8775 61.0368 36.4032C60.7899 35.925 60.4018 35.2939 59.8962 34.6511C59.3827 34.0122 58.8536 33.4909 58.4459 33.142C58.0383 32.7893 57.76 32.5933 57.7913 32.5267C57.8188 32.4679 58.1676 32.5502 58.6576 32.8481C59.1475 33.1381 59.759 33.6516 60.2999 34.3297C60.8408 35.0078 61.2054 35.7173 61.3739 36.2621C61.5503 36.8069 61.5503 37.1675 61.4876 37.1793Z" fill="#457643"/>
<path d="M60.2567 33.6868C60.1117 33.6947 59.9667 33.1655 59.7315 32.5541C59.5042 31.9348 59.2572 31.4526 59.367 31.3625C59.4728 31.2645 59.9549 31.6761 60.2136 32.3738C60.4802 33.0675 60.3978 33.6908 60.2567 33.6908V33.6868Z" fill="#457643"/>
<path d="M59.9118 41.8319C59.9667 41.8554 59.8805 42.2591 59.5159 42.8118C59.1514 43.3527 58.489 44.0347 57.5326 44.4306C57.0544 44.6187 56.5527 44.7011 56.1019 44.6736C55.6472 44.6462 55.2553 44.4933 54.9613 44.3248C54.6752 44.1445 54.4713 43.9602 54.3655 43.8074C54.2518 43.6624 54.2048 43.5722 54.2322 43.5448C54.2597 43.5212 54.3538 43.5644 54.5027 43.6545C54.6438 43.7564 54.8594 43.874 55.1259 43.9955C55.4003 44.1014 55.7335 44.1993 56.1176 44.1954C56.4978 44.1954 56.9211 44.1131 57.3405 43.9485C58.1793 43.6036 58.8221 43.0352 59.2298 42.5845C59.6414 42.1337 59.8413 41.7966 59.9157 41.8319H59.9118Z" fill="#457643"/>
<path d="M58.5438 41.7653C58.4654 41.6399 58.7124 41.3498 58.8025 40.9304C58.9044 40.5032 58.9397 40.0681 59.0926 40.0563C59.2219 40.0367 59.4375 40.46 59.3042 41.0597C59.2337 41.3537 59.0495 41.5967 58.8848 41.7026C58.7163 41.8162 58.587 41.8202 58.5438 41.7653Z" fill="#457643"/>
</g>
<defs>
<clipPath id="clip0_613_14850">
<rect width="62.7379" height="80" fill="white" transform="translate(0 0.949951)"/>
</clipPath>
</defs>
</svg>
