<svg width="71" height="81" viewBox="0 0 71 81" fill="none" xmlns="http://www.w3.org/2000/svg">
<g clip-path="url(#clip0_613_14772)">
<path d="M13.1442 16.585C21.1757 44.3182 46.9646 51.4719 37.6778 79.5824C40.6271 81.2765 45.0818 79.7095 45.0818 79.7095C51.3577 50.8482 20.4865 41.0571 14.0875 15.9613" fill="#243628"/>
<path d="M25.1299 15.2029C23.4974 18.8413 20.6136 27.7508 22.6196 33.8996C23.6245 35.6553 24.3753 36.0326 24.3753 36.0326C22.993 31.8898 23.6245 21.7252 26.258 15.3261" fill="#243628"/>
<path d="M20.1092 14.8256C20.987 17.9635 23.6244 20.9744 23.6244 20.9744L24.252 19.4689C24.252 19.4689 21.3644 16.7083 20.6136 14.4482" fill="#243628"/>
<path d="M17.5988 35.7822C20.6097 42.5586 25.8807 46.1971 31.6522 45.8236C32.7803 46.8285 32.9073 47.3291 32.9073 47.3291C27.1359 47.5793 20.3595 46.201 15.8393 35.532C15.8393 35.7822 17.595 35.7822 17.595 35.7822H17.5988Z" fill="#243628"/>
<path d="M11.0111 36.0326C12.6436 38.5429 16.2205 40.7376 19.6087 40.7376C20.1092 41.4922 20.6136 42.0543 20.6136 42.0543C16.7248 43.0593 11.3268 37.977 10.449 36.7218" fill="#243628"/>
<path d="M35.2945 48.8345C38.6827 49.2118 48.597 38.9202 48.7241 19.7191C49.3517 19.7191 49.8522 19.8462 49.8522 19.8462C50.8571 26.3723 47.9694 36.664 40.5655 48.2069C38.4324 50.8405 42.3212 53.4779 44.2039 63.5154C38.6827 54.479 37.3005 53.1006 35.2945 48.8345Z" fill="#243628"/>
<path d="M39.8108 23.4846C39.6837 30.134 41.9438 38.9202 44.5812 40.2986C44.5812 39.5439 45.332 38.1655 45.332 38.1655C43.199 38.9202 40.9389 30.3842 40.9389 22.73" fill="#243628"/>
<path d="M43.8266 21.7289C43.5763 24.9901 42.4482 29.26 41.1931 30.3881L41.3201 31.7703C43.5802 31.1427 44.9586 25.3712 44.9586 20.8511" fill="#243628"/>
<path d="M48.8473 26.6226C52.9863 24.1738 54.8074 21.7906 55.5621 19.6575C56.9404 18.9029 56.5015 20.724 56.5015 20.724C53.868 25.1171 48.7202 28.6286 48.7202 28.6286" fill="#243628"/>
<path d="M6.30616 39.1704C10.3219 36.6601 23.8747 35.7822 29.523 37.5379C32.0334 34.2768 29.396 29.3793 24.8796 34.1497C23.2472 26.3684 12.9593 27.2463 12.9593 34.4C7.56133 29.002 1.41252 35.2779 6.31001 39.1704H6.30616Z" fill="#31B079"/>
<path d="M16.721 24.3009C16.7056 24.3625 16.0819 24.247 15.1732 23.8043C14.2684 23.3653 13.0864 22.6338 11.9159 21.6481C10.7416 20.6702 9.80987 19.6306 9.22463 18.8144C8.6394 17.9981 8.38529 17.4244 8.43919 17.3936C8.50849 17.3513 8.86271 17.848 9.5057 18.591C10.1487 19.3303 11.092 20.3005 12.2432 21.2554C13.3867 22.218 14.511 22.9765 15.3465 23.4847C16.182 23.9929 16.748 24.2239 16.721 24.2971V24.3009Z" fill="#243628"/>
<path d="M31.1516 15.9575C31.2094 15.9806 30.9745 16.7506 30.4085 17.9134C29.8502 19.08 28.9262 20.624 27.7249 22.191C26.5198 23.7581 25.3378 25.0787 24.406 25.9912C23.4627 26.8998 22.7081 27.2464 22.6811 27.1886C22.6388 27.1232 23.301 26.6842 24.1519 25.7409C24.9913 24.7899 26.1386 23.4269 27.3206 21.883C28.5065 20.3391 29.4575 18.8529 30.0928 17.7479C30.7319 16.6428 31.0823 15.9267 31.1516 15.9575Z" fill="#243628"/>
<path d="M17.4757 48.6459C20.2363 49.1465 35.7334 47.7681 36.6767 47.2021C37.6162 46.6361 36.1108 39.9252 30.089 44.1296C29.0225 40.2409 21.9304 40.6144 23.124 46.3897C20.8023 42.2507 14.9037 45.1345 17.4757 48.6498V48.6459Z" fill="#31B079"/>
<path d="M61.4568 22.6068C61.5261 22.7415 59.7242 23.681 57.2985 24.1854C54.8767 24.7167 52.8553 24.6089 52.8592 24.4895C52.8553 24.3317 54.8267 24.2123 57.1907 23.6887C59.5624 23.192 61.399 22.4874 61.4568 22.6068Z" fill="#243628"/>
<path d="M5.05097 20.724C9.31702 17.2088 24.3753 13.0698 31.4058 19.3418C37.4275 22.2911 38.8714 8.86533 31.1555 11.1832C33.1615 -1.49178 27.1397 -0.864192 21.4914 2.27374C15.8432 5.41168 17.4756 10.3053 17.4756 10.3053C13.9604 4.27971 8.31211 11.3102 12.7052 13.8206C0.280537 9.43131 -3.35793 19.0915 5.05097 20.724Z" fill="#4ECA76"/>
<path d="M33.8506 29.5719C41.1276 20.9127 56.1858 16.331 67.2321 30.5114C72.1873 29.0675 72.6301 18.9645 64.1558 19.2803C66.5391 4.34522 53.8025 7.23289 51.2922 14.1364C46.9645 4.22202 38.1783 8.61513 38.8059 17.2088C34.7901 11.8147 26.6969 19.4689 33.8506 29.5719Z" fill="#31B079"/>
<path d="M43.0103 43.0014C45.3936 43.2517 50.9149 39.1743 53.3636 35.9747H54.1182C51.6079 40.3024 44.2039 44.5068 42.0093 44.6955C42.4482 44.3798 43.0142 43.0014 43.0142 43.0014H43.0103Z" fill="#243628"/>
<path d="M49.5365 34.2152C49.6096 34.2345 49.5711 34.5541 49.5403 35.0623C49.5095 35.5667 49.5057 36.2636 49.575 37.0336C49.7213 38.5699 49.9985 39.825 49.8483 39.8635C49.729 39.902 49.2207 38.6931 49.0667 37.076C48.9936 36.2713 49.0552 35.5282 49.1822 35.0084C49.3055 34.4886 49.471 34.196 49.5326 34.2152H49.5365Z" fill="#243628"/>
<path d="M49.4749 33.7148C46.9645 28.6325 39.6876 32.5828 44.6428 36.1597C47.1532 36.7872 57.8838 36.9143 59.0119 36.537C65.0336 32.5828 59.7011 29.7606 55.3734 33.2104C58.2611 26.1221 50.2295 28.4438 49.4749 33.7148Z" fill="#4ECA76"/>
<path d="M22.3693 2.84363C22.4039 2.91679 21.9727 3.1632 21.3682 3.65603C20.7676 4.14886 20.0245 4.94586 19.5432 6.01622C19.0658 7.09043 18.958 8.1762 18.9657 8.95394C18.9772 9.73554 19.062 10.2284 18.9811 10.2438C18.9233 10.2592 18.7154 9.79329 18.6076 8.97704C18.5037 8.1685 18.5576 6.97878 19.0774 5.80831C19.3392 5.22692 19.6895 4.72254 20.0553 4.31057C20.4211 3.8986 20.8138 3.59443 21.1565 3.36341C21.8534 2.91679 22.35 2.78588 22.3731 2.83978L22.3693 2.84363Z" fill="#31B079"/>
<path d="M26.0077 1.77703C26.0116 1.85019 25.7536 1.93104 25.3609 2.11585C24.9643 2.29296 24.433 2.57788 23.894 2.95135C23.3626 3.33252 22.9352 3.74065 22.7389 4.09487C22.5271 4.44139 22.5156 4.7186 22.4347 4.7263C22.3808 4.74171 22.2461 4.42599 22.4116 3.94856C22.5656 3.47113 23.02 2.95135 23.6013 2.53938C24.1904 2.13125 24.7911 1.88099 25.2454 1.78088C25.7036 1.67308 26.0039 1.71543 26.0077 1.78088V1.77703Z" fill="#31B079"/>
<path d="M26.1348 2.52792C26.1656 2.66268 25.923 2.85134 25.5765 3.02075C25.2261 3.19016 24.8719 3.22482 24.818 3.09391C24.768 2.96685 24.999 2.73584 25.3609 2.56258C25.7267 2.38547 26.104 2.38932 26.1348 2.53177V2.52792Z" fill="#31B079"/>
<path d="M16.4092 10.9367C16.3437 10.9868 16.1319 10.7673 15.7046 10.5902C15.4967 10.4901 15.2233 10.4246 14.9268 10.363C14.6227 10.3245 14.2877 10.2937 13.9412 10.3399C13.5985 10.3861 13.2866 10.4824 13.0364 10.621C12.7976 10.775 12.6282 10.9598 12.5281 11.1562C12.4357 11.3487 12.378 11.5335 12.3626 11.6644C12.3356 11.7953 12.301 11.8762 12.2663 11.88C12.2317 11.8839 12.197 11.8107 12.1624 11.6644C12.12 11.522 12.12 11.2948 12.1932 11.0253C12.2702 10.7519 12.4742 10.4593 12.7784 10.2321C13.0864 10.0242 13.4714 9.88946 13.8796 9.83555C14.6997 9.74315 15.4351 9.97416 15.874 10.2745C16.3245 10.5748 16.4554 10.9098 16.4053 10.9367H16.4092Z" fill="#31B079"/>
<path d="M15.0269 11.5027C14.9807 11.6375 14.6958 11.6683 14.3531 11.6452C14.0105 11.6221 13.7063 11.5181 13.7063 11.3757C13.7063 11.2371 13.9989 11.1139 14.3878 11.137C14.7805 11.1601 15.0693 11.368 15.0231 11.4989L15.0269 11.5027Z" fill="#31B079"/>
<path d="M7.56131 14.2634C7.56131 14.3288 7.16089 14.4174 6.53715 14.6754C5.91342 14.9256 5.05097 15.2991 4.18852 15.8304C3.76114 16.0961 3.37612 16.3887 3.0989 16.6967C2.82169 17.0048 2.69078 17.332 2.75623 17.6015C2.81398 17.8749 3.00265 18.079 3.11815 18.2176C3.24906 18.3485 3.31836 18.437 3.29911 18.4678C3.27986 18.4986 3.17591 18.4678 2.99495 18.3716C2.83324 18.2638 2.56372 18.0905 2.41356 17.6978C2.34811 17.5053 2.33271 17.2627 2.40201 17.0317C2.47131 16.8045 2.59452 16.5889 2.74468 16.3964C3.05655 16.0114 3.46852 15.6841 3.92285 15.3992C4.8392 14.8332 5.75171 14.5021 6.42935 14.3327C7.10699 14.1556 7.56516 14.1902 7.56516 14.2634H7.56131Z" fill="#31B079"/>
<path d="M5.5515 13.8245C5.5438 13.9785 4.91236 13.99 4.33098 14.3519C3.7496 14.7177 3.36072 15.2298 3.22982 15.1451C3.17206 15.1066 3.19901 14.9372 3.32607 14.6985C3.45313 14.4636 3.69184 14.1517 4.06532 13.9207C4.43879 13.6936 4.84691 13.6319 5.12028 13.6551C5.39749 13.6782 5.55535 13.7629 5.54765 13.8283L5.5515 13.8245Z" fill="#31B079"/>
<path d="M34.6669 14.3865C34.5861 14.3981 34.5168 14.117 34.2857 13.7512C34.0624 13.3893 33.6428 12.9427 33.0421 12.7309C32.4453 12.5115 31.8447 12.5885 31.4327 12.7309C31.3326 12.7694 31.2364 12.8002 31.1517 12.831C31.067 12.8657 30.9977 12.8926 30.9399 12.9196C30.8167 12.9658 30.7397 12.9773 30.7166 12.9504C30.6935 12.9234 30.7358 12.8541 30.8282 12.7579C30.8744 12.7078 30.9361 12.6462 31.0131 12.5885C31.0939 12.5346 31.1863 12.473 31.2941 12.4075C31.7138 12.1611 32.4684 11.984 33.2192 12.2612C33.97 12.5269 34.4436 13.1352 34.613 13.6011C34.7901 14.0747 34.7324 14.3942 34.6708 14.3942L34.6669 14.3865Z" fill="#31B079"/>
<path d="M32.7225 21.9793C32.6609 21.9793 32.5762 21.5326 32.6571 20.8126C32.7341 20.0965 32.9651 19.1031 33.5311 18.1252C33.8237 17.6439 34.1818 17.2204 34.5899 16.9201C35.0134 16.6351 35.4677 16.4888 35.8566 16.485C36.2378 16.485 36.5381 16.5581 36.7229 16.6544C36.9116 16.7391 37.004 16.8007 36.9924 16.8354C36.9809 16.8662 36.8615 16.87 36.6729 16.8469C36.4842 16.8084 36.207 16.8046 35.8913 16.8431C35.5679 16.8854 35.2175 17.0433 34.8748 17.2935C34.5437 17.5707 34.2395 17.9442 33.9739 18.3831C33.4579 19.2764 33.1807 20.2043 33.019 20.8742C32.8534 21.548 32.8072 21.9793 32.7302 21.9793H32.7225Z" fill="#4ECA76"/>
<path d="M32.7225 24.5512C32.6609 24.582 32.5608 24.5281 32.4646 24.3895C32.3683 24.2547 32.2952 24.0314 32.2836 23.7966C32.2643 23.3191 32.403 22.988 32.5339 22.9842C32.6802 22.9803 32.7687 23.3615 32.788 23.7658C32.8034 24.1662 32.8419 24.478 32.7225 24.5512Z" fill="#4ECA76"/>
<path d="M36.9231 18.9683C37.0078 19.0915 36.2301 19.6922 35.6988 20.724C35.1443 21.7443 35.1251 22.7261 34.9788 22.7338C34.9133 22.7377 34.8248 22.4874 34.8286 22.0678C34.8286 21.6481 34.948 21.0628 35.2483 20.4892C35.5486 19.9193 35.9606 19.4881 36.2955 19.2417C36.6344 18.9953 36.8846 18.9144 36.9231 18.9683Z" fill="#4ECA76"/>
<path d="M48.3429 11.9417C48.2698 11.9879 48.0272 11.6375 47.5344 11.214C47.0415 10.802 46.2253 10.3592 45.2589 10.39C44.2925 10.4285 43.5147 10.9367 43.0604 11.3911C42.8371 11.6259 42.66 11.8262 42.5522 11.9802C42.4367 12.1265 42.3558 12.2035 42.3212 12.1919C42.2904 12.1765 42.3096 12.0687 42.3789 11.8839C42.4367 11.6952 42.5791 11.445 42.7909 11.1562C43.0181 10.8828 43.3145 10.5556 43.7419 10.3246C44.1577 10.0858 44.6775 9.90874 45.2396 9.88179C45.8018 9.86254 46.3331 10.0011 46.7682 10.2052C47.2109 10.4016 47.5344 10.698 47.7846 10.9522C48.0195 11.2217 48.1851 11.4565 48.2621 11.6413C48.3468 11.8185 48.3776 11.9224 48.3468 11.9417H48.3429Z" fill="#4ECA76"/>
<path d="M47.7808 12.4422C47.6614 12.523 47.4342 12.396 47.1763 12.292C46.9183 12.1803 46.6565 12.0841 46.6526 11.9378C46.6411 11.803 46.9722 11.6567 47.3765 11.8223C47.5728 11.9031 47.7153 12.0456 47.7769 12.1726C47.8424 12.2958 47.8347 12.3998 47.7808 12.4422Z" fill="#4ECA76"/>
<path d="M43.1374 13.3201C43.0142 13.2739 43.0527 12.8003 43.4531 12.3575C43.6534 12.1419 43.9229 12.0072 44.1346 11.9995C44.3425 11.9879 44.458 12.0649 44.458 12.1304C44.458 12.2035 44.3579 12.2613 44.2386 12.346C44.1192 12.4268 43.9768 12.5462 43.8228 12.7079C43.5186 13.0352 43.2722 13.3817 43.1374 13.3239V13.3201Z" fill="#4ECA76"/>
<path d="M59.8897 10.6211C59.8358 10.6827 59.5971 10.5248 59.1852 10.4286C58.9811 10.3708 58.727 10.3593 58.4498 10.367C58.1687 10.3862 57.8645 10.4401 57.5488 10.5364C56.9212 10.7404 56.3937 11.0562 56.0472 11.3218C55.693 11.5836 55.5043 11.7954 55.4389 11.7531C55.385 11.7223 55.4774 11.4219 55.8047 11.06C56.1242 10.6942 56.6825 10.2861 57.3986 10.0551C57.7567 9.94345 58.1186 9.89725 58.4498 9.9011C58.7809 9.92035 59.0773 9.9781 59.3045 10.0936C59.7665 10.3092 59.9321 10.5864 59.8936 10.6249L59.8897 10.6211Z" fill="#4ECA76"/>
<path d="M61.2065 10.7481C61.1026 10.8444 60.9255 10.8174 60.783 10.752C60.6444 10.6827 60.5289 10.5749 60.5173 10.4324C60.5019 10.2938 60.7484 10.1706 61.0025 10.2938C61.2527 10.4132 61.3143 10.6557 61.2104 10.7481H61.2065Z" fill="#4ECA76"/>
<path d="M58.6346 12.3191C58.623 12.4731 57.4294 12.3768 56.1512 12.9467C54.869 13.5011 54.1105 14.429 53.9912 14.3289C53.9411 14.2904 54.0643 14.0055 54.3839 13.6243C54.7035 13.247 55.2425 12.7888 55.9471 12.4808C56.6517 12.1728 57.3563 12.0919 57.853 12.1189C58.3496 12.1458 58.6423 12.2575 58.6346 12.3191Z" fill="#4ECA76"/>
<path d="M67.9829 21.7905C67.9136 21.8252 67.7596 21.6134 67.44 21.394C67.1243 21.1668 66.6199 20.9473 66.0232 20.8203C65.4264 20.6971 64.8681 20.674 64.4677 20.7048C64.0672 20.7279 63.817 20.7933 63.7823 20.724C63.7515 20.6701 63.971 20.4738 64.4061 20.3506C64.8373 20.2235 65.4649 20.1812 66.131 20.3236C66.7971 20.4661 67.3707 20.7779 67.6788 21.1245C67.9983 21.4671 68.0407 21.7713 67.9868 21.7905H67.9829Z" fill="#4ECA76"/>
<path d="M69.2381 24.4896C69.165 24.4935 69.0995 24.3895 69.011 24.2432C68.9224 24.0969 68.8069 23.9159 68.649 23.7119C68.3256 23.3114 68.0523 22.8918 68.1716 22.7955C68.2255 22.7493 68.3449 22.7955 68.5066 22.8918C68.6644 22.9957 68.8685 23.1574 69.0572 23.4039C69.2458 23.6464 69.3498 23.9352 69.3575 24.1469C69.369 24.3587 69.3036 24.4858 69.2381 24.4896Z" fill="#4ECA76"/>
<path d="M51.0419 33.399C50.9649 33.399 50.9688 33.064 51.1805 32.6521C51.3846 32.2362 51.7465 31.7165 52.2393 31.2159C52.736 30.7269 53.2674 30.3304 53.7987 30.2457C53.9296 30.2226 54.0643 30.2457 54.1722 30.2842C54.28 30.3342 54.357 30.4035 54.3955 30.469C54.4763 30.5999 54.4571 30.6846 54.4301 30.6961C54.357 30.7346 54.2145 30.4459 53.8757 30.596C53.5292 30.7192 53.0633 31.112 52.6013 31.5701C52.1392 32.036 51.7504 32.4942 51.4885 32.8369C51.2152 33.1757 51.1112 33.399 51.0419 33.3952V33.399Z" fill="#31B079"/>
<path d="M50.164 34.8428C50.0293 34.8082 49.9561 34.6118 50.0254 34.3847C50.0947 34.1536 50.2911 34.0227 50.4143 34.092C50.5375 34.1613 50.5683 34.3462 50.5106 34.5387C50.449 34.7312 50.3026 34.8813 50.164 34.8467V34.8428Z" fill="#31B079"/>
<path d="M45.771 32.5827C45.7633 32.6559 45.6015 32.7021 45.3667 32.806C45.1318 32.91 44.8084 33.0755 44.5196 33.3143C44.3733 33.4298 44.2617 33.5645 44.2155 33.6608C44.1731 33.757 44.1731 33.7994 44.227 33.8879C44.2655 33.9264 44.3002 33.9649 44.3348 33.9957C44.3733 34.0265 44.4118 34.0573 44.4388 34.0805C44.4965 34.1344 44.5312 34.1806 44.5196 34.2114C44.5119 34.246 44.4619 34.2653 44.3733 34.2653C44.3271 34.2653 44.2732 34.2653 44.2116 34.2499C44.15 34.2268 44.0769 34.2037 43.996 34.1613C43.9228 34.0959 43.8304 34.0381 43.7842 33.9033C43.7496 33.8417 43.7457 33.7763 43.7457 33.707C43.738 33.6338 43.7534 33.5684 43.7727 33.5106C43.8497 33.2604 44.0153 33.0755 44.1962 32.9215C44.5697 32.6212 44.9778 32.4865 45.282 32.4557C45.5938 32.4287 45.7825 32.5173 45.771 32.5789V32.5827Z" fill="#31B079"/>
<path d="M47.4034 33.3374C47.3688 33.476 46.9645 33.4721 46.5294 33.4644C46.31 33.4644 46.129 33.4644 45.9981 33.4798C45.8672 33.4875 45.7632 33.5106 45.7093 33.4606C45.6593 33.4182 45.6901 33.2796 45.8479 33.1526C46.0058 33.0255 46.2676 32.9523 46.5333 32.9562C47.0762 32.9678 47.4381 33.2065 47.4034 33.3335V33.3374Z" fill="#31B079"/>
<path d="M9.31701 34.7158C9.30161 34.7851 8.96664 34.7735 8.43531 34.7966C7.91553 34.8275 7.15318 34.8544 6.48324 35.174C6.14827 35.3241 5.94421 35.5859 5.86336 35.8478C5.7979 36.1019 5.89416 36.3868 6.01737 36.5909C6.27148 37.0144 6.58335 37.1568 6.5564 37.2261C6.55255 37.2877 6.13287 37.2685 5.7286 36.8026C5.53994 36.5755 5.33588 36.2174 5.40903 35.7554C5.49374 35.3164 5.83641 34.9122 6.25993 34.7235C6.67961 34.5194 7.09543 34.4501 7.4689 34.4193C7.84237 34.3924 8.17734 34.4116 8.45456 34.4424C9.00899 34.5156 9.33241 34.6542 9.31701 34.7196V34.7158Z" fill="#4ECA76"/>
<path d="M10.1949 34.3423C10.141 34.4694 9.41327 34.2846 8.52001 34.1883C8.07724 34.146 7.67681 34.1344 7.41115 34.1883C7.14163 34.2307 6.99147 34.3269 6.92987 34.2769C6.87597 34.2422 6.96837 34.0112 7.29179 33.8495C7.60751 33.6839 8.08109 33.6339 8.57007 33.6839C9.55572 33.7879 10.2526 34.2153 10.1949 34.3423Z" fill="#4ECA76"/>
<path d="M19.0427 29.5719C19.0427 29.6528 18.6153 29.6759 17.9916 29.8799C17.6758 29.9723 17.3216 30.1418 16.9443 30.3497C16.5747 30.573 16.1935 30.854 15.8393 31.2044C15.4966 31.5586 15.2233 31.9475 15.0192 32.321C14.9306 32.5135 14.8344 32.6945 14.7882 32.8793C14.7189 33.0564 14.6842 33.2296 14.6534 33.3913C14.5379 34.0305 14.6072 34.454 14.5225 34.4694C14.4725 34.4848 14.2684 34.0767 14.2953 33.349C14.3069 33.168 14.3223 32.9717 14.3839 32.7638C14.4224 32.552 14.511 32.3441 14.5995 32.1208C14.7997 31.6857 15.0962 31.2429 15.4774 30.8502C15.8662 30.4613 16.3013 30.1649 16.7171 29.9415C17.1445 29.7336 17.5449 29.5912 17.8992 29.5334C18.6038 29.4064 19.0427 29.518 19.0388 29.5758L19.0427 29.5719Z" fill="#4ECA76"/>
<path d="M20.2978 30.8271C20.217 30.9426 19.8243 30.8425 19.3045 30.8617C18.7847 30.8617 18.3342 30.9002 18.288 30.7655C18.2418 30.6384 18.6769 30.3612 19.3006 30.3535C19.6087 30.3535 19.8936 30.4267 20.0745 30.5383C20.2555 30.6461 20.3286 30.7693 20.2978 30.8271Z" fill="#4ECA76"/>
<path d="M20.4865 45.1961C20.4711 45.2731 20.2055 45.2693 19.8128 45.354C19.4277 45.4425 18.9002 45.6504 18.4998 46.074C18.3035 46.2857 18.1649 46.5244 18.084 46.7555C18.007 46.9903 17.9993 47.2136 18.0108 47.4061C18.0493 47.7912 18.1687 48.0414 18.0994 48.0838C18.0686 48.103 18.0108 48.0607 17.9223 47.9644C17.8299 47.872 17.7375 47.7065 17.6605 47.4793C17.595 47.2521 17.5565 46.9518 17.6335 46.6361C17.7105 46.3204 17.8799 45.997 18.1302 45.7313C18.6384 45.1923 19.3161 45.0036 19.7743 44.9998C20.244 44.9998 20.5019 45.1422 20.4865 45.2V45.1961Z" fill="#4ECA76"/>
<path d="M21.1141 46.3243C21.0679 46.459 20.7714 46.4706 20.4711 46.3974C20.1708 46.3243 19.9321 46.2165 19.9244 46.074C19.9167 45.9354 20.2286 45.8122 20.5866 45.9007C20.9409 45.9893 21.1565 46.1934 21.1141 46.3243Z" fill="#4ECA76"/>
<path d="M28.5181 42.6241C28.4988 42.7088 28.0946 42.6241 27.4785 42.7049C27.3284 42.7396 27.159 42.7473 26.9895 42.8166C26.9048 42.8474 26.8124 42.8705 26.7239 42.9013C26.6392 42.9437 26.5468 42.9822 26.4582 43.0245C26.104 43.2093 25.7382 43.4711 25.4225 43.8177C25.1106 44.168 24.8796 44.5531 24.7141 44.9265C24.5601 45.3038 24.46 45.6619 24.4214 45.9738C24.3329 46.5937 24.3983 46.9979 24.3175 47.0133C24.2674 47.0326 24.0634 46.6399 24.0634 45.9468C24.0595 45.6003 24.1327 45.1883 24.279 44.7571C24.4407 44.3297 24.691 43.8793 25.049 43.4788C25.4071 43.0823 25.8422 42.7896 26.2619 42.601C26.3697 42.5586 26.4775 42.5201 26.5776 42.4778C26.6815 42.447 26.7893 42.4277 26.8894 42.4046C27.0897 42.3469 27.2822 42.3584 27.4554 42.343C27.8019 42.3507 28.0792 42.3969 28.2563 42.4701C28.4372 42.5355 28.5296 42.5856 28.5181 42.6202V42.6241Z" fill="#4ECA76"/>
<path d="M27.5132 43.8139C27.5132 43.9564 27.2668 44.0565 27.0165 44.1219C26.7701 44.1835 26.5429 44.2297 26.4467 44.1258C26.3465 44.0257 26.5198 43.7254 26.8856 43.6291C27.2436 43.5406 27.517 43.6753 27.5132 43.8101V43.8139Z" fill="#4ECA76"/>
<path d="M34.6669 44.9458C34.6092 44.9958 34.4128 44.8572 34.0778 44.6878C33.7467 44.5184 33.2654 44.3336 32.7148 44.2797C32.1643 44.2258 31.6791 44.3413 31.3519 44.4953C31.0246 44.6493 30.8359 44.8072 30.7743 44.7571C30.7281 44.7224 30.8205 44.4645 31.1632 44.1911C31.3326 44.0564 31.5636 43.9331 31.8408 43.8523C32.1181 43.7791 32.4338 43.7445 32.761 43.7753C33.4156 43.8407 33.9546 44.118 34.2742 44.3913C34.5976 44.6647 34.7131 44.9073 34.6669 44.9458Z" fill="#4ECA76"/>
<path d="M34.4166 45.6966C34.3011 45.7814 33.8968 45.4733 33.2769 45.327C32.6571 45.1692 32.0949 45.0922 32.0949 44.942C32.0911 44.8111 32.6725 44.6532 33.404 44.8342C33.7659 44.9304 34.0778 45.1153 34.2472 45.3039C34.4205 45.4926 34.4667 45.6504 34.4128 45.6928L34.4166 45.6966Z" fill="#4ECA76"/>
<path d="M59.3237 33.2719C59.2621 33.3181 59.0504 33.1141 58.6076 33.1449C58.1687 33.168 57.5488 33.3759 56.9135 33.7109C56.2782 34.0458 55.7507 34.4347 55.4234 34.7581C55.0846 35.0777 55.0038 35.3434 54.9306 35.3395C54.8998 35.3395 54.8652 35.251 54.8883 35.1008C54.9114 34.9506 54.9961 34.7427 55.1462 34.5271C55.4465 34.0959 55.9894 33.6223 56.6748 33.2604C57.3601 32.8985 58.0763 32.7098 58.623 32.7868C58.8964 32.8215 59.1081 32.937 59.2159 33.0486C59.3276 33.1603 59.343 33.2565 59.3199 33.2719H59.3237Z" fill="#31B079"/>
<path d="M59.139 33.8995C59.139 34.0458 58.6153 34.1344 58.0185 34.3038C57.4218 34.4616 56.9751 34.6926 56.8789 34.5887C56.8365 34.5348 56.902 34.3962 57.0752 34.2345C57.2485 34.0766 57.5373 33.9111 57.8799 33.8148C58.5691 33.6223 59.1467 33.7647 59.139 33.8995Z" fill="#31B079"/>
<path d="M29.6462 7.04421C29.5769 7.02111 29.6308 6.67844 29.6192 6.12016C29.6115 5.56572 29.5615 4.78413 29.3459 3.97943C29.138 3.17088 28.7375 2.52404 28.2832 2.29303C27.8327 2.05432 27.4516 2.11207 27.4477 2.02736C27.4439 1.99656 27.5247 1.94651 27.6941 1.90801C27.8597 1.87336 28.1253 1.8618 28.4295 1.96961C28.7375 2.07357 29.0532 2.32383 29.2958 2.6588C29.5384 2.99377 29.7155 3.4096 29.8348 3.84852C30.0697 4.73407 30.0582 5.56187 29.9735 6.14711C29.8887 6.73619 29.7039 7.07116 29.6423 7.04806L29.6462 7.04421Z" fill="#31B079"/>
<path d="M39.6221 48.9616C39.6606 49.0232 39.522 49.181 39.2833 49.4043C39.0407 49.6277 38.6942 49.9318 38.2168 50.1821C37.9781 50.3015 37.7201 50.3862 37.4775 50.4208C37.235 50.4516 37.0078 50.4208 36.8307 50.3708C36.4765 50.2552 36.3263 50.082 36.3571 50.0281C36.3918 49.9588 36.5958 50.0088 36.8923 50.0165C37.1888 50.0242 37.57 49.9434 37.9858 49.7278C38.4016 49.5122 38.7751 49.2619 39.0754 49.1117C39.3719 48.9577 39.5836 48.9038 39.6183 48.9616H39.6221Z" fill="#225D31"/>
<path d="M39.2448 50.5286C39.2949 50.648 39.0369 50.9483 38.5325 51.1755C38.2822 51.2833 38.0089 51.3102 37.8279 51.2756C37.6431 51.2409 37.543 51.16 37.5507 51.0946C37.5777 50.9521 37.9319 50.8905 38.34 50.7096C38.752 50.5248 39.1832 50.3939 39.2448 50.5325V50.5286Z" fill="#225D31"/>
<path d="M44.2039 76.0672C44.2385 76.1212 44.0114 76.3599 43.5378 76.5986C43.0719 76.8411 42.3635 77.0529 41.5626 77.0991C40.7618 77.1415 40.0418 77.0221 39.5451 76.8565C39.0484 76.6948 38.7789 76.5062 38.802 76.4484C38.8559 76.3137 40.038 76.6948 41.5318 76.5947C42.2749 76.5524 42.9333 76.4138 43.4031 76.2713C43.8728 76.1327 44.1615 76.0095 44.2 76.075L44.2039 76.0672Z" fill="#225D31"/>
<path d="M42.633 75.0623C42.6831 75.1855 42.2287 75.5051 41.5549 75.6052C41.22 75.6553 40.9043 75.6206 40.6886 75.5513C40.473 75.4782 40.3575 75.3819 40.3768 75.3165C40.4191 75.1817 40.9004 75.2009 41.4856 75.1047C42.0747 75.02 42.583 74.9276 42.633 75.0662V75.0623Z" fill="#225D31"/>
<path d="M44.7045 66.5302C44.743 66.5841 44.6159 66.7689 44.3233 66.973C44.0307 67.177 43.5609 67.3811 43.0181 67.4427C42.4752 67.5081 41.9939 67.4504 41.6589 67.3811C41.3201 67.3079 41.1199 67.2232 41.1276 67.1539C41.1353 67.0846 41.3471 67.0423 41.682 67.023C42.017 66.9999 42.4713 66.996 42.9526 66.9383C43.919 66.8382 44.6121 66.407 44.7006 66.5263L44.7045 66.5302Z" fill="#225D31"/>
<path d="M44.1423 65.0864C44.1808 65.1442 44.1308 65.2558 43.9845 65.3675C43.842 65.4791 43.6033 65.5754 43.3376 65.5985C42.7948 65.637 42.4136 65.4021 42.4482 65.2751C42.4829 65.1326 42.8718 65.1249 43.2953 65.0941C43.7188 65.071 44.0576 64.9747 44.1423 65.0903V65.0864Z" fill="#225D31"/>
<path d="M40.8157 54.0439C40.8157 54.1132 40.5115 54.1902 40.0148 54.2826C39.5143 54.3711 38.8136 54.479 38.0089 54.4328C37.6046 54.402 37.2196 54.3249 36.8808 54.194C36.5458 54.0477 36.2609 53.8629 36.0838 53.6473C35.9798 53.5549 35.9259 53.4355 35.8681 53.347C35.8065 53.2584 35.7796 53.166 35.7565 53.0929C35.7141 52.9466 35.7064 52.8657 35.7372 52.8503C35.8142 52.8118 35.9683 53.0967 36.3302 53.3855C36.5073 53.5357 36.7576 53.6512 37.0425 53.7551C37.3389 53.8398 37.6778 53.8976 38.0474 53.9245C38.7866 53.9669 39.4797 53.9245 39.9879 53.9245C40.4961 53.9245 40.8195 53.9746 40.8195 54.0439H40.8157Z" fill="#225D31"/>
<path d="M40.4384 54.9833C40.4384 55.122 40.0187 55.2413 39.4912 55.2298C38.9638 55.2182 38.5402 55.0603 38.5556 54.9217C38.571 54.7831 38.9907 54.7138 39.5028 54.7215C40.0149 54.7331 40.4384 54.8409 40.4384 54.9833Z" fill="#225D31"/>
<path d="M41.8823 56.8661C41.9477 56.9893 41.5742 57.2896 41.0275 57.3666C40.4846 57.4474 40.0611 57.3127 40.0611 57.1779C40.0611 57.0355 40.4731 56.9354 40.9505 56.8661C41.4241 56.8006 41.8168 56.739 41.8823 56.8661Z" fill="#225D31"/>
<path d="M40.1881 57.871C40.1958 58.0173 39.8454 58.1097 39.4797 58.0789C39.1216 58.0443 38.8598 58.0019 38.8097 57.871C38.7905 57.8055 38.8521 57.717 38.9868 57.6515C39.1177 57.5861 39.318 57.5553 39.5182 57.5707C39.9186 57.6053 40.1843 57.7362 40.192 57.871H40.1881Z" fill="#225D31"/>
<path d="M22.8698 28.0049C22.7312 28.0049 22.6157 27.8778 22.6157 27.7238C22.6157 27.5698 22.7312 27.4427 22.8698 27.4427C23.0084 27.4427 23.124 27.5698 23.124 27.7238C23.124 27.8778 23.0084 28.0049 22.8698 28.0049Z" fill="#225D31"/>
<path d="M27.7018 39.3591C27.7095 39.4284 27.6017 39.5054 27.4054 39.5439C27.209 39.5824 26.9279 39.567 26.6469 39.4669C26.0693 39.2629 25.7844 38.824 25.8845 38.7315C25.9846 38.6276 26.3543 38.8278 26.8163 38.9895C27.2745 39.1628 27.6787 39.2205 27.7018 39.3591Z" fill="#225D31"/>
<path d="M28.5181 40.1753C28.5604 40.3062 28.2563 40.518 27.8327 40.5719C27.4092 40.6258 27.0704 40.5026 27.0743 40.364C27.0743 40.2215 27.39 40.1137 27.7711 40.0675C28.1485 40.0213 28.4757 40.0406 28.5181 40.1753Z" fill="#225D31"/>
<path d="M20.9255 41.5577C20.9524 41.6154 20.7522 41.781 20.3595 41.8618C19.9667 41.9465 19.4123 41.9003 18.8617 41.7694C18.3073 41.6424 17.8414 41.5076 17.4988 41.4691C17.1599 41.4229 16.9366 41.4422 16.9097 41.369C16.8866 41.3113 17.0983 41.1572 17.4988 41.111C17.8992 41.0571 18.4305 41.1495 18.9734 41.2728C19.5163 41.3998 19.9821 41.4922 20.3287 41.5038C20.6713 41.5192 20.8985 41.4845 20.9255 41.5577Z" fill="#225D31"/>
<path d="M20.0476 40.9917C20.0784 41.1226 19.8743 41.2997 19.5586 41.2843C19.239 41.2689 19.0465 41.0533 19.1081 40.93C19.1697 40.803 19.3738 40.7683 19.5855 40.776C19.8012 40.7876 20.0168 40.853 20.0476 40.9917Z" fill="#225D31"/>
<path d="M50.9187 26.9383C50.9456 26.9999 50.8494 27.1154 50.6453 27.2078C50.4451 27.3002 50.1448 27.3618 49.8175 27.3579C49.1591 27.3464 48.674 27.0692 48.7241 26.9383C48.7703 26.8035 49.2515 26.842 49.8291 26.8497C50.4066 26.8728 50.8571 26.8151 50.9187 26.9383Z" fill="#225D31"/>
<path d="M50.9803 26.122C51.0727 26.2298 50.9303 26.4647 50.6569 26.507C50.3874 26.5532 50.1795 26.38 50.2257 26.2491C50.2719 26.1143 50.4144 26.0373 50.5722 26.0065C50.7339 25.9834 50.8918 26.0104 50.9765 26.122H50.9803Z" fill="#225D31"/>
<path d="M23.4974 26.3723C23.4974 26.5109 23.2856 26.6264 23.0276 26.6264C22.7697 26.6264 22.5579 26.5109 22.5579 26.3723C22.5579 26.2337 22.7697 26.1182 23.0276 26.1182C23.2856 26.1182 23.4974 26.2337 23.4974 26.3723Z" fill="#225D31"/>
<path d="M24.6255 19.5959C24.5832 19.6537 24.4677 19.6499 24.3137 19.6306C24.1558 19.6152 23.944 19.5921 23.713 19.5651C23.4705 19.542 23.2317 19.5035 23.0585 19.4381C22.8852 19.3726 22.789 19.2841 22.8082 19.2186C22.8236 19.1493 22.9353 19.1108 23.1008 19.0839C23.2664 19.0569 23.4974 19.0377 23.7708 19.0646C24.0441 19.0916 24.3021 19.184 24.46 19.3033C24.6178 19.4227 24.6717 19.542 24.6332 19.5998L24.6255 19.5959Z" fill="#225D31"/>
<path d="M24.1866 21.0398C24.1866 21.1784 24.0172 21.2939 23.8093 21.2939C23.6014 21.2939 23.4319 21.1784 23.4319 21.0398C23.4319 20.9012 23.6014 20.7856 23.8093 20.7856C24.0172 20.7856 24.1866 20.8973 24.1866 21.0398Z" fill="#225D31"/>
<path d="M16.8442 24.4279C16.7633 24.5434 16.6016 24.5665 16.4861 24.5088C16.3745 24.451 16.2974 24.3124 16.3398 24.1777C16.3822 24.0467 16.5477 23.9736 16.7133 24.0583C16.875 24.143 16.9173 24.3124 16.8403 24.4279H16.8442Z" fill="#225D31"/>
<path d="M17.5373 25.4945C17.5373 25.6331 17.4371 25.7486 17.3178 25.7486C17.1984 25.7486 17.0983 25.6331 17.0983 25.4945C17.0983 25.3559 17.1984 25.2404 17.3178 25.2404C17.4371 25.2404 17.5373 25.3559 17.5373 25.4945Z" fill="#225D31"/>
</g>
<defs>
<clipPath id="clip0_613_14772">
<rect width="70.2782" height="80" fill="white" transform="translate(0.5 0.36792)"/>
</clipPath>
</defs>
</svg>
