<svg width="51" height="81" viewBox="0 0 51 81" fill="none" xmlns="http://www.w3.org/2000/svg">
<g clip-path="url(#clip0_613_14671)">
<path d="M1.3465 19.2089C-1.23498 28.86 3.19041 49.0176 27.4379 48.5566C51.6853 48.0957 52.1758 24.7997 48.3663 13.8616C42.5432 -2.85165 5.86409 -5.71709 1.3465 19.2089Z" fill="#54A89D"/>
<path d="M31.1257 78.889C29.374 81.7471 23.1047 81.2861 21.814 79.2578C24.8564 64.5065 25.6862 35.1883 24.0267 15.4584C24.2111 12.6298 25.9628 26.7505 25.9628 26.7505C28.1275 22.6497 28.205 11.8296 28.205 11.8296C29.6801 19.2052 26.6081 28.7309 26.2394 30.0216C27.7145 52.8862 29.2818 74.5521 31.1257 78.8853V78.889Z" fill="#243628"/>
<path d="M26.7925 46.1596C29.2818 44.1313 33.615 34.4507 34.2604 26.4297C35.1823 26.2453 34.8136 39.7981 27.0691 49.2942C26.3316 48.3723 26.7925 46.1596 26.7925 46.1596Z" fill="#243628"/>
<path d="M33.5228 32.6069C32.1399 31.8693 31.4945 24.8625 31.4945 22.3732C30.3881 25.3234 31.8633 32.7913 32.9696 34.543C33.4306 33.9898 33.5228 32.6069 33.5228 32.6069Z" fill="#243628"/>
<path d="M31.2179 40.9045C33.3384 39.7981 37.6716 33.8976 38.2248 29.6566C38.5936 28.3659 38.8702 37.1244 30.757 42.4718C31.2179 41.2732 31.2179 40.9045 31.2179 40.9045Z" fill="#243628"/>
<path d="M36.8418 34.7274C38.8701 34.2185 40.5297 32.3746 41.2672 30.6708C41.4516 32.3303 39.6077 34.1742 36.3809 36.2947C36.7496 35.6493 36.8418 34.7274 36.8418 34.7274Z" fill="#243628"/>
<path d="M25.594 32.4225C23.5657 31.1317 18.2184 25.4156 16.1901 18.2244C15.2681 17.118 16.8355 25.4156 25.2253 34.3586C25.3175 32.4225 25.594 32.4225 25.594 32.4225Z" fill="#243628"/>
<path d="M19.5091 26.3376C20.2467 23.3873 19.0482 18.7775 18.495 16.3804C19.417 16.1038 21.3531 24.2171 20.4311 27.5361C19.9701 27.0751 19.5091 26.3376 19.5091 26.3376Z" fill="#243628"/>
<path d="M25.7784 41.7342C22.8281 41.0888 15.6073 34.5134 10.4739 27.3517C13.3946 34.1447 22.1827 42.1952 25.9332 43.3015C25.841 42.3796 25.7784 41.7342 25.7784 41.7342Z" fill="#243628"/>
<path d="M16.71 35.4354C16.8944 33.6542 16.6473 31.8693 16.1569 30.1507C16.5256 29.8447 18.1262 35.0666 17.6947 36.114C17.0198 35.5608 16.71 35.4391 16.71 35.4391V35.4354Z" fill="#243628"/>
<path d="M20.5823 39.6137C18.3696 39.492 12.4063 37.5854 9.76586 33.7131C8.72221 33.3444 12.1629 40.0451 22.5516 41.0888C21.3235 40.5356 20.5859 39.6137 20.5859 39.6137H20.5823Z" fill="#243628"/>
<path d="M14.1286 38.1385C12.4691 38.7544 10.3781 38.9388 9.39709 38.629C11.2115 39.9345 15.3603 38.9351 15.4193 38.6917C14.0069 38.6917 14.1286 38.1385 14.1286 38.1385Z" fill="#243628"/>
<path d="M8.60785 25.5483C6.55373 25.9466 4.99747 24.5674 4.22302 22.0375C6.23658 21.9674 8.37183 23.1365 8.60785 25.5483Z" fill="#87CCC2"/>
<path d="M9.091 32.1163C8.35343 30.088 5.46586 29.0443 4.23413 29.9663C6.75292 32.6695 9.091 32.1163 9.091 32.1163Z" fill="#F9D915"/>
<path d="M13.0222 27.997C11.7941 26.0904 12.3473 23.2028 13.5126 22.6497C15.1095 26.0904 13.0222 27.997 13.0222 27.997Z" fill="#F9D915"/>
<path d="M17.2633 29.7783C15.6037 28.4249 16.0352 26.2748 17.1416 25.6C18.3106 27.4439 17.2633 29.7783 17.2633 29.7783Z" fill="#87CCC2"/>
<path d="M20.0918 37.1539C18.8637 35.6161 18.7384 32.9129 20.7077 31.6222C22.6143 34.0193 20.8294 36.7225 20.0918 37.1539Z" fill="#87CCC2"/>
<path d="M9.4598 37.7072C8.60054 35.4945 6.01906 34.8786 5.28149 35.9259C7.12541 39.245 9.4598 37.7072 9.4598 37.7072Z" fill="#87CCC2"/>
<path d="M18.0008 41.0889C16.0942 40.6574 14.3129 41.6421 13.8815 42.6857C16.8317 43.6077 18.0008 41.0889 18.0008 41.0889Z" fill="#F9D915"/>
<path d="M20.7666 42.564C19.782 43.6703 19.6603 45.1454 20.0917 46.1301C21.5042 45.4552 20.7666 42.564 20.7666 42.564Z" fill="#87CCC2"/>
<path d="M33.4307 42.4386C34.5997 41.5793 37.1812 41.8854 37.55 42.8074C35.5844 44.714 33.4307 42.4386 33.4307 42.4386Z" fill="#87CCC2"/>
<path d="M36.7496 38.2603C37.9777 36.8478 40.7435 36.479 41.6655 37.2166C40.5592 39.4293 37.4872 38.9978 36.7496 38.2603Z" fill="#F9D915"/>
<path d="M41.5438 29.8999C41.282 27.986 42.3994 25.5631 44.9624 24.7997C45.2906 27.2853 44.7006 29.0702 41.5438 29.8999Z" fill="#87CCC2"/>
<path d="M38.2248 28.3658C37.2401 27.0124 37.6716 25.0468 38.5936 23.9404C40.4375 25.9687 38.4092 28.3658 38.2248 28.3658Z" fill="#F9D915"/>
<path d="M46.338 17.9661C44.2175 17.6969 42.3036 19.2495 42.2372 21.4106C43.9446 22.0191 46.1352 20.33 46.338 17.9661Z" fill="#F9D915"/>
<path d="M34.7804 23.6934C32.7521 20.9275 33.3679 18.2834 34.4116 16.8082C36.2555 19.5114 36.1928 21.5397 34.7804 23.6934Z" fill="#F9D915"/>
<path d="M39.2058 18.8992C38.2212 16.8082 40.4966 12.9987 42.0934 12.6926C43.3841 16.3805 40.5556 18.3461 39.2058 18.8992Z" fill="#87CCC2"/>
<path d="M30.296 16.6865C29.7428 14.8426 31.5867 11.4018 33.4933 11.5235C34.7213 13.6145 32.0182 16.1333 30.296 16.6865Z" fill="#87CCC2"/>
<path d="M36.5026 11.8296C35.7651 10.1074 36.3809 7.03542 38.6526 6.41956C39.5746 8.38517 38.4056 11.2137 36.5026 11.8296Z" fill="#F9D915"/>
<path d="M14.4384 18.4087C11.4881 18.4714 9.95031 15.1524 9.82861 12.7553C12.0413 12.6926 14.3757 15.9526 14.4384 18.4087Z" fill="#F9D915"/>
<path d="M11.547 19.1463C9.58143 18.1616 7.55313 19.268 7.05896 20.4997C9.88752 21.6688 11.547 19.1463 11.547 19.1463Z" fill="#87CCC2"/>
<path d="M17.9417 15.4584C16.1605 14.5365 15.0542 9.18912 16.4666 7.71399C19.6013 11.2174 18.6166 13.3674 17.9417 15.4584Z" fill="#F9D915"/>
<path d="M23.3334 10.6163C20.7667 9.92298 21.1355 5.0698 22.4262 4.02246C25.9149 6.41955 24.3771 9.14116 23.3334 10.6163Z" fill="#87CCC2"/>
<path d="M23.042 13.2458C21.9984 11.7079 20.6449 11.1548 20.0291 11.4645C21.2571 14.1087 22.1791 13.4929 23.042 13.2458Z" fill="#F9D915"/>
<path d="M8.0436 16.3804C7.49042 14.6582 5.58382 13.3674 4.54016 13.9206C4.66186 16.1333 8.0436 16.3804 8.0436 16.3804Z" fill="#F9D915"/>
<path d="M28.6955 8.45153C27.8952 6.67031 28.8799 4.02614 30.1706 3.77905C31.3397 5.62297 30.6611 7.52957 28.6955 8.45153Z" fill="#F9D915"/>
<path d="M13.2066 11.6489C11.6098 11.4018 10.6251 9.3735 11.1783 7.47058C13.6381 8.69863 13.5754 10.6052 13.2066 11.6489Z" fill="#87CCC2"/>
<path d="M42.6501 33.2816C43.2033 31.8065 45.6631 31.5004 47.0128 32.6068C44.4314 34.8822 42.6501 33.2816 42.6501 33.2816Z" fill="#F9D915"/>
<path d="M29.0643 35.1257C28.0796 34.141 28.4521 31.5005 29.6801 30.6376C30.7238 32.2344 30.296 34.3881 29.0643 35.1257Z" fill="#F9D915"/>
<path d="M33.6777 11.7707C33.7551 11.8739 32.8073 12.7811 31.9149 14.1309C31.465 14.8021 31.1109 15.4364 30.886 15.9121C30.6573 16.3842 30.5504 16.7013 30.4803 16.6866C30.4176 16.6792 30.4066 16.3251 30.5651 15.7904C30.7163 15.2557 31.0446 14.5587 31.5129 13.8617C31.985 13.1684 32.4976 12.6004 32.9143 12.2427C33.331 11.8813 33.6408 11.7227 33.6777 11.7707Z" fill="#F9D915"/>
<path d="M23.1637 10.6016C23.0236 10.6016 22.9461 9.28135 22.7912 7.68084C22.6437 6.07663 22.3597 4.80433 22.4888 4.76377C22.6142 4.71582 23.1268 5.98444 23.278 7.63289C23.4366 9.27398 23.2928 10.6053 23.1674 10.6016H23.1637Z" fill="#F9D915"/>
<path d="M38.0404 7.71406C38.1658 7.76569 37.974 8.49588 37.62 9.34408C37.2623 10.196 36.8751 10.8413 36.7497 10.786C36.628 10.7307 36.8161 10.0005 37.1701 9.156C37.5241 8.31149 37.915 7.66243 38.0404 7.71406Z" fill="#F9D915"/>
<path d="M34.537 22.4026C34.4079 22.4248 34.1498 21.4844 34.124 20.2895C34.0908 19.0947 34.3415 18.1395 34.4743 18.1616C34.6071 18.1838 34.5776 19.1242 34.6108 20.2784C34.6329 21.4364 34.6735 22.3805 34.537 22.4026Z" fill="#87CCC2"/>
<path d="M41.5439 14.3521C41.6656 14.4221 41.2304 15.3109 40.5961 16.3103C39.9581 17.306 39.5156 18.1395 39.3939 18.1026C39.3312 18.0804 39.357 17.826 39.4897 17.4461C39.6188 17.0663 39.8659 16.5684 40.1831 16.0558C40.8284 15.038 41.4332 14.2894 41.5439 14.3521Z" fill="#F9D915"/>
<path d="M33.9839 13.3675C34.0539 13.4965 33.368 13.9133 32.5419 14.341C32.1289 14.5623 31.7748 14.7725 31.513 14.9348C31.2549 15.0934 31.0852 15.1966 31.0336 15.1524C30.9857 15.1081 31.0705 14.9163 31.2917 14.6729C31.513 14.4296 31.8744 14.1493 32.3096 13.9169C33.1836 13.467 33.9248 13.2605 33.9839 13.3711V13.3675Z" fill="#F9D915"/>
<path d="M23.7501 5.8701C23.8829 5.89591 23.8534 6.51547 23.6875 7.26041C23.5215 8.00166 23.2818 8.57696 23.149 8.54377C23.02 8.51058 23.0458 7.88734 23.2117 7.15346C23.3777 6.41958 23.6174 5.84428 23.7501 5.8701Z" fill="#F9D915"/>
<path d="M17.4808 14.7209C17.3443 14.7209 17.2263 13.3785 16.9608 11.7411C16.699 10.1037 16.4666 8.76135 16.6068 8.72816C16.7321 8.69865 17.1747 9.99308 17.4439 11.6637C17.7131 13.3379 17.6172 14.7209 17.4845 14.7209H17.4808Z" fill="#87CCC2"/>
<path d="M17.1562 12.5082C17.0603 12.6004 16.6879 12.3533 16.367 11.9329C16.0499 11.5162 15.895 11.1105 16.0019 11.0331C16.1126 10.9519 16.4445 11.2322 16.7506 11.6379C17.0566 12.0435 17.2521 12.416 17.1525 12.5082H17.1562Z" fill="#87CCC2"/>
<path d="M13.5163 17.7633C13.3836 17.826 12.8378 16.8266 12.0486 15.7055C11.2668 14.5733 10.4001 13.8689 10.4739 13.7546C10.5108 13.703 10.7873 13.8099 11.1709 14.0902C11.5544 14.3705 12.0265 14.8351 12.4432 15.4215C13.2729 16.6053 13.627 17.7153 13.5163 17.7633Z" fill="#87CCC2"/>
<path d="M12.5465 15.735C12.4137 15.7645 12.2478 15.4474 12.1851 15.0565C12.1261 14.6692 12.1445 14.3484 12.2699 14.3041C12.399 14.2599 12.6018 14.5697 12.6645 14.9753C12.7272 15.3773 12.6756 15.7055 12.5465 15.735Z" fill="#87CCC2"/>
<path d="M8.07683 24.7223C8.06577 24.7849 7.85188 24.8181 7.51997 24.7444C7.18807 24.6743 6.74922 24.4641 6.35462 24.1396C5.96002 23.815 5.66868 23.4758 5.46954 23.2213C5.27409 22.9668 5.17451 22.7861 5.21877 22.7382C5.26302 22.6903 5.4511 22.7825 5.70925 22.9779C5.97108 23.1697 6.29561 23.4647 6.65702 23.7634C7.01843 24.0584 7.36508 24.2797 7.63798 24.4235C7.90719 24.5674 8.09158 24.6522 8.07683 24.7223Z" fill="#F9D915"/>
<path d="M7.38354 24.3092C7.41304 24.442 6.93362 24.6264 6.34357 24.5674C5.75721 24.512 5.32942 24.2982 5.35523 24.1728C5.38105 24.0363 5.8494 24.0326 6.38414 24.0843C6.91887 24.1396 7.35772 24.1801 7.38354 24.3129V24.3092Z" fill="#F9D915"/>
<path d="M17.573 41.0888C17.6357 41.1994 17.0862 41.6678 16.2675 42.0476C15.4451 42.4312 14.6854 42.4644 14.667 42.3353C14.6412 42.1988 15.2939 41.9665 16.0684 41.6051C16.8428 41.2474 17.5029 40.9671 17.573 41.0888Z" fill="#F9D915"/>
<path d="M8.48991 31.7771C8.47516 31.8398 8.25758 31.8546 7.92199 31.7771C7.5864 31.6997 7.14386 31.519 6.70869 31.2424C5.84574 30.6745 5.28519 30.0844 5.35526 29.9811C5.43639 29.8631 6.15183 30.2946 6.96684 30.8293C7.78185 31.3641 8.51573 31.6444 8.48991 31.7771Z" fill="#F9D915"/>
<path d="M20.2909 36.5712C20.1545 36.5749 20.0438 35.5829 20.1582 34.3806C20.2688 33.1784 20.4864 32.2269 20.6154 32.238C20.7519 32.2491 20.7519 33.2337 20.645 34.4212C20.5343 35.6087 20.4274 36.5675 20.2946 36.5712H20.2909Z" fill="#F9D915"/>
<path d="M20.4311 35.4649C20.3426 35.5571 19.8337 35.192 19.546 34.5024C19.2657 33.8164 19.2952 33.2301 19.4169 33.208C19.5571 33.1785 19.7452 33.7132 19.9922 34.3143C20.2393 34.9117 20.5307 35.3727 20.4311 35.4686V35.4649Z" fill="#F9D915"/>
<path d="M37.2107 42.7926C37.2365 42.9143 36.5543 43.1946 35.6323 43.1798C35.175 43.1688 34.7583 43.0544 34.4891 42.9106C34.2162 42.7668 34.0908 42.6156 34.124 42.564C34.1978 42.4496 34.821 42.693 35.6508 42.6967C36.4768 42.7152 37.1886 42.6525 37.2144 42.7963L37.2107 42.7926Z" fill="#F9D915"/>
<path d="M36.4731 42.055C36.5543 42.162 36.3699 42.4164 36.0564 42.6229C35.7466 42.8295 35.4368 42.9069 35.3668 42.7926C35.2967 42.6783 35.4811 42.4238 35.7835 42.2247C36.0822 42.0255 36.392 41.9481 36.4731 42.055Z" fill="#F9D915"/>
<path d="M44.1253 25.7364C44.247 25.7844 43.9815 26.6953 43.3472 27.6541C42.7166 28.6166 42.0085 29.2325 41.9126 29.1477C41.8094 29.0555 42.333 28.3142 42.9415 27.3886C43.5537 26.4666 43.9999 25.6848 44.1253 25.7364Z" fill="#F9D915"/>
<path d="M44.7708 26.6142C44.8519 26.7211 44.5163 27.1083 44.0148 27.4771C43.5169 27.8496 43.0485 28.0598 42.9711 27.9491C42.8937 27.8385 43.2329 27.4513 43.7271 27.0825C44.2213 26.7174 44.6859 26.5035 44.7708 26.6105V26.6142Z" fill="#F9D915"/>
<path d="M41.7283 16.0115C41.7799 16.1406 41.3927 16.3877 40.917 16.6016C40.4412 16.8118 40.0651 16.9851 39.9766 16.8892C39.8807 16.7897 40.1905 16.3951 40.7141 16.1627C41.2304 15.9304 41.6803 15.8935 41.7283 16.0152V16.0115Z" fill="#F9D915"/>
<path d="M45.4603 18.8697C45.5525 18.984 44.9329 19.5335 44.1659 20.1199C43.786 20.4186 43.4615 20.6989 43.2292 20.9091C42.9968 21.1193 42.8456 21.2594 42.7866 21.2188C42.7313 21.1856 42.7866 20.9754 42.9673 20.6878C43.148 20.4001 43.4652 20.0498 43.8635 19.7363C44.6674 19.1205 45.3829 18.7738 45.4603 18.8697Z" fill="#87CCC2"/>
<path d="M44.66 18.4567C44.7817 18.5341 44.5752 18.9619 44.2433 19.3491C44.0884 19.5372 43.9446 19.7068 43.8413 19.8322C43.7381 19.9539 43.6569 20.0387 43.5905 20.024C43.5278 20.0092 43.491 19.8802 43.5315 19.6884C43.5684 19.4966 43.6938 19.2569 43.8671 19.043C44.2212 18.6263 44.5531 18.3866 44.66 18.4567Z" fill="#87CCC2"/>
<path d="M27.2203 76.492C27.2535 76.5399 27.0507 76.7612 26.6266 76.9861C26.2062 77.2037 25.4981 77.3807 24.7606 77.2074C24.0267 77.0378 23.4698 76.68 23.0937 76.4145C22.7175 76.1416 22.5184 75.9314 22.5516 75.8761C22.5884 75.8171 22.8576 75.924 23.267 76.1158C23.6763 76.3039 24.2295 76.5878 24.8638 76.7317C25.4981 76.8755 26.0808 76.7833 26.5012 76.6653C26.9179 76.5399 27.1835 76.4256 27.224 76.492H27.2203Z" fill="#225D31"/>
<path d="M25.9923 75.5073C26.0108 75.57 25.8596 75.6843 25.5756 75.7617C25.2916 75.8392 24.8823 75.8687 24.4434 75.7949C24.0046 75.7175 23.6211 75.5478 23.385 75.3598C23.1453 75.1754 23.0605 74.9984 23.1048 74.9541C23.1527 74.9025 23.3113 74.9725 23.5547 75.061C23.7981 75.1496 24.1374 75.2454 24.5283 75.3155C25.3101 75.463 25.9554 75.3819 25.996 75.5073H25.9923Z" fill="#225D31"/>
<path d="M29.2818 70.3443C29.3445 70.4513 28.4078 71.0708 27.0544 71.2515C26.3832 71.34 25.7636 71.2921 25.3321 71.1925C24.9007 71.0929 24.6573 70.9602 24.672 70.9012C24.7089 70.7647 25.7378 70.9491 26.988 70.7721C28.2381 70.6098 29.2191 70.2152 29.2818 70.348V70.3443Z" fill="#225D31"/>
<path d="M28.452 69.6067C28.5074 69.7174 28.0611 70.0714 27.3604 70.1562C26.6598 70.2373 26.1398 69.9718 26.1767 69.8501C26.2098 69.7137 26.7188 69.7432 27.3051 69.6731C27.8915 69.603 28.3967 69.474 28.452 69.603V69.6067Z" fill="#225D31"/>
<path d="M27.036 64.3811C27.0802 64.4917 26.4422 64.8827 25.5092 64.9306C25.0446 64.949 24.6094 64.831 24.3439 64.6577C24.0747 64.4844 23.9825 64.3037 24.0267 64.2594C24.0747 64.2041 24.2369 64.2779 24.4877 64.3442C24.7385 64.4143 25.0888 64.4586 25.4945 64.4438C26.3058 64.4069 26.9954 64.241 27.0397 64.3811H27.036Z" fill="#225D31"/>
<path d="M26.3611 65.919C26.4016 66.0444 26.0034 66.2656 25.4871 66.1661C24.9671 66.0739 24.6757 65.7088 24.7643 65.6092C24.8491 65.5022 25.1773 65.6203 25.5756 65.6866C25.9739 65.7678 26.3242 65.7825 26.3611 65.9153V65.919Z" fill="#225D31"/>
<path d="M27.7146 61.3092C27.7736 61.4235 27.4122 61.7296 26.8516 61.8218C26.2948 61.9176 25.8485 61.7443 25.8707 61.6152C25.8891 61.4788 26.2984 61.4235 26.7742 61.3424C27.2499 61.2649 27.6556 61.1838 27.7183 61.3092H27.7146Z" fill="#225D31"/>
<path d="M26.6671 72.557C26.7003 72.6124 26.6007 72.7488 26.3721 72.889C26.1471 73.0291 25.7894 73.1471 25.3948 73.1692C25.0002 73.195 24.6609 73.1508 24.4175 73.1028C24.1741 73.0549 24.0266 72.9922 24.0229 72.9258C24.0229 72.8594 24.1742 72.7968 24.4212 72.7599C24.6683 72.7193 25.0039 72.7082 25.3579 72.6861C26.0586 72.6566 26.586 72.4427 26.6634 72.5607L26.6671 72.557Z" fill="#225D31"/>
<path d="M25.9295 67.5785C25.9849 67.7039 25.594 67.9547 25.074 67.9436C24.5651 67.9399 24.1926 67.7666 24.2073 67.6412C24.2221 67.5048 24.6241 67.4568 25.074 67.4605C25.5202 67.4679 25.8779 67.4568 25.9295 67.5822V67.5785Z" fill="#225D31"/>
<path d="M30.2332 77.1668C30.2775 77.2111 30.1337 77.4582 29.8055 77.779C29.4809 78.0962 28.9609 78.4834 28.2971 78.7452C27.6333 79.0034 26.9769 79.0624 26.5159 79.0071C26.0549 78.9554 25.7931 78.8264 25.8042 78.7674C25.83 78.6272 26.9142 78.7858 28.1201 78.2916C29.326 77.8196 30.1263 77.0599 30.2296 77.1705L30.2332 77.1668Z" fill="#225D31"/>
<path d="M30.2333 75.6917C30.3182 75.795 30.0748 76.1047 29.6359 76.2006C29.1971 76.3002 28.8541 76.1269 28.8799 75.9978C28.902 75.8613 29.2007 75.8023 29.529 75.7249C29.8609 75.6548 30.1485 75.5811 30.2297 75.688L30.2333 75.6917Z" fill="#225D31"/>
<path d="M26.7926 57.2525C26.8184 57.3116 26.7262 57.4222 26.5308 57.5107C26.339 57.5992 26.044 57.6582 25.7194 57.625C25.3949 57.5881 25.1146 57.4628 24.9487 57.3263C24.779 57.1899 24.7237 57.0571 24.7643 57.0092C24.8565 56.9096 25.2474 57.0977 25.7748 57.1419C26.2984 57.2083 26.7373 57.1309 26.7926 57.2525Z" fill="#225D31"/>
<path d="M26.9769 56.3933C27.0175 56.515 26.752 56.7252 26.3389 56.751C26.1361 56.7621 25.9407 56.7105 25.819 56.6294C25.6973 56.5482 25.653 56.4523 25.6862 56.397C25.76 56.2827 26.0034 56.2901 26.3168 56.2679C26.634 56.2532 26.9364 56.2679 26.9769 56.397V56.3933Z" fill="#225D31"/>
<path d="M27.5891 51.1677C27.6186 51.2267 27.5411 51.3373 27.3604 51.448C27.1834 51.5549 26.9031 51.6471 26.586 51.6508C25.9406 51.6582 25.5054 51.3484 25.5608 51.2304C25.6124 51.1013 26.0586 51.1751 26.5786 51.164C27.0986 51.164 27.519 51.0497 27.5891 51.1677Z" fill="#225D31"/>
<path d="M29.7428 45.1455C29.6986 45.2672 29.2745 45.2155 28.9684 44.8173C28.8209 44.6218 28.7582 44.4005 28.7619 44.242C28.7619 44.0797 28.8172 43.9838 28.8836 43.9801C29.02 43.9727 29.1454 44.2567 29.3593 44.5259C29.5621 44.8025 29.8018 45.0201 29.7428 45.1492V45.1455Z" fill="#225D31"/>
<path d="M29.1897 46.3145C29.1528 46.4362 28.843 46.462 28.5812 46.2038C28.4558 46.0784 28.3894 45.9088 28.3931 45.7871C28.3931 45.6617 28.4484 45.588 28.5148 45.5806C28.6512 45.5732 28.7766 45.7207 28.9278 45.8646C29.079 46.0194 29.2376 46.1891 29.1897 46.3182V46.3145Z" fill="#225D31"/>
<path d="M24.3328 32.1754C24.4434 32.2491 24.4066 32.4962 24.1816 32.6695C23.953 32.8466 23.6764 32.7986 23.6579 32.6659C23.6358 32.5331 23.7428 32.3966 23.8903 32.2823C24.0415 32.168 24.2222 32.0979 24.3365 32.1754H24.3328Z" fill="#225D31"/>
<path d="M25.6235 33.0346C25.7268 33.1157 25.6641 33.3886 25.4244 33.6173C25.1847 33.8496 24.886 33.8902 24.8233 33.7722C24.7569 33.6542 24.8933 33.4513 25.0888 33.2632C25.2879 33.0752 25.5166 32.9498 25.6235 33.0346Z" fill="#225D31"/>
<path d="M22.275 40.3033C22.3561 40.4029 22.1939 40.6831 21.8214 40.8012C21.4452 40.9192 21.1392 40.7532 21.165 40.6241C21.1871 40.4877 21.4231 40.4176 21.6776 40.3365C21.9357 40.259 22.1902 40.1927 22.2713 40.3033H22.275Z" fill="#225D31"/>
<path d="M22.8724 40.9044C22.9535 41.0077 22.9129 41.1884 22.7322 41.2695C22.5515 41.347 22.3967 41.2622 22.3672 41.1331C22.334 41.0003 22.4298 40.8712 22.5368 40.8233C22.6401 40.779 22.7913 40.7938 22.8761 40.9007L22.8724 40.9044Z" fill="#225D31"/>
<path d="M33.1541 37.9062C33.1725 38.0316 32.8959 38.2012 32.4977 38.1275C32.3022 38.0906 32.1399 37.9873 32.0551 37.8804C31.9703 37.7734 31.9555 37.6775 31.9998 37.6296C32.0994 37.5337 32.328 37.6038 32.5935 37.6517C32.8628 37.707 33.1357 37.7697 33.1541 37.9062Z" fill="#225D31"/>
<path d="M34.076 33.4365C34.0538 33.5582 33.7773 33.6763 33.3458 33.6025C33.1356 33.5656 32.9143 33.4255 32.8406 33.2595C32.7668 33.0973 32.8147 32.9866 32.8774 32.9756C32.9438 32.9571 33.0213 33.0088 33.1024 33.0383C33.1835 33.0678 33.2868 33.0936 33.4454 33.1268C33.7588 33.1821 34.0981 33.2927 34.076 33.4365Z" fill="#225D31"/>
<path d="M33.7515 34.1741C33.7884 34.3032 33.6187 34.4544 33.3901 34.4249C33.1614 34.4028 33.0176 34.1889 33.1061 34.0819C33.1909 33.9787 33.309 33.9271 33.4491 33.9418C33.5855 33.9602 33.7146 34.0414 33.7515 34.1741Z" fill="#225D31"/>
<path d="M9.73637 7.43738C9.77694 7.4927 9.52248 7.74716 9.09469 8.12701C8.6669 8.50685 8.0621 9.0084 7.44992 9.60951C6.84143 10.2106 6.36201 10.8117 6.12968 11.3022C5.8826 11.7853 5.85309 12.1394 5.77565 12.1394C5.72033 12.1467 5.62445 11.7595 5.81253 11.1732C5.98954 10.5868 6.47265 9.89347 7.11064 9.26286C7.75232 8.63593 8.40507 8.16388 8.88817 7.85042C9.37497 7.54064 9.6995 7.38207 9.74006 7.4337L9.73637 7.43738Z" fill="#87CCC2"/>
<path d="M11.6725 5.87015C11.7204 5.99922 11.4807 6.19836 11.2041 6.40119C10.9275 6.60402 10.6767 6.77366 10.5661 6.69622C10.4555 6.62615 10.5661 6.26843 10.9164 6.01028C11.2668 5.75214 11.6319 5.74476 11.6725 5.86646V5.87015Z" fill="#87CCC2"/>
<path d="M2.17628 25.7843C2.05458 25.7843 1.89969 24.7923 2.05089 23.5532C2.20578 22.3067 2.70732 21.3958 2.82165 21.4511C2.95072 21.5028 2.67782 22.4395 2.534 23.6159C2.39017 24.796 2.32379 25.7843 2.17628 25.7843Z" fill="#87CCC2"/>
<path d="M2.36074 28.9191C2.24273 28.9854 1.92927 28.5503 1.87764 27.9455C1.82232 27.348 1.95508 26.8907 2.08416 26.8907C2.2243 26.8907 2.3128 27.3591 2.36074 27.8938C2.405 28.4323 2.47876 28.8564 2.36074 28.9191Z" fill="#87CCC2"/>
<path d="M3.28261 27.1672C3.16092 27.2189 2.92121 26.9386 2.79951 26.5108C2.67043 26.0793 2.77738 25.6811 2.91383 25.6921C3.04659 25.6995 3.15723 25.9982 3.26786 26.3817C3.37481 26.7653 3.408 27.1156 3.28261 27.1672Z" fill="#87CCC2"/>
<path d="M36.2887 4.5793C36.2592 4.6383 35.9826 4.56823 35.5585 4.40597C35.1344 4.24739 34.5702 4.00031 33.9395 3.76429C33.3089 3.52827 32.7299 3.37338 32.2985 3.29225C31.8707 3.20743 31.5904 3.17424 31.5867 3.10417C31.583 3.04147 31.8633 2.95297 32.3316 2.95297C32.8 2.94928 33.4454 3.0636 34.1092 3.31069C34.7693 3.55777 35.3262 3.86017 35.7134 4.09988C36.1006 4.33959 36.3219 4.52029 36.2924 4.5793H36.2887Z" fill="#87CCC2"/>
<path d="M38.7781 5.22475C38.7891 5.35383 38.4019 5.49397 37.9409 5.31695C37.4799 5.13625 37.2956 4.75271 37.3951 4.67158C37.4984 4.57938 37.7823 4.73796 38.1179 4.86335C38.4535 4.99611 38.7744 5.08462 38.7781 5.22475Z" fill="#87CCC2"/>
<path d="M45.5083 13.338C45.4345 13.338 45.3903 13.0725 45.2317 12.6926C45.0805 12.3054 44.8039 11.8002 44.4241 11.2839C44.0405 10.7713 43.6422 10.3472 43.3288 10.0669C43.019 9.77925 42.8014 9.62805 42.8309 9.56167C42.853 9.50266 43.1444 9.55429 43.5353 9.79031C43.9262 10.0226 44.4019 10.4431 44.815 10.9962C45.2243 11.5531 45.4825 12.1431 45.5599 12.5968C45.6447 13.054 45.5636 13.3417 45.5046 13.338H45.5083Z" fill="#87CCC2"/>
<path d="M45.1395 14.1678C44.9994 14.1862 44.8592 13.7289 44.6933 13.2126C44.5384 12.6963 44.3171 12.3349 44.4019 12.2316C44.4462 12.1837 44.5827 12.2243 44.7412 12.3718C44.8998 12.5156 45.0584 12.7664 45.1543 13.0614C45.346 13.6588 45.2686 14.1567 45.1395 14.1678Z" fill="#87CCC2"/>
<path d="M46.2459 15.2741C46.1094 15.2704 46.0062 15.0159 45.9361 14.7135C45.8697 14.4074 45.8513 14.1419 45.9693 14.0755C46.0873 14.0091 46.3307 14.2378 46.4118 14.6066C46.4966 14.9717 46.3823 15.2814 46.2459 15.2741Z" fill="#87CCC2"/>
<path d="M47.9975 28.0892C47.8721 28.0302 48.1487 27.2299 48.2594 26.2232C48.3147 25.7216 48.3073 25.2717 48.252 24.9582C48.204 24.6411 48.1229 24.4456 48.1819 24.4014C48.2299 24.3645 48.429 24.5083 48.5802 24.8587C48.7351 25.2053 48.8015 25.7253 48.7388 26.2748C48.6134 27.3848 48.1082 28.1519 47.9938 28.0892H47.9975Z" fill="#87CCC2"/>
<path d="M46.799 29.1956C46.6773 29.1366 46.8101 28.5576 46.8322 27.8163C46.858 27.0714 46.9318 26.426 47.0756 26.4297C47.201 26.4334 47.3448 27.0419 47.319 27.8421C47.3005 28.2441 47.2083 28.6092 47.094 28.8526C46.9797 29.096 46.858 29.2214 46.799 29.1956Z" fill="#87CCC2"/>
<path d="M19.4169 3.10419C19.439 3.24064 18.5687 3.49879 17.5509 3.93764C16.533 4.37649 15.7106 4.78953 15.6369 4.67152C15.5668 4.56457 16.2896 3.95239 17.3628 3.49142C18.4359 3.02675 19.4022 2.97512 19.4169 3.10419Z" fill="#87CCC2"/>
<path d="M19.4169 4.02618C19.4575 4.15156 19.1293 4.3839 18.6646 4.52034C18.1963 4.66048 17.7759 4.61992 17.7574 4.48715C17.739 4.35439 18.082 4.18844 18.5282 4.05568C18.9744 3.92292 19.3764 3.8971 19.4169 4.02618Z" fill="#87CCC2"/>
</g>
<defs>
<clipPath id="clip0_613_14671">
<rect width="49.4316" height="80" fill="white" transform="translate(0.69751 0.90625)"/>
</clipPath>
</defs>
</svg>
