<svg width="58" height="81" viewBox="0 0 58 81" fill="none" xmlns="http://www.w3.org/2000/svg">
<g opacity="0.75" clip-path="url(#clip0_613_14474)">
<path d="M6.20471 41.8671C11.1213 47.6893 16.1223 46.7321 18.966 45.4651C21.7252 49.9377 26.8987 47.5757 28.2783 45.4651C30.1752 49.8516 39.7198 47.772 41.2718 46.0848C46.5333 48.6155 51.4182 45.1552 51.7631 42.2045C46.9345 33.008 16.5517 31.3209 6.20471 41.8671Z" fill="#276534"/>
<path d="M28.8273 36.9745C29.7458 47.4346 31.1571 68.6095 27.1873 78.1434C30.0626 81.2938 34.8032 79.9441 36.76 78.1434C34.3457 71.2813 32.7655 49.4591 32.6493 36.5234C31.7308 36.6371 28.8273 36.9745 28.8273 36.9745Z" fill="black"/>
<path d="M32.1038 52.4958C34.3457 52.2411 41.3317 48.7842 44.0029 41.6123C44.7806 41.5262 45.1255 42.2871 45.1255 42.2871C43.401 48.0233 37.9671 52.5785 32.4487 55.1091C31.4985 54.603 32.1038 52.4958 32.1038 52.4958Z" fill="black"/>
<path d="M39.1743 37.4806C38.7449 41.2783 40.8988 47.4345 40.8988 47.4345C41.6731 46.9284 42.4508 46.1709 42.4508 46.1709C40.0365 43.5542 40.0365 37.9041 40.0365 37.9041" fill="black"/>
<path d="M19.0821 35.6248C20.4617 42.2045 25.6352 48.4468 30.6362 48.0267C30.8087 49.7999 30.8087 51.3183 30.8087 51.3183C26.7543 50.9809 20.2012 44.7386 18.1318 37.6527" fill="black"/>
<path d="M17.2732 39.3364C1.6647 55.0265 -8.68229 28.5388 10.1147 27.864C6.49329 20.7781 14.9433 20.0172 17.5301 23.2227C10.1992 11.9191 21.5844 4.74715 25.2059 10.8207C23.9987 -1.15773 47.195 -7.23133 41.4161 14.7011C49.2644 10.566 55.8174 21.5356 47.2794 28.0293C63.2328 27.1857 60.3011 52.7472 42.7077 42.3697C39.0863 44.0568 35.2044 39.839 35.5493 38.0659C30.8052 42.201 24.685 38.4033 24.685 38.4033C20.5462 42.2836 17.2696 39.3329 17.2696 39.3329L17.2732 39.3364Z" fill="#329552"/>
<path d="M23.1082 29.4926C23.066 29.5546 22.6472 29.169 21.8096 28.711C21.602 28.6077 21.3521 28.4941 21.0987 28.4769C21.0353 28.4769 20.9755 28.4769 20.9192 28.4941C20.8594 28.5148 20.789 28.5389 20.7256 28.5699C20.6024 28.6353 20.4863 28.7214 20.3913 28.835C20.1977 29.0622 20.071 29.3824 20.0006 29.7336C19.9795 29.8197 19.969 29.9127 19.9549 30.0022L19.9373 30.1399L19.9302 30.2157L19.9232 30.3362C19.8986 30.6495 19.9056 31.104 19.9021 31.4965C19.6522 31.1453 19.3988 30.7838 19.1384 30.4154C18.973 30.226 18.8252 30.0194 18.6422 29.8335C18.2902 29.4479 17.8784 29.0967 17.4209 28.773C16.9564 28.4666 16.4461 28.1877 15.89 27.9914C15.3304 27.7986 14.7356 27.6712 14.1197 27.6161C13.2856 27.5507 12.4586 27.6299 11.6808 27.7952C10.896 27.9536 10.1992 28.2359 9.5903 28.625C8.37611 29.3997 7.56313 30.4946 7.28862 31.524C7.00355 32.5604 7.26398 33.4522 7.52794 33.9858C7.64408 34.2682 7.79189 34.4575 7.87636 34.5987C7.96082 34.7399 7.99954 34.8156 7.98898 34.8259C7.97842 34.8363 7.91155 34.7777 7.80245 34.6538C7.69335 34.5264 7.51738 34.3508 7.36957 34.065C7.28862 33.9273 7.19008 33.7758 7.13377 33.5899C7.06338 33.4074 6.97891 33.2111 6.95076 32.9839C6.83462 32.5397 6.85926 32.0061 6.9754 31.4414C7.23231 30.3121 8.07696 29.1139 9.36154 28.2703C9.99855 27.8468 10.7763 27.5232 11.5858 27.3545C12.3988 27.1754 13.2716 27.0893 14.1585 27.1582C14.8166 27.2167 15.4536 27.3545 16.0484 27.5645C16.6467 27.778 17.1851 28.081 17.6778 28.4115C18.16 28.7592 18.5894 29.1414 18.9554 29.5511C19.1454 29.7474 19.2968 29.9712 19.4657 30.1709C19.4938 30.2053 19.4938 30.2053 19.4938 30.2088L19.5009 30.2225L19.515 30.2501C19.515 30.2501 19.5396 30.2949 19.5502 30.3052C19.5537 30.2639 19.5607 30.226 19.5642 30.1881C19.5748 30.1055 19.5889 30.0228 19.5994 29.9437C19.617 29.8438 19.6346 29.7474 19.6593 29.651C19.7472 29.2688 19.9021 28.9038 20.159 28.625C20.2857 28.4838 20.4406 28.3805 20.6024 28.3013C20.6869 28.2669 20.7643 28.2428 20.8523 28.2187C20.9438 28.1946 21.0389 28.198 21.1233 28.2015C21.4612 28.2462 21.7075 28.3874 21.9222 28.5113C22.3481 28.7696 22.6366 29.0244 22.8337 29.1965C22.9288 29.2826 23.0027 29.3549 23.0484 29.4031C23.0942 29.4513 23.1153 29.4788 23.1118 29.4823L23.1082 29.4926Z" fill="#329552"/>
<path d="M50.0105 29.6613C50.0105 29.6613 49.8838 29.589 49.6691 29.4444C49.4544 29.3067 49.1236 29.1104 48.659 29.014C48.2015 28.9176 47.6032 28.9417 46.9521 29.0657C46.6283 29.1311 46.294 29.2378 45.9667 29.3962C45.8048 29.4789 45.6429 29.5684 45.4916 29.682C45.4775 29.6889 45.4458 29.7164 45.4106 29.744L45.3086 29.8266L45.2065 29.9092L45.0904 30.0194C44.939 30.1709 44.7842 30.3224 44.6293 30.4773C44.6575 30.1296 44.7138 29.7199 44.742 29.3446C44.7525 29.1414 44.7631 28.9348 44.756 28.7248C44.756 28.3048 44.7138 27.8709 44.6434 27.4337C44.573 26.9929 44.4534 26.5522 44.302 26.115C44.1331 25.6846 43.9325 25.2576 43.658 24.8651C43.2462 24.266 42.6831 23.8047 42.0602 23.5223C41.4373 23.2434 40.758 23.1333 40.128 23.1815C39.4946 23.2228 38.9033 23.4156 38.4071 23.691C37.9108 23.9665 37.4955 24.3039 37.1718 24.662C36.5277 25.3885 36.2532 26.1494 36.1335 26.6762C36.1089 26.8105 36.0737 26.9275 36.0632 27.0308C36.0526 27.1341 36.042 27.2236 36.035 27.2959C36.0174 27.4405 35.9998 27.5163 35.9822 27.5163C35.9646 27.5163 35.9541 27.4405 35.94 27.2925C35.9365 27.2167 35.9294 27.1272 35.9259 27.017C35.9259 26.9069 35.9435 26.7829 35.9576 26.6418C36.0244 26.0874 36.2638 25.2576 36.9219 24.452C37.2527 24.0526 37.6856 23.6738 38.217 23.3605C38.7449 23.0472 39.389 22.8199 40.0929 22.758C40.7932 22.696 41.5464 22.8027 42.2502 23.1126C42.9506 23.4225 43.5876 23.9424 44.0381 24.6C44.3407 25.0269 44.5554 25.4918 44.7349 25.9531C44.8968 26.4214 45.0165 26.8897 45.0869 27.3545C45.1537 27.8193 45.1924 28.2738 45.1854 28.7145C45.1854 28.9348 45.1748 29.1518 45.1572 29.3618C45.1572 29.3997 45.1432 29.4203 45.1432 29.4444C45.1678 29.4238 45.1572 29.4306 45.2628 29.3618C45.4388 29.2413 45.6218 29.1449 45.8048 29.0588C46.1708 28.897 46.5404 28.7937 46.8888 28.7351C47.5856 28.6284 48.2121 28.6353 48.7118 28.7765C49.2116 28.9142 49.5424 29.1586 49.743 29.3342C49.9401 29.5167 50.021 29.6338 50.007 29.6476L50.0105 29.6613Z" fill="#329552"/>
<path d="M29.774 9.18875C29.7528 9.20597 29.6473 9.12333 29.4643 8.97528C29.2707 8.84789 28.961 8.65852 28.5598 8.68262C28.3662 8.70672 28.1621 8.78591 28.0002 8.95118C27.8453 9.11989 27.7433 9.35746 27.6975 9.62258C27.6623 9.89458 27.687 10.1907 27.7644 10.4971C27.7749 10.5729 27.8101 10.6486 27.8348 10.7278L27.877 10.8449L27.8981 10.9034C27.9122 10.9482 27.9298 10.9895 27.9474 11.0308C28.0952 11.3441 28.2501 11.6643 28.4049 11.9914C28.2078 11.8881 28.0178 11.7814 27.8031 11.6815L27.4828 11.5266C27.4336 11.4991 27.3702 11.4784 27.335 11.4715L27.2646 11.4509C27.0746 11.3923 26.8705 11.3613 26.6593 11.3407C26.2405 11.2994 25.7971 11.3269 25.3536 11.4095C24.3436 11.5955 23.425 12.0396 22.8021 12.6456C22.4888 12.9452 22.253 13.286 22.1087 13.6372C21.9644 13.9884 21.9117 14.343 21.9187 14.6667C21.9328 15.3209 22.1439 15.8408 22.3023 16.1817C22.4607 16.526 22.5627 16.7188 22.5346 16.736C22.5135 16.7498 22.3586 16.5948 22.1439 16.2643C21.9328 15.9372 21.6547 15.4104 21.5914 14.6805C21.5632 14.3189 21.5984 13.9092 21.7498 13.5029C21.8976 13.0967 22.1545 12.6973 22.4994 12.3529C23.1822 11.6574 24.1746 11.1685 25.2691 10.9654C25.7513 10.8793 26.237 10.8483 26.7051 10.9C26.9409 10.9275 27.1696 10.9654 27.3913 11.0377L27.4758 11.0618C27.4758 11.0618 27.4758 11.0618 27.4828 11.0618H27.4899L27.5075 11.079C27.511 11.079 27.5075 11.0652 27.504 11.0515L27.4828 10.986L27.4406 10.8552C27.416 10.7691 27.3808 10.6865 27.3702 10.597C27.2928 10.2492 27.2752 9.89803 27.3385 9.57093C27.4089 9.24728 27.5567 8.94774 27.7785 8.73771C28.0072 8.52768 28.2993 8.4416 28.5492 8.43127C29.0701 8.44505 29.3833 8.71361 29.5593 8.87888C29.7247 9.06824 29.7916 9.18187 29.774 9.19564V9.18875Z" fill="#329552"/>
<path d="M28.9716 48.3332C28.9927 48.3125 29.0526 48.3297 29.1406 48.3848C29.2321 48.4365 29.3447 48.5363 29.4643 48.6809C29.5277 48.7532 29.577 48.8427 29.6368 48.9391C29.6825 49.0424 29.7424 49.1526 29.767 49.2835C29.8339 49.5348 29.8233 49.8791 29.6157 50.158C29.4115 50.4369 29.0878 50.5643 28.8238 50.5918C28.5563 50.6125 28.3241 50.578 28.1446 50.5195C27.9651 50.4644 27.8313 50.3956 27.7469 50.3336C27.6624 50.2751 27.6202 50.2303 27.6343 50.1993C27.6483 50.1718 27.7082 50.1614 27.8102 50.1649C27.9088 50.1752 28.046 50.1924 28.2114 50.2028C28.3769 50.2165 28.5669 50.2131 28.7569 50.1786C28.947 50.1373 29.1265 50.0444 29.2391 49.8929C29.3517 49.7448 29.3799 49.5417 29.3517 49.3558C29.3482 49.2628 29.3095 49.1698 29.2919 49.0838C29.2532 49.0011 29.2321 48.9185 29.1933 48.8462C29.123 48.7016 29.0596 48.5811 29.0103 48.4984C28.9681 48.4124 28.954 48.3504 28.9751 48.3297L28.9716 48.3332Z" fill="#225D31"/>
<path d="M28.2255 49.008C28.2818 49.0149 28.3417 49.1491 28.2818 49.3798C28.2466 49.49 28.1833 49.6277 28.0601 49.7379C27.9404 49.8515 27.7715 49.9411 27.5885 49.9789C27.2154 50.0547 26.8917 49.9273 26.7122 49.7999C26.5292 49.6656 26.4729 49.5313 26.5116 49.4866C26.5925 49.3867 27.0219 49.6346 27.4935 49.5348C27.7222 49.4866 27.8806 49.3661 27.9897 49.2387C28.0953 49.1113 28.1586 48.9976 28.229 49.008H28.2255Z" fill="#225D31"/>
<path d="M32.1919 41.6432C32.22 41.6983 32.1179 41.8119 31.9068 41.9187C31.6991 42.0254 31.3718 42.1184 31.0023 42.1011C30.6328 42.0839 30.3055 41.9531 30.1154 41.805C29.9219 41.657 29.855 41.5193 29.8937 41.4745C29.9852 41.3781 30.4216 41.6363 31.0269 41.6501C31.6288 41.6811 32.1355 41.5262 32.1954 41.6432H32.1919Z" fill="#225D31"/>
<path d="M32.0193 42.597C32.0545 42.7141 31.8152 42.9034 31.4351 42.9344C31.048 42.9654 30.7629 42.7691 30.8122 42.6521C30.8579 42.5316 31.1078 42.5075 31.4034 42.4834C31.6991 42.4627 31.9841 42.473 32.0193 42.597Z" fill="#225D31"/>
<path d="M32.9379 49.2352C32.9379 49.3557 32.674 49.4728 32.3326 49.4108C31.9877 49.3454 31.7836 49.1182 31.8469 49.0114C31.9103 48.9012 32.1566 48.9185 32.4241 48.9667C32.6951 49.0183 32.9379 49.1113 32.9415 49.2387L32.9379 49.2352Z" fill="#225D31"/>
<path d="M41.8491 45.5786C41.9863 45.558 42.1165 46.1674 41.8491 46.8526C41.7822 47.0247 41.6942 47.1866 41.5605 47.3208C41.5006 47.3897 41.4091 47.4448 41.3212 47.4827C41.2684 47.4964 41.2191 47.5068 41.1698 47.5137C41.1205 47.5137 41.0748 47.5033 41.0326 47.493C40.8707 47.4413 40.8003 47.3449 40.7686 47.283C40.7334 47.2175 40.7299 47.1728 40.7545 47.1521C40.7792 47.1315 40.8249 47.1315 40.8847 47.1487C40.9411 47.1693 41.0255 47.1866 41.0818 47.1762C41.1628 47.1762 41.3071 46.9834 41.4162 46.6873C41.6414 46.102 41.7259 45.589 41.8455 45.5752L41.8491 45.5786Z" fill="#225D31"/>
<path d="M41.2753 44.8488C41.3985 44.8488 41.5217 45.2034 41.4759 45.6751C41.4302 46.1537 41.1592 46.4877 41.0466 46.4257C40.9304 46.3672 40.9762 46.0366 41.0149 45.6269C41.0571 45.2137 41.1416 44.8488 41.2753 44.8522V44.8488Z" fill="#225D31"/>
<path d="M35.1797 53.1707C35.1868 53.2292 35.0882 53.3015 34.9087 53.3325C34.7328 53.3635 34.4688 53.3498 34.2084 53.2224C33.9479 53.0984 33.7684 52.878 33.7086 52.699C33.6488 52.52 33.684 52.3995 33.7403 52.3822C33.8705 52.3581 34.0465 52.6542 34.416 52.8161C34.7785 52.9986 35.1621 53.0399 35.1797 53.1707Z" fill="#225D31"/>
<path d="M35.581 52.7782C35.5599 52.8367 35.4895 52.8746 35.391 52.8643C35.2924 52.8574 35.1622 52.7989 35.0637 52.6749C34.9686 52.551 34.944 52.4029 34.9686 52.3065C34.9933 52.2067 35.0566 52.1584 35.12 52.1584C35.2502 52.1722 35.3452 52.3031 35.4332 52.4029C35.5142 52.5131 35.6197 52.6577 35.581 52.7782Z" fill="#225D31"/>
<path d="M33.684 57.1096C33.7087 57.1647 33.5186 57.3127 33.1597 57.4539C32.8042 57.595 32.2693 57.7293 31.6534 57.6777C31.3472 57.6501 31.0586 57.5675 30.8157 57.4539C30.5729 57.3403 30.3793 57.1888 30.2421 57.0476C29.9676 56.7549 29.9007 56.5174 29.9465 56.4864C30.0063 56.4451 30.1682 56.6103 30.4533 56.8031C30.7383 56.9959 31.1712 57.1784 31.6956 57.2266C32.22 57.2714 32.7092 57.2025 33.0682 57.144C33.4271 57.0855 33.6559 57.0476 33.684 57.1061V57.1096Z" fill="#225D31"/>
<path d="M32.9379 58.1217C32.9802 58.2319 32.5614 58.4936 31.9525 58.497C31.6498 58.497 31.3612 58.4075 31.1923 58.2698C31.0199 58.1321 30.9917 57.9909 31.0375 57.9565C31.0902 57.9152 31.1958 57.9565 31.3436 57.9875C31.4915 58.0219 31.7026 58.0425 31.9525 58.046C32.4523 58.046 32.8957 58.0012 32.9344 58.1252L32.9379 58.1217Z" fill="#225D31"/>
<path d="M34.49 65.7689C34.5288 65.8137 34.4056 65.9996 34.124 66.22C33.846 66.4404 33.3955 66.6848 32.8465 66.795C32.2975 66.9086 31.7766 66.8501 31.4352 66.7433C31.0868 66.6332 30.9073 66.4954 30.9284 66.4438C30.9742 66.3164 31.7872 66.5574 32.755 66.3508C33.7228 66.1615 34.4056 65.6622 34.4936 65.7689H34.49Z" fill="#225D31"/>
<path d="M33.5115 64.8702C33.5467 64.9184 33.4869 65.0389 33.3145 65.1629C33.1455 65.2868 32.864 65.3867 32.5613 65.4142C31.9525 65.459 31.502 65.3247 31.502 65.2077C31.4985 65.0734 31.9841 65.0045 32.5156 64.9632C33.047 64.9288 33.4271 64.7773 33.5151 64.8737L33.5115 64.8702Z" fill="#225D31"/>
<path d="M33.6278 63.462C33.6278 63.5859 33.487 63.6892 33.311 63.6892C33.135 63.6892 32.9943 63.5859 32.9943 63.462C32.9943 63.338 33.135 63.2347 33.311 63.2347C33.487 63.2347 33.6278 63.3346 33.6278 63.462Z" fill="#225D31"/>
<path d="M32.132 71.9561C32.139 72.0766 31.4457 72.2074 30.6081 72.0181C29.7775 71.8218 29.2074 71.4465 29.2566 71.3363C29.3094 71.2124 29.9499 71.3948 30.7136 71.5739C31.4774 71.7495 32.1284 71.8218 32.132 71.9561Z" fill="#225D31"/>
<path d="M30.6398 73.867C30.6116 73.991 30.2526 74.0013 29.8655 73.898C29.4784 73.7947 29.1898 73.6535 29.2004 73.5296C29.2109 73.4022 29.5804 73.3505 29.9817 73.4573C30.3829 73.564 30.6644 73.7465 30.6363 73.867H30.6398Z" fill="#225D31"/>
<path d="M35.9858 76.2289C36.0315 76.2634 35.9435 76.4837 35.6761 76.742C35.4121 77.0036 34.9616 77.2791 34.4126 77.4375C33.8636 77.5959 33.3322 77.5993 32.9626 77.5167C32.5931 77.4375 32.3995 77.2929 32.4206 77.2412C32.4453 77.1792 32.6635 77.2033 32.9978 77.1999C33.3321 77.1999 33.7932 77.1448 34.2824 77.0071C34.7716 76.8659 35.1869 76.6662 35.4719 76.4941C35.7605 76.3254 35.9295 76.1911 35.9858 76.2324V76.2289Z" fill="#225D31"/>
<path d="M35.0073 75.5541C35.032 75.6092 34.9686 75.7056 34.8208 75.7882C34.673 75.8743 34.4442 75.9363 34.1979 75.9466C33.7052 75.9604 33.3462 75.8399 33.3427 75.7194C33.3392 75.5885 33.7368 75.5059 34.1768 75.4921C34.6132 75.4818 34.9475 75.4405 35.0109 75.5506L35.0073 75.5541Z" fill="#225D31"/>
<path d="M2.52696 32.9804C2.47417 32.9494 2.56919 32.6602 2.79091 32.2195C3.01263 31.7822 3.36105 31.1866 3.86784 30.6081C4.37463 30.0263 4.95885 29.6097 5.41637 29.3859C5.87389 29.1621 6.18712 29.1001 6.20823 29.1517C6.26806 29.2757 5.15946 29.7956 4.21978 30.9008C3.74115 31.4448 3.36457 31.9923 3.07246 32.3813C2.78387 32.7738 2.58679 33.008 2.52696 32.977V32.9804Z" fill="#BEE0C7"/>
<path d="M1.95323 34.9499C1.83005 34.9464 1.70687 34.671 1.72095 34.275C1.73151 34.0753 1.79838 33.8894 1.88988 33.7758C1.97787 33.6622 2.07289 33.6243 2.12568 33.6553C2.23126 33.731 2.19255 33.9789 2.18551 34.3026C2.17143 34.6331 2.08697 34.9533 1.95323 34.9499Z" fill="#BEE0C7"/>
<path d="M16.4954 23.4741C16.4567 23.5257 16.1223 23.3708 15.5346 23.2331C14.9504 23.0919 14.1233 22.9335 13.2153 22.9267C12.7648 22.9267 12.3355 22.968 11.9871 23.0885C11.6386 23.2021 11.3888 23.4018 11.2902 23.6394C11.1811 23.8735 11.1846 24.1111 11.1776 24.2729C11.1846 24.4347 11.1776 24.5346 11.1494 24.5415C11.1178 24.5518 11.065 24.4692 11.0016 24.3004C10.9524 24.1317 10.882 23.8632 10.984 23.5258C11.072 23.1814 11.4204 22.8509 11.8357 22.696C12.251 22.5273 12.7297 22.4722 13.2188 22.4722C14.1972 22.4825 15.0489 22.6994 15.6367 22.9267C16.2279 23.1505 16.5376 23.4225 16.4954 23.4741Z" fill="#BEE0C7"/>
<path d="M14.8871 23.9803C14.8483 24.1042 14.3592 24.0491 13.7961 24.0457C13.5145 24.0457 13.2752 24.0663 13.1274 24.1145C12.976 24.1559 12.881 24.2316 12.8212 24.2041C12.7684 24.1868 12.7614 24.0112 12.9549 23.8425C13.145 23.6738 13.4688 23.5912 13.7961 23.5912C14.4612 23.5981 14.9293 23.8666 14.8871 23.9803Z" fill="#BEE0C7"/>
<path d="M18.0474 13.8024C17.9875 13.8024 17.9277 13.4237 18.0087 12.8177C18.0544 12.5182 18.1213 12.1566 18.2585 11.7745C18.3887 11.3888 18.5788 10.9722 18.8709 10.5831C19.1595 10.1975 19.5185 9.8601 19.9232 9.68794C20.0182 9.63285 20.1203 9.60187 20.2188 9.57432C20.3174 9.54678 20.4124 9.51235 20.5074 9.49513C20.701 9.48136 20.877 9.45037 21.0388 9.46414C21.2007 9.48136 21.345 9.49857 21.4682 9.51579C21.5914 9.54678 21.6899 9.58465 21.7744 9.61564C21.9398 9.67761 22.0208 9.72582 22.0137 9.75681C22.0032 9.78779 21.9046 9.79468 21.7357 9.78779C21.6512 9.78091 21.5527 9.77402 21.4365 9.76714C21.3204 9.77402 21.1902 9.78091 21.0459 9.78435C20.4757 9.80845 19.7402 10.1459 19.244 10.8517C18.987 11.1926 18.8005 11.5679 18.6562 11.9225C18.5084 12.2737 18.4099 12.6042 18.3289 12.8866C18.1741 13.4478 18.1142 13.8093 18.0474 13.8093V13.8024Z" fill="#BEE0C7"/>
<path d="M16.784 14.4773C16.7206 14.4773 16.6608 14.3017 16.6326 14.0056C16.608 13.7129 16.615 13.2894 16.7664 12.8418C16.9177 12.3907 17.1957 12.043 17.4245 11.8433C17.6568 11.6436 17.8363 11.5678 17.875 11.6092C17.9735 11.7125 17.4632 12.222 17.2063 12.9864C16.9599 13.7576 16.9283 14.4841 16.784 14.4807V14.4773Z" fill="#BEE0C7"/>
<path d="M17.4175 16.6705C17.2908 16.6705 17.1852 16.3572 17.1852 15.9681C17.1852 15.5791 17.2908 15.2657 17.4175 15.2657C17.5442 15.2657 17.6497 15.5791 17.6497 15.9681C17.6497 16.3572 17.5477 16.6705 17.4175 16.6705Z" fill="#BEE0C7"/>
<path d="M38.6851 5.75939C38.6534 5.76283 38.6006 5.65266 38.5373 5.44951C38.5021 5.34966 38.4775 5.22227 38.4211 5.08455C38.3684 4.94682 38.312 4.78844 38.2452 4.61285C38.1607 4.44758 38.0798 4.26165 37.9742 4.07572C37.8545 3.89668 37.7454 3.69354 37.58 3.51795C37.2738 3.15298 36.8621 2.80867 36.3518 2.5952C35.3171 2.16826 34.2366 2.31631 33.5116 2.49879C32.7796 2.69505 32.3397 2.90163 32.3045 2.83277C32.2798 2.79146 32.6634 2.48158 33.4131 2.19236C33.7896 2.06496 34.2542 1.92036 34.7997 1.8997C35.3346 1.86871 35.9505 1.93068 36.5383 2.17859C37.1295 2.4196 37.5976 2.83277 37.9214 3.25627C38.0974 3.46286 38.2065 3.69354 38.3226 3.89668C38.4247 4.11015 38.4915 4.31674 38.5619 4.50267C38.6042 4.69548 38.6464 4.86763 38.6816 5.01913C38.7133 5.17062 38.7133 5.3049 38.7238 5.41508C38.7344 5.632 38.7238 5.7525 38.6957 5.75595L38.6851 5.75939Z" fill="#BEE0C7"/>
<path d="M39.2024 9.18875C39.0863 9.14054 39.1778 8.59998 39.2235 7.91825C39.2763 7.23308 39.3573 6.65808 39.491 6.65808C39.6142 6.65808 39.7409 7.22963 39.6846 7.95612C39.6353 8.6895 39.3221 9.24384 39.2024 9.18875Z" fill="#BEE0C7"/>
<path d="M37.9952 7.5601C37.858 7.5601 37.8052 6.74409 37.4673 5.84545C37.2984 5.39785 37.0732 5.03633 36.8761 4.79531C36.679 4.55429 36.5241 4.41313 36.5593 4.3546C36.5875 4.30639 36.8127 4.34771 37.1048 4.56462C37.3969 4.77809 37.7137 5.18438 37.9037 5.68707C38.2803 6.70278 38.1114 7.57043 37.9952 7.5601Z" fill="#BEE0C7"/>
<path d="M40.2371 7.83909C40.0998 7.83909 40.0435 6.74419 39.8077 5.43926C39.5754 4.13433 39.1954 3.11173 39.3185 3.05664C39.4241 3.00156 40.0189 3.98628 40.2652 5.35662C40.5116 6.72353 40.3567 7.83909 40.2406 7.83564L40.2371 7.83909Z" fill="#BEE0C7"/>
<path d="M47.3111 17.7964C47.2442 17.8377 47.0119 17.5072 46.5227 17.125C46.2764 16.9357 45.9631 16.7463 45.583 16.5982C45.2029 16.4571 44.763 16.3538 44.2879 16.3193C43.3342 16.2608 42.4719 16.4708 41.8736 16.674C41.2718 16.8806 40.9128 17.0665 40.8741 17.008C40.8424 16.9632 41.1416 16.674 41.7469 16.3779C42.3452 16.0852 43.2673 15.8029 44.3196 15.8683C44.844 15.9062 45.3332 16.0336 45.752 16.216C46.1673 16.4054 46.5016 16.6499 46.7409 16.8874C47.2196 17.3729 47.3533 17.7758 47.3111 17.7964Z" fill="#BEE0C7"/>
<path d="M48.8631 20.1584C48.7329 20.1515 48.6414 19.8829 48.5252 19.5799C48.4161 19.2735 48.307 19.0084 48.4056 18.9223C48.4971 18.8362 48.8138 19.0256 48.9616 19.425C49.1094 19.8209 48.9898 20.1721 48.8631 20.1584Z" fill="#BEE0C7"/>
<path d="M39.4347 20.3272C39.3643 20.3272 39.3326 19.8658 39.0546 19.1841C38.7836 18.5058 38.3014 17.583 37.5377 16.767C37.1576 16.3607 36.7353 16.0336 36.3094 15.8408C35.8836 15.648 35.4613 15.6101 35.1199 15.6859C34.4266 15.8477 34.0852 16.2333 34.0324 16.1679C34.0113 16.1473 34.0746 16.044 34.2224 15.8787C34.3773 15.7272 34.6342 15.5069 35.0354 15.376C35.4296 15.2383 35.9716 15.2486 36.4819 15.4552C36.9922 15.6583 37.4708 16.0199 37.8826 16.4571C38.7061 17.342 39.1637 18.3405 39.3713 19.0842C39.5825 19.8348 39.498 20.3341 39.4417 20.3272H39.4347Z" fill="#329552"/>
<path d="M38.6287 16.9495C38.5055 16.9701 38.2733 16.4537 37.8791 15.8684C37.6855 15.5757 37.499 15.3209 37.3547 15.1488C37.2139 14.9732 37.1083 14.8733 37.133 14.8113C37.1541 14.7562 37.3371 14.7631 37.5694 14.9043C37.8017 15.042 38.0586 15.2968 38.2697 15.6205C38.7061 16.2678 38.7589 16.9288 38.6287 16.946V16.9495Z" fill="#BEE0C7"/>
<path d="M39.0336 24.8823C39.0512 24.9546 38.7309 25.0441 38.3226 25.3195C38.115 25.4538 37.9003 25.6535 37.6927 25.8945C37.4921 26.1459 37.3055 26.4454 37.1507 26.7897C36.8515 27.4784 36.7424 28.167 36.7072 28.6628C36.6685 29.162 36.6896 29.4822 36.6228 29.496C36.5665 29.5098 36.4292 29.1999 36.3799 28.6662C36.3307 28.136 36.394 27.3785 36.7248 26.6107C36.8973 26.232 37.1225 25.8945 37.3724 25.6225C37.6328 25.3609 37.9038 25.1577 38.1607 25.0441C38.6746 24.81 39.03 24.8375 39.0371 24.8857L39.0336 24.8823Z" fill="#BEE0C7"/>
<path d="M43.1125 25.9497C43.0456 25.96 42.9788 25.8601 42.8697 25.7396C42.7641 25.6157 42.6057 25.4711 42.391 25.3333C41.9652 25.0545 41.5358 24.8995 41.5605 24.7721C41.571 24.6551 42.106 24.6069 42.6515 24.958C42.9189 25.1336 43.109 25.3884 43.1618 25.5985C43.2216 25.8119 43.1688 25.9462 43.1125 25.9531V25.9497Z" fill="#BEE0C7"/>
<path d="M39.315 37.6597C39.3397 37.7079 38.9877 37.9282 38.3437 38.0556C38.0234 38.1245 37.6328 38.1486 37.1999 38.1451C36.767 38.1245 36.2919 38.0591 35.8097 37.9248C35.3276 37.7802 34.8912 37.5736 34.5252 37.336C34.3527 37.2017 34.1767 37.0881 34.0465 36.9435C33.9796 36.8746 33.9128 36.8092 33.8494 36.7438C33.7966 36.6715 33.7439 36.6026 33.6946 36.5338C33.318 35.9863 33.2969 35.5628 33.3426 35.5559C33.4201 35.5318 33.5503 35.8968 33.9515 36.3341C34.0008 36.3892 34.0536 36.4443 34.1099 36.5028C34.1732 36.5544 34.2366 36.6095 34.3034 36.6646C34.4301 36.7851 34.5991 36.8712 34.7574 36.9848C35.1023 37.1776 35.5 37.3532 35.9435 37.4875C36.3904 37.6115 36.8268 37.6838 37.228 37.7251C37.6293 37.7526 37.9953 37.763 38.3015 37.7354C38.9138 37.6975 39.2869 37.5908 39.315 37.6597Z" fill="#329552"/>
<path d="M39.6071 38.3241C39.6494 38.3654 39.6318 38.4756 39.5156 38.603C39.403 38.7269 39.1813 38.8474 38.9244 38.875C38.4 38.9197 38.0656 38.6581 38.1149 38.5513C38.1607 38.4274 38.5126 38.4618 38.8751 38.4239C39.2341 38.3964 39.5086 38.2414 39.6106 38.3275L39.6071 38.3241Z" fill="#BEE0C7"/>
<path d="M54.7828 38.7717C54.7194 38.7339 55.0045 38.2932 55.2544 37.5288C55.374 37.1466 55.4655 36.6818 55.4444 36.1653C55.4303 35.9071 55.3881 35.6385 55.3177 35.3665C55.2368 35.098 55.1347 34.8225 54.9975 34.5505C54.4449 33.4591 53.6425 32.6224 52.9633 32.2023C52.2805 31.7651 51.7385 31.8167 51.735 31.7375C51.735 31.7134 51.8617 31.6583 52.1116 31.6583C52.3579 31.6549 52.7275 31.7203 53.1216 31.92C53.917 32.3091 54.8144 33.1733 55.4092 34.3474C55.5606 34.6435 55.6697 34.9499 55.7541 35.2529C55.828 35.5593 55.8667 35.8623 55.8703 36.1516C55.8703 36.7334 55.7295 37.2396 55.5606 37.6355C55.2086 38.424 54.8215 38.7958 54.7792 38.7683L54.7828 38.7717Z" fill="#BEE0C7"/>
<path d="M55.4162 39.1092C55.5288 39.1608 55.2649 39.8942 54.5786 40.5518C54.2407 40.8789 53.8677 41.1131 53.5756 41.2267C53.2835 41.3437 53.0829 41.3575 53.0617 41.299C53.0195 41.1785 53.6389 40.8376 54.2548 40.2247C54.8813 39.6256 55.3001 39.0438 55.4197 39.1057L55.4162 39.1092Z" fill="#BEE0C7"/>
<path d="M13.2189 40.6C13.2576 40.6414 13.0288 40.9375 12.5643 41.3265C12.0997 41.7122 11.3923 42.1907 10.4878 42.4937C10.0374 42.6418 9.58335 42.721 9.17158 42.7416C8.75629 42.7554 8.38324 42.7107 8.08057 42.6349C7.47524 42.48 7.16201 42.2493 7.18313 42.2045C7.21129 42.1357 7.56674 42.2562 8.13688 42.3216C8.42195 42.3526 8.76333 42.3629 9.13991 42.3285C9.51648 42.2872 9.92121 42.2045 10.34 42.0702C11.1706 41.7913 11.8709 41.3816 12.3672 41.0752C12.8634 40.7653 13.1731 40.5553 13.2154 40.6069L13.2189 40.6Z" fill="#BEE0C7"/>
<path d="M12.6171 40.0112C12.6593 40.0594 12.5854 40.1972 12.427 40.3831C12.2686 40.569 12.0188 40.8066 11.6774 41.0028C11.336 41.1991 10.9594 41.2817 10.6955 41.2645C10.428 41.2507 10.2802 41.1681 10.2872 41.1096C10.2943 41.0442 10.4456 41.0097 10.6603 40.9443C10.875 40.8823 11.153 40.7756 11.4451 40.6103C12.0258 40.2626 12.5256 39.9079 12.6171 40.0147V40.0112Z" fill="#BEE0C7"/>
<path d="M23.1364 37.9866C23.1505 38.0451 22.8514 38.1794 22.3375 38.2862C21.8237 38.3929 21.0917 38.4686 20.2787 38.3654C19.874 38.3068 19.4868 38.2104 19.156 38.052C18.8322 37.8868 18.5507 37.6905 18.3888 37.4598C18.2938 37.3565 18.241 37.2395 18.1987 37.1396C18.1776 37.0914 18.1565 37.0432 18.1389 37.0019C18.1319 36.9571 18.1248 36.9158 18.1178 36.8779C18.0967 36.7264 18.1002 36.6473 18.1319 36.6404C18.2093 36.6197 18.2973 36.933 18.6352 37.2498C18.7935 37.4151 19.0434 37.5528 19.3285 37.6733C19.6206 37.7904 19.969 37.8627 20.3385 37.9212C21.0846 38.0176 21.785 37.9969 22.2918 37.9728C22.7986 37.9522 23.1188 37.9281 23.1329 37.9901L23.1364 37.9866Z" fill="#BEE0C7"/>
<path d="M26.325 37.9867C26.3145 38.0452 26.2159 38.09 26.0611 38.0762C25.9098 38.0659 25.7092 37.9901 25.5332 37.8524C25.1742 37.5701 25.0897 37.1982 25.2024 37.1431C25.3185 37.0812 25.5473 37.2877 25.8218 37.4978C26.0892 37.7181 26.3356 37.8593 26.3215 37.9867H26.325Z" fill="#BEE0C7"/>
<path d="M41.5041 40.9374C41.5041 40.9959 41.2014 41.0613 40.7017 41.0751C40.2054 41.0854 39.498 41.051 38.759 40.7652C38.3929 40.6172 38.0656 40.4106 37.8123 40.173C37.5518 39.9423 37.3899 39.6738 37.2703 39.45C37.0556 38.9852 37.0521 38.6718 37.1013 38.6581C37.1717 38.6374 37.2914 38.9129 37.5518 39.2882C37.8158 39.66 38.2768 40.087 38.9279 40.3417C39.5825 40.5931 40.2406 40.6826 40.7157 40.7515C41.1944 40.8169 41.497 40.8685 41.497 40.9339L41.5041 40.9374Z" fill="#BEE0C7"/>
</g>
<defs>
<clipPath id="clip0_613_14474">
<rect width="57.732" height="80" fill="white" transform="translate(0 0.0301514)"/>
</clipPath>
</defs>
</svg>
