<svg width="135" height="66" viewBox="0 0 135 66" fill="none" xmlns="http://www.w3.org/2000/svg">
<g clip-path="url(#clip0_60_4931)">
<path d="M43.5827 2.05139L43.2049 3.94019L74.2521 10.1497L74.6299 8.26087L43.5827 2.05139Z" fill="#414042"/>
<path d="M43.519 0.757188L43.2666 2.01904L74.3138 8.22852L74.5662 6.96666L43.519 0.757188Z" fill="#FFC04F"/>
<g style="mix-blend-mode:multiply" opacity="0.4">
<path d="M56.1684 3.28589L74.567 6.96724L74.3145 8.22558L54.6291 4.27138L56.1684 3.28589Z" fill="#FFC04F"/>
</g>
<path d="M125.234 41.317H131.921L123.092 8.98706H4.47881V37.4646L125.234 41.317Z" fill="url(#paint0_linear_60_4931)"/>
<g opacity="0.5">
<path d="M90.5344 30.509C90.9661 33.8361 92.9371 36.5564 94.9203 36.5564C96.9035 36.5564 98.1659 33.8361 97.7342 30.509C97.3026 27.182 95.3316 24.4617 93.3484 24.4617C91.3652 24.4617 90.1028 27.182 90.5344 30.509Z" fill="#40403F"/>
<path d="M73.9887 30.5578C74.4204 33.8849 76.3914 36.6052 78.3746 36.6052C80.3578 36.6052 81.6202 33.8849 81.1885 30.5578C80.7569 27.2349 78.7859 24.5105 76.8027 24.5105C74.8195 24.5105 73.557 27.2308 73.9887 30.5578Z" fill="#40403F"/>
<path d="M57.4389 30.6068C57.8706 33.9338 59.8416 36.6541 61.8248 36.6541C63.808 36.6541 65.0704 33.9338 64.6387 30.6068C64.2071 27.2838 62.2361 24.5635 60.2529 24.5635C58.2697 24.5635 57.0073 27.2838 57.4389 30.6068Z" fill="#40403F"/>
<path d="M40.8932 30.6556C41.3249 33.9786 43.2959 36.6989 45.2791 36.6989C47.2623 36.6989 48.5247 33.9786 48.093 30.6556C47.6614 27.3326 45.6904 24.6123 43.7072 24.6123C41.724 24.6123 40.4616 27.3326 40.8932 30.6556Z" fill="#40403F"/>
<path d="M24.3434 30.7044C24.7751 34.0274 26.7461 36.7477 28.7293 36.7477C30.7125 36.7477 31.9749 34.0274 31.5432 30.7044C31.1116 27.3814 29.1406 24.6611 27.1574 24.6611C25.1742 24.6611 23.9118 27.3814 24.3434 30.7044Z" fill="#40403F"/>
<path d="M7.7977 30.7535C8.22936 34.0765 10.2004 36.7968 12.1836 36.7968C14.1668 36.7968 15.4292 34.0765 14.9975 30.7535C14.5658 27.4305 12.5949 24.7102 10.6117 24.7102C8.62845 24.7102 7.36604 27.4305 7.7977 30.7535Z" fill="#40403F"/>
</g>
<path d="M1.76666 6.38477V52.3772H1.87661V56.531H134.01V48.2235H133.188V36.4423L122.539 6.38477H1.76666ZM96.7325 12.0982H121.773L129.18 34.7157V35.241H96.7325V12.0982ZM5.87153 12.0982H94.3991V35.241H5.87153V12.0982Z" fill="#FFC04F"/>
<path d="M109.133 12.0859H104.519V35.4202H109.133V12.0859Z" fill="#40403F"/>
<path d="M98.8419 12.0981H94.228V32.1135H98.8419V12.0981Z" fill="#40403F"/>
<path d="M69.2119 12.0981H64.598V32.1135H69.2119V12.0981Z" fill="#40403F"/>
<path d="M39.5779 12.0981H34.964V32.1135H39.5779V12.0981Z" fill="#40403F"/>
<path d="M9.94382 12.0981H5.32991V32.1135H9.94382V12.0981Z" fill="#40403F"/>
<path d="M118.018 35.856H111.442V38.1487H118.018V35.856Z" fill="white"/>
<path d="M68.3608 17.885H37.3503V20.4546H68.3608V17.885Z" fill="#40403F"/>
<path d="M2.44673 38.1079L131.233 39.1789V35.3225H112.39L109.177 32.1135H2.44673V38.1079Z" fill="#FFC04F"/>
<g style="mix-blend-mode:screen" opacity="0.3">
<path d="M96.3863 55.0202C96.3863 49.0624 101.497 44.2327 107.455 44.2327C113.413 44.2327 118.242 49.0624 118.242 55.0202H96.3822H96.3863Z" fill="#4F4F4E"/>
<path d="M96.3863 55.0202C96.3863 49.0624 101.497 44.2327 107.455 44.2327C113.413 44.2327 118.242 49.0624 118.242 55.0202H96.3822H96.3863Z" stroke="#FFC550" stroke-width="8.03056" stroke-miterlimit="10"/>
</g>
<g style="mix-blend-mode:screen" opacity="0.3">
<path d="M21.8756 55.0202C21.8756 49.0624 26.9864 44.2327 32.9441 44.2327C38.9019 44.2327 43.7316 49.0624 43.7316 55.0202H21.8756Z" fill="#4F4F4E"/>
<path d="M21.8756 55.0202C21.8756 49.0624 26.9864 44.2327 32.9441 44.2327C38.9019 44.2327 43.7316 49.0624 43.7316 55.0202H21.8756Z" stroke="#FFC550" stroke-width="8.03056" stroke-miterlimit="10"/>
</g>
<path d="M133.212 40.4617H130.427L131.037 47.8244H133.318L133.212 40.4617Z" fill="#FFFFE9" stroke="#4F4F4E" stroke-width="1.28277" stroke-linejoin="round"/>
<path d="M1.8929 58.555H132.837L134.336 55.8754V47.0996H0.7323V56.5188L1.8929 58.555Z" fill="#4F4F4E"/>
<path d="M134.214 56.0911L132.837 58.5549H1.8929L0.7323 56.5187V56.0911H18.7685L20.1612 54.8083H45.104L46.4967 56.0911H93.6009L94.8999 54.955L119.721 54.9142L121.329 56.0911H134.214Z" fill="#434242"/>
<path d="M96.3863 55.0202C96.3863 49.0624 101.497 44.2327 107.455 44.2327C113.413 44.2327 118.242 49.0624 118.242 55.0202H96.3823H96.3863Z" fill="#4F4F4E" stroke="#434242" stroke-width="3.21304" stroke-miterlimit="10"/>
<path d="M97.1194 55.0201C97.1194 49.3148 101.745 44.6887 107.455 44.6887C113.164 44.6887 117.79 49.3148 117.79 55.0201C117.79 60.7254 113.164 65.3556 107.455 65.3556C101.745 65.3556 97.1194 60.7295 97.1194 55.0201Z" fill="#595957"/>
<path d="M107.455 62.1304C103.533 62.1304 100.345 58.9418 100.345 55.0202C100.345 51.0986 103.533 47.9141 107.455 47.9141C111.376 47.9141 114.565 51.1027 114.565 55.0202C114.565 58.9378 111.376 62.1304 107.455 62.1304Z" fill="#FFC04F"/>
<g style="mix-blend-mode:overlay" opacity="0.4">
<path d="M111.409 50.6018C109.829 52.4344 108.469 54.0307 108.469 54.0307L110.22 49.8647C110.656 50.048 111.055 50.3005 111.409 50.6018Z" fill="white"/>
</g>
<g style="mix-blend-mode:overlay" opacity="0.6">
<path d="M101.338 55.0894C101.375 58.4327 104.103 61.1367 107.455 61.1367C110.806 61.1367 113.535 58.4286 113.571 55.0894H114.565C114.528 58.9784 111.356 62.1303 107.459 62.1303C103.562 62.1303 100.389 58.9743 100.349 55.0894H101.342H101.338Z" fill="#CECEC6"/>
</g>
<g style="mix-blend-mode:multiply" opacity="0.8">
<path d="M113.571 55.0284V55.0202C113.571 51.6484 110.827 48.9036 107.455 48.9036C104.083 48.9036 101.338 51.6484 101.338 55.0202V55.0284H100.345V55.0202C100.345 51.1027 103.533 47.9141 107.455 47.9141C111.376 47.9141 114.565 51.1027 114.565 55.0202V55.0284H113.571Z" fill="#CECEC6"/>
</g>
<path d="M104.34 55.0201C104.34 53.3016 105.736 51.9048 107.455 51.9048C109.173 51.9048 110.57 53.2975 110.57 55.0201C110.57 56.7427 109.177 58.1354 107.455 58.1354C105.732 58.1354 104.34 56.7427 104.34 55.0201Z" fill="#FFF285"/>
<path d="M21.6924 55.0202C21.6924 49.0624 26.8031 44.2327 32.7609 44.2327C38.7186 44.2327 43.5484 49.0624 43.5484 55.0202H21.6883H21.6924Z" fill="#4F4F4E" stroke="#434242" stroke-width="3.21304" stroke-miterlimit="10"/>
<path d="M22.4295 55.0201C22.4295 49.3148 27.0556 44.6887 32.7649 44.6887C38.4743 44.6887 43.1004 49.3148 43.1004 55.0201C43.1004 60.7254 38.4743 65.3556 32.7649 65.3556C27.0556 65.3556 22.4295 60.7295 22.4295 55.0201Z" fill="#595957"/>
<path d="M32.7649 62.1304C28.8433 62.1304 25.6547 58.9418 25.6547 55.0202C25.6547 51.0986 28.8433 47.9141 32.7649 47.9141C36.6866 47.9141 39.8752 51.1027 39.8752 55.0202C39.8752 58.9378 36.6866 62.1304 32.7649 62.1304Z" fill="#FFC04F"/>
<g style="mix-blend-mode:overlay" opacity="0.4">
<path d="M36.7151 50.6018C35.135 52.4343 33.7749 54.0265 33.7749 54.0265L35.5219 49.8606C35.9576 50.0438 36.3608 50.2963 36.711 50.5977L36.7151 50.6018Z" fill="white"/>
</g>
<g style="mix-blend-mode:overlay" opacity="0.6">
<path d="M26.6483 55.0894C26.685 58.4327 29.4134 61.1367 32.7649 61.1367C36.1164 61.1367 38.8449 58.4286 38.8815 55.0894H39.8752C39.8385 58.9784 36.6662 62.1303 32.769 62.1303C28.8718 62.1303 25.6954 58.9743 25.6588 55.0894H26.6524H26.6483Z" fill="#CECEC6"/>
</g>
<g style="mix-blend-mode:multiply" opacity="0.8">
<path d="M38.8815 55.0284C38.8815 55.0284 38.8815 55.0243 38.8815 55.0202C38.8815 51.6484 36.1368 48.9036 32.7649 48.9036C29.3931 48.9036 26.6483 51.6484 26.6483 55.0202V55.0284H25.6588V55.0202C25.6588 51.1027 28.8474 47.9141 32.769 47.9141C36.6906 47.9141 39.8792 51.1027 39.8792 55.0202V55.0284H38.8856H38.8815Z" fill="#CECEC6"/>
</g>
<path d="M29.6496 55.0201C29.6496 53.3016 31.0424 51.9048 32.7649 51.9048C34.4875 51.9048 35.8802 53.2975 35.8802 55.0201C35.8802 56.7427 34.4875 58.1354 32.7649 58.1354C31.0424 58.1354 29.6496 56.7427 29.6496 55.0201Z" fill="#FFF285"/>
<path d="M111.808 36.931H129.824L130.565 35.864L129.865 33.7179H112.969L109.116 30.5049H5.33806V33.7179H107.956L111.808 36.931Z" fill="#40403F"/>
<path d="M128.264 35.013L121.077 13.0592H5.33806V11.1331H122.473L130.097 34.4143L128.264 35.013Z" fill="#40403F"/>
<g style="mix-blend-mode:overlay" opacity="0.5">
<path d="M92.8109 30.5376H96.9361L91.2919 13.0837H87.1667L92.8109 30.5376Z" fill="white"/>
</g>
<g style="mix-blend-mode:overlay" opacity="0.5">
<path d="M24.148 30.5376H54.5436L48.9034 13.0837H18.5038L24.148 30.5376Z" fill="white"/>
</g>
<g style="mix-blend-mode:overlay" opacity="0.5">
<path d="M118.104 33.7464H122.95L116.32 13.2424H111.474L118.104 33.7464Z" fill="white"/>
</g>
<path d="M126.415 14.8755H123.202V16.9116H126.415V14.8755Z" fill="#40403F"/>
<g style="mix-blend-mode:overlay" opacity="0.5">
<path d="M72.2376 30.5376H83.2654L77.6253 13.0837H66.5934L72.2376 30.5376Z" fill="white"/>
</g>
<g style="mix-blend-mode:multiply" opacity="0.3">
<path d="M123.133 32.423H125.418C126.676 32.423 127.706 31.2869 127.706 29.9023V18.8664C127.706 17.4777 126.676 16.3416 125.418 16.3416H123.133V32.4271V32.423Z" fill="#4F4F4E"/>
</g>
<path d="M124.949 29.0798H127.25C128.517 29.0798 129.551 27.9355 129.551 26.5387V15.4254C129.551 14.0286 128.517 12.8843 127.25 12.8843H124.949V29.0757V29.0798Z" fill="#4F4F4E"/>
<path opacity="0.4" d="M129.03 27.8866V18.7036C129.03 17.3068 127.995 16.1625 126.729 16.1625H124.949V12.8843H127.25C128.517 12.8843 129.551 14.0286 129.551 15.4254V26.5387C129.551 27.1577 129.347 27.7237 129.014 28.1676C129.022 28.0739 129.026 27.9843 129.026 27.8866H129.03Z" fill="#66828F"/>
<path d="M126.171 29.0798H124.945V12.8843H126.171V29.0757V29.0798Z" fill="#40403F"/>
<path d="M4.04716 45.8047V40.6573C4.04716 40.6573 3.87205 39.6555 2.80104 39.6555C1.73002 39.6555 1.77482 39.6555 1.77482 39.6555V47.0427H4.04308V45.8047H4.04716Z" fill="#FF4E57"/>
<g style="mix-blend-mode:overlay" opacity="0.3">
<path d="M1.76666 6.38477H94.619H122.543L123.357 8.68154H69.611L81.9826 46.9366H56.4412L44.0696 8.68154H1.76666V6.38477Z" fill="white"/>
</g>
</g>
<defs>
<linearGradient id="paint0_linear_60_4931" x1="68.1979" y1="48.6634" x2="68.1979" y2="-7.51386" gradientUnits="userSpaceOnUse">
<stop offset="0.01" stop-color="#9AC6DC"/>
<stop offset="1" stop-color="#576896"/>
</linearGradient>
<clipPath id="clip0_60_4931">
<rect width="133.604" height="64.5947" fill="white" transform="translate(0.7323 0.756836)"/>
</clipPath>
</defs>
</svg>
