<svg width="144" height="64" viewBox="0 0 144 64" fill="none" xmlns="http://www.w3.org/2000/svg">
<g clip-path="url(#clip0_60_4797)">
<path d="M90.3602 12.4448H87.6279V19.4205H95.8828L90.3602 12.4448Z" fill="#3A2B2A"/>
<path d="M82.0618 9.18628L81.468 9.76557L87.4106 16.7654L88.0044 16.1861L82.0618 9.18628Z" fill="#231818"/>
<path d="M82.197 9.95878C85.6921 6.54578 85.7838 6.02925 85.5424 5.74443C85.301 5.45961 84.8086 5.51754 81.3184 8.93054C77.8282 12.3435 77.7316 12.8601 77.973 13.1449C78.2143 13.4297 78.7067 13.3718 82.197 9.95878Z" fill="#3A2B2A"/>
<path d="M38.4941 0.342529C36.5197 0.342529 34.9653 1.60249 35.2356 2.97831L38.5955 20.1495H45.0595L41.5499 2.2204C41.3375 1.13423 40.0486 0.342529 38.4941 0.342529Z" fill="#5E504F"/>
<path d="M39.2183 13.5842H43.7705L41.5451 2.2204C41.3327 1.13423 40.0438 0.342529 38.4893 0.342529C37.828 0.342529 37.2149 0.487353 36.6983 0.728725L39.2134 13.5842H39.2183Z" fill="#846D6D"/>
<path d="M64.8423 1.64111C62.8438 1.64111 61.1928 2.9059 61.3811 4.29138L63.7513 21.5495H70.2973L67.8209 3.52864C67.6712 2.43764 66.4113 1.64111 64.8423 1.64111Z" fill="#5E504F"/>
<path d="M62.9644 2.04662L64.6299 14.1683H69.2836L67.8209 3.52864C67.6712 2.43764 66.4112 1.64111 64.8423 1.64111C64.152 1.64111 63.5099 1.79559 62.9644 2.04662Z" fill="#846D6D"/>
<path d="M114.468 20.251V40.2607L122.381 36.8526L120.614 25.5177C120.141 22.4861 117.534 20.251 114.464 20.251H114.468Z" fill="#5E504F"/>
<path d="M113.667 21.4868V39.4353L120.768 36.3747L119.185 26.2081C118.76 23.4902 116.419 21.4868 113.667 21.4868Z" fill="#3A2B2A"/>
<path d="M113.484 22.7756V38.4889L119.697 35.8097L118.311 26.9079C117.939 24.5279 115.893 22.7708 113.484 22.7708V22.7756Z" fill="#5E504F"/>
<path d="M123.954 30.9534L112.045 34.6802L108.289 39.7683L106.204 46.6088L123.843 45.4598L123.954 30.9534Z" fill="#281C1B"/>
<path d="M123.264 44.6924H47.2463L48.5594 47.2944H123.713L123.264 44.6924Z" fill="#281C1B"/>
<path d="M88.6368 17.8517V14.6511H15.4093C15.5638 23.7943 18.8754 33.3237 23.3698 39.1938H44.654L48.6656 46.8598L105.707 47.6081L108.873 38.9332L115.13 32.8458L114.213 17.8469H88.6416L88.6368 17.8517Z" fill="#3A2B2A"/>
<path d="M78.2481 14.6462H71.2918L68.9505 34.5546H75.902L78.2481 14.6462Z" fill="#473737"/>
<path d="M60.6087 14.6462H53.6523L51.311 34.5546H58.2674L60.6087 14.6462Z" fill="#473737"/>
<path d="M114.821 27.7914L112.098 17.8275L111.422 28.4865L89.5685 32.8409V21.5012L94.6421 17.8468L92.2574 14.6462H86.1893V44.5185L50.0221 43.9874C47.9559 34.8539 41.9023 30.6927 38.2142 29.1913L33.6474 16.4324H15.4769C15.9983 25.0108 19.1651 33.7002 23.3649 39.189H44.6491L48.6607 46.8549L105.702 47.6032L108.869 38.9283L115.125 32.8409L114.816 27.7865L114.821 27.7914Z" fill="#281D1D"/>
<path d="M42.4913 35.8484L31.2337 31.9285L19.8892 34.598L28.9599 49.6935L36.4811 46.2177L47.9125 46.0101L42.4913 35.8484Z" fill="#281C1B"/>
<path d="M90.4326 12.0925H87.261V15.0373H92.7691C93.0877 15.0373 93.2615 14.7187 93.0684 14.5014L91.234 12.4546C91.0312 12.2277 90.7367 12.0974 90.4278 12.0974L90.4326 12.0925Z" fill="#BF4141"/>
<path d="M114.604 17.3496H113.03C112.504 17.3496 112.093 17.8034 112.146 18.3248L113.628 33.3188L116.984 32.2712L115.487 18.1461C115.439 17.6924 115.057 17.3496 114.604 17.3496Z" fill="#FFBB4D"/>
<path d="M115.188 18.3779C115.144 17.9676 114.797 17.6538 114.386 17.6538H112.957C112.871 17.6538 112.789 17.6731 112.711 17.6973C112.711 17.8276 112.702 17.9628 112.702 18.0931C112.702 22.0178 113.86 25.1991 115.294 25.1991C115.497 25.1991 115.699 25.1267 115.888 25.006L115.188 18.3731V18.3779Z" fill="#FFDC78"/>
<path d="M107.623 19.0635H106.88V25.2378L107.623 25.093V19.0635Z" fill="#231818"/>
<path d="M105.856 19.0635H105.026V25.6047L105.856 25.4405V19.0635Z" fill="#231818"/>
<path d="M103.877 19.0635H102.941V26.015L103.877 25.8316V19.0635Z" fill="#231818"/>
<path d="M101.637 19.0635H100.57V26.4833L101.637 26.2708V19.0635Z" fill="#231818"/>
<path d="M99.0834 19.0635H97.862V27.0143L99.0834 26.7729V19.0635Z" fill="#231818"/>
<path d="M96.1483 19.0635H94.729V27.6322L96.1483 27.3522V19.0635Z" fill="#231818"/>
<path d="M61.4342 14.6462V30.7023C61.4342 32.7829 60.068 34.4725 58.3929 34.4725H51.0262C49.3511 34.4725 47.9849 32.7829 47.9849 30.7023V14.6462H47.3477V30.7023C47.3477 33.2174 48.9987 35.2643 51.0262 35.2643H58.3929C60.4204 35.2643 62.0714 33.2174 62.0714 30.7023V14.6462H61.4342Z" fill="#231818"/>
<path d="M79.1943 14.6462V30.5865C79.1943 32.6526 77.8668 34.3277 76.2399 34.3277H69.0808C67.454 34.3277 66.1264 32.6478 66.1264 30.5865V14.6462H65.5085V30.5865C65.5085 33.0822 67.1112 35.1146 69.0808 35.1146H76.2399C78.2095 35.1146 79.8122 33.0822 79.8122 30.5865V14.6462H79.1943Z" fill="#231818"/>
<path d="M15.4721 3.16651L14.9362 3.22444C14.2749 3.29685 13.8549 4.4313 14.1107 5.44989L14.41 6.65193L14.1155 6.79675C13.3432 7.17812 13.1742 8.88221 13.8356 9.6546L13.488 9.89114C12.8218 10.3449 12.677 11.8125 13.2225 12.5945L13.2659 12.6573C12.9377 13.6372 13.3576 14.8441 14.0335 14.8441H40.6761L40.7582 13.6131L16.6789 1.06657C15.9114 0.665897 15.1969 1.90172 15.4672 3.16651H15.4721Z" fill="#BF4141"/>
<path d="M16.6789 1.06655C16.4762 0.96035 16.2734 0.970005 16.0948 1.06655C19.0251 2.76581 22.1291 4.95265 21.8926 5.36781C21.6608 5.77331 18.2865 4.32025 15.4141 2.72719C15.419 2.87202 15.4383 3.01684 15.4672 3.16649L15.0907 3.20994C17.4755 4.14164 20.9705 6.42019 20.734 7.12017C20.4974 7.81532 16.6403 6.70018 14.2266 5.93744L14.4052 6.65191L14.1107 6.79673C14.0818 6.81121 14.0528 6.83052 14.0238 6.84983C15.81 7.29396 19.9423 8.77115 19.8843 9.4663C19.8312 10.1808 15.5348 9.82836 13.6762 9.43251C13.7197 9.51458 13.7728 9.59182 13.8307 9.6594L13.4832 9.89595C13.4397 9.92491 13.4059 9.96836 13.3673 10.007C15.4479 10.2146 19.0782 10.847 19.1071 11.4359C19.1361 12.0635 15.3224 12.411 13.0439 12.2662C13.0921 12.3869 13.1501 12.4979 13.2176 12.5993L13.2611 12.6621C13.237 12.7393 13.2176 12.8166 13.1983 12.8986C13.768 12.8214 14.4245 12.7779 15.1197 12.7779C17.2872 12.7779 19.0444 13.1931 19.0444 13.7C19.0444 14.2069 17.2872 14.622 15.1197 14.622C14.5355 14.622 13.9852 14.593 13.4832 14.5351C13.628 14.7282 13.8162 14.8441 14.0238 14.8441H40.6665L40.7486 13.6131L16.6789 1.06655Z" fill="#A52D2D"/>
<path d="M133.662 30.2775C117.177 25.1121 107.401 33.5891 105.407 47.0432L48.5207 45.957C45.2429 31.7595 34.7336 26.1356 16.9686 32.5754C16.0514 32.9085 15.5493 33.9029 15.8293 34.8394C16.1383 35.8532 17.2341 36.3939 18.2334 36.027C37.6735 28.8968 44.5478 36.5918 47.8739 48.2452V48.3418H47.9028C47.9028 48.3418 47.9077 48.3563 47.9125 48.3659H48.7525C48.7525 48.3659 48.7525 48.3514 48.7525 48.3418L105.784 48.2935H106.378C108.574 35.776 118.755 28.6458 132.745 33.1691C133.6 33.4443 134.512 32.9374 134.705 32.0588C134.874 31.2864 134.425 30.514 133.672 30.2775H133.662Z" fill="#FFBB4D"/>
<path d="M26.3917 48.4625C26.3917 50.8472 28.3227 52.7782 30.7075 52.7782C33.0922 52.7782 35.0232 50.8472 35.0232 48.4625C35.0232 46.0777 33.0922 44.1467 30.7075 44.1467C28.3227 44.1467 26.3917 46.0777 26.3917 48.4625Z" fill="#281C1B"/>
<path d="M35.448 45.7349C37.9486 44.0405 39.8989 42.5488 39.8024 42.4088C39.7058 42.264 37.5962 43.5239 35.0956 45.2184C32.595 46.9128 30.6447 48.4045 30.7413 48.5445C30.8378 48.6845 32.9474 47.4293 35.448 45.7349Z" fill="#916044"/>
<path d="M26.7007 51.6629C29.2013 49.9684 31.1516 48.4768 31.055 48.3368C30.9585 48.192 28.8489 49.4519 26.3483 51.1463C23.8477 52.8408 21.8974 54.3325 21.9939 54.4725C22.0905 54.6124 24.2001 53.3573 26.7007 51.6629Z" fill="#916044"/>
<path d="M33.6039 52.9905C35.2984 55.4911 36.7901 57.4414 36.9301 57.3448C37.0749 57.2483 35.8149 55.1387 34.1205 52.6381C32.426 50.1374 30.9344 48.1872 30.7944 48.2837C30.6495 48.3803 31.9095 50.4899 33.6039 52.9905Z" fill="#916044"/>
<path d="M27.6758 44.2432C29.3703 46.7438 30.862 48.6941 31.002 48.5975C31.1468 48.501 29.8868 46.3914 28.1924 43.8907C26.4979 41.3901 25.0063 39.4398 24.8663 39.5364C24.7214 39.6329 25.9814 41.7425 27.6758 44.2432Z" fill="#916044"/>
<path d="M32.204 43.3115C32.7736 40.3427 33.1019 37.9096 32.9281 37.8758C32.7591 37.8421 32.1605 40.222 31.5861 43.1909C31.0164 46.1597 30.6882 48.5928 30.8619 48.6266C31.0309 48.6604 31.6295 46.2804 32.204 43.3115Z" fill="#916044"/>
<path d="M30.2102 53.6905C30.7799 50.7216 31.1082 48.2885 30.9344 48.2547C30.7654 48.221 30.1668 50.6009 29.5923 53.5698C29.0227 56.5386 28.6944 58.9717 28.8682 59.0055C29.0372 59.0393 29.6358 56.6593 30.2102 53.6905Z" fill="#916044"/>
<path d="M36.0321 49.7465C39.001 50.3161 41.434 50.6444 41.4678 50.4706C41.5016 50.3017 39.1217 49.7031 36.1528 49.1286C33.184 48.559 30.7509 48.2307 30.7171 48.4045C30.6833 48.5783 33.0633 49.172 36.0321 49.7465Z" fill="#916044"/>
<path d="M25.6483 47.748C28.6172 48.3176 31.0502 48.6459 31.084 48.4721C31.1178 48.3031 28.7379 47.7045 25.769 47.1301C22.8001 46.5604 20.3671 46.2322 20.3333 46.4059C20.2995 46.5749 22.6794 47.1735 25.6483 47.748Z" fill="#916044"/>
<path d="M36.1432 47.6996C39.1072 47.101 41.4823 46.4783 41.4437 46.3093C41.4099 46.1403 38.9817 46.4879 36.0177 47.0865C33.0536 47.6851 30.6785 48.3079 30.7171 48.4768C30.7558 48.6458 33.1791 48.2982 36.1432 47.6996Z" fill="#916044"/>
<path d="M25.7787 49.7948C28.7427 49.1962 31.1178 48.5735 31.0792 48.4045C31.0454 48.2355 28.6172 48.5831 25.6531 49.1817C22.6891 49.7803 20.314 50.4031 20.3526 50.572C20.3864 50.741 22.8146 50.3934 25.7787 49.7948Z" fill="#916044"/>
<path d="M31.6392 53.6855C32.2378 56.6496 32.8605 59.0247 33.0295 58.9861C33.1984 58.9523 32.8509 56.5241 32.2523 53.56C31.6537 50.596 31.0309 48.2209 30.862 48.2595C30.693 48.2981 31.0406 50.7215 31.6392 53.6855Z" fill="#916044"/>
<path d="M29.5489 43.321C30.1475 46.2851 30.7702 48.6602 30.9392 48.6216C31.1082 48.5878 30.7606 46.1596 30.162 43.1955C29.5634 40.2315 28.9406 37.8564 28.7717 37.895C28.6027 37.9288 28.9503 40.357 29.5489 43.321Z" fill="#916044"/>
<path d="M34.0819 44.2093C35.7522 41.6894 36.9928 39.5702 36.848 39.4784C36.7032 39.3867 35.2308 41.3467 33.5605 43.8666C31.8902 46.3865 30.6495 48.5058 30.7944 48.5975C30.9392 48.694 32.4116 46.7293 34.0819 44.2093Z" fill="#916044"/>
<path d="M28.2358 53.0195C29.9061 50.4995 31.1468 48.3803 31.0019 48.2886C30.8571 48.192 29.3848 50.1568 27.7145 52.6767C26.0442 55.1966 24.8035 57.3159 24.9483 57.4076C25.0932 57.4993 26.5655 55.5394 28.2358 53.0195Z" fill="#916044"/>
<path d="M35.1294 51.6244C37.6493 53.2947 39.7686 54.5354 39.8603 54.3905C39.9569 54.2457 37.9921 52.7734 35.4722 51.1031C32.9522 49.4328 30.833 48.1921 30.7413 48.3369C30.6447 48.4818 32.6095 49.9541 35.1294 51.6244Z" fill="#916044"/>
<path d="M26.3242 45.7782C28.8441 47.4485 30.9633 48.6892 31.0551 48.5444C31.1516 48.3995 29.1868 46.9272 26.6669 45.2569C24.147 43.5866 22.0277 42.3459 21.936 42.4907C21.8395 42.6356 23.8042 44.1079 26.3242 45.7782Z" fill="#916044"/>
<path d="M42.554 50.07C41.6658 56.616 35.6411 61.1973 29.0951 60.309C22.5491 59.4208 17.9679 53.3961 18.8561 46.8501C19.7444 40.3041 25.769 35.7229 32.315 36.6111C38.861 37.4994 43.4423 43.524 42.554 50.07ZM31.9047 39.6331C26.9807 38.9669 22.4525 42.3751 21.7912 47.2508C21.1298 52.1265 24.5815 56.6209 29.5054 57.2919C34.4294 57.9581 38.9576 54.5499 39.6189 49.6742C40.2803 44.7985 36.8287 40.3041 31.9047 39.6331Z" fill="#916044"/>
<path d="M42.554 50.07C41.6658 56.616 35.6411 61.1973 29.0951 60.309C22.5491 59.4208 17.9679 53.3961 18.8561 46.8501C19.7444 40.3041 25.769 35.7229 32.315 36.6111C38.861 37.4994 43.4423 43.524 42.554 50.07ZM39.5658 46.937C39.2521 47.0191 38.89 47.1012 38.5183 47.188C38.4555 47.0094 38.3879 46.8308 38.3107 46.657C38.721 46.5846 39.1121 46.5219 39.4596 46.4688C39.2279 45.484 38.8369 44.5571 38.3059 43.7171C37.939 43.9923 37.519 44.2964 37.0604 44.6198C36.9349 44.4654 36.7997 44.3254 36.6645 44.1806C37.1618 43.8571 37.6252 43.5675 38.0307 43.3213C37.4611 42.5296 36.7707 41.8199 35.9646 41.2455C35.6894 41.7041 35.3611 42.2351 34.9991 42.8047C34.8301 42.6985 34.666 42.5923 34.4922 42.4958C34.8832 41.931 35.2453 41.4144 35.5687 40.98C34.7384 40.4489 33.8115 40.0386 32.8074 39.7972C32.7302 40.3524 32.624 41.0089 32.4985 41.7186C32.3054 41.6703 32.1123 41.622 31.9192 41.5882C32.064 40.8931 32.2088 40.251 32.3392 39.7103C32.1943 39.6814 32.0543 39.6476 31.9095 39.6283C31.0406 39.5124 30.1909 39.5269 29.3654 39.6476C29.5006 40.1689 29.6454 40.782 29.7951 41.4579C29.5972 41.4675 29.3992 41.4868 29.2061 41.511C29.0855 40.8496 28.9841 40.2462 28.9068 39.7296C27.8786 39.9372 26.9083 40.3089 26.0297 40.84C26.3048 41.202 26.6186 41.6317 26.9566 42.1048C26.7779 42.1772 26.609 42.2641 26.4352 42.3509C26.1407 41.8923 25.8704 41.4579 25.6483 41.091C24.7939 41.6655 24.0408 42.3751 23.4277 43.2102C23.7125 43.3744 24.036 43.5723 24.3739 43.7847C24.2387 43.9102 24.1084 44.0357 23.9828 44.1709C23.6884 43.9633 23.418 43.7654 23.1767 43.5868C22.6022 44.4557 22.1726 45.4357 21.936 46.4977C22.076 46.517 22.2208 46.5363 22.3705 46.5605C22.3029 46.7101 22.2401 46.8598 22.1774 47.0143C22.0664 46.9853 21.9553 46.9612 21.8491 46.9322C21.8298 47.0432 21.8008 47.1446 21.7864 47.2556C21.7188 47.7384 21.6995 48.2163 21.7091 48.6846C21.6271 49.1721 21.574 49.6645 21.574 50.1762C21.574 54.9989 25.4842 58.9139 30.3116 58.9139C34.3281 58.9139 37.7024 56.2009 38.721 52.5127C39.0638 51.8369 39.3245 51.1128 39.4886 50.3452C39.3486 50.3259 39.1893 50.3018 39.0396 50.2776C39.0396 50.2438 39.0445 50.21 39.0445 50.1811C39.0445 50.0362 39.03 49.8914 39.0203 49.7466C39.2134 49.79 39.4017 49.8335 39.5755 49.8769C39.5851 49.8094 39.6045 49.7466 39.6141 49.679C39.7396 48.7473 39.7155 47.8253 39.5562 46.9418L39.5658 46.937Z" fill="#683F2B"/>
<path d="M44.3498 50.3113C43.3264 57.847 36.3894 63.1234 28.8586 62.0999C21.3278 61.0765 16.0465 54.1395 17.0699 46.6087C18.0934 39.073 25.0304 33.7966 32.5612 34.8201C40.0969 35.8435 45.3732 42.7805 44.3498 50.3113ZM32.0881 38.2958C26.4207 37.5283 21.2071 41.453 20.4443 47.0673C19.6816 52.6816 23.6594 57.8566 29.3268 58.6242C34.9942 59.3918 40.2079 55.467 40.9706 49.8527C41.7334 44.2384 37.7555 39.0634 32.0881 38.2958Z" fill="#C9B289"/>
<path d="M32.6288 48.7232C32.484 49.7755 31.5088 50.5093 30.4516 50.3645C29.3896 50.2197 28.6462 49.2542 28.791 48.2018C28.9358 47.1494 29.9109 46.4156 30.9682 46.5605C32.0302 46.7053 32.7736 47.6708 32.6288 48.7232Z" fill="#C9B289"/>
<path d="M17.0651 47.695C18.0885 40.1594 25.0256 34.883 32.5564 35.9064C39.2858 36.8188 44.2098 42.4524 44.4609 49.0129C44.7505 41.9986 39.6576 35.7857 32.5564 34.8202C25.0208 33.7968 18.0837 39.078 17.0651 46.6088C16.9541 47.415 16.9251 48.2115 16.9541 48.9936C16.9734 48.5639 17.0072 48.1295 17.0651 47.6902V47.695Z" fill="#E5D1B3"/>
<path d="M29.3268 59.7106C34.9942 60.4782 40.2079 56.5535 40.9706 50.9392C41.0575 50.2826 41.0768 49.6358 41.043 48.9985C41.0286 49.2834 41.0092 49.5682 40.9706 49.853C40.2079 55.4673 34.9942 59.3968 29.3268 58.6245C24.3208 57.9438 20.6374 53.826 20.3719 49.0082C20.1016 54.2846 23.9491 58.9817 29.3268 59.7106Z" fill="#E5D1B3"/>
<path d="M32.0881 37.3593C26.4207 36.5917 21.2071 40.5165 20.4443 46.1308C20.3623 46.7439 20.3429 47.3521 20.3719 47.9507C20.3864 47.6562 20.4057 47.3666 20.4443 47.0673C21.2071 41.453 26.4207 37.5234 32.0881 38.2958C37.1376 38.9813 40.8354 43.1619 41.0479 48.0328C41.3037 42.766 37.4611 38.0834 32.0881 37.3545V37.3593Z" fill="#B29360"/>
<path d="M44.3498 49.3748C43.3264 56.9104 36.3894 62.1868 28.8586 61.1634C22.1001 60.2462 17.1617 54.5691 16.9541 47.97C16.6982 54.9601 21.7815 61.1392 28.8586 62.0999C36.3942 63.1233 43.3312 57.8421 44.3498 50.3113C44.456 49.5341 44.4898 48.7665 44.4657 48.0134C44.4512 48.4624 44.4126 48.921 44.3498 49.3748Z" fill="#B29360"/>
<path d="M123.554 53.0293C120.744 53.0293 118.466 50.7512 118.466 47.9412C118.466 45.1311 120.744 42.853 123.554 42.853C126.364 42.853 128.642 45.1311 128.642 47.9412C128.642 50.7512 126.364 53.0293 123.554 53.0293Z" fill="#281C1B"/>
<path d="M128.521 45.7349C131.022 44.0405 132.972 42.5488 132.875 42.4088C132.779 42.264 130.669 43.5239 128.169 45.2184C125.668 46.9128 123.718 48.4045 123.814 48.5445C123.911 48.6893 126.021 47.4293 128.521 45.7349Z" fill="#916044"/>
<path d="M119.769 51.6629C122.27 49.9684 124.22 48.4768 124.123 48.3368C124.027 48.192 121.917 49.4519 119.417 51.1463C116.916 52.8408 114.966 54.3325 115.062 54.4725C115.159 54.6173 117.268 53.3573 119.769 51.6629Z" fill="#916044"/>
<path d="M126.672 52.9905C128.367 55.4911 129.858 57.4414 129.998 57.3448C130.143 57.2483 128.883 55.1387 127.189 52.6381C125.494 50.1374 124.003 48.1872 123.863 48.2837C123.718 48.3803 124.978 50.4899 126.672 52.9905Z" fill="#916044"/>
<path d="M120.744 44.2432C122.439 46.7438 123.93 48.6941 124.07 48.5975C124.215 48.501 122.955 46.3914 121.261 43.8907C119.566 41.3901 118.075 39.4398 117.935 39.5364C117.79 39.6329 119.05 41.7425 120.744 44.2432Z" fill="#916044"/>
<path d="M125.272 43.3115C125.842 40.3427 126.17 37.9096 125.996 37.8758C125.823 37.8421 125.229 40.222 124.654 43.1909C124.085 46.1597 123.756 48.5928 123.93 48.6266C124.099 48.6604 124.698 46.2804 125.272 43.3115Z" fill="#916044"/>
<path d="M123.279 53.6905C123.848 50.7216 124.176 48.2885 124.003 48.2547C123.834 48.221 123.235 50.6009 122.661 53.5698C122.091 56.5386 121.763 58.9717 121.937 59.0055C122.105 59.0393 122.704 56.6593 123.279 53.6905Z" fill="#916044"/>
<path d="M129.1 49.7465C132.069 50.3161 134.502 50.6444 134.536 50.4706C134.57 50.3017 132.19 49.7031 129.221 49.1286C126.252 48.559 123.819 48.2307 123.785 48.4045C123.752 48.5783 126.132 49.172 129.1 49.7465Z" fill="#916044"/>
<path d="M118.721 47.748C121.69 48.3176 124.123 48.6459 124.157 48.4721C124.191 48.3031 121.811 47.7045 118.842 47.1301C115.873 46.5604 113.44 46.2322 113.406 46.4059C113.373 46.5749 115.753 47.1735 118.721 47.748Z" fill="#916044"/>
<path d="M129.211 47.6996C132.176 47.101 134.551 46.4783 134.512 46.3093C134.478 46.1403 132.05 46.4879 129.086 47.0865C126.122 47.6851 123.747 48.3079 123.785 48.4768C123.824 48.6458 126.247 48.2982 129.211 47.6996Z" fill="#916044"/>
<path d="M118.852 49.7948C121.816 49.1962 124.191 48.5735 124.152 48.4045C124.119 48.2355 121.69 48.5831 118.726 49.1817C115.762 49.7803 113.387 50.4031 113.426 50.572C113.464 50.741 115.888 50.3934 118.852 49.7948Z" fill="#916044"/>
<path d="M124.707 53.6855C125.306 56.6496 125.929 59.0247 126.098 58.9861C126.267 58.9523 125.919 56.5241 125.321 53.56C124.722 50.596 124.099 48.2209 123.93 48.2595C123.761 48.2933 124.109 50.7215 124.707 53.6855Z" fill="#916044"/>
<path d="M122.617 43.321C123.216 46.2851 123.839 48.6602 124.007 48.6216C124.176 48.583 123.829 46.1596 123.23 43.1955C122.632 40.2315 122.009 37.8564 121.84 37.895C121.671 37.9288 122.019 40.357 122.617 43.321Z" fill="#916044"/>
<path d="M127.15 44.2093C128.82 41.6894 130.061 39.5702 129.916 39.4784C129.771 39.3867 128.299 41.3467 126.629 43.8666C124.958 46.3865 123.718 48.5058 123.863 48.5975C124.007 48.694 125.48 46.7293 127.15 44.2093Z" fill="#916044"/>
<path d="M121.304 53.0194C122.974 50.4995 124.215 48.3802 124.07 48.2885C123.925 48.1968 122.453 50.1567 120.783 52.6766C119.112 55.1966 117.872 57.3158 118.017 57.4075C118.161 57.5041 119.634 55.5393 121.304 53.0194Z" fill="#916044"/>
<path d="M128.198 51.6244C130.718 53.2947 132.837 54.5354 132.929 54.3905C133.025 54.2457 131.06 52.7734 128.54 51.1031C126.021 49.4328 123.901 48.1921 123.81 48.3369C123.713 48.4818 125.678 49.9541 128.198 51.6244Z" fill="#916044"/>
<path d="M119.392 45.7782C121.912 47.4485 124.032 48.6892 124.123 48.5444C124.22 48.3995 122.255 46.9272 119.735 45.2569C117.215 43.5866 115.096 42.3459 115.004 42.4907C114.908 42.6356 116.873 44.1079 119.392 45.7782Z" fill="#916044"/>
<path d="M135.622 50.07C134.734 56.616 128.709 61.1973 122.163 60.309C115.617 59.4208 111.036 53.3961 111.924 46.8501C112.813 40.3041 118.837 35.7229 125.383 36.6111C131.929 37.4994 136.511 43.524 135.622 50.07ZM124.973 39.6331C120.049 38.9669 115.521 42.3751 114.859 47.2508C114.198 52.1265 117.65 56.6209 122.574 57.2919C127.498 57.9581 132.026 54.5499 132.687 49.6742C133.349 44.7985 129.897 40.3041 124.973 39.6331Z" fill="#916044"/>
<path d="M135.622 50.07C134.734 56.616 128.709 61.1973 122.163 60.309C115.617 59.4208 111.036 53.3961 111.924 46.8501C112.813 40.3041 118.837 35.7229 125.383 36.6111C131.929 37.4994 136.511 43.524 135.622 50.07ZM132.634 46.937C132.316 47.0191 131.958 47.1012 131.587 47.188C131.524 47.0094 131.456 46.8308 131.379 46.657C131.789 46.5846 132.18 46.5219 132.528 46.4688C132.296 45.484 131.905 44.5571 131.374 43.7171C131.007 43.9923 130.587 44.2964 130.129 44.6198C130.003 44.4654 129.868 44.3254 129.733 44.1806C130.23 43.8571 130.693 43.5675 131.099 43.3213C130.529 42.5296 129.839 41.8199 129.033 41.2455C128.758 41.7041 128.429 42.2351 128.067 42.8047C127.898 42.6985 127.734 42.5923 127.56 42.4958C127.951 41.931 128.314 41.4144 128.637 40.98C127.807 40.4489 126.88 40.0386 125.876 39.7972C125.798 40.3524 125.692 41.0089 125.567 41.7186C125.374 41.6703 125.181 41.622 124.987 41.5882C125.132 40.8931 125.277 40.251 125.407 39.7103C125.263 39.6814 125.123 39.6476 124.978 39.6283C124.109 39.5124 123.259 39.5269 122.434 39.6476C122.569 40.1689 122.714 40.782 122.863 41.4579C122.665 41.4675 122.468 41.4868 122.274 41.511C122.154 40.8496 122.052 40.2462 121.975 39.7296C120.947 39.9372 119.977 40.3089 119.098 40.84C119.373 41.202 119.687 41.6317 120.025 42.1048C119.846 42.1772 119.677 42.2641 119.503 42.3509C119.209 41.8923 118.939 41.4579 118.717 41.091C117.862 41.6655 117.109 42.3751 116.496 43.2102C116.781 43.3744 117.104 43.5723 117.442 43.7847C117.307 43.9102 117.177 44.0357 117.051 44.1709C116.757 43.9633 116.486 43.7654 116.25 43.5868C115.675 44.4557 115.246 45.4357 115.009 46.4977C115.149 46.517 115.294 46.5363 115.444 46.5605C115.376 46.7101 115.313 46.8598 115.25 47.0143C115.139 46.9853 115.028 46.9612 114.922 46.9322C114.903 47.0432 114.874 47.1446 114.859 47.2556C114.792 47.7384 114.773 48.2163 114.782 48.6846C114.7 49.1721 114.647 49.6645 114.647 50.1762C114.647 54.9989 118.557 58.9139 123.385 58.9139C127.401 58.9139 130.776 56.2009 131.794 52.5127C132.137 51.8369 132.398 51.1128 132.562 50.3452C132.422 50.3259 132.262 50.3018 132.113 50.2776C132.113 50.2438 132.118 50.21 132.118 50.1811C132.118 50.0362 132.103 49.8914 132.093 49.7466C132.287 49.79 132.475 49.8335 132.649 49.8769C132.658 49.8094 132.678 49.7466 132.687 49.679C132.813 48.7473 132.789 47.8253 132.629 46.9418L132.634 46.937Z" fill="#683F2B"/>
<path d="M137.418 50.3113C136.395 57.847 129.458 63.1234 121.927 62.0999C114.396 61.0765 109.115 54.1395 110.138 46.6087C111.162 39.073 118.099 33.7966 125.629 34.8201C133.165 35.8435 138.442 42.7805 137.418 50.3113ZM125.156 38.2958C119.489 37.5283 114.275 41.453 113.513 47.0673C112.75 52.6816 116.728 57.8566 122.395 58.6242C128.063 59.3918 133.276 55.467 134.039 49.8527C134.802 44.2384 130.824 39.0634 125.156 38.2958Z" fill="#C9B289"/>
<path d="M125.697 48.7232C125.552 49.7755 124.577 50.5093 123.52 50.3645C122.458 50.2197 121.714 49.2542 121.859 48.2018C122.004 47.1494 122.979 46.4156 124.036 46.5605C125.098 46.7053 125.842 47.6708 125.697 48.7232Z" fill="#C9B289"/>
<path d="M110.133 47.695C111.157 40.1594 118.094 34.883 125.625 35.9064C132.354 36.8188 137.278 42.4524 137.529 49.0129C137.819 41.9986 132.726 35.7857 125.625 34.8202C118.089 33.7968 111.152 39.078 110.133 46.6088C110.022 47.415 109.993 48.2115 110.022 48.9936C110.042 48.5639 110.075 48.1295 110.133 47.6902V47.695Z" fill="#E5D1B3"/>
<path d="M122.395 59.7106C128.063 60.4782 133.276 56.5535 134.039 50.9392C134.126 50.2826 134.145 49.6358 134.111 48.9985C134.097 49.2834 134.078 49.5682 134.039 49.853C133.276 55.4673 128.063 59.3968 122.395 58.6245C117.389 57.9438 113.706 53.826 113.44 49.0082C113.17 54.2846 117.017 58.9817 122.395 59.7106Z" fill="#E5D1B3"/>
<path d="M125.156 37.3593C119.489 36.5917 114.275 40.5165 113.513 46.1308C113.431 46.7439 113.411 47.3521 113.44 47.9507C113.455 47.6562 113.474 47.3666 113.513 47.0673C114.275 41.453 119.489 37.5234 125.156 38.2958C130.206 38.9813 133.904 43.1619 134.116 48.0328C134.372 42.766 130.529 38.0834 125.156 37.3545V37.3593Z" fill="#B29360"/>
<path d="M137.418 49.3748C136.395 56.9104 129.458 62.1868 121.927 61.1634C115.168 60.2462 110.23 54.5691 110.022 47.97C109.767 54.9601 114.85 61.1392 121.927 62.0999C129.462 63.1233 136.4 57.8421 137.418 50.3113C137.524 49.5341 137.558 48.7665 137.534 48.0134C137.519 48.4624 137.481 48.921 137.418 49.3748Z" fill="#B29360"/>
<path d="M87.2658 11.2478L87.2127 19.8455H87.7051L88.3182 11.6678C88.3375 11.4409 87.8596 11.2478 87.2658 11.2478Z" fill="#FFBB4D"/>
<path d="M143.858 62.0132H0.468367C0.468367 62.0132 24.6442 63.7655 78.644 63.7655C132.644 63.7655 143.858 62.0132 143.858 62.0132Z" fill="#4F4141"/>
<path d="M86.8555 43.6882L49.6648 42.689V43.8524L86.8555 44.8565V43.6882Z" fill="#473737"/>
<path d="M100.054 30.2823C102.554 28.5878 104.505 27.0962 104.408 26.9562C104.312 26.8113 102.202 28.0713 99.7013 29.7657C97.2007 31.4602 95.2504 32.9518 95.3469 33.0918C95.4435 33.2367 97.5531 31.9767 100.054 30.2823Z" fill="#916044"/>
<path d="M91.3015 36.2102C93.8022 34.5158 95.7524 33.0241 95.6559 32.8841C95.5594 32.7393 93.4498 33.9993 90.9491 35.6937C88.4485 37.3881 86.4982 38.8798 86.5948 39.0198C86.6913 39.1646 88.8009 37.9047 91.3015 36.2102Z" fill="#916044"/>
<path d="M98.2096 37.5378C99.904 40.0384 101.396 41.9887 101.541 41.8922C101.685 41.7956 100.425 39.686 98.731 37.1854C97.0365 34.6848 95.5449 32.7345 95.4 32.8311C95.2552 32.9276 96.5152 35.0372 98.2096 37.5378Z" fill="#916044"/>
<path d="M92.2815 28.7856C93.9759 31.2862 95.4676 33.2365 95.6076 33.14C95.7524 33.0434 94.4925 30.9338 92.7981 28.4332C91.1036 25.9326 89.6119 23.9823 89.4671 24.0789C89.3223 24.1754 90.5823 26.285 92.2767 28.7856H92.2815Z" fill="#916044"/>
<path d="M96.8097 27.854C97.3793 24.8851 97.7076 22.4521 97.5338 22.4183C97.3648 22.3845 96.7662 24.7645 96.1917 27.7333C95.6221 30.7022 95.2938 33.1352 95.4676 33.169C95.6366 33.2028 96.2352 30.8229 96.8097 27.854Z" fill="#916044"/>
<path d="M94.8111 38.2329C95.3807 35.2641 95.709 32.831 95.5352 32.7972C95.3663 32.7634 94.7677 35.1434 94.1932 38.1122C93.6235 41.0811 93.2953 43.5142 93.4691 43.5479C93.638 43.5817 94.2366 41.2018 94.8111 38.2329Z" fill="#916044"/>
<path d="M100.633 34.289C103.602 34.8586 106.035 35.1869 106.069 35.0131C106.102 34.8441 103.723 34.2455 100.754 33.6711C97.7848 33.1014 95.3518 32.7732 95.318 32.947C95.2842 33.1207 97.6641 33.7145 100.633 34.289Z" fill="#916044"/>
<path d="M90.254 32.2953C93.2229 32.865 95.6559 33.1932 95.6897 33.0195C95.7235 32.8505 93.3436 32.2519 90.3747 31.6774C87.4058 31.1078 84.9728 30.7795 84.939 30.9533C84.9052 31.1223 87.2851 31.7209 90.254 32.2953Z" fill="#916044"/>
<path d="M100.744 32.247C103.708 31.6484 106.083 31.0256 106.045 30.8567C106.006 30.6877 103.583 31.0353 100.619 31.6339C97.6545 32.2325 95.2794 32.8552 95.318 33.0242C95.3518 33.1931 97.78 32.8456 100.744 32.247Z" fill="#916044"/>
<path d="M90.3843 34.3373C93.3484 33.7387 95.7235 33.1159 95.6849 32.947C95.6511 32.778 93.2229 33.1256 90.2588 33.7242C87.2948 34.3228 84.9197 34.9455 84.9583 35.1145C84.9921 35.2835 87.4203 34.9359 90.3843 34.3373Z" fill="#916044"/>
<path d="M96.2449 38.2283C96.8435 41.1923 97.4662 43.5674 97.6352 43.5288C97.8041 43.495 97.4565 41.0668 96.8579 38.1028C96.2593 35.1387 95.6366 32.7636 95.4676 32.8022C95.2987 32.8408 95.6462 35.2642 96.2449 38.2283Z" fill="#916044"/>
<path d="M94.1497 27.8684C94.7483 30.8325 95.3711 33.2076 95.54 33.1689C95.709 33.1351 95.3614 30.7069 94.7628 27.7429C94.1642 24.7788 93.5415 22.4037 93.3725 22.4424C93.2036 22.4762 93.5511 24.9044 94.1497 27.8684Z" fill="#916044"/>
<path d="M98.6875 28.7568C100.358 26.2368 101.598 24.1176 101.454 24.0259C101.309 23.9293 99.8365 25.8941 98.1662 28.414C96.4959 30.9339 95.2552 33.0532 95.4 33.1449C95.5449 33.2415 97.0172 31.2767 98.6875 28.7568Z" fill="#916044"/>
<path d="M92.8415 37.5619C94.5118 35.042 95.7525 32.9228 95.6076 32.831C95.4628 32.7345 93.9904 34.6993 92.3201 37.2192C90.6498 39.7391 89.4092 41.8584 89.554 41.9501C89.6988 42.0418 91.1712 40.0819 92.8415 37.5619Z" fill="#916044"/>
<path d="M99.7351 36.1718C102.255 37.8421 104.374 39.0827 104.466 38.9379C104.563 38.7931 102.598 37.3207 100.078 35.6504C97.5579 33.9801 95.4387 32.7395 95.3469 32.8843C95.2504 33.0291 97.2152 34.5015 99.7351 36.1718Z" fill="#916044"/>
<path d="M90.9298 30.3256C93.4498 31.9959 95.569 33.2365 95.6607 33.0917C95.7573 32.9469 93.7925 31.4745 91.2726 29.8042C88.7527 28.1339 86.6334 26.8933 86.5417 27.0381C86.4451 27.1829 88.4099 28.6553 90.9298 30.3256Z" fill="#916044"/>
<path d="M107.16 34.6125C106.271 41.1585 100.247 45.7398 93.7008 44.8515C87.1548 43.9633 82.5735 37.9386 83.4618 31.3926C84.35 24.8466 90.3747 20.2654 96.9207 21.1536C103.467 22.0418 108.048 28.0665 107.16 34.6125ZM96.5104 24.1756C91.5864 23.5094 87.0582 26.9176 86.3969 31.7933C85.7355 36.669 89.192 41.1634 94.1111 41.8344C99.0351 42.5006 103.563 39.0924 104.225 34.2167C104.886 29.3409 101.434 24.8466 96.5104 24.1756Z" fill="#916044"/>
<path d="M107.16 34.6125C106.271 41.1585 100.247 45.7398 93.7008 44.8515C87.1548 43.9633 82.5735 37.9386 83.4618 31.3926C84.35 24.8466 90.3747 20.2654 96.9207 21.1536C103.467 22.0418 108.048 28.0665 107.16 34.6125ZM104.167 31.4795C103.848 31.5616 103.491 31.6436 103.119 31.7305C103.056 31.5519 102.989 31.3733 102.912 31.1995C103.322 31.1271 103.713 31.0643 104.06 31.0112C103.829 30.0264 103.438 29.0996 102.907 28.2596C102.54 28.5348 102.12 28.8389 101.661 29.1623C101.536 29.0079 101.401 28.8679 101.265 28.723C101.763 28.3996 102.226 28.1099 102.632 27.8637C102.062 27.072 101.372 26.3624 100.565 25.7879C100.29 26.2466 99.962 26.7776 99.5999 27.3472C99.431 27.241 99.2668 27.1348 99.093 27.0383C99.4841 26.4734 99.8461 25.9569 100.17 25.5224C99.3392 24.9914 98.4124 24.5811 97.4083 24.3397C97.331 24.8949 97.2248 25.5514 97.0993 26.261C96.9062 26.2128 96.7131 26.1645 96.52 26.1307C96.6648 25.4355 96.8097 24.7935 96.94 24.2528C96.7952 24.2239 96.6552 24.1901 96.5104 24.1708C95.6414 24.0549 94.7918 24.0694 93.9663 24.1901C94.1015 24.7114 94.2463 25.3245 94.3959 26.0004C94.198 26.01 94.0001 26.0293 93.807 26.0535C93.6863 25.3921 93.5849 24.7887 93.5077 24.2721C92.4794 24.4797 91.5091 24.8514 90.6305 25.3824C90.9057 25.7445 91.2195 26.1741 91.5574 26.6472C91.3788 26.7196 91.2098 26.8065 91.036 26.8934C90.7416 26.4348 90.4712 26.0004 90.2492 25.6335C89.3947 26.2079 88.6416 26.9176 88.0285 27.7527C88.3134 27.9168 88.6368 28.1148 88.9747 28.3272C88.8395 28.4527 88.7092 28.5782 88.5837 28.7134C88.2892 28.5058 88.0189 28.3079 87.7775 28.1293C87.203 28.9982 86.7734 29.9782 86.5369 31.0402C86.6769 31.0595 86.8217 31.0788 86.9713 31.103C86.9037 31.2526 86.841 31.4023 86.7782 31.5567C86.6672 31.5278 86.5562 31.5036 86.45 31.4747C86.4307 31.5857 86.4017 31.6871 86.3872 31.7981C86.3196 32.2809 86.3003 32.7588 86.31 33.227C86.2279 33.7146 86.1748 34.207 86.1748 34.7187C86.1748 39.5413 90.085 43.4564 94.9125 43.4564C98.9289 43.4564 102.303 40.7434 103.322 37.0552C103.665 36.3794 103.925 35.6552 104.089 34.8877C103.949 34.8684 103.79 34.8442 103.64 34.8201C103.64 34.7863 103.645 34.7525 103.645 34.7235C103.645 34.5787 103.631 34.4339 103.621 34.2891C103.814 34.3325 104.003 34.376 104.176 34.4194C104.186 34.3518 104.205 34.2891 104.215 34.2215C104.34 33.285 104.316 32.3678 104.157 31.4843L104.167 31.4795Z" fill="#683F2B"/>
<path d="M108.951 34.8587C107.927 42.3943 100.99 47.6707 93.4594 46.6473C85.9286 45.6239 80.6474 38.6869 81.6708 31.156C82.6942 23.6204 89.6313 18.344 97.1621 19.3674C104.698 20.3908 109.974 27.3279 108.951 34.8587ZM96.689 22.8432C91.0216 22.0756 85.8079 26.0003 85.0452 31.6146C84.2825 37.229 88.2603 42.404 93.9277 43.1715C99.5951 43.9391 104.809 40.0144 105.571 34.4001C106.334 28.7858 102.356 23.6107 96.689 22.8432Z" fill="#C9B289"/>
<path d="M97.2296 33.2656C97.0848 34.318 96.1097 35.0518 95.0525 34.907C93.9904 34.7621 93.247 33.7967 93.3918 32.7443C93.5367 31.6919 94.5118 30.9581 95.569 31.1029C96.631 31.2478 97.3745 32.2133 97.2296 33.2656Z" fill="#C9B289"/>
<path d="M81.6708 32.2375C82.6942 24.7018 89.6312 19.4255 97.1621 20.4489C103.892 21.3613 108.816 26.9949 109.067 33.5554C109.356 26.5411 104.263 20.3282 97.1621 19.3627C89.6264 18.3393 82.6894 23.6205 81.6708 31.1513C81.5598 31.9575 81.5308 32.754 81.5598 33.5361C81.5791 33.1064 81.6129 32.672 81.6708 32.2327V32.2375Z" fill="#E5D1B3"/>
<path d="M93.9325 44.2578C99.5999 45.0253 104.814 41.1006 105.576 35.4863C105.663 34.8298 105.683 34.1829 105.649 33.5457C105.634 33.8305 105.615 34.1153 105.576 34.4001C104.814 40.0144 99.5999 43.944 93.9325 43.1716C88.9264 42.4909 85.2431 38.3731 84.9776 33.5553C84.7073 38.8317 88.5547 43.5288 93.9325 44.2578Z" fill="#E5D1B3"/>
<path d="M96.689 21.902C91.0216 21.1345 85.8079 25.0592 85.0452 30.6735C84.9631 31.2866 84.9438 31.8948 84.9728 32.4934C84.9873 32.199 85.0066 31.9093 85.0452 31.61C85.8079 25.9957 91.0216 22.0662 96.689 22.8386C101.738 23.5241 105.436 27.7046 105.644 32.5755C105.9 27.3088 102.057 22.6261 96.689 21.8972V21.902Z" fill="#B29360"/>
<path d="M108.951 33.9224C107.927 41.458 100.99 46.7344 93.4594 45.711C86.701 44.7938 81.7625 39.1167 81.5549 32.5176C81.2991 39.5077 86.3824 45.6868 93.4594 46.6475C100.995 47.6709 107.932 42.3897 108.951 34.8589C109.057 34.0817 109.091 33.3141 109.067 32.561C109.052 33.01 109.013 33.4686 108.951 33.9224Z" fill="#B29360"/>
<path d="M48.1635 46.7922L105.861 47.8784C107.869 34.7284 118.075 26.3431 134.396 30.7892C134.213 30.5575 133.962 30.374 133.662 30.2775C117.177 25.1121 107.401 33.5891 105.407 47.0432L48.5207 45.957C45.2429 31.7595 34.7336 26.1356 16.9686 32.5754C16.7079 32.6719 16.4858 32.8216 16.3024 33.005C33.9032 27.2314 44.8519 32.9085 48.1587 46.7922H48.1635Z" fill="#FFDC78"/>
<path d="M38.8417 14.2504C38.8417 15.1821 39.5996 15.94 40.5313 15.94C41.463 15.94 42.2209 15.1821 42.2209 14.2504C42.2209 13.3187 41.463 12.5608 40.5313 12.5608C39.5996 12.5608 38.8417 13.3187 38.8417 14.2504Z" fill="#FFBB4D"/>
<path d="M39.5948 14.2505C39.5948 14.767 40.0148 15.187 40.5313 15.187C41.0479 15.187 41.4678 14.767 41.4678 14.2505C41.4678 13.734 41.0479 13.314 40.5313 13.314C40.0148 13.314 39.5948 13.734 39.5948 14.2505Z" fill="#281D1D"/>
<path d="M88.1251 15.2498L41.6609 15.2498V14.2553L88.1251 14.2553V15.2498Z" fill="#FFBB4D"/>
<path d="M119.339 18.7109C117.606 18.7254 116.211 19.744 116.211 21.004C116.211 22.2639 117.606 23.2777 119.339 23.297V18.7158V18.7109Z" fill="#C9B289"/>
<path d="M116.539 19.9951C116.332 20.2992 116.211 20.642 116.211 21.0041C116.211 22.2592 117.606 23.2778 119.339 23.2971V21.2985C118.046 21.0475 117.027 20.5744 116.539 19.9951Z" fill="#B29360"/>
<path d="M119.798 23.7122H118.924V18.373H119.798V23.7122Z" fill="#BF4141"/>
<path d="M24.3739 14.0187C24.3739 14.1925 23.4808 14.3132 22.385 14.289C21.2843 14.2649 20.3961 14.1056 20.3961 13.9366C20.3961 13.7677 21.2891 13.6422 22.385 13.6663C23.4856 13.6904 24.3739 13.8498 24.3739 14.0187Z" fill="#BF4141"/>
<path d="M31.3206 11.6097C31.2771 11.8269 29.0227 11.1607 26.2904 10.118C23.558 9.07528 21.376 8.06152 21.4243 7.84428C21.4678 7.62705 23.7222 8.29323 26.4545 9.33596C29.1868 10.3739 31.3688 11.3925 31.3206 11.6097Z" fill="#BF4141"/>
<path d="M28.0717 11.7595C27.782 11.8078 26.8166 11.7064 25.5083 11.4506C23.3649 11.0402 20.4347 10.2582 20.6471 9.99749C20.8933 9.68854 24.6587 10.4609 26.7972 11.103C27.9993 11.465 28.3806 11.7016 28.0717 11.7547V11.7595Z" fill="#BF4141"/>
<path d="M27.0338 12.6477C27.0241 12.8215 25.489 12.8167 23.5967 12.6477C21.7043 12.4787 20.1837 12.1939 20.1885 12.0201C20.1981 11.8464 21.7333 11.8512 23.6256 12.0201C25.5132 12.1939 27.0386 12.4739 27.0338 12.6477Z" fill="#BF4141"/>
<path d="M36.0321 12.5172C35.9646 12.7151 32.8846 11.4021 29.1434 9.58213C25.4069 7.76218 22.4284 6.1305 22.496 5.93258C22.5636 5.73465 25.6435 7.04772 29.3848 8.86766C33.1212 10.6876 36.0997 12.3193 36.0321 12.5172Z" fill="#BF4141"/>
</g>
<defs>
<clipPath id="clip0_60_4797">
<rect width="143.39" height="63.423" fill="white" transform="matrix(-1 0 0 1 143.858 0.342529)"/>
</clipPath>
</defs>
</svg>
