<svg width="120" height="39" viewBox="0 0 120 39" fill="none" xmlns="http://www.w3.org/2000/svg">
<g clip-path="url(#clip0_60_5150)">
<path d="M118.826 31.7192C118.446 31.5992 118.496 30.5092 118.536 28.8292C119.696 29.2892 118.586 23.5492 117.556 21.1192C115.736 16.8292 113.266 11.5092 84.696 10.5992C74.306 4.49917 62.096 -1.73083 48.596 0.729173C35.086 3.19917 18.206 9.55917 12.366 11.7692C6.52604 13.9792 4.83604 12.6792 3.66604 17.9992C2.49604 23.3192 -0.103961 25.7892 1.06604 29.0392C2.23604 32.2892 6.77604 33.3292 14.186 33.9692C21.596 34.6092 72.496 34.2292 85.356 33.8392C98.216 33.4492 125.206 33.7892 118.836 31.7092L118.826 31.7192Z" fill="#E05A01"/>
<path d="M21.966 17.8792C28.066 17.8792 33.006 22.8191 33.006 28.9191C33.006 29.2691 33.076 31.5792 33.146 34.3292C23.986 34.3092 16.646 34.2092 14.176 33.9892C13.006 33.8892 11.906 33.7691 10.876 33.6391C10.896 31.2791 10.926 29.3591 10.926 28.9191C10.926 22.8191 15.866 17.8792 21.966 17.8792Z" fill="#191919"/>
<path d="M92.616 17.8792C98.716 17.8792 103.656 22.8191 103.656 28.9191C103.656 29.2291 103.676 31.3091 103.746 33.6391C97.896 33.8191 91.216 33.6791 85.346 33.8591C84.306 33.8891 83.016 33.9192 81.526 33.9492C81.546 31.4592 81.586 29.3791 81.586 28.9191C81.586 22.8191 86.526 17.8792 92.626 17.8792H92.616Z" fill="#191919"/>
<path d="M101.902 31.2644C103.102 26.2022 99.9718 21.1254 94.9096 19.9251C89.8475 18.7247 84.7707 21.8553 83.5703 26.9174C82.3699 31.9796 85.5005 37.0563 90.5627 38.2567C95.6248 39.4571 100.702 36.3265 101.902 31.2644Z" fill="#070000"/>
<path d="M88.646 31.8091C90.596 33.7591 90.336 30.3291 92.286 28.3791C94.236 26.4291 97.676 26.6891 95.716 24.7391C93.766 22.7891 90.5961 22.7891 88.6361 24.7391C86.6761 26.6891 86.6861 29.8591 88.6361 31.8191L88.646 31.8091Z" fill="#E05A01"/>
<path d="M85.4561 29.0891C85.4561 33.1091 88.7161 36.3591 92.7261 36.3591C96.7361 36.3591 99.9961 33.0991 99.9961 29.0891C99.9961 25.0791 96.7361 21.8191 92.7261 21.8191C88.7161 21.8191 85.4561 25.0791 85.4561 29.0891ZM86.7961 31.2991L87.716 31.1491L86.9561 31.6991C86.8961 31.5691 86.8461 31.4291 86.7961 31.2991ZM86.5061 30.2791C86.4361 29.8891 86.396 29.4991 86.396 29.0891C86.396 28.6791 86.4361 28.3091 86.5061 27.9291L89.5961 28.4191L90.536 29.0991L89.5961 29.7791L86.5061 30.2691V30.2791ZM98.466 31.7891L97.5961 31.1591L98.6661 31.3291C98.6061 31.4891 98.546 31.6391 98.466 31.7891ZM95.716 29.7891L94.7761 29.1091L95.716 28.4291L98.966 27.9091C99.036 28.2891 99.076 28.6891 99.076 29.0991C99.076 29.5091 99.0361 29.9191 98.9561 30.3091L95.716 29.7891ZM98.6761 26.8891L97.5961 27.0591L98.4761 26.4191C98.5461 26.5691 98.6161 26.7291 98.6761 26.8891ZM86.9461 26.4991L87.716 27.0591L86.786 26.9091C86.836 26.7691 86.8861 26.6391 86.9461 26.4991ZM89.106 23.8891L90.966 26.4591L91.146 27.6091L89.9961 27.4291L87.4461 25.5791C87.8861 24.9191 88.4461 24.3491 89.0961 23.8991L89.106 23.8891ZM90.0261 23.3591C90.1661 23.2891 90.3061 23.2291 90.4461 23.1791L90.606 24.1691L90.0261 23.3691V23.3591ZM92.7361 22.7491C93.1161 22.7491 93.4861 22.7891 93.8461 22.8491L93.3361 26.0391L92.6561 26.9791L91.9761 26.0391L91.4761 22.8691C91.8861 22.7891 92.3061 22.7391 92.7461 22.7391L92.7361 22.7491ZM94.8661 23.1291C95.0161 23.1891 95.176 23.2391 95.326 23.3091L94.7061 24.1691L94.8761 23.1291H94.8661ZM97.9561 25.4991L95.2961 27.4291L94.146 27.6091L94.326 26.4591L96.2461 23.8191C96.9161 24.2691 97.4961 24.8391 97.9461 25.4991H97.9561ZM96.2361 34.3691L94.3361 31.7491L94.1561 30.5991L95.3061 30.7791L97.9461 32.6991C97.4861 33.3591 96.9061 33.9291 96.2461 34.3691H96.2361ZM95.3061 34.8791C95.1561 34.9391 95.006 34.9991 94.856 35.0591L94.6961 34.0491L95.3061 34.8891V34.8791ZM92.7361 35.4291C92.3061 35.4291 91.8861 35.3891 91.4761 35.2991L91.9761 32.1591L92.6561 31.2191L93.3361 32.1591L93.8361 35.3291C93.4761 35.3891 93.1061 35.4291 92.7261 35.4291H92.7361ZM90.4561 34.9991C90.3161 34.9491 90.1761 34.8891 90.0461 34.8191L90.6161 34.0391L90.466 34.9991H90.4561ZM87.466 32.6291L90.0061 30.7891L91.1561 30.6091L90.9761 31.7591L89.1261 34.3091C88.4761 33.8591 87.9161 33.2891 87.4761 32.6391L87.466 32.6291Z" fill="#757575"/>
<path d="M91.0561 34.0792L90.2661 33.7491L91.3461 32.2491L91.0561 34.0691V34.0792ZM94.2461 34.0792L93.9561 32.2592L95.036 33.7592L94.2461 34.0891V34.0792ZM91.5961 31.6591L91.8761 29.8792L90.0961 30.1591L91.5561 29.0991L90.0961 28.0392L91.8761 28.3191L91.5961 26.5392L92.6561 27.9991L93.716 26.5392L93.4361 28.3191L95.216 28.0392L93.7561 29.0991L95.216 30.1591L93.4361 29.8792L93.716 31.6591L92.6561 30.1992L91.5961 31.6591ZM88.0061 31.4991L87.6761 30.7092L89.4961 30.4191L87.9961 31.4991H88.0061ZM97.2961 31.4891L95.8061 30.4091L97.6261 30.6992L97.2961 31.4891ZM95.8061 27.7992L97.3061 26.7192L97.6361 27.5091L95.8161 27.7992H95.8061ZM89.5061 27.7992L87.6861 27.5091L88.0161 26.7192L89.5061 27.7992ZM91.3461 25.9592L90.2661 24.4592L91.0561 24.1292L91.3461 25.9492V25.9592ZM93.9561 25.9592L94.2461 24.1391L95.036 24.4692L93.9561 25.9692V25.9592Z" fill="#999999"/>
<path d="M92.736 21.0091C87.896 21.0091 83.956 24.8091 83.706 29.5791C83.706 29.4191 83.686 29.2591 83.686 29.0891C83.686 24.0891 87.736 20.0291 92.746 20.0291C97.756 20.0291 101.806 24.0791 101.806 29.0891C101.806 29.2491 101.786 29.4191 101.786 29.5791C101.536 24.8091 97.596 21.0091 92.756 21.0091H92.736Z" fill="#262626"/>
<path d="M92.736 36.399C96.646 36.399 99.836 33.329 100.046 29.469C100.046 29.599 100.066 29.729 100.066 29.859C100.066 33.909 96.786 37.189 92.736 37.189C88.686 37.189 85.406 33.909 85.406 29.859C85.406 29.729 85.416 29.599 85.426 29.469C85.636 33.329 88.816 36.399 92.736 36.399Z" fill="#262626"/>
<path d="M30.731 31.2641C31.9314 26.202 28.8008 21.1252 23.7387 19.9248C18.6765 18.7244 13.5997 21.855 12.3994 26.9172C11.199 31.9793 14.3296 37.0561 19.3917 38.2565C24.4539 39.4568 29.5306 36.3263 30.731 31.2641Z" fill="#070000"/>
<path d="M17.4761 31.8091C19.4261 33.7591 19.1661 30.3291 21.1161 28.3791C23.0661 26.4291 26.5061 26.6891 24.5461 24.7391C22.5961 22.7891 19.4261 22.7891 17.4661 24.7391C15.5161 26.6891 15.5161 29.8591 17.4661 31.8191L17.4761 31.8091Z" fill="#E05A01"/>
<path d="M14.2961 29.0891C14.2961 33.1091 17.5561 36.3591 21.5661 36.3591C25.5761 36.3591 28.8361 33.0991 28.8361 29.0891C28.8361 25.0791 25.5761 21.8191 21.5661 21.8191C17.5561 21.8191 14.2961 25.0791 14.2961 29.0891ZM15.6261 31.2991L16.5461 31.1491L15.7861 31.6991C15.7261 31.5691 15.6761 31.4291 15.6261 31.2991ZM15.3361 30.2791C15.2661 29.8891 15.2161 29.4991 15.2161 29.0891C15.2161 28.6791 15.2561 28.3091 15.3261 27.9291L18.4161 28.4191L19.3561 29.0991L18.4161 29.7791L15.3261 30.2691L15.3361 30.2791ZM27.2961 31.7891L26.4261 31.1591L27.4961 31.3291C27.4361 31.4891 27.3761 31.6391 27.2961 31.7891ZM24.5461 29.7891L23.6061 29.1091L24.5461 28.4291L27.7961 27.9091C27.8661 28.2891 27.9061 28.6891 27.9061 29.0991C27.9061 29.5091 27.8661 29.9191 27.7861 30.3091L24.5461 29.7891ZM27.5061 26.8891L26.4261 27.0591L27.3061 26.4191C27.3761 26.5691 27.4461 26.7291 27.5061 26.8891ZM15.7761 26.4991L16.5461 27.0591L15.6161 26.9091C15.6661 26.7691 15.7161 26.6391 15.7761 26.4991ZM17.9461 23.8891L19.8061 26.4591L19.9861 27.6091L18.8361 27.4291L16.2861 25.5791C16.7261 24.9191 17.2861 24.3491 17.9361 23.8991L17.9461 23.8891ZM18.8561 23.3591C18.9961 23.2891 19.1361 23.2291 19.2761 23.1791L19.4361 24.1691L18.8561 23.3691V23.3591ZM21.5661 22.7491C21.9461 22.7491 22.3161 22.7891 22.6761 22.8491L22.1661 26.0391L21.4861 26.9791L20.8061 26.0391L20.3061 22.8691C20.7161 22.7891 21.1361 22.7391 21.5761 22.7391L21.5661 22.7491ZM23.6961 23.1291C23.8461 23.1891 24.0061 23.2391 24.1561 23.3091L23.5361 24.1691L23.7061 23.1291H23.6961ZM26.7861 25.4991L24.1261 27.4291L22.9761 27.6091L23.1561 26.4591L25.0761 23.8191C25.7461 24.2691 26.3261 24.8391 26.7761 25.4991H26.7861ZM25.0661 34.3691L23.1661 31.7491L22.9861 30.5991L24.1361 30.7791L26.7761 32.6991C26.3161 33.3591 25.7361 33.9291 25.0761 34.3691H25.0661ZM24.1361 34.8791C23.9861 34.9391 23.8361 34.9991 23.6861 35.0591L23.5261 34.0491L24.1361 34.8891V34.8791ZM21.5661 35.4291C21.1361 35.4291 20.7161 35.3891 20.3061 35.2991L20.8061 32.1591L21.4861 31.2191L22.1661 32.1591L22.6661 35.3291C22.3061 35.3891 21.9361 35.4291 21.5561 35.4291H21.5661ZM19.2861 34.9991C19.1461 34.9491 19.0061 34.8891 18.8761 34.8191L19.4461 34.0391L19.2961 34.9991H19.2861ZM16.3061 32.6291L18.8461 30.7891L19.9961 30.6091L19.8161 31.7591L17.9661 34.3091C17.3161 33.8591 16.7561 33.2891 16.3161 32.6391L16.3061 32.6291Z" fill="#757575"/>
<path d="M19.8961 34.0792L19.1061 33.7491L20.1861 32.2491L19.8961 34.0691V34.0792ZM23.0861 34.0792L22.7961 32.2592L23.8761 33.7592L23.0861 34.0891V34.0792ZM20.4261 31.6591L20.7061 29.8792L18.9261 30.1591L20.3861 29.0991L18.9261 28.0392L20.7061 28.3191L20.4261 26.5392L21.4861 27.9991L22.5461 26.5392L22.2661 28.3191L24.0461 28.0392L22.5861 29.0991L24.0461 30.1591L22.2661 29.8792L22.5461 31.6591L21.4861 30.1992L20.4261 31.6591ZM16.8461 31.4991L16.5161 30.7092L18.3361 30.4191L16.8361 31.4991H16.8461ZM26.1361 31.4891L24.6461 30.4091L26.4661 30.6992L26.1361 31.4891ZM24.6361 27.7992L26.1361 26.7192L26.4661 27.5091L24.6461 27.7992H24.6361ZM18.3361 27.7992L16.5161 27.5091L16.8461 26.7192L18.3461 27.7992H18.3361ZM20.1861 25.9592L19.1061 24.4592L19.8961 24.1292L20.1861 25.9492V25.9592ZM22.7961 25.9592L23.0861 24.1391L23.8761 24.4692L22.7961 25.9692V25.9592Z" fill="#999999"/>
<path d="M21.5661 21.0091C16.7261 21.0091 12.7861 24.8091 12.5361 29.5791C12.5361 29.4191 12.5161 29.2591 12.5161 29.0891C12.5161 24.0891 16.5661 20.0291 21.5761 20.0291C26.5861 20.0291 30.6361 24.0791 30.6361 29.0891C30.6361 29.2491 30.6161 29.4191 30.6161 29.5791C30.3661 24.8091 26.4261 21.0091 21.5861 21.0091H21.5661Z" fill="#262626"/>
<path d="M21.5661 36.3992C25.4761 36.3992 28.6661 33.3292 28.8761 29.4692C28.8761 29.5992 28.8961 29.7292 28.8961 29.8592C28.8961 33.9092 25.6161 37.1892 21.5661 37.1892C17.5161 37.1892 14.2361 33.9092 14.2361 29.8592C14.2361 29.7292 14.2461 29.5992 14.2561 29.4692C14.4661 33.3292 17.6461 36.3992 21.5661 36.3992Z" fill="#262626"/>
<path d="M115.206 22.3891C114.376 18.6391 111.146 16.8191 105.306 16.8191C103.676 16.8191 102.076 16.9591 100.786 17.0591L100.396 17.0891L100.366 17.3391C103.656 18.3491 106.246 22.3091 106.266 22.3491L106.306 22.4091H106.376C106.376 22.4091 107.826 22.3791 109.606 22.3791C111.246 22.3791 113.526 22.4091 115.066 22.5391L115.246 22.5591L115.206 22.3891Z" fill="#191919"/>
<path d="M115.086 22.4193C112.096 22.1593 106.386 22.2893 106.386 22.2893C106.386 22.2893 103.786 18.2593 100.416 17.2293C105.096 16.8393 113.666 15.9293 115.086 22.4193Z" fill="#96BCBB"/>
<path d="M109.456 22.2591C107.786 20.4691 106.056 18.7291 104.356 16.9691C105.036 16.9491 105.736 16.9491 106.426 16.9691C108.336 18.6291 110.156 20.4091 111.866 22.2691C111.046 22.2491 110.206 22.2491 109.456 22.2491V22.2591Z" fill="#FFF48D"/>
<path d="M107.636 17.0591C111.086 17.3991 114.266 18.6891 115.086 22.4191C114.446 22.3591 113.686 22.3291 112.876 22.2991C111.226 20.4591 109.476 18.6991 107.636 17.0591Z" fill="#FFF48D"/>
<path d="M114.766 21.4793C114.766 21.4793 114.796 21.4793 114.806 21.4793C114.916 21.7693 115.016 22.0793 115.086 22.4193C112.096 22.1593 106.386 22.2893 106.386 22.2893C106.386 22.2893 103.786 18.2593 100.416 17.2293C101.146 17.1693 101.976 17.0893 102.866 17.0393C106.486 19.2593 110.596 20.6693 114.776 21.4893L114.766 21.4793Z" fill="#EDF1F4"/>
<path d="M111.206 28.8291H118.536C118.636 29.7891 118.726 30.7591 118.826 31.7191L109.936 32.0891C109.566 32.1091 109.476 31.7691 109.726 31.3391L111.206 28.8291Z" fill="#2B2B2B"/>
<path d="M111.346 28.1192L112.796 25.6692C113.046 25.2392 113.556 24.8792 113.926 24.8692L117.996 24.6992C117.976 25.8492 118.066 26.9892 118.176 28.1192H111.356H111.346Z" fill="#2B2B2B"/>
<path d="M31.4461 10.8191C31.4461 10.8191 29.1461 10.7091 29.1061 10.7091C25.7361 10.7091 42.4361 2.0791 55.5161 2.0791C63.3961 2.0791 76.8961 9.6991 78.1961 10.4291C78.2261 10.4491 78.1961 10.5091 78.1961 10.5391L31.4461 10.8191Z" fill="#2B2B2B"/>
<path d="M43.276 4.76919C43.206 4.57919 43.136 4.39919 43.066 4.20919C47.116 3.03919 51.556 2.16919 55.636 2.16919C63.316 2.16919 76.496 9.59919 77.756 10.3192C77.786 10.3392 77.756 10.3892 77.756 10.4292L45.726 10.6192C44.856 8.68919 44.036 6.74919 43.286 4.75919L43.276 4.76919Z" fill="#80C2DC"/>
<path d="M42.0261 2.14917C41.9561 2.27917 41.9161 2.45917 41.7761 2.50917C36.7761 4.23917 27.0761 7.20917 19.3661 10.3692H16.0961C22.2661 8.08917 32.3961 4.51917 42.0161 2.14917H42.0261Z" fill="#80C2DC"/>
<path d="M63.276 1.1792C70.876 2.9092 78.396 6.8792 84.766 10.6092L82.056 10.5692C73.436 4.1792 62.446 1.7792 63.276 1.1792Z" fill="#80C2DC"/>
<path d="M52.3561 32.4892H76.7661C79.2961 32.4892 79.3261 29.2292 79.3561 24.7092C79.3561 23.5192 79.3761 22.2892 79.4261 20.9992C79.6861 14.6992 79.6761 13.5692 77.8061 10.4092L77.6961 10.4792C79.5561 13.5992 79.5661 14.7292 79.3061 20.9992C79.2561 22.2992 79.2461 23.5292 79.2361 24.7092C79.2061 29.1492 79.1761 32.3592 76.7761 32.3592H52.3661C49.6161 32.3592 47.0661 30.2392 44.7661 26.0592C42.7661 22.4292 41.6261 18.3992 41.3261 17.2492C40.7461 15.0492 40.8961 13.3592 41.7561 12.2392C42.5361 11.2292 43.9061 10.6892 45.7361 10.6892V10.5592C43.8761 10.5592 42.4661 11.1092 41.6561 12.1592C40.7661 13.3092 40.6161 15.0392 41.2061 17.2792C41.5061 18.4292 42.6561 22.4792 44.6561 26.1192C46.9761 30.3392 49.5761 32.4892 52.3761 32.4892H52.3561Z" fill="#231F20"/>
<path d="M7.68607 13.3291L17.1661 16.9691L11.4561 20.6091L3.40607 19.4391C3.40607 19.4391 3.79607 13.4691 7.69607 13.3391L7.68607 13.3291Z" fill="#BE5041"/>
<path d="M6.05606 17.4691C5.29606 17.4491 4.52606 17.4291 3.77606 17.3791C4.17606 15.9391 4.97606 14.1691 6.57606 13.5491C7.86606 14.9191 9.11606 16.3391 10.2861 17.8191C8.87606 17.6691 7.47606 17.5191 6.06606 17.4691H6.05606Z" fill="#711814"/>
<path d="M6.39606 18.2091C7.89606 18.2991 9.39606 18.4591 10.8861 18.6091C11.2861 19.1391 11.6761 19.6691 12.0561 20.2091L11.4461 20.5991L3.39606 19.4291C3.39606 19.4291 3.43606 18.8691 3.59606 18.0791C4.52606 18.1391 5.45606 18.1491 6.39606 18.1991V18.2091Z" fill="#D77C7B"/>
<path d="M15.9961 16.7091L7.28607 13.3691C7.41607 13.3491 7.54607 13.3391 7.68607 13.3291L17.1661 16.9691L11.9861 20.2691L15.9961 16.7091Z" fill="#1C171D"/>
<g opacity="0.5">
<path d="M117.556 22.7893C115.736 19.0493 112.176 12.6593 81.846 13.2993C81.846 11.2493 63.926 -0.250699 50.416 1.8993C36.906 4.0593 30.786 7.5693 22.106 11.5093C16.506 14.0493 11.346 13.4593 6.52604 17.4793C3.67604 19.8593 1.00604 25.7693 0.786039 27.8493C0.526039 25.1293 2.63604 22.6593 3.65604 18.0093C4.82604 12.6893 6.51604 13.9793 12.356 11.7793C18.206 9.5593 35.086 3.1993 48.596 0.729301C62.106 -1.7407 74.306 4.4993 84.696 10.5993C113.266 11.5093 115.736 16.8293 117.556 21.1193C118.576 23.5293 119.446 28.2293 118.886 28.7293C118.846 26.8193 118.466 24.6593 117.556 22.7893Z" fill="white"/>
</g>
<g opacity="0.5">
<path d="M81.5861 13.4292C81.5861 13.4292 48.3861 13.4392 23.6661 16.4592C19.9461 14.3692 12.6661 15.1992 12.6661 15.1992C12.6661 15.1992 28.6961 9.06922 79.4561 11.3392C79.9861 12.3792 81.5861 13.4292 81.5861 13.4292Z" fill="white"/>
</g>
<g opacity="0.5">
<path d="M91.4261 15.8092C96.1761 15.4792 105.506 17.8392 108.566 27.2492L103.776 26.3192C100.626 17.8792 95.1061 17.5392 91.5861 17.7792C86.0461 18.1592 82.2761 22.6892 81.5561 27.1992C81.1261 21.5792 85.8761 16.1892 91.4161 15.7992L91.4261 15.8092Z" fill="white"/>
</g>
<g opacity="0.5">
<path d="M80.7961 29.2992L33.3961 26.1892L47.0361 29.8592L80.7961 29.2992Z" fill="white"/>
</g>
<g opacity="0.5">
<path d="M111.186 28.4793L103.746 27.0093L103.986 29.1893L111.186 28.4793Z" fill="white"/>
</g>
<g opacity="0.5">
<path d="M118.826 31.7192L103.736 32.1192L107.556 33.0692L119.646 32.0792L118.826 31.7192Z" fill="white"/>
</g>
<g opacity="0.5">
<path d="M118.316 28.1391L110.506 28.1292L112.316 28.7491L118.866 28.5292L118.316 28.1391Z" fill="white"/>
</g>
<path d="M44.9561 16.0892C46.8449 16.0892 48.3761 15.7803 48.3761 15.3992C48.3761 15.0182 46.8449 14.7092 44.9561 14.7092C43.0673 14.7092 41.5361 15.0182 41.5361 15.3992C41.5361 15.7803 43.0673 16.0892 44.9561 16.0892Z" fill="#231F20"/>
<path d="M41.9561 15.2493C41.9561 15.4993 43.3061 15.7093 44.9661 15.7093C46.6261 15.7093 47.9761 15.4993 47.9761 15.2493C47.9761 14.9993 46.6261 14.7893 44.9661 14.7893C43.3061 14.7893 41.9561 14.9993 41.9561 15.2493Z" fill="#E05A01"/>
<path d="M79.4561 11.5092C79.1861 12.8592 76.3561 13.4392 75.0161 13.1692C73.6761 12.9092 72.8061 11.5992 73.0661 10.2492C73.3361 8.89918 74.6361 8.01918 75.9761 8.28918C77.3161 8.54918 79.7261 10.1592 79.4561 11.5092Z" fill="#200000"/>
<g opacity="0.5">
<path d="M73.8161 9.3793C74.0761 10.0293 74.6461 10.5493 75.3861 10.6893C76.2261 10.8493 77.7261 10.6393 78.5861 10.0693C77.9461 9.2893 76.7761 8.6293 75.9961 8.4693C75.1261 8.2993 74.2761 8.6793 73.8061 9.3693L73.8161 9.3793Z" fill="white"/>
</g>
<path opacity="0.7" d="M63.8461 10.5193L71.1761 10.4793L73.5561 8.09929C72.1161 7.37929 70.4161 6.55929 68.5961 5.76929L63.8461 10.5193Z" fill="white"/>
<path opacity="0.7" d="M54.796 10.5791L57.596 10.5591L64.146 4.00909C63.446 3.75909 62.746 3.52909 62.046 3.31909C59.626 5.73909 57.206 8.15909 54.796 10.5791Z" fill="white"/>
<path opacity="0.7" d="M55.6361 2.1792C53.6361 2.1792 51.5461 2.3892 49.4661 2.7392L44.4661 7.7392C44.8761 8.7092 45.2861 9.6692 45.7161 10.6292L50.2761 10.5992L58.4261 2.4492C57.4461 2.2792 56.5061 2.1792 55.6361 2.1792Z" fill="white"/>
<path d="M5.72605 28.1291C5.58605 27.6991 5.11605 27.3491 4.68605 27.3491H0.766052C0.766052 27.8991 0.846052 28.4591 1.05605 29.0391C1.80605 31.1291 3.95605 32.2991 7.36605 33.0491L5.72605 28.1291Z" fill="#191919"/>
<g opacity="0.5">
<path d="M4.68605 27.3591C5.11605 27.3591 5.58606 27.7091 5.72606 28.1391L7.36606 33.0592C7.59606 33.1192 6.21605 27.6591 6.21605 27.6591C6.07605 27.2291 5.60605 26.8792 5.17605 26.8792C5.17605 26.8792 0.866055 27.1992 0.876055 27.3692H4.68605V27.3591Z" fill="white"/>
</g>
</g>
<defs>
<clipPath id="clip0_60_5150">
<rect width="119.02" height="38.33" fill="white" transform="translate(0.766052 0.179199)"/>
</clipPath>
</defs>
</svg>
