<svg width="117" height="40" viewBox="0 0 117 40" fill="none" xmlns="http://www.w3.org/2000/svg">
<g clip-path="url(#clip0_60_5490)">
<path d="M12.8431 6.62447C7.93315 10.2745 4.48315 13.9345 5.14315 14.8145C5.80315 15.6845 10.3331 13.4445 15.2431 9.79447C20.1531 6.14446 23.6031 2.48447 22.9431 1.60447C22.2831 0.734465 17.7531 2.97447 12.8431 6.62447Z" fill="#80C2DC"/>
<path d="M91.7132 14.1646C88.4832 12.8246 62.0331 2.85458 62.0331 2.85458C60.9331 2.32458 59.3431 1.94458 58.4331 1.98458L48.2731 2.38458C48.2731 2.38458 56.4031 15.4946 62.5031 15.7646L91.6631 15.2046C91.6831 14.8546 91.7032 14.5146 91.7132 14.1646Z" fill="#80C2DC"/>
<path d="M114.933 31.1045L114.833 26.7345C114.273 22.3845 112.373 19.8145 108.113 18.1745C105.983 17.3545 93.4031 13.8645 91.1331 13.7945C86.9131 14.1245 66.0631 5.06452 60.9431 2.61452C58.9131 1.63452 54.6431 0.394521 48.0431 0.394521C41.4431 0.394521 27.9531 -0.185479 23.2831 1.01452C19.7031 1.92452 9.30315 8.90452 5.32315 14.2145C3.09315 17.1845 1.66315 31.1045 1.66315 31.1045C1.41315 33.1845 2.65315 34.9045 4.42315 34.9045H103.823C105.593 34.9045 115.723 33.1845 114.943 31.1045H114.933Z" fill="#C8E064"/>
<path d="M116.023 32.1046V30.3446C116.023 26.5646 115.683 25.6946 113.063 25.6946H95.6231V28.1346C95.6231 29.7746 94.2931 31.1046 92.6531 31.1046H25.3131C23.6731 31.1046 22.3431 29.7746 22.3431 28.1346V25.6946H3.26315C1.62315 25.7046 0.303146 27.0346 0.303146 28.6746V32.1046C0.303146 33.7446 0.243146 35.0746 1.87315 35.0746H106.713C111.793 35.0746 116.023 33.7446 116.023 32.1046Z" fill="#B2C443"/>
<path d="M29.8031 30.6445C29.8031 24.7245 24.9831 19.9045 19.0631 19.9045C13.1431 19.9045 8.32315 24.7245 8.32315 30.6445C8.32315 32.1545 8.64315 33.5945 9.21315 34.9045H28.9031C29.4731 33.5945 29.7931 32.1645 29.7931 30.6445H29.8031Z" fill="#B2C443"/>
<path d="M103.583 30.6445C103.583 24.7245 98.7631 19.9045 92.8431 19.9045C86.9231 19.9045 82.1031 24.7245 82.1031 30.6445C82.1031 32.1545 82.4231 33.5945 82.9931 34.9045H102.683C103.253 33.5945 103.573 32.1645 103.573 30.6445H103.583Z" fill="#B2C443"/>
<path d="M106.713 33.1346H1.87315C0.373146 33.1346 0.303146 32.0146 0.303146 30.5646V32.1146C0.303146 33.7546 0.243146 35.0846 1.87315 35.0846H106.713C111.793 35.0846 116.023 33.7546 116.023 32.1146V30.3546C116.023 30.2946 116.023 30.2346 116.023 30.1746C116.013 31.8146 111.783 33.1346 106.713 33.1346Z" fill="#2A2A2B"/>
<path d="M28.7131 30.3646C28.7131 25.0446 24.3831 20.7146 19.0631 20.7146C13.7431 20.7146 9.41315 25.0446 9.41315 30.3646C9.41315 32.0646 9.86315 33.6646 10.6431 35.0546H27.4831C28.2631 33.6646 28.7131 32.0646 28.7131 30.3646Z" fill="#070707"/>
<path d="M25.6959 35.9362C28.7721 32.274 28.2971 26.8114 24.6348 23.7352C20.9726 20.659 15.51 21.134 12.4338 24.7962C9.35756 28.4584 9.8326 33.921 13.4948 36.9973C17.157 40.0735 22.6196 39.5985 25.6959 35.9362Z" fill="#2A2A2B"/>
<path d="M26.3842 31.5486C27.04 27.509 24.2968 23.7027 20.2572 23.047C16.2177 22.3913 12.4114 25.1345 11.7557 29.174C11.1 33.2136 13.8431 37.0198 17.8827 37.6756C21.9223 38.3313 25.7285 35.5881 26.3842 31.5486Z" fill="#091119"/>
<path d="M19.0631 23.8645C15.4731 23.8645 12.5731 26.7745 12.5731 30.3545C12.5731 33.9345 15.4831 36.8445 19.0631 36.8445C22.6431 36.8445 25.5631 33.9345 25.5631 30.3545C25.5631 26.7745 22.6531 23.8645 19.0631 23.8645ZM23.5631 25.9345C24.3431 26.7145 24.2331 27.6745 23.5631 27.9845L21.3331 29.0045C21.2431 29.0445 21.0031 28.9045 20.7931 28.6945C20.5831 28.4845 20.4431 28.2545 20.4831 28.1545L21.5031 25.9245C21.8131 25.2545 22.7731 25.1445 23.5531 25.9245L23.5631 25.9345ZM19.1331 24.0745C20.2331 24.0745 20.8331 24.8345 20.5831 25.5245L19.7331 27.8245C19.7031 27.9145 19.4331 27.9845 19.1331 27.9845C18.8331 27.9845 18.5731 27.9145 18.5331 27.8245L17.6831 25.5245C17.4331 24.8345 18.0331 24.0745 19.1331 24.0745ZM14.6831 25.8945C15.4631 25.1145 16.4231 25.2245 16.7331 25.8945L17.7531 28.1245C17.7931 28.2145 17.6531 28.4545 17.4431 28.6645C17.2331 28.8745 17.0031 29.0145 16.9031 28.9745L14.6731 27.9545C14.0031 27.6445 13.8931 26.6845 14.6731 25.9045L14.6831 25.8945ZM12.8231 30.3245C12.8231 29.2245 13.5831 28.6245 14.2731 28.8745L16.5731 29.7245C16.6631 29.7545 16.7331 30.0245 16.7331 30.3245C16.7331 30.6245 16.6631 30.8845 16.5731 30.9245L14.2731 31.7745C13.5831 32.0245 12.8231 31.4245 12.8231 30.3245ZM14.6431 34.7645C13.8631 33.9845 13.9731 33.0245 14.6431 32.7145L16.8731 31.6945C16.9631 31.6545 17.2031 31.7945 17.4131 32.0045C17.6231 32.2145 17.7631 32.4445 17.7231 32.5445L16.7031 34.7745C16.3931 35.4445 15.4331 35.5545 14.6531 34.7745L14.6431 34.7645ZM19.0731 36.6345C17.9731 36.6345 17.3731 35.8745 17.6231 35.1845L18.4731 32.8845C18.5031 32.7945 18.7731 32.7245 19.0731 32.7245C19.3731 32.7245 19.6331 32.7945 19.6731 32.8845L20.5231 35.1845C20.7731 35.8745 20.1731 36.6345 19.0731 36.6345ZM23.5231 34.8145C22.7431 35.5945 21.7831 35.4845 21.4731 34.8145L20.4531 32.5845C20.4131 32.4945 20.5531 32.2545 20.7631 32.0445C20.9731 31.8345 21.2131 31.6945 21.3031 31.7345L23.5331 32.7545C24.2031 33.0645 24.3131 34.0245 23.5331 34.8045L23.5231 34.8145ZM23.9331 31.8345L21.6331 30.9845C21.5431 30.9545 21.4731 30.6845 21.4731 30.3845C21.4731 30.0845 21.5431 29.8245 21.6331 29.7845L23.9331 28.9345C24.6231 28.6845 25.3831 29.2845 25.3831 30.3845C25.3831 31.4845 24.6231 32.0845 23.9331 31.8345Z" fill="#DCDFE2"/>
<path d="M102.493 30.3646C102.493 25.0446 98.1631 20.7146 92.8431 20.7146C87.5231 20.7146 83.1931 25.0446 83.1931 30.3646C83.1931 32.0646 83.6431 33.6646 84.4231 35.0546H101.263C102.043 33.6646 102.493 32.0646 102.493 30.3646Z" fill="#070707"/>
<path d="M101.389 31.7508C102.157 27.0301 98.9529 22.5806 94.2322 21.8126C89.5114 21.0446 85.062 24.249 84.294 28.9697C83.526 33.6904 86.7304 38.1399 91.4511 38.9079C96.1718 39.6758 100.621 36.4715 101.389 31.7508Z" fill="#2A2A2B"/>
<path d="M98.0895 35.6095C100.983 32.7157 100.983 28.024 98.0895 25.1302C95.1957 22.2364 90.5039 22.2364 87.6101 25.1302C84.7163 28.024 84.7163 32.7157 87.6101 35.6095C90.5039 38.5033 95.1957 38.5033 98.0895 35.6095Z" fill="#091119"/>
<path d="M92.8431 23.8645C89.2531 23.8645 86.3531 26.7745 86.3531 30.3545C86.3531 33.9345 89.2631 36.8445 92.8431 36.8445C96.4231 36.8445 99.3331 33.9345 99.3331 30.3545C99.3331 26.7745 96.4231 23.8645 92.8431 23.8645ZM97.3431 25.9345C98.1231 26.7145 98.0131 27.6745 97.3431 27.9845L95.1131 29.0045C95.0231 29.0445 94.7831 28.9045 94.5731 28.6945C94.3631 28.4845 94.2231 28.2545 94.2631 28.1545L95.2831 25.9245C95.5931 25.2545 96.5531 25.1445 97.3331 25.9245L97.3431 25.9345ZM92.9131 24.0745C94.0131 24.0745 94.6131 24.8345 94.3631 25.5245L93.5131 27.8245C93.4831 27.9145 93.2131 27.9845 92.9131 27.9845C92.6131 27.9845 92.3531 27.9145 92.3131 27.8245L91.4632 25.5245C91.2132 24.8345 91.8131 24.0745 92.9131 24.0745ZM88.4632 25.8945C89.2431 25.1145 90.2131 25.2245 90.5131 25.8945L91.5331 28.1245C91.5731 28.2145 91.4331 28.4545 91.2231 28.6645C91.0131 28.8745 90.7831 29.0145 90.6831 28.9745L88.4531 27.9545C87.7831 27.6445 87.6731 26.6845 88.4531 25.9045L88.4632 25.8945ZM86.6031 30.3245C86.6031 29.2245 87.3631 28.6245 88.0531 28.8745L90.3531 29.7245C90.4431 29.7545 90.5131 30.0245 90.5131 30.3245C90.5131 30.6245 90.4431 30.8845 90.3531 30.9245L88.0531 31.7745C87.3631 32.0245 86.6031 31.4245 86.6031 30.3245ZM88.4231 34.7645C87.6431 33.9845 87.7531 33.0245 88.4231 32.7145L90.6531 31.6945C90.7431 31.6545 90.9831 31.7945 91.1931 32.0045C91.4031 32.2145 91.5431 32.4445 91.5031 32.5445L90.4831 34.7745C90.1731 35.4445 89.2131 35.5545 88.4331 34.7745L88.4231 34.7645ZM92.8531 36.6345C91.7531 36.6345 91.1531 35.8745 91.4031 35.1845L92.2531 32.8845C92.2831 32.7945 92.5531 32.7245 92.8531 32.7245C93.1531 32.7245 93.4131 32.7945 93.4531 32.8845L94.3031 35.1845C94.5531 35.8745 93.9531 36.6345 92.8531 36.6345ZM97.3031 34.8145C96.5231 35.5945 95.5631 35.4845 95.2531 34.8145L94.2331 32.5845C94.1931 32.4945 94.3331 32.2545 94.5431 32.0445C94.7531 31.8345 94.9831 31.6945 95.0831 31.7345L97.3131 32.7545C97.9831 33.0645 98.0931 34.0245 97.3131 34.8045L97.3031 34.8145ZM97.7132 31.8345L95.4131 30.9845C95.3231 30.9545 95.2531 30.6845 95.2531 30.3845C95.2531 30.0845 95.3231 29.8245 95.4131 29.7845L97.7132 28.9345C98.4032 28.6845 99.1631 29.2845 99.1631 30.3845C99.1631 31.4845 98.4032 32.0845 97.7132 31.8345Z" fill="#DCDFE2"/>
<path d="M59.8131 3.99454C58.9131 3.52454 57.4331 3.16454 56.4631 3.15454H46.0731C46.0731 3.15454 47.6431 13.6545 47.6631 13.8745L85.4031 15.5045C86.7631 15.5645 86.6331 15.0245 85.4231 14.2345C84.8131 13.8345 59.8131 3.98454 59.8131 3.98454V3.99454Z" fill="#80C2DC"/>
<path opacity="0.3" d="M13.8431 12.7845C12.1431 12.7045 11.5831 12.1145 11.4031 11.7645C11.0231 11.0545 11.4831 10.1645 12.6731 9.32445L21.4631 3.12445C21.9731 2.76445 23.1631 2.60445 24.0531 2.61445L28.4831 2.66445C28.4831 2.66445 27.3631 8.08445 26.9131 10.3245C26.5731 12.0245 26.3931 12.9145 26.3631 13.0145L26.2831 13.3345L13.8531 12.7745L13.8431 12.7845Z" fill="#124F2A"/>
<path d="M27.8531 3.06434L24.0431 3.01434C23.1431 3.00434 22.1731 3.17434 21.8331 3.41434L13.0231 9.61433C11.1731 10.9143 11.3331 12.3043 13.8431 12.4143L25.8231 12.9443C25.9031 12.6443 27.8031 2.95434 27.8531 3.07434V3.06434Z" fill="#80C2DC"/>
<path opacity="0.3" d="M45.1131 2.71436H28.8031L28.7431 3.05436C28.7031 3.24436 27.4131 11.9544 27.2731 12.9444V12.9744L27.0631 22.7244L27.2031 22.8544C28.9131 24.3744 30.1931 27.7644 30.2831 30.4644C30.2831 30.5844 30.2831 30.7144 30.2731 30.8444L47.1131 31.0044L46.7631 13.6744L45.1231 2.72436L45.1131 2.71436ZM46.6231 30.5244L30.7131 30.4844C30.6331 27.9444 29.4931 24.3644 27.4831 22.5744L27.6931 13.0144C27.9931 11.0044 29.1231 3.36436 29.1731 3.12436L44.7131 3.14436L46.2831 13.6744L46.6331 30.5244H46.6231Z" fill="#124F2A"/>
<path d="M46.2631 13.8845V13.6745L44.6931 3.14451L29.1531 3.12451C29.1131 3.31451 27.6731 13.0145 27.6731 13.0145V13.0745L46.2531 13.8845H46.2631Z" fill="#80C2DC"/>
<path d="M32.2531 14.6744L28.1831 14.4744V13.5344L32.2531 13.7144V14.6744Z" fill="#0D5E56"/>
<path d="M53.3731 15.7143L48.5831 15.4743V14.4543L53.3731 14.6743V15.7143Z" fill="#0D5E56"/>
<path opacity="0.3" d="M82.4931 31.0544L87.0131 15.2744C87.0431 14.8644 86.6631 14.4244 85.8331 13.8744C85.2131 13.4644 61.8031 4.54436 60.1031 3.61436C59.1231 3.10436 57.5631 2.71436 56.4631 2.71436H45.5231L45.5931 3.20436C46.0231 6.07436 47.1431 13.6244 47.1731 13.8944V13.9444L47.4231 30.9544L82.4931 31.0544ZM46.0731 3.14436H56.4631C57.4331 3.15436 58.9131 3.52436 59.8131 3.99436C59.8131 3.99436 84.8131 13.8344 85.4231 14.2444C86.0531 14.6544 86.3831 14.9944 86.3631 15.2244L81.8531 30.5044L48.0931 30.3844L47.6731 13.8744C47.6531 13.6544 46.0831 3.14436 46.0831 3.14436H46.0731Z" fill="#124F2A"/>
<path opacity="0.7" d="M21.5731 12.7445L25.8231 12.9345C25.8631 12.7745 26.4231 9.96452 26.9431 7.38452L21.5731 12.7545V12.7445Z" fill="white"/>
<path opacity="0.7" d="M14.3331 8.68456L13.0231 9.60456C12.2131 10.1746 11.7931 10.7546 11.7831 11.2346L14.3431 8.67456L14.3331 8.68456Z" fill="white"/>
<path opacity="0.7" d="M21.8331 3.41459L20.6931 4.21459C18.0231 6.88459 15.3531 9.55459 12.6831 12.2246C12.9931 12.3246 13.3731 12.3846 13.8331 12.4046L16.2731 12.5146C19.4331 9.35459 22.5931 6.19459 25.7431 3.04459L24.0231 3.02459C23.1231 3.01459 22.1531 3.18459 21.8131 3.42459L21.8331 3.41459Z" fill="white"/>
<path opacity="0.7" d="M35.7331 3.13452H31.1931L28.8031 5.51452C28.5631 7.14452 28.2431 9.28452 28.0031 10.8645L35.7331 3.13452Z" fill="white"/>
<path opacity="0.7" d="M39.3631 3.13452H37.6231C34.3131 6.44452 31.0031 9.75452 27.6831 13.0645L29.3531 13.1445L39.3631 3.13452Z" fill="white"/>
<path opacity="0.7" d="M45.2431 6.82459L45.0431 5.45459C42.3631 8.13459 39.6931 10.8046 37.0131 13.4846L38.5231 13.5546C40.7631 11.3146 43.0031 9.07459 45.2431 6.83459V6.82459Z" fill="white"/>
<path opacity="0.7" d="M40.3331 13.6246L46.2731 13.8846V13.6746L45.4931 8.4646C43.7731 10.1846 42.0531 11.9046 40.3331 13.6246Z" fill="white"/>
<path opacity="0.7" d="M48.9231 3.14452H47.3431L46.2431 4.24452C46.3031 4.63452 46.3731 5.09452 46.4431 5.61452L48.9231 3.13452V3.14452Z" fill="white"/>
<path opacity="0.7" d="M57.2631 3.22455C56.9731 3.18455 56.7031 3.16455 56.4631 3.16455H50.8031L46.6831 7.27455C46.9931 9.35455 47.3431 11.7046 47.5231 12.9646L57.2531 3.23455L57.2631 3.22455Z" fill="white"/>
<path opacity="0.7" d="M65.1231 6.08446C63.1831 5.31446 61.5931 4.69446 60.6731 4.32446C57.4431 7.55446 54.2131 10.7845 50.9831 14.0145L56.9231 14.2745C59.6531 11.5445 62.3831 8.81446 65.1131 6.08446H65.1231Z" fill="white"/>
<path opacity="0.7" d="M73.0431 9.22449C72.3131 8.93449 71.5731 8.64449 70.8531 8.35449L64.6031 14.6045L67.5431 14.7345L73.0531 9.22449H73.0431Z" fill="white"/>
<path opacity="0.7" d="M78.2431 11.2944C77.0231 10.8044 75.7231 10.2944 74.4031 9.7644L69.3531 14.8144L74.5031 15.0344L78.2431 11.2944Z" fill="white"/>
<path d="M110.853 19.5745L102.863 19.6645C102.543 19.6645 102.503 20.0145 102.763 20.4345L104.263 23.2345C104.453 23.5345 104.823 23.8145 105.123 23.8645L114.603 25.4145C114.383 23.7345 113.653 21.4745 110.853 19.5645V19.5745Z" fill="#0D5E56"/>
<path d="M114.613 25.2146C114.443 24.3846 114.113 22.0646 111.413 19.9746H103.283C102.953 19.9746 102.883 20.2746 103.103 20.6346L104.503 22.9146C104.673 23.1846 105.033 23.4446 105.333 23.4946L114.603 25.2046L114.613 25.2146Z" fill="#F9F9F9"/>
<path d="M104.883 20.0046L103.283 19.9746C102.953 19.9746 102.883 20.2746 103.103 20.6346L104.503 22.9146C104.673 23.1846 105.033 23.4446 105.333 23.4946L107.663 23.9246L104.873 19.9946L104.883 20.0046Z" fill="#F49625"/>
<path d="M115.043 28.7445C115.043 29.3945 114.513 29.9245 113.863 29.9245H110.423C109.773 29.9245 109.243 29.3945 109.243 28.7445C109.243 28.0945 109.773 27.5645 110.423 27.5645H113.863C114.513 27.5645 115.043 28.0945 115.043 28.7445Z" fill="#2A2A2B"/>
<path d="M112.693 28.6944C112.693 29.1944 112.283 29.6044 111.783 29.6044H110.913C110.413 29.6044 110.003 29.1944 110.003 28.6944C110.003 28.1944 110.413 27.7844 110.913 27.7844H111.783C112.283 27.7844 112.693 28.1944 112.693 28.6944Z" fill="#F9F9F9"/>
<path d="M3.21315 20.6846H4.96315C6.05315 20.6846 7.15315 19.7946 7.41315 18.7046L7.82315 16.9846C8.08315 15.8946 7.41315 15.0046 6.31315 15.0046H4.85315C4.22315 16.3046 3.67315 18.4146 3.21315 20.6846Z" fill="#124F2A"/>
<path d="M3.31314 20.1846C3.75314 18.1146 4.20314 16.5446 4.66314 15.4946H6.32314C6.68314 15.4946 6.99314 15.6246 7.18314 15.8646C7.38314 16.1146 7.44314 16.4746 7.35314 16.8646L6.94314 18.5846C6.73314 19.4546 5.83314 20.1846 4.97314 20.1846H3.31314Z" fill="#DB3535"/>
<path d="M3.66314 18.6445C3.54314 19.1245 3.42314 19.6345 3.31314 20.1845H4.97314C5.81314 20.1845 6.69314 19.4845 6.92314 18.6445H3.67314H3.66314Z" fill="#F49625"/>
<path opacity="0.3" d="M9.33315 15.3846C13.8831 15.3246 75.6431 17.8546 96.1931 19.3446C81.9531 19.2546 26.2631 18.5746 25.0031 18.5946C23.7431 18.6146 9.33315 15.3846 9.33315 15.3846Z" fill="#124F2A"/>
<path opacity="0.6" d="M7.52315 15.0545C11.1031 16.2745 75.6431 17.8445 96.1931 19.3345C81.3731 17.0945 18.4231 15.6245 10.8531 12.6945C9.67315 12.2345 7.51315 15.0545 7.51315 15.0545H7.52315Z" fill="white"/>
<path opacity="0.6" d="M114.663 25.7745C113.953 22.0145 112.043 19.6945 108.113 18.1745C105.983 17.3545 93.4031 13.8645 91.1331 13.7945C86.0031 11.3945 64.6231 4.13452 62.0031 3.02452C59.9731 2.04452 54.6431 0.394521 48.0431 0.394521C41.4431 0.394521 27.9531 -0.185479 23.2831 1.01452C19.7031 1.92452 9.30315 8.90452 5.32315 14.2145C4.01315 15.9545 2.98315 21.4745 2.35315 25.7345C2.41315 25.7245 2.47315 25.7145 2.53315 25.6945C3.17315 22.1145 4.13315 17.9445 5.32315 16.5445C9.30315 11.8345 19.0931 4.83452 22.4731 2.58452C23.4131 1.95452 51.1831 1.85452 57.5831 2.58452C60.3031 2.89452 81.9331 11.5845 87.5331 14.2245C90.4931 16.4945 105.993 19.3345 108.133 20.0645C111.643 21.2645 113.533 23.0345 114.413 25.7745C114.503 25.7745 114.593 25.7745 114.683 25.7745H114.663Z" fill="white"/>
<path opacity="0.6" d="M0.513146 34.2646L0.583146 30.8346C0.613146 29.1946 2.00315 27.5246 3.69315 27.1046L9.29315 25.7046H3.26315C1.62315 25.7046 0.303146 27.0346 0.303146 28.6746V32.1046C0.303146 32.9646 0.303146 33.7346 0.513146 34.2746C0.513146 34.2746 0.513146 34.2746 0.513146 34.2646Z" fill="white"/>
<path opacity="0.6" d="M115.783 30.7246C115.853 30.6346 115.933 30.5546 116.023 30.4846V30.3446C116.023 26.5646 115.683 25.6946 113.063 25.6946H103.063L112.883 27.0046C114.963 27.3846 115.593 28.5246 115.783 30.7146V30.7246Z" fill="white"/>
<path opacity="0.6" d="M28.6631 31.1147C28.6131 31.7547 28.5131 32.3747 28.3431 32.9647H83.5731C83.4531 32.5447 28.6631 31.1147 28.6631 31.1147Z" fill="white"/>
<path opacity="0.6" d="M19.0631 19.9047C24.8031 19.9047 29.4931 24.4347 29.7731 30.1047C29.7731 29.9347 29.8031 29.7647 29.8031 29.5847C29.8031 23.6647 24.9831 18.8447 19.0631 18.8447C13.1431 18.8447 8.32315 23.6647 8.32315 29.5847C8.32315 29.7547 8.34315 29.9247 8.35315 30.1047C8.63315 24.4347 13.3231 19.9047 19.0631 19.9047Z" fill="white"/>
<path opacity="0.6" d="M92.8431 19.9047C98.5831 19.9047 103.273 24.4347 103.553 30.1047C103.553 29.9347 103.583 29.7647 103.583 29.5847C103.583 23.6647 98.7631 18.8447 92.8431 18.8447C86.9231 18.8447 82.1031 23.6647 82.1031 29.5847C82.1031 29.7547 82.1231 29.9247 82.1331 30.1047C82.4131 24.4347 87.1031 19.9047 92.8431 19.9047Z" fill="white"/>
<path opacity="0.2" d="M10.4331 30.7946C10.4331 30.6446 10.4131 30.5046 10.4131 30.3546C10.4131 25.5746 14.2931 21.6946 19.0731 21.6946C23.8531 21.6946 27.7331 25.5746 27.7331 30.3546C27.7331 30.5046 27.7231 30.6446 27.7131 30.7946C27.4831 26.2146 23.7131 22.5746 19.0831 22.5746C14.4531 22.5746 10.6731 26.2146 10.4531 30.7946H10.4331ZM11.6131 30.4746C11.6131 30.6046 11.5931 30.7246 11.5931 30.8546C11.5931 34.9746 14.9331 38.3246 19.0631 38.3246C23.1931 38.3246 26.5331 34.9846 26.5331 30.8546C26.5331 30.7246 26.5231 30.6046 26.5131 30.4746C26.3131 34.4246 23.0631 37.5646 19.0631 37.5646C15.0631 37.5646 11.8131 34.4246 11.6131 30.4746Z" fill="#EDEDED"/>
<path opacity="0.2" d="M84.1431 30.7946C84.1431 30.6446 84.1231 30.5046 84.1231 30.3546C84.1231 25.5746 88.0031 21.6946 92.7831 21.6946C97.5631 21.6946 101.443 25.5746 101.443 30.3546C101.443 30.5046 101.433 30.6446 101.423 30.7946C101.193 26.2146 97.4231 22.5746 92.7931 22.5746C88.1631 22.5746 84.3831 26.2146 84.1631 30.7946H84.1431ZM85.3331 30.4746C85.3331 30.6046 85.3131 30.7246 85.3131 30.8546C85.3131 34.9746 88.6531 38.3246 92.7831 38.3246C96.9131 38.3246 100.253 34.9846 100.253 30.8546C100.253 30.7246 100.243 30.6046 100.233 30.4746C100.033 34.4246 96.7831 37.5646 92.7831 37.5646C88.7831 37.5646 85.5331 34.4246 85.3331 30.4746Z" fill="#EDEDED"/>
</g>
<defs>
<clipPath id="clip0_60_5490">
<rect width="115.72" height="38.76" fill="white" transform="translate(0.303146 0.254639)"/>
</clipPath>
</defs>
</svg>
