<svg width="124" height="53" viewBox="0 0 124 53" fill="none" xmlns="http://www.w3.org/2000/svg">
<g clip-path="url(#clip0_60_5399)">
<path d="M84.1972 39.8092C84.1972 40.9792 83.2472 41.9292 82.0772 41.9292H44.8972C43.7272 41.9292 42.7772 40.9792 42.7772 39.8092C42.7772 38.6392 43.7272 37.6892 44.8972 37.6892H82.0772C83.2472 37.6892 84.1972 38.6392 84.1972 39.8092Z" fill="#2D2D2D"/>
<path d="M5.79718 39.5993H122.047C122.717 39.1093 123.167 38.3593 123.167 37.2093C123.167 34.2293 123.327 30.9393 122.067 30.7793V25.6793C122.067 21.9193 119.247 22.6193 119.247 22.6193C119.247 22.6193 119.087 21.5193 117.207 19.7993C113.597 19.0193 92.7372 17.5993 92.7372 17.5993C92.7372 17.5993 83.1272 5.92928 80.2172 1.82928C79.1272 0.109282 56.0572 0.479282 56.0572 0.479282C55.7772 1.12928 55.8072 17.6393 55.8072 17.6393C51.2472 17.6393 2.49718 18.5393 2.49718 18.5393C1.32718 25.5093 1.75718 31.8693 1.39718 31.8693C0.61718 31.8693 1.55718 38.4593 1.55718 38.4593C1.55718 38.4593 3.37718 39.0493 5.79718 39.5993Z" fill="#D60606"/>
<path opacity="0.7" d="M112.047 22.7493L2.27718 20.9193L2.74718 18.7993L85.6972 18.2793L116.307 20.1593L112.047 22.7493Z" fill="white"/>
<path d="M90.0272 16.4992C87.7472 13.5692 82.1772 6.37922 79.6372 2.86922L79.3472 2.47922L78.8672 2.39922C77.4272 2.16922 69.0772 1.89922 58.4172 1.71922L57.2172 1.69922V36.9192L85.2772 36.8792L89.6872 26.7392L90.0672 16.5792L90.0172 16.5092L90.0272 16.4992ZM89.2572 26.5792L84.9872 36.3992L57.7072 36.4392V2.16922H58.4272C69.0472 2.36922 77.3772 2.62922 78.8072 2.85922L79.0972 2.90922L79.2672 3.14922C81.7972 6.63922 87.3072 13.7592 89.6172 16.7292L89.2672 26.5892L89.2572 26.5792Z" fill="#BF0C0C"/>
<path d="M58.4072 2.88916C69.4572 3.07916 77.4872 3.35916 78.6872 3.55916C81.2172 7.04916 86.6272 14.0392 89.1072 17.2192L58.4072 17.2592V2.88916Z" fill="#2D2D2D"/>
<path d="M58.9072 3.39917C69.8872 3.59917 76.8372 3.85917 78.3972 4.02917C80.7172 7.21917 85.1972 13.0292 88.0672 16.7192L58.9072 16.7592V3.39917Z" fill="#80C2DC"/>
<path d="M86.7072 39.4394C86.9472 39.4194 87.0872 39.1994 87.1072 39.1794L89.7872 29.9794C89.8772 29.8194 90.9172 28.7494 91.0472 28.5994C91.4272 28.3094 93.2172 27.9194 93.5672 27.5894C94.2272 27.1894 95.6572 27.5894 96.3372 27.5894L106.177 28.5894C107.477 28.5894 109.057 29.4994 109.707 30.6294L114.697 39.2694C116.797 38.9894 120.887 40.5594 120.887 40.5594L101.817 46.1194L82.7172 40.6394C82.7172 40.6394 86.7172 39.4694 86.7172 39.4394H86.7072ZM42.7772 39.3094C42.7572 39.3094 42.7472 39.3094 42.7272 39.3094C42.6872 39.3094 42.6472 39.3094 42.6172 39.2994C42.6072 39.2994 42.5972 39.2994 42.5872 39.2994C42.5572 39.2994 42.5372 39.2894 42.5272 39.2794L37.5372 30.6394C36.8872 29.5094 35.3072 28.5994 34.0072 28.5994L22.9672 27.5994C21.6672 27.5994 18.9572 29.5094 18.3072 30.6294L13.5272 38.5394C13.5272 38.5394 15.4672 39.3094 15.4372 39.3394C15.4072 39.3694 15.3572 39.3894 15.3072 39.4194L2.06718 40.3194L29.0072 46.4394L56.4672 38.9094C56.4672 38.9094 42.7972 39.3494 42.7772 39.3094Z" fill="#2D2D2D"/>
<path d="M14.4872 40.7893L19.5472 30.6293C20.1072 29.4993 21.6072 28.5893 22.9072 28.5893H32.8872C34.1872 28.5893 35.8472 29.4993 36.5872 30.6293L42.2972 39.2693C42.5472 39.6393 87.2572 39.6393 87.4472 39.2693L91.7072 30.6293C92.2672 29.4993 93.7672 28.5893 95.0672 28.5893H105.047C106.347 28.5893 108.007 29.4993 108.747 30.6293L114.457 39.2693C114.707 39.6393 120.757 40.5593 120.757 40.5593C121.757 40.0993 122.437 39.2893 122.317 37.8493C122.297 37.6293 122.277 37.4093 122.267 37.1793H116.337L111.067 29.2093C109.747 27.2093 107.107 25.7593 104.807 25.7593H94.8272C92.5172 25.7593 90.1272 27.2093 89.1472 29.2093L85.2172 37.1793H44.1872L38.9172 29.2093C37.5972 27.2093 34.9572 25.7593 32.6572 25.7593H22.6772C20.3672 25.7593 17.9772 27.2093 16.9972 29.2093L13.0672 37.1793H0.407181C0.627181 38.2593 1.10718 40.7893 1.10718 40.7893C1.10718 40.7893 2.99718 41.4793 6.48718 42.0793C6.48718 42.0793 14.3072 41.1593 14.4872 40.7893Z" fill="#D4D6D6"/>
<path d="M13.1172 38.0093L17.0472 30.0393C18.0372 28.0393 20.4272 26.5893 22.7272 26.5893H32.7072C35.0172 26.5893 37.6472 28.0393 38.9672 30.0393L44.2372 38.0093H85.2672L89.1972 30.0393C90.1872 28.0393 92.5772 26.5893 94.8772 26.5893H104.857C107.167 26.5893 109.797 28.0393 111.117 30.0393L116.387 38.0093H122.297C122.297 37.9593 122.297 37.9093 122.297 37.8493C122.277 37.6293 122.257 37.4093 122.247 37.1793H116.317L111.047 29.2093C109.727 27.2093 107.087 25.7593 104.787 25.7593H94.8072C92.4972 25.7593 90.1072 27.2093 89.1272 29.2093L85.1972 37.1793H44.1672L38.8972 29.2093C37.5772 27.2093 34.9372 25.7593 32.6372 25.7593H22.6572C20.3472 25.7593 17.9572 27.2093 16.9772 29.2093L13.0472 37.1793H0.407181C0.467181 37.4793 0.527181 37.7593 0.587181 38.0093H13.1172Z" fill="white"/>
<path d="M39.9972 41.2593C39.9972 47.3193 35.0772 52.2393 29.0172 52.2393C22.9572 52.2393 18.0372 47.3193 18.0372 41.2593C18.0372 35.1993 22.9572 30.2793 29.0172 30.2793C35.0772 30.2793 39.9972 35.1993 39.9972 41.2593Z" fill="#242424"/>
<path d="M29.0172 33.3394C24.6472 33.3394 21.0972 36.8894 21.0972 41.2594C21.0972 45.6294 24.6472 49.1794 29.0172 49.1794C33.3872 49.1794 36.9372 45.6294 36.9372 41.2594C36.9372 36.8894 33.3872 33.3394 29.0172 33.3394ZM36.3172 41.2594C36.3172 41.5994 36.2872 41.9294 36.2372 42.2594L33.7572 42.1594L32.2872 41.1794L33.7572 40.2094L36.2172 40.1094C36.2772 40.4894 36.3172 40.8694 36.3172 41.2694V41.2594ZM30.8472 42.8094C30.9672 42.8894 31.0772 42.9894 31.1572 43.1194L31.5272 43.6994L30.9472 43.3294C30.8172 43.2494 30.7172 43.1394 30.6472 43.0294C30.6172 42.9194 30.5772 42.8094 30.5272 42.7094C30.6272 42.7594 30.7372 42.7994 30.8472 42.8194V42.8094ZM30.5272 39.6694C30.5772 39.5694 30.6172 39.4594 30.6372 39.3494C30.7172 39.2294 30.8172 39.1194 30.9472 39.0394L31.5172 38.6694L31.1472 39.2494C31.0672 39.3794 30.9572 39.4794 30.8472 39.5494C30.7372 39.5794 30.6272 39.6194 30.5272 39.6694ZM31.3472 41.9594C31.2672 41.8794 31.1772 41.7994 31.0872 41.7394C31.1972 41.7394 31.3072 41.7094 31.4172 41.6794C31.5572 41.6794 31.7072 41.7194 31.8472 41.7894L32.4472 42.1094L31.7672 42.0794C31.6172 42.0794 31.4772 42.0294 31.3572 41.9694L31.3472 41.9594ZM31.8372 40.5794C31.7072 40.6494 31.5572 40.6794 31.4272 40.6894C31.3172 40.6594 31.2072 40.6394 31.0872 40.6294C31.1772 40.5694 31.2672 40.4894 31.3372 40.4094C31.4672 40.3394 31.6072 40.2994 31.7572 40.2894L32.4372 40.2594L31.8272 40.5794H31.8372ZM31.8472 39.5394L32.6272 37.9594L34.6772 36.6594C35.1272 37.2194 35.4972 37.8394 35.7672 38.5194L33.5972 39.6494L31.8372 39.5394H31.8472ZM32.2272 37.5594L30.6472 38.3494L30.5372 36.5894L31.6472 34.4594C32.3272 34.7194 32.9572 35.0794 33.5172 35.5194L32.2272 37.5594ZM30.4872 35.6894L30.3872 34.0894C30.7272 34.1494 31.0472 34.2394 31.3672 34.3494L30.4772 35.6894H30.4872ZM30.4972 46.6794L31.4572 48.1294C31.1072 48.2494 30.7572 48.3494 30.3872 48.4194L30.4972 46.6794ZM30.5472 45.7794L30.6572 44.0194L32.2372 44.7994L33.5972 46.9394C33.0372 47.3894 32.4072 47.7594 31.7272 48.0294L30.5572 45.7794H30.5472ZM31.8572 42.8094L33.6172 42.6994L35.8272 43.8594C35.5672 44.5394 35.2072 45.1694 34.7672 45.7394L32.6472 44.3894L31.8572 42.8094ZM34.5072 42.6494L36.1872 42.5494C36.1272 42.9094 36.0372 43.2594 35.9172 43.5894L34.4972 42.6494H34.5072ZM34.5072 39.7094L35.8772 38.7994C35.9972 39.1294 36.0972 39.4594 36.1672 39.8094L34.5072 39.7094ZM34.4872 36.4394L33.0372 37.1594L33.7572 35.7094C34.0172 35.9294 34.2572 36.1794 34.4872 36.4294V36.4394ZM30.0872 34.0494L29.9872 36.4394L29.0072 37.9094L28.0372 36.4394L27.9372 34.0494C28.2872 33.9994 28.6572 33.9594 29.0272 33.9594C29.3972 33.9594 29.7472 33.9994 30.0972 34.0494H30.0872ZM29.5772 43.2494C29.6372 43.3394 29.7172 43.4294 29.7972 43.5094C29.8672 43.6394 29.9072 43.7794 29.9172 43.9294L29.9472 44.6094L29.6272 43.9994C29.5572 43.8694 29.5272 43.7194 29.5172 43.5894C29.5472 43.4794 29.5672 43.3694 29.5772 43.2494ZM29.5072 38.7894C29.5072 38.6494 29.5472 38.4994 29.6172 38.3594L29.9372 37.7594L29.9072 38.4394C29.9072 38.5894 29.8572 38.7294 29.7972 38.8494C29.7172 38.9294 29.6372 39.0194 29.5772 39.1094C29.5772 38.9994 29.5472 38.8894 29.5172 38.7794L29.5072 38.7894ZM28.1372 43.9294C28.1372 43.7794 28.1872 43.6394 28.2472 43.5194C28.3272 43.4394 28.4072 43.3494 28.4672 43.2594C28.4672 43.3694 28.4972 43.4794 28.5272 43.5894C28.5272 43.7294 28.4872 43.8794 28.4172 44.0194L28.0972 44.6194L28.1272 43.9394L28.1372 43.9294ZM28.0972 37.7594L28.4172 38.3694C28.4872 38.4994 28.5172 38.6494 28.5272 38.7794C28.4972 38.8894 28.4772 38.9994 28.4672 39.1194C28.4072 39.0294 28.3272 38.9394 28.2472 38.8694C28.1772 38.7394 28.1372 38.5994 28.1272 38.4494L28.0972 37.7694V37.7594ZM21.7272 41.2594C21.7272 40.8694 21.7672 40.4894 21.8272 40.1194L24.2772 40.2194L25.7472 41.1994L24.2772 42.1694L21.8072 42.2694C21.7572 41.9394 21.7272 41.5994 21.7272 41.2594ZM26.1972 41.7894C26.3272 41.7194 26.4772 41.6894 26.6072 41.6794C26.7172 41.7094 26.8272 41.7294 26.9472 41.7394C26.8572 41.7994 26.7672 41.8794 26.6872 41.9594C26.5572 42.0294 26.4172 42.0694 26.2672 42.0794L25.5872 42.1094L26.1972 41.7894ZM26.1872 40.5894L25.5872 40.2694L26.2672 40.2994C26.4172 40.2994 26.5572 40.3494 26.6772 40.4094C26.7572 40.4894 26.8472 40.5694 26.9372 40.6294C26.8272 40.6294 26.7172 40.6594 26.6072 40.6894C26.4672 40.6894 26.3172 40.6494 26.1772 40.5794L26.1872 40.5894ZM26.8772 43.1194C26.9572 42.9894 27.0672 42.8894 27.1772 42.8194C27.2872 42.7894 27.3972 42.7494 27.4972 42.6994C27.4472 42.7994 27.4072 42.9094 27.3872 43.0194C27.3072 43.1394 27.2072 43.2494 27.0772 43.3294L26.5072 43.6994L26.8772 43.1194ZM27.1872 39.5594C27.0672 39.4794 26.9572 39.3794 26.8772 39.2494L26.5072 38.6794L27.0872 39.0494C27.2172 39.1294 27.3172 39.2394 27.3872 39.3494C27.4172 39.4594 27.4572 39.5694 27.5072 39.6694C27.4072 39.6194 27.2972 39.5794 27.1872 39.5594ZM27.3772 38.3494L25.7972 37.5694L24.5072 35.5394C25.0672 35.0994 25.6972 34.7394 26.3772 34.4694L27.4872 36.5994L27.3772 38.3594V38.3494ZM26.1772 39.5594L24.4172 39.6694L22.2572 38.5394C22.5272 37.8594 22.8972 37.2394 23.3472 36.6794L25.3872 37.9794L26.1772 39.5594ZM23.5272 39.7194L21.8772 39.8194C21.9472 39.4694 22.0472 39.1394 22.1672 38.8094L23.5372 39.7194H23.5272ZM23.5272 42.6594L22.1172 43.5894C22.0072 43.2494 21.9172 42.9094 21.8472 42.5494L23.5272 42.6494V42.6594ZM24.4272 42.7194L26.1872 42.8294L25.4072 44.4094L23.2872 45.7594C22.8472 45.1894 22.4872 44.5594 22.2172 43.8794L24.4272 42.7294V42.7194ZM25.8072 44.8094L27.3872 44.0194L27.4972 45.7794L26.3272 48.0294C25.6472 47.7594 25.0172 47.3894 24.4572 46.9394L25.8072 44.8094ZM27.5472 46.6794L27.6572 48.4194C27.2872 48.3494 26.9372 48.2494 26.5872 48.1294L27.5472 46.6794ZM27.5372 35.6894L26.6572 34.3594C26.9772 34.2494 27.3072 34.1594 27.6372 34.0994L27.5372 35.6994V35.6894ZM24.2772 35.7294L24.9972 37.1694L23.5472 36.4494C23.7772 36.1894 24.0172 35.9494 24.2772 35.7294ZM23.4672 45.9694L25.0072 45.2094L24.2372 46.7494C23.9672 46.5094 23.7072 46.2494 23.4672 45.9694ZM27.9372 48.4594L28.0472 45.9294L29.0272 44.4594L29.9972 45.9294L30.1072 48.4694C29.7572 48.5194 29.3972 48.5594 29.0272 48.5594C28.6572 48.5594 28.2972 48.5194 27.9472 48.4694L27.9372 48.4594ZM33.8072 46.7494L33.0372 45.1994L34.5772 45.9694C34.3372 46.2494 34.0772 46.5094 33.8072 46.7494Z" fill="#E3E5E5"/>
<path d="M29.0172 32.2994C34.4272 32.2994 38.8572 36.4694 39.2772 41.7694C39.2972 41.4994 39.3172 41.2194 39.3172 40.9394C39.3172 35.2494 34.7072 30.6394 29.0172 30.6394C23.3272 30.6394 18.7172 35.2494 18.7172 40.9394C18.7172 41.2194 18.7272 41.4894 18.7572 41.7694C19.1772 36.4694 23.6072 32.2994 29.0172 32.2994Z" fill="#383838"/>
<path d="M29.0172 51.0992C23.1472 51.0992 18.3472 46.4892 18.0572 40.6892C18.0572 40.8792 18.0472 41.0692 18.0472 41.2592C18.0472 47.3192 22.9672 52.2392 29.0272 52.2392C35.0872 52.2392 40.0072 47.3192 40.0072 41.2592C40.0072 41.0692 40.0072 40.8792 39.9972 40.6892C39.6972 46.4892 34.9072 51.0992 29.0372 51.0992H29.0172Z" fill="#111111"/>
<path d="M29.0172 33.3394C33.3072 33.3394 36.7972 36.7594 36.9272 41.0294C36.9272 40.9494 36.9372 40.8694 36.9372 40.7894C36.9372 36.4194 33.3872 32.8694 29.0172 32.8694C24.6472 32.8694 21.0972 36.4194 21.0972 40.7894C21.0972 40.8694 21.0972 40.9494 21.1072 41.0294C21.2372 36.7694 24.7172 33.3394 29.0172 33.3394Z" fill="#111111"/>
<path d="M29.0172 49.1993C33.3072 49.1993 36.7972 45.7793 36.9272 41.5093C36.9272 41.5893 36.9372 41.6693 36.9372 41.7493C36.9372 46.1193 33.3872 49.6693 29.0172 49.6693C24.6472 49.6693 21.0972 46.1193 21.0972 41.7493C21.0972 41.6693 21.0972 41.5893 21.1072 41.5093C21.2372 45.7693 24.7172 49.1993 29.0172 49.1993Z" fill="#383838"/>
<path d="M112.407 41.2593C112.407 47.3193 107.487 52.2393 101.427 52.2393C95.3672 52.2393 90.4472 47.3193 90.4472 41.2593C90.4472 35.1993 95.3672 30.2793 101.427 30.2793C107.487 30.2793 112.407 35.1993 112.407 41.2593Z" fill="#242424"/>
<path d="M101.427 33.3394C97.0572 33.3394 93.5072 36.8894 93.5072 41.2594C93.5072 45.6294 97.0572 49.1794 101.427 49.1794C105.797 49.1794 109.347 45.6294 109.347 41.2594C109.347 36.8894 105.797 33.3394 101.427 33.3394ZM108.727 41.2594C108.727 41.5994 108.697 41.9294 108.647 42.2594L106.167 42.1594L104.697 41.1794L106.167 40.2094L108.627 40.1094C108.687 40.4894 108.727 40.8694 108.727 41.2694V41.2594ZM103.257 42.8094C103.377 42.8894 103.487 42.9894 103.567 43.1194L103.937 43.6994L103.357 43.3294C103.227 43.2494 103.127 43.1394 103.057 43.0294C103.027 42.9194 102.987 42.8094 102.937 42.7094C103.037 42.7594 103.147 42.7994 103.257 42.8194V42.8094ZM102.937 39.6694C102.987 39.5694 103.027 39.4594 103.047 39.3494C103.127 39.2294 103.227 39.1194 103.357 39.0394L103.927 38.6694L103.557 39.2494C103.477 39.3794 103.367 39.4794 103.257 39.5494C103.147 39.5794 103.037 39.6194 102.937 39.6694ZM103.757 41.9594C103.677 41.8794 103.587 41.7994 103.497 41.7394C103.607 41.7394 103.717 41.7094 103.827 41.6794C103.967 41.6794 104.117 41.7194 104.257 41.7894L104.857 42.1094L104.177 42.0794C104.027 42.0794 103.887 42.0294 103.767 41.9694L103.757 41.9594ZM104.247 40.5794C104.117 40.6494 103.967 40.6794 103.837 40.6894C103.727 40.6594 103.617 40.6394 103.497 40.6294C103.587 40.5694 103.677 40.4894 103.757 40.4094C103.887 40.3394 104.027 40.2994 104.177 40.2894L104.857 40.2594L104.247 40.5794ZM104.257 39.5394L105.037 37.9594L107.087 36.6594C107.537 37.2194 107.907 37.8394 108.177 38.5194L106.007 39.6494L104.247 39.5394H104.257ZM104.637 37.5594L103.057 38.3494L102.947 36.5894L104.057 34.4594C104.737 34.7194 105.367 35.0794 105.927 35.5194L104.637 37.5594ZM102.897 35.6894L102.797 34.0894C103.137 34.1494 103.457 34.2394 103.777 34.3494L102.887 35.6894H102.897ZM102.907 46.6794L103.867 48.1294C103.517 48.2494 103.167 48.3494 102.797 48.4194L102.907 46.6794ZM102.957 45.7794L103.067 44.0194L104.647 44.7994L106.007 46.9394C105.447 47.3894 104.817 47.7594 104.137 48.0294L102.967 45.7794H102.957ZM104.267 42.8094L106.027 42.6994L108.237 43.8594C107.977 44.5394 107.617 45.1694 107.177 45.7394L105.057 44.3894L104.267 42.8094ZM106.917 42.6494L108.597 42.5494C108.537 42.9094 108.447 43.2594 108.327 43.5894L106.907 42.6494H106.917ZM106.917 39.7094L108.287 38.7994C108.407 39.1294 108.507 39.4594 108.577 39.8094L106.917 39.7094ZM106.897 36.4394L105.447 37.1594L106.167 35.7094C106.427 35.9294 106.667 36.1794 106.897 36.4294V36.4394ZM102.497 34.0494L102.397 36.4394L101.417 37.9094L100.447 36.4394L100.347 34.0494C100.697 33.9994 101.067 33.9594 101.437 33.9594C101.807 33.9594 102.157 33.9994 102.507 34.0494H102.497ZM101.987 43.2494C102.047 43.3394 102.127 43.4294 102.207 43.5094C102.277 43.6394 102.317 43.7794 102.327 43.9294L102.357 44.6094L102.037 43.9994C101.967 43.8694 101.937 43.7194 101.927 43.5894C101.957 43.4794 101.977 43.3694 101.987 43.2494ZM101.917 38.7894C101.917 38.6494 101.957 38.4994 102.027 38.3594L102.347 37.7594L102.317 38.4394C102.317 38.5894 102.267 38.7294 102.207 38.8494C102.127 38.9294 102.047 39.0194 101.987 39.1094C101.987 38.9994 101.957 38.8894 101.927 38.7794L101.917 38.7894ZM100.547 43.9294C100.547 43.7794 100.597 43.6394 100.657 43.5194C100.737 43.4394 100.817 43.3494 100.877 43.2594C100.877 43.3694 100.907 43.4794 100.937 43.5894C100.937 43.7294 100.897 43.8794 100.827 44.0194L100.507 44.6194L100.537 43.9394L100.547 43.9294ZM100.507 37.7594L100.827 38.3694C100.897 38.4994 100.927 38.6494 100.937 38.7794C100.907 38.8894 100.887 38.9994 100.877 39.1194C100.817 39.0294 100.737 38.9394 100.657 38.8694C100.587 38.7394 100.547 38.5994 100.537 38.4494L100.507 37.7694V37.7594ZM94.1372 41.2594C94.1372 40.8694 94.1772 40.4894 94.2372 40.1194L96.6872 40.2194L98.1572 41.1994L96.6872 42.1694L94.2172 42.2694C94.1672 41.9394 94.1372 41.5994 94.1372 41.2594ZM98.6072 41.7894C98.7372 41.7194 98.8872 41.6894 99.0172 41.6794C99.1272 41.7094 99.2372 41.7294 99.3572 41.7394C99.2672 41.7994 99.1772 41.8794 99.0972 41.9594C98.9672 42.0294 98.8272 42.0694 98.6772 42.0794L97.9972 42.1094L98.6072 41.7894ZM98.6072 40.5894L98.0072 40.2694L98.6872 40.2994C98.8372 40.2994 98.9772 40.3494 99.0972 40.4094C99.1772 40.4894 99.2672 40.5694 99.3572 40.6294C99.2472 40.6294 99.1372 40.6594 99.0272 40.6894C98.8872 40.6894 98.7372 40.6494 98.5972 40.5794L98.6072 40.5894ZM99.2872 43.1194C99.3672 42.9894 99.4772 42.8894 99.5872 42.8194C99.6972 42.7894 99.8072 42.7494 99.9072 42.6994C99.8572 42.7994 99.8172 42.9094 99.7972 43.0194C99.7172 43.1394 99.6172 43.2494 99.4872 43.3294L98.9172 43.6994L99.2872 43.1194ZM99.5972 39.5594C99.4772 39.4794 99.3672 39.3794 99.2872 39.2494L98.9172 38.6794L99.4972 39.0494C99.6272 39.1294 99.7272 39.2394 99.7972 39.3494C99.8272 39.4594 99.8672 39.5694 99.9172 39.6694C99.8172 39.6194 99.7072 39.5794 99.5972 39.5594ZM99.7872 38.3494L98.2072 37.5694L96.9172 35.5394C97.4772 35.0994 98.1072 34.7394 98.7872 34.4694L99.8972 36.5994L99.7872 38.3594V38.3494ZM98.5872 39.5594L96.8272 39.6694L94.6672 38.5394C94.9372 37.8594 95.3072 37.2394 95.7572 36.6794L97.7972 37.9794L98.5872 39.5594ZM95.9372 39.7194L94.2872 39.8194C94.3572 39.4694 94.4572 39.1394 94.5772 38.8094L95.9472 39.7194H95.9372ZM95.9372 42.6594L94.5272 43.5894C94.4172 43.2494 94.3272 42.9094 94.2572 42.5494L95.9372 42.6494V42.6594ZM96.8372 42.7194L98.5972 42.8294L97.8172 44.4094L95.6972 45.7594C95.2572 45.1894 94.8972 44.5594 94.6272 43.8794L96.8372 42.7294V42.7194ZM98.2172 44.8094L99.7972 44.0194L99.9072 45.7794L98.7372 48.0294C98.0572 47.7594 97.4272 47.3894 96.8672 46.9394L98.2172 44.8094ZM99.9572 46.6794L100.067 48.4194C99.6972 48.3494 99.3472 48.2494 98.9972 48.1294L99.9572 46.6794ZM99.9472 35.6894L99.0672 34.3594C99.3872 34.2494 99.7172 34.1594 100.047 34.0994L99.9472 35.6994V35.6894ZM96.6872 35.7294L97.4072 37.1694L95.9572 36.4494C96.1872 36.1894 96.4272 35.9494 96.6872 35.7294ZM95.8772 45.9694L97.4172 45.2094L96.6472 46.7494C96.3772 46.5094 96.1172 46.2494 95.8772 45.9694ZM100.347 48.4594L100.457 45.9294L101.437 44.4594L102.407 45.9294L102.517 48.4694C102.167 48.5194 101.807 48.5594 101.437 48.5594C101.067 48.5594 100.707 48.5194 100.357 48.4694L100.347 48.4594ZM106.217 46.7494L105.447 45.1994L106.987 45.9694C106.747 46.2494 106.487 46.5094 106.217 46.7494Z" fill="#E3E5E5"/>
<path d="M101.427 32.2994C106.837 32.2994 111.267 36.4694 111.687 41.7694C111.707 41.4994 111.727 41.2194 111.727 40.9394C111.727 35.2494 107.117 30.6394 101.427 30.6394C95.7372 30.6394 91.1272 35.2494 91.1272 40.9394C91.1272 41.2194 91.1372 41.4894 91.1672 41.7694C91.5872 36.4694 96.0172 32.2994 101.427 32.2994Z" fill="#383838"/>
<path d="M101.427 51.0992C95.5572 51.0992 90.7572 46.4892 90.4672 40.6892C90.4672 40.8792 90.4572 41.0692 90.4572 41.2592C90.4572 47.3192 95.3772 52.2392 101.437 52.2392C107.497 52.2392 112.417 47.3192 112.417 41.2592C112.417 41.0692 112.417 40.8792 112.407 40.6892C112.107 46.4892 107.317 51.0992 101.447 51.0992H101.427Z" fill="#111111"/>
<path d="M101.427 33.3394C105.717 33.3394 109.207 36.7594 109.337 41.0294C109.337 40.9494 109.347 40.8694 109.347 40.7894C109.347 36.4194 105.797 32.8694 101.427 32.8694C97.0572 32.8694 93.5072 36.4194 93.5072 40.7894C93.5072 40.8694 93.5072 40.9494 93.5172 41.0294C93.6472 36.7694 97.1272 33.3394 101.427 33.3394Z" fill="#111111"/>
<path d="M101.427 49.1993C105.717 49.1993 109.207 45.7793 109.337 41.5093C109.337 41.5893 109.347 41.6693 109.347 41.7493C109.347 46.1193 105.797 49.6693 101.427 49.6693C97.0572 49.6693 93.5072 46.1193 93.5072 41.7493C93.5072 41.6693 93.5072 41.5893 93.5172 41.5093C93.6472 45.7693 97.1272 49.1993 101.427 49.1993Z" fill="#383838"/>
<path d="M87.4972 39.3793C87.4972 39.8593 87.1072 40.2393 86.6372 40.2393H42.7372C42.2572 40.2393 41.8772 39.8493 41.8772 39.3793C41.8772 38.8993 42.2672 38.5193 42.7372 38.5193H86.6372C87.1172 38.5193 87.4972 38.9093 87.4972 39.3793Z" fill="#B2B2B2"/>
<path d="M87.4672 39.1793C87.3772 38.7993 87.0372 38.5093 86.6272 38.5093H42.7272C42.3172 38.5093 41.9772 38.7993 41.8872 39.1793H87.4672Z" fill="white"/>
<path d="M42.0272 39.8694C42.1772 40.0994 42.4372 40.2394 42.7372 40.2394H86.6372C86.9272 40.2394 87.1872 40.0894 87.3472 39.8694H42.0372H42.0272Z" fill="#939393"/>
<path d="M64.6372 19.2792C64.6272 19.1092 64.4872 18.9792 64.3272 18.9792H59.1972C59.0272 18.9792 58.8872 19.1192 58.8772 19.2792V20.5192C58.8772 20.6992 59.0172 20.8392 59.1972 20.8392H64.3272C64.5072 20.8392 64.6472 20.6992 64.6472 20.5192V19.2692L64.6372 19.2792ZM59.1872 19.1092H64.3172C64.4272 19.1092 64.5072 19.1992 64.5072 19.2992V19.9392C64.5072 20.0492 64.4172 20.1292 64.3172 20.1292H59.1872C59.0772 20.1292 58.9972 20.0392 58.9972 19.9392V19.2992C58.9972 19.1892 59.0872 19.1092 59.1872 19.1092ZM64.3172 20.7192H59.1872C59.0772 20.7192 58.9972 20.6292 58.9972 20.5292V20.1892C59.0472 20.2292 59.1172 20.2592 59.1872 20.2592H64.3172C64.3872 20.2592 64.4572 20.2292 64.5072 20.1892V20.5292C64.5072 20.6392 64.4172 20.7192 64.3172 20.7192Z" fill="#BF0C0C"/>
<path opacity="0.7" d="M113.407 31.3794H121.097C122.667 31.3794 122.027 34.8394 122.027 34.8394L114.977 34.6694L113.407 31.3794Z" fill="white"/>
<path d="M5.55718 31.8993L5.93718 26.0393L1.44718 26.1393C1.08718 26.8393 1.06718 29.7193 1.11718 31.9993L5.55718 31.8993Z" fill="#7F374D"/>
<path d="M5.84718 27.4193L6.04718 24.3293L1.55718 24.4293C1.33718 24.8593 1.24718 26.0993 1.21718 27.5293L5.84718 27.4293V27.4193Z" fill="#70221E"/>
<path d="M116.267 22.7592V22.4092C116.267 21.8892 115.847 21.4692 115.327 21.4692H111.877C111.357 21.4692 110.937 21.8892 110.937 22.4092V22.7592H116.267Z" fill="#E37333"/>
<path d="M121.457 30.9493H121.917C122.597 30.9293 123.107 30.3093 123.067 29.5493L122.757 24.5293C122.707 23.7693 122.117 23.1693 121.437 23.1793H120.977L121.467 30.9493H121.457Z" fill="#F9F9F9"/>
<path d="M89.9172 16.6894C89.7472 19.1394 87.9172 18.5094 87.0272 18.4694C86.1472 18.4294 85.8972 17.6294 86.0072 16.5894C86.1572 15.1094 86.7072 14.6494 87.5872 14.6894C88.4672 14.7294 90.0572 14.5894 89.9172 16.6994V16.6894Z" fill="#200000"/>
<path d="M86.1872 15.7593C86.3672 16.2193 86.7472 16.5393 87.2372 16.5593C87.7872 16.5793 90.2172 17.1393 89.3372 15.2793C88.9072 14.7693 88.1172 14.8493 87.6072 14.8193C87.0372 14.7993 86.4872 15.1893 86.1872 15.7593Z" fill="#2D2D2D"/>
<path opacity="0.7" d="M98.7172 22.8093L120.307 23.4593L120.737 26.6293L98.7172 22.8093Z" fill="white"/>
</g>
<defs>
<clipPath id="clip0_60_5399">
<rect width="122.77" height="51.79" fill="white" transform="translate(0.407181 0.449219)"/>
</clipPath>
</defs>
</svg>
