<svg width="120" height="54" viewBox="0 0 120 54" fill="none" xmlns="http://www.w3.org/2000/svg">
<g clip-path="url(#clip0_60_5620)">
<path d="M67.3001 18.7997L91.5601 18.7597C88.1901 14.9597 80.8201 6.62969 77.3101 2.45969C76.0801 2.22969 73.9101 1.89969 63.2701 1.67969L67.3001 18.8097V18.7997Z" fill="#2D2D2D"/>
<path d="M64.6301 2.20972C74.5001 2.42972 76.7001 2.74972 77.7701 2.93972C81.1201 6.90972 87.7701 14.4397 91.1701 18.2797L68.4201 18.3197L64.6301 2.20972Z" fill="#80C2DC"/>
<path d="M8.46008 11.5796H1.40008C0.880935 11.5796 0.460083 12.0004 0.460083 12.5196V31.3396C0.460083 31.8587 0.880935 32.2796 1.40008 32.2796H8.46008C8.97923 32.2796 9.40008 31.8587 9.40008 31.3396V12.5196C9.40008 12.0004 8.97923 11.5796 8.46008 11.5796Z" fill="#2D2D2D"/>
<path d="M8.16009 11.7695H1.70009C1.22009 11.7695 0.840088 12.1595 0.840088 12.6295V15.7895C0.840088 15.3095 1.23009 14.9295 1.70009 14.9295H8.16009C8.64009 14.9295 9.02009 15.3195 9.02009 15.7895V12.6295C9.02009 12.1495 8.63009 11.7695 8.16009 11.7695Z" fill="#383838"/>
<path d="M8.16009 31.9397H1.70009C1.22009 31.9397 0.840088 31.5497 0.840088 31.0797V27.9197C0.840088 28.3997 1.23009 28.7797 1.70009 28.7797H8.16009C8.64009 28.7797 9.02009 28.3897 9.02009 27.9197V31.0797C9.02009 31.5597 8.63009 31.9397 8.16009 31.9397Z" fill="#111111"/>
<path d="M80.8801 40.7196C80.8801 41.8896 79.9301 42.8396 78.7601 42.8396H46.2901C45.1201 42.8396 44.1701 41.8896 44.1701 40.7196C44.1701 39.5496 45.1201 38.5996 46.2901 38.5996H78.7601C79.9301 38.5996 80.8801 39.5496 80.8801 40.7196Z" fill="#2D2D2D"/>
<path d="M11.2901 40.3197H118.23C118.9 39.8297 119.35 39.0797 119.35 37.9297C119.35 34.9497 119.51 31.6597 118.25 31.4997V26.3997C118.25 22.6397 115.43 23.3397 115.43 23.3397C115.43 23.3397 115.27 22.2397 113.39 20.5197C109.78 19.7397 88.9201 18.3197 88.9201 18.3197C88.9201 18.3197 78.8301 5.25969 75.9301 1.15969C74.8301 -0.560308 15.6001 0.369692 15.6001 0.369692C13.8101 4.47969 7.99008 19.2697 7.99008 19.2697C6.82008 26.2497 7.25008 32.5997 6.89008 32.5997C6.11008 32.5997 7.05008 39.1897 7.05008 39.1897C7.05008 39.1897 8.87008 39.7797 11.2901 40.3297V40.3197Z" fill="#E3E5E5"/>
<path opacity="0.7" d="M114.64 23.6598L8.77008 20.1298L9.24008 18.0098L88.2901 19.1898L113 21.0698L114.64 23.6598Z" fill="white"/>
<path d="M86.4101 20.4397H8.15009V19.9697H86.4101V20.4397ZM86.4101 26.2497H37.9501V26.7197H86.4101V26.2497ZM86.0301 24.8397H37.0001V25.3097H86.0301V24.8397Z" fill="#CECECE"/>
<path d="M59.8301 37.8197V2.59972L61.0301 2.61972C71.6901 2.80972 74.1201 3.06972 75.5601 3.29972L76.0401 3.37972L76.3301 3.76972C78.8701 7.27972 84.4501 14.4697 86.7201 17.3997L86.7701 17.4697L86.3901 27.6297L81.9801 37.7697L59.8301 37.8097V37.8197ZM60.3001 3.07972V37.3497L81.6701 37.3097L85.9401 27.4897L86.2901 17.6297C83.9801 14.6597 78.4701 7.53972 75.9401 4.04972L75.7701 3.80972L75.4801 3.75972C74.0501 3.52972 71.6401 3.26972 61.0101 3.07972H60.2901H60.3001ZM59.5901 37.7697H45.3501L36.6601 25.1497L36.1401 17.8697V17.8297C37.6901 12.6797 39.2101 7.91972 40.7801 3.25972L41.0501 2.45972H41.8901C49.3301 2.45972 53.5701 2.50972 58.7801 2.58972L59.5901 2.60972V37.7797V37.7697ZM45.6001 37.2997H59.1201V3.06972H58.7801C53.5701 2.98972 49.3401 2.93972 41.9001 2.93972H41.3901L41.2301 3.41972C39.6601 8.05972 38.1501 12.8097 36.6201 17.9297L37.1201 24.9897L45.6001 37.2997Z" fill="#BFBFBF"/>
<path d="M61.0001 3.79965C72.0501 3.98965 74.1701 4.26965 75.3701 4.46965C77.9001 7.95965 83.3101 14.9496 85.7901 18.1296L61.0101 18.1696V3.79965H61.0001ZM39.7701 3.63965C30.9301 3.63965 19.8101 3.65965 16.6201 3.67965C15.0501 7.48965 12.2801 14.6596 10.9401 18.1296L35.1801 18.1696C36.6301 13.2996 38.1501 8.45965 39.7701 3.63965ZM42.0101 3.63965C40.3801 8.45965 38.8501 13.2996 37.3901 18.1696H58.8801V3.76965C54.0201 3.69965 49.7301 3.64965 42.0101 3.63965Z" fill="#2D2D2D"/>
<path d="M38.0701 17.6696C39.5001 12.9096 40.9101 8.46965 42.3701 4.14965C49.3801 4.14965 53.5101 4.19965 58.3801 4.26965V17.6696H38.0701ZM11.6801 17.6296C13.1301 13.8496 15.5001 7.74965 16.9601 4.17965C20.4201 4.15965 30.6301 4.13965 39.0701 4.13965C37.6201 8.46965 36.2201 12.9096 34.8101 17.6596L11.6801 17.6196V17.6296ZM61.5001 4.30965C71.7601 4.49965 74.0201 4.76965 75.0801 4.92965C77.4101 8.13965 81.8901 13.9496 84.7501 17.6296L61.5001 17.6696V4.30965Z" fill="#80C2DC"/>
<path d="M83.9601 40.2298C84.2001 40.2098 84.3401 40.1898 84.3501 40.1698L89.3401 31.5298C89.4301 31.3698 89.5501 31.2098 89.6801 31.0598C90.0601 30.7698 90.4301 30.4698 90.7701 30.1498C91.4301 29.7498 92.1901 29.4998 92.8701 29.4998H102.85C104.15 29.4998 105.73 30.4098 106.38 31.5398L111.37 40.1798C113.47 39.8998 117.56 41.4698 117.56 41.4698L98.4901 47.0298L79.3901 41.5498C79.3901 41.5498 83.9601 40.2598 83.9701 40.2298H83.9601ZM44.1901 40.2198H44.1801C44.1601 40.2198 44.1501 40.2198 44.1301 40.2198C44.0901 40.2198 44.0501 40.2198 44.0201 40.2098C44.0101 40.2098 44.0001 40.2098 43.9901 40.2098C43.9601 40.2098 43.9401 40.1998 43.9301 40.1898L38.9401 31.5498C38.2901 30.4198 36.7101 29.5098 35.4101 29.5098H25.4301C24.1301 29.5098 22.5501 30.4198 21.9001 31.5498L16.9101 40.1898C16.9101 40.1898 16.8701 40.2398 16.8401 40.2598C16.8101 40.2898 16.7601 40.3098 16.7101 40.3398L8.06009 41.2398L30.4101 47.3598L53.1501 39.8298C53.1501 39.8298 44.1901 40.2698 44.1801 40.2298L44.1901 40.2198Z" fill="#2D2D2D"/>
<path d="M16.2901 41.8497L20.9401 31.5297C21.5001 30.3997 23.0001 29.4897 24.3001 29.4897H34.2801C35.5801 29.4897 37.2401 30.3997 37.9801 31.5297L43.6901 40.1697C43.9401 40.5397 83.9401 40.5397 84.1201 40.1697L88.3801 31.5297C88.9301 30.3997 90.4401 29.4897 91.7401 29.4897H101.72C103.02 29.4897 104.68 30.3997 105.42 31.5297L111.13 40.1697C111.38 40.5397 117.43 41.4597 117.43 41.4597C118.43 40.9997 119.11 40.1897 118.99 38.7497C118.97 38.5297 118.95 38.3097 118.94 38.0797H113.01L107.74 30.1097C106.42 28.1097 103.78 26.6597 101.48 26.6597H91.5001C89.1901 26.6597 86.8001 28.1097 85.8201 30.1097L81.8901 38.0797H45.5701L40.3001 30.1097C38.9801 28.1097 36.3401 26.6597 34.0401 26.6597H24.0601C21.7501 26.6597 19.3601 28.1097 18.3801 30.1097L14.4501 38.0797H6.40009C6.62009 39.1597 7.10009 41.6897 7.10009 41.6897C7.10009 41.6897 8.99009 42.3797 12.4801 42.9797C12.4801 42.9797 16.1101 42.2097 16.3001 41.8397L16.2901 41.8497Z" fill="#D4D6D6"/>
<path d="M14.5101 38.9197L18.4401 30.9497C19.4301 28.9497 21.8201 27.4997 24.1201 27.4997H34.1001C36.4101 27.4997 39.0401 28.9497 40.3601 30.9497L45.6301 38.9197H81.9501L85.8801 30.9497C86.8701 28.9497 89.2601 27.4997 91.5601 27.4997H101.54C103.85 27.4997 106.48 28.9497 107.8 30.9497L113.07 38.9197H118.98C118.98 38.8697 118.98 38.8197 118.98 38.7597C118.96 38.5397 118.94 38.3197 118.93 38.0897H113L107.73 30.1197C106.41 28.1197 103.77 26.6697 101.47 26.6697H91.4901C89.1801 26.6697 86.7901 28.1197 85.8101 30.1197L81.8801 38.0897H45.5601L40.2901 30.1197C38.9701 28.1197 36.3301 26.6697 34.0301 26.6697H24.0501C21.7401 26.6697 19.3501 28.1197 18.3701 30.1197L14.4401 38.0897H6.40009C6.46009 38.3897 6.52009 38.6697 6.58009 38.9197H14.5201H14.5101Z" fill="white"/>
<path d="M30.4201 53.1497C36.4842 53.1497 41.4001 48.2338 41.4001 42.1697C41.4001 36.1056 36.4842 31.1897 30.4201 31.1897C24.356 31.1897 19.4401 36.1056 19.4401 42.1697C19.4401 48.2338 24.356 53.1497 30.4201 53.1497Z" fill="#242424"/>
<path d="M30.4201 34.2498C26.0501 34.2498 22.5001 37.7998 22.5001 42.1698C22.5001 46.5398 26.0501 50.0898 30.4201 50.0898C34.7901 50.0898 38.3401 46.5398 38.3401 42.1698C38.3401 37.7998 34.7901 34.2498 30.4201 34.2498ZM37.7101 42.1698C37.7101 42.5098 37.6801 42.8398 37.6301 43.1698L35.1501 43.0598L33.6801 42.0798L35.1501 41.1098L37.6101 41.0098C37.6701 41.3898 37.7101 41.7698 37.7101 42.1698ZM32.2501 43.7198C32.3701 43.7998 32.4801 43.8998 32.5601 44.0298L32.9301 44.5998L32.3501 44.2298C32.2201 44.1498 32.1201 44.0398 32.0501 43.9298C32.0201 43.8198 31.9801 43.7098 31.9301 43.6098C32.0301 43.6598 32.1401 43.6998 32.2501 43.7198ZM31.9201 40.5798C31.9701 40.4798 32.0101 40.3698 32.0301 40.2598C32.1101 40.1398 32.2101 40.0298 32.3401 39.9498L32.9101 39.5798L32.5401 40.1598C32.4601 40.2898 32.3501 40.3898 32.2401 40.4598C32.1301 40.4898 32.0201 40.5298 31.9201 40.5798ZM32.7401 42.8698C32.6601 42.7898 32.5701 42.7098 32.4801 42.6498C32.5901 42.6498 32.7001 42.6198 32.8101 42.5898C32.9501 42.5898 33.1001 42.6298 33.2401 42.6998L33.8401 43.0198L33.1601 42.9898C33.0101 42.9898 32.8701 42.9398 32.7501 42.8798L32.7401 42.8698ZM33.2301 41.4898C33.1001 41.5598 32.9501 41.5898 32.8201 41.5998C32.7101 41.5698 32.6001 41.5498 32.4801 41.5398C32.5701 41.4798 32.6601 41.3998 32.7301 41.3198C32.8601 41.2498 33.0001 41.2098 33.1501 41.1998L33.8301 41.1698L33.2201 41.4898H33.2301ZM33.2401 40.4498L34.0201 38.8698L36.0701 37.5698C36.5201 38.1298 36.8901 38.7498 37.1701 39.4298L35.0001 40.5598L33.2401 40.4498ZM33.6201 38.4698L32.0401 39.2598L31.9301 37.4998L33.0401 35.3698C33.7201 35.6298 34.3501 35.9898 34.9101 36.4398L33.6201 38.4798V38.4698ZM31.8801 36.5998L31.7801 34.9998C32.1201 35.0598 32.4401 35.1498 32.7601 35.2598L31.8701 36.5998H31.8801ZM31.8901 47.5898L32.8501 49.0398C32.5001 49.1598 32.1501 49.2598 31.7801 49.3298L31.8901 47.5898ZM31.9501 46.6898L32.0601 44.9298L33.6401 45.7098L35.0001 47.8498C34.4401 48.2998 33.8101 48.6698 33.1301 48.9398L31.9601 46.6898H31.9501ZM33.2501 43.7298L35.0101 43.6198L37.2201 44.7798C36.9601 45.4598 36.6001 46.0898 36.1601 46.6598L34.0401 45.3098L33.2501 43.7298ZM35.9101 43.5598L37.5901 43.4598C37.5301 43.8198 37.4401 44.1698 37.3201 44.4998L35.9001 43.5598H35.9101ZM35.9001 40.6198L37.2701 39.7098C37.3901 40.0398 37.4901 40.3698 37.5601 40.7198L35.9001 40.6198ZM35.8801 37.3498L34.4301 38.0698L35.1501 36.6198C35.4101 36.8398 35.6501 37.0898 35.8801 37.3398V37.3498ZM31.4801 34.9598L31.3801 37.3498L30.4001 38.8198L29.4301 37.3498L29.3301 34.9598C29.6801 34.9098 30.0501 34.8698 30.4201 34.8698C30.7901 34.8698 31.1401 34.9098 31.4901 34.9598H31.4801ZM30.9701 44.1598C31.0301 44.2498 31.1101 44.3398 31.1901 44.4198C31.2601 44.5498 31.3001 44.6898 31.3101 44.8398L31.3401 45.5198L31.0201 44.9098C30.9501 44.7798 30.9201 44.6298 30.9101 44.4998C30.9401 44.3898 30.9601 44.2798 30.9701 44.1598ZM30.9001 39.6998C30.9001 39.5598 30.9401 39.4098 31.0101 39.2698L31.3301 38.6698L31.3001 39.3498C31.3001 39.4998 31.2501 39.6398 31.1901 39.7598C31.1101 39.8398 31.0301 39.9298 30.9701 40.0198C30.9701 39.9098 30.9401 39.7998 30.9101 39.6898L30.9001 39.6998ZM29.5301 44.8398C29.5301 44.6898 29.5801 44.5498 29.6401 44.4298C29.7201 44.3498 29.8001 44.2598 29.8601 44.1698C29.8601 44.2798 29.8901 44.3898 29.9201 44.4998C29.9201 44.6398 29.8801 44.7898 29.8101 44.9298L29.4901 45.5298L29.5201 44.8498L29.5301 44.8398ZM29.4901 38.6698L29.8101 39.2798C29.8801 39.4098 29.9101 39.5598 29.9201 39.6898C29.8901 39.7998 29.8701 39.9098 29.8601 40.0298C29.8001 39.9398 29.7201 39.8498 29.6401 39.7698C29.5701 39.6398 29.5301 39.4998 29.5201 39.3498L29.4901 38.6698ZM23.1201 42.1698C23.1201 41.7798 23.1601 41.3998 23.2201 41.0298L25.6701 41.1298L27.1401 42.1098L25.6701 43.0798L23.2001 43.1798C23.1501 42.8498 23.1201 42.5098 23.1201 42.1698ZM27.5901 42.6998C27.7201 42.6298 27.8701 42.5998 28.0001 42.5898C28.1101 42.6198 28.2201 42.6398 28.3401 42.6498C28.2501 42.7098 28.1601 42.7898 28.0801 42.8698C27.9501 42.9398 27.8101 42.9798 27.6601 42.9898L26.9801 43.0198L27.5901 42.6998ZM27.5901 41.4998L26.9901 41.1798L27.6701 41.2098C27.8201 41.2098 27.9601 41.2598 28.0801 41.3198C28.1601 41.3998 28.2501 41.4798 28.3401 41.5398C28.2301 41.5398 28.1201 41.5698 28.0101 41.5998C27.8701 41.5998 27.7201 41.5598 27.5801 41.4898L27.5901 41.4998ZM28.2801 44.0298C28.3601 43.8998 28.4701 43.7998 28.5801 43.7298C28.6901 43.6998 28.8001 43.6598 28.9001 43.6098C28.8501 43.7098 28.8101 43.8198 28.7901 43.9298C28.7101 44.0498 28.6101 44.1598 28.4801 44.2398L27.9001 44.6098L28.2701 44.0298H28.2801ZM28.5801 40.4698C28.4601 40.3898 28.3501 40.2898 28.2701 40.1598L27.9001 39.5898L28.4801 39.9598C28.6101 40.0398 28.7101 40.1498 28.7801 40.2598C28.8101 40.3698 28.8501 40.4798 28.9001 40.5798C28.8001 40.5298 28.6901 40.4898 28.5801 40.4698ZM28.7701 39.2698L27.1901 38.4898L25.9001 36.4598C26.4601 36.0198 27.0901 35.6598 27.7701 35.3898L28.8801 37.5198L28.7701 39.2798V39.2698ZM27.5801 40.4698L25.8201 40.5798L23.6601 39.4498C23.9301 38.7698 24.3001 38.1498 24.7501 37.5898L26.7901 38.8898L27.5801 40.4698ZM24.9201 40.6298L23.2701 40.7298C23.3401 40.3798 23.4401 40.0498 23.5601 39.7198L24.9301 40.6298H24.9201ZM24.9201 43.5698L23.5101 44.4998C23.4001 44.1598 23.3101 43.8198 23.2401 43.4598L24.9201 43.5598V43.5698ZM25.8201 43.6298L27.5801 43.7398L26.8001 45.3198L24.6801 46.6698C24.2401 46.0998 23.8801 45.4698 23.6101 44.7898L25.8201 43.6398V43.6298ZM27.2001 45.7198L28.7801 44.9298L28.8901 46.6898L27.7201 48.9398C27.0401 48.6698 26.4101 48.2998 25.8501 47.8498L27.2001 45.7198ZM28.9501 47.5898L29.0601 49.3298C28.6901 49.2598 28.3401 49.1598 27.9901 49.0398L28.9501 47.5898ZM28.9401 36.6098L28.0601 35.2798C28.3801 35.1698 28.7101 35.0798 29.0401 35.0198L28.9401 36.6198V36.6098ZM25.6701 36.6398L26.3901 38.0798L24.9401 37.3598C25.1701 37.0998 25.4101 36.8598 25.6701 36.6398ZM24.8601 46.8798L26.4001 46.1198L25.6301 47.6598C25.3601 47.4198 25.1001 47.1598 24.8601 46.8798ZM29.3401 49.3698L29.4501 46.8398L30.4301 45.3698L31.4001 46.8398L31.5101 49.3798C31.1601 49.4298 30.8001 49.4698 30.4301 49.4698C30.0601 49.4698 29.7001 49.4298 29.3501 49.3798L29.3401 49.3698ZM35.2101 47.6598L34.4401 46.1098L35.9801 46.8798C35.7401 47.1598 35.4801 47.4198 35.2101 47.6598Z" fill="#E3E5E5"/>
<path d="M30.4201 33.2098C35.8301 33.2098 40.2601 37.3798 40.6801 42.6798C40.7001 42.4098 40.7201 42.1298 40.7201 41.8498C40.7201 36.1598 36.1101 31.5498 30.4201 31.5498C24.7301 31.5498 20.1201 36.1598 20.1201 41.8498C20.1201 42.1298 20.1301 42.3998 20.1601 42.6798C20.5801 37.3798 25.0101 33.2098 30.4201 33.2098Z" fill="#383838"/>
<path d="M30.4201 52.0096C24.5501 52.0096 19.7501 47.3996 19.4601 41.5996C19.4601 41.7896 19.4501 41.9796 19.4501 42.1696C19.4501 48.2296 24.3701 53.1496 30.4301 53.1496C36.4901 53.1496 41.4101 48.2296 41.4101 42.1696C41.4101 41.9796 41.4101 41.7896 41.4001 41.5996C41.1001 47.3996 36.3101 52.0096 30.4401 52.0096H30.4201Z" fill="#111111"/>
<path d="M30.4201 34.2498C34.7201 34.2498 38.2001 37.6698 38.3301 41.9398C38.3301 41.8598 38.3401 41.7798 38.3401 41.6998C38.3401 37.3298 34.7901 33.7798 30.4201 33.7798C26.0501 33.7798 22.5001 37.3298 22.5001 41.6998C22.5001 41.7798 22.5001 41.8598 22.5101 41.9398C22.6401 37.6798 26.1201 34.2498 30.4201 34.2498Z" fill="#111111"/>
<path d="M30.4201 50.1097C34.7201 50.1097 38.2001 46.6897 38.3301 42.4197C38.3301 42.4997 38.3401 42.5797 38.3401 42.6597C38.3401 47.0297 34.7901 50.5797 30.4201 50.5797C26.0501 50.5797 22.5001 47.0297 22.5001 42.6597C22.5001 42.5797 22.5001 42.4997 22.5101 42.4197C22.6401 46.6797 26.1201 50.1097 30.4201 50.1097Z" fill="#383838"/>
<path d="M98.1101 53.1497C104.174 53.1497 109.09 48.2338 109.09 42.1697C109.09 36.1056 104.174 31.1897 98.1101 31.1897C92.046 31.1897 87.1301 36.1056 87.1301 42.1697C87.1301 48.2338 92.046 53.1497 98.1101 53.1497Z" fill="#242424"/>
<path d="M98.1101 34.2498C93.7401 34.2498 90.1901 37.7998 90.1901 42.1698C90.1901 46.5398 93.7401 50.0898 98.1101 50.0898C102.48 50.0898 106.03 46.5398 106.03 42.1698C106.03 37.7998 102.48 34.2498 98.1101 34.2498ZM105.41 42.1698C105.41 42.5098 105.38 42.8398 105.33 43.1698L102.85 43.0598L101.38 42.0798L102.85 41.1098L105.31 41.0098C105.37 41.3898 105.41 41.7698 105.41 42.1698ZM99.9401 43.7198C100.06 43.7998 100.17 43.8998 100.25 44.0298L100.62 44.5998L100.04 44.2298C99.9101 44.1498 99.8101 44.0398 99.7401 43.9298C99.7101 43.8198 99.6701 43.7098 99.6201 43.6098C99.7201 43.6598 99.8301 43.6998 99.9401 43.7198ZM99.6201 40.5798C99.6701 40.4798 99.7101 40.3698 99.7301 40.2598C99.8101 40.1398 99.9101 40.0298 100.04 39.9498L100.61 39.5798L100.24 40.1598C100.16 40.2898 100.05 40.3898 99.9401 40.4598C99.8301 40.4898 99.7201 40.5298 99.6201 40.5798ZM100.44 42.8698C100.36 42.7898 100.27 42.7098 100.18 42.6498C100.29 42.6498 100.4 42.6198 100.51 42.5898C100.65 42.5898 100.8 42.6298 100.94 42.6998L101.54 43.0198L100.86 42.9898C100.71 42.9898 100.57 42.9398 100.45 42.8798L100.44 42.8698ZM100.93 41.4898C100.8 41.5598 100.65 41.5898 100.52 41.5998C100.41 41.5698 100.3 41.5498 100.18 41.5398C100.27 41.4798 100.36 41.3998 100.44 41.3198C100.57 41.2498 100.71 41.2098 100.86 41.1998L101.54 41.1698L100.93 41.4898ZM100.94 40.4498L101.72 38.8698L103.77 37.5698C104.22 38.1298 104.59 38.7498 104.86 39.4298L102.69 40.5598L100.93 40.4498H100.94ZM101.32 38.4698L99.7401 39.2598L99.6301 37.4998L100.74 35.3698C101.42 35.6298 102.05 35.9898 102.61 36.4398L101.32 38.4798V38.4698ZM99.5801 36.5998L99.4801 34.9998C99.8201 35.0598 100.14 35.1498 100.46 35.2598L99.5701 36.5998H99.5801ZM99.5901 47.5898L100.55 49.0398C100.2 49.1598 99.8501 49.2598 99.4801 49.3298L99.5901 47.5898ZM99.6401 46.6898L99.7501 44.9298L101.33 45.7098L102.69 47.8498C102.13 48.2998 101.5 48.6698 100.82 48.9398L99.6501 46.6898H99.6401ZM100.95 43.7298L102.71 43.6198L104.92 44.7798C104.66 45.4598 104.3 46.0898 103.86 46.6598L101.74 45.3098L100.95 43.7298ZM103.6 43.5598L105.28 43.4598C105.22 43.8198 105.13 44.1698 105.01 44.4998L103.59 43.5598H103.6ZM103.6 40.6198L104.97 39.7098C105.09 40.0398 105.19 40.3698 105.26 40.7198L103.6 40.6198ZM103.58 37.3498L102.13 38.0698L102.85 36.6198C103.11 36.8398 103.35 37.0898 103.58 37.3398V37.3498ZM99.1801 34.9598L99.0801 37.3498L98.1001 38.8198L97.1301 37.3498L97.0301 34.9598C97.3801 34.9098 97.7501 34.8698 98.1201 34.8698C98.4901 34.8698 98.8401 34.9098 99.1901 34.9598H99.1801ZM98.6701 44.1598C98.7301 44.2498 98.8101 44.3398 98.8901 44.4198C98.9601 44.5498 99.0001 44.6898 99.0101 44.8398L99.0401 45.5198L98.7201 44.9098C98.6501 44.7798 98.6201 44.6298 98.6101 44.4998C98.6401 44.3898 98.6601 44.2798 98.6701 44.1598ZM98.6001 39.6998C98.6001 39.5598 98.6401 39.4098 98.7101 39.2698L99.0301 38.6698L99.0001 39.3498C99.0001 39.4998 98.9501 39.6398 98.8901 39.7598C98.8101 39.8398 98.7301 39.9298 98.6701 40.0198C98.6701 39.9098 98.6401 39.7998 98.6101 39.6898L98.6001 39.6998ZM97.2301 44.8398C97.2301 44.6898 97.2801 44.5498 97.3401 44.4298C97.4201 44.3498 97.5001 44.2598 97.5601 44.1698C97.5601 44.2798 97.5901 44.3898 97.6201 44.4998C97.6201 44.6398 97.5801 44.7898 97.5101 44.9298L97.1901 45.5298L97.2201 44.8498L97.2301 44.8398ZM97.1901 38.6698L97.5101 39.2798C97.5801 39.4098 97.6101 39.5598 97.6201 39.6898C97.5901 39.7998 97.5701 39.9098 97.5601 40.0298C97.5001 39.9398 97.4201 39.8498 97.3401 39.7698C97.2701 39.6398 97.2301 39.4998 97.2201 39.3498L97.1901 38.6698ZM90.8201 42.1698C90.8201 41.7798 90.8601 41.3998 90.9201 41.0298L93.3701 41.1298L94.8401 42.1098L93.3701 43.0798L90.9001 43.1798C90.8501 42.8498 90.8201 42.5098 90.8201 42.1698ZM95.2901 42.6998C95.4201 42.6298 95.5701 42.5998 95.7001 42.5898C95.8101 42.6198 95.9201 42.6398 96.0401 42.6498C95.9501 42.7098 95.8601 42.7898 95.7801 42.8698C95.6501 42.9398 95.5101 42.9798 95.3601 42.9898L94.6801 43.0198L95.2901 42.6998ZM95.2901 41.4998L94.6901 41.1798L95.3701 41.2098C95.5201 41.2098 95.6601 41.2598 95.7801 41.3198C95.8601 41.3998 95.9501 41.4798 96.0401 41.5398C95.9301 41.5398 95.8201 41.5698 95.7101 41.5998C95.5701 41.5998 95.4201 41.5598 95.2801 41.4898L95.2901 41.4998ZM95.9701 44.0298C96.0501 43.8998 96.1601 43.7998 96.2701 43.7298C96.3801 43.6998 96.4901 43.6598 96.5901 43.6098C96.5401 43.7098 96.5001 43.8198 96.4801 43.9298C96.4001 44.0498 96.3001 44.1598 96.1701 44.2398L95.6001 44.6098L95.9701 44.0298ZM96.2801 40.4698C96.1601 40.3898 96.0501 40.2898 95.9701 40.1598L95.6001 39.5898L96.1801 39.9598C96.3101 40.0398 96.4101 40.1498 96.4801 40.2598C96.5101 40.3698 96.5501 40.4798 96.6001 40.5798C96.5001 40.5298 96.3901 40.4898 96.2801 40.4698ZM96.4701 39.2698L94.8901 38.4898L93.6001 36.4598C94.1601 36.0198 94.7901 35.6598 95.4701 35.3898L96.5801 37.5198L96.4701 39.2798V39.2698ZM95.2701 40.4698L93.5101 40.5798L91.3501 39.4498C91.6201 38.7698 91.9901 38.1498 92.4401 37.5898L94.4801 38.8898L95.2701 40.4698ZM92.6201 40.6298L90.9701 40.7298C91.0401 40.3798 91.1401 40.0498 91.2601 39.7198L92.6301 40.6298H92.6201ZM92.6201 43.5698L91.2101 44.4998C91.1001 44.1598 91.0101 43.8198 90.9401 43.4598L92.6201 43.5598V43.5698ZM93.5201 43.6298L95.2801 43.7398L94.5001 45.3198L92.3801 46.6698C91.9401 46.0998 91.5801 45.4698 91.3101 44.7898L93.5201 43.6398V43.6298ZM94.9001 45.7198L96.4801 44.9298L96.5901 46.6898L95.4201 48.9398C94.7401 48.6698 94.1101 48.2998 93.5501 47.8498L94.9001 45.7198ZM96.6501 47.5898L96.7601 49.3298C96.3901 49.2598 96.0401 49.1598 95.6901 49.0398L96.6501 47.5898ZM96.6301 36.6098L95.7501 35.2798C96.0701 35.1698 96.4001 35.0798 96.7301 35.0198L96.6301 36.6198V36.6098ZM93.3701 36.6398L94.0901 38.0798L92.6401 37.3598C92.8701 37.0998 93.1101 36.8598 93.3701 36.6398ZM92.5601 46.8798L94.1001 46.1198L93.3301 47.6598C93.0601 47.4198 92.8001 47.1598 92.5601 46.8798ZM97.0301 49.3698L97.1401 46.8398L98.1201 45.3698L99.0901 46.8398L99.2001 49.3798C98.8501 49.4298 98.4901 49.4698 98.1201 49.4698C97.7501 49.4698 97.3901 49.4298 97.0401 49.3798L97.0301 49.3698ZM102.9 47.6598L102.13 46.1098L103.67 46.8798C103.43 47.1598 103.17 47.4198 102.9 47.6598Z" fill="#E3E5E5"/>
<path d="M98.1101 33.2098C103.52 33.2098 107.95 37.3798 108.37 42.6798C108.39 42.4098 108.41 42.1298 108.41 41.8498C108.41 36.1598 103.8 31.5498 98.1101 31.5498C92.4201 31.5498 87.8101 36.1598 87.8101 41.8498C87.8101 42.1298 87.8201 42.3998 87.8501 42.6798C88.2701 37.3798 92.7001 33.2098 98.1101 33.2098Z" fill="#383838"/>
<path d="M98.1101 52.0096C92.2401 52.0096 87.4401 47.3996 87.1501 41.5996C87.1501 41.7896 87.1401 41.9796 87.1401 42.1696C87.1401 48.2296 92.0601 53.1496 98.1201 53.1496C104.18 53.1496 109.1 48.2296 109.1 42.1696C109.1 41.9796 109.1 41.7896 109.09 41.5996C108.79 47.3996 104 52.0096 98.1301 52.0096H98.1101Z" fill="#111111"/>
<path d="M98.1101 34.2498C102.4 34.2498 105.89 37.6698 106.02 41.9398C106.02 41.8598 106.03 41.7798 106.03 41.6998C106.03 37.3298 102.48 33.7798 98.1101 33.7798C93.7401 33.7798 90.1901 37.3298 90.1901 41.6998C90.1901 41.7798 90.1901 41.8598 90.2001 41.9398C90.3301 37.6798 93.8101 34.2498 98.1101 34.2498Z" fill="#111111"/>
<path d="M98.1101 50.1097C102.4 50.1097 105.89 46.6897 106.02 42.4197C106.02 42.4997 106.03 42.5797 106.03 42.6597C106.03 47.0297 102.48 50.5797 98.1101 50.5797C93.7401 50.5797 90.1901 47.0297 90.1901 42.6597C90.1901 42.5797 90.1901 42.4997 90.2001 42.4197C90.3301 46.6797 93.8101 50.1097 98.1101 50.1097Z" fill="#383838"/>
<path d="M85.6301 40.9896C85.6301 41.4696 85.2401 41.8496 84.7701 41.8496H43.9901C43.5101 41.8496 43.1301 41.4596 43.1301 40.9896C43.1301 40.5096 43.5201 40.1296 43.9901 40.1296H84.7701C85.2501 40.1296 85.6301 40.5196 85.6301 40.9896Z" fill="#B2B2B2"/>
<path d="M85.6001 40.7996C85.5101 40.4196 85.1701 40.1296 84.7601 40.1296H43.9801C43.5701 40.1296 43.2301 40.4196 43.1401 40.7996H85.6001Z" fill="white"/>
<path d="M43.2801 41.4797C43.4301 41.7097 43.6901 41.8497 43.9901 41.8497H84.7701C85.0601 41.8497 85.3201 41.6997 85.4801 41.4797H43.2901H43.2801Z" fill="#939393"/>
<path d="M43.2101 20.7697C43.2001 20.5997 43.0601 20.4697 42.9001 20.4697H37.7701C37.6001 20.4697 37.4601 20.5997 37.4501 20.7697V22.0097C37.4501 22.1897 37.5901 22.3297 37.7701 22.3297H42.9001C43.0801 22.3297 43.2201 22.1897 43.2201 22.0097V20.7597L43.2101 20.7697ZM37.7701 20.5997H42.9001C43.0101 20.5997 43.0901 20.6897 43.0901 20.7897V21.4297C43.0901 21.5397 43.0001 21.6197 42.9001 21.6197H37.7701C37.6601 21.6197 37.5801 21.5297 37.5801 21.4297V20.7897C37.5801 20.6797 37.6701 20.5997 37.7701 20.5997ZM42.9001 22.2097H37.7701C37.6601 22.2097 37.5801 22.1197 37.5801 22.0197V21.6797C37.6301 21.7197 37.7001 21.7497 37.7701 21.7497H42.9001C42.9701 21.7497 43.0401 21.7197 43.0901 21.6797V22.0197C43.0901 22.1297 43.0001 22.2097 42.9001 22.2097Z" fill="#BFBFBF"/>
<path d="M66.7301 20.7697C66.7201 20.5997 66.5801 20.4697 66.4201 20.4697H61.2901C61.1201 20.4697 60.9801 20.5997 60.9701 20.7697V22.0097C60.9701 22.1897 61.1101 22.3297 61.2901 22.3297H66.4201C66.6001 22.3297 66.7401 22.1897 66.7401 22.0097V20.7597L66.7301 20.7697ZM61.2801 20.5997H66.4101C66.5201 20.5997 66.6001 20.6897 66.6001 20.7897V21.4297C66.6001 21.5397 66.5101 21.6197 66.4101 21.6197H61.2801C61.1701 21.6197 61.0901 21.5297 61.0901 21.4297V20.7897C61.0901 20.6797 61.1801 20.5997 61.2801 20.5997ZM66.4101 22.2097H61.2801C61.1701 22.2097 61.0901 22.1197 61.0901 22.0197V21.6797C61.1401 21.7197 61.2101 21.7497 61.2801 21.7497H66.4101C66.4801 21.7497 66.5501 21.7197 66.6001 21.6797V22.0197C66.6001 22.1297 66.5101 22.2097 66.4101 22.2097Z" fill="#BFBFBF"/>
<path opacity="0.7" d="M110.09 32.2898H117.78C119.35 32.2898 118.71 35.7498 118.71 35.7498L111.66 35.5798L110.09 32.2898Z" fill="white"/>
<path d="M10.8501 37.0297V32.7197H6.74009C6.45009 33.2297 6.61009 35.3597 6.78009 37.0297H10.8501Z" fill="#7F374D"/>
<path d="M10.8501 33.7397V31.4597H6.74009C6.56009 31.7697 6.55009 32.6897 6.61009 33.7397H10.8501Z" fill="#70221E"/>
<path d="M112.6 23.3896V23.0396C112.6 22.5196 112.18 22.0996 111.66 22.0996H108.21C107.69 22.0996 107.27 22.5196 107.27 23.0396V23.3896H112.6Z" fill="#E37333"/>
<path d="M86.6001 17.5998C86.4301 20.0498 84.6001 19.4198 83.7101 19.3798C82.8301 19.3398 82.5801 18.5398 82.6901 17.4998C82.8401 16.0198 83.3901 15.5598 84.2701 15.5998C85.1501 15.6398 86.7401 15.4998 86.6001 17.6098V17.5998Z" fill="#200000"/>
<path d="M82.8701 16.6797C83.0501 17.1397 83.4301 17.4597 83.9201 17.4797C84.4701 17.4997 86.9001 18.0597 86.0201 16.1997C85.5901 15.6897 84.8001 15.7697 84.2901 15.7397C83.7201 15.7197 83.1701 16.1097 82.8701 16.6797Z" fill="#2D2D2D"/>
<path opacity="0.7" d="M95.4001 23.7197L116.99 24.3697L117.42 27.5397L95.4001 23.7197Z" fill="white"/>
<path opacity="0.7" d="M61.5001 7.73966V4.31966C62.7301 4.33966 63.8401 4.36966 64.8501 4.38966C63.7301 5.50966 62.6101 6.62966 61.5001 7.73966ZM71.0401 4.58966L61.5001 14.1297V17.6697H68.1901L77.5701 8.27966C76.6201 7.01966 75.7601 5.86966 75.0801 4.92966C74.4901 4.83966 73.5301 4.71966 71.0401 4.58966ZM74.6001 17.6497H79.4501L82.4401 14.6497C81.7601 13.7597 81.0401 12.8397 80.3301 11.9097L74.5901 17.6497H74.6001ZM13.4601 13.0197C12.9801 14.2597 12.5101 15.4697 12.0901 16.5497L24.4801 4.15966C23.7201 4.15966 23.0001 4.15966 22.3101 4.15966L13.4501 13.0197H13.4601ZM30.8901 4.14966L17.4001 17.6397L28.1001 17.6597L37.8301 7.92966C38.2401 6.65966 38.6501 5.39966 39.0701 4.14966C36.4301 4.14966 33.6101 4.14966 30.8801 4.14966H30.8901ZM47.9901 4.15966L39.6701 12.4797C39.1401 14.1797 38.6101 15.8897 38.0701 17.6697H51.5701C53.8401 15.3997 56.1101 13.1297 58.3801 10.8597V4.25966C54.9701 4.20966 51.9201 4.17966 47.9901 4.15966Z" fill="white"/>
</g>
<defs>
<clipPath id="clip0_60_5620">
<rect width="118.89" height="53.03" fill="white" transform="translate(0.460083 0.119629)"/>
</clipPath>
</defs>
</svg>
