<svg width="117" height="46" viewBox="0 0 117 46" fill="none" xmlns="http://www.w3.org/2000/svg">
<g clip-path="url(#clip0_60_5086)">
<path d="M61.466 5.42389C62.166 7.42389 61.686 9.18389 60.336 9.18389H34.666C33.316 9.18389 32.776 7.42389 33.396 5.42389L34.026 3.39389C34.546 1.73389 35.816 0.483887 36.916 0.483887H57.756C58.846 0.483887 60.176 1.73389 60.756 3.39389L61.466 5.42389Z" fill="#DB3535"/>
<path d="M114.796 37.7939L115.066 33.2839C114.506 28.9339 109.966 24.5439 106.946 23.4739C104.786 22.7139 85.8261 18.2639 83.5461 18.1839C82.3161 17.8239 67.5161 9.32386 62.2161 7.27386C60.7261 6.70386 33.4461 6.44386 32.6861 6.86386C30.1761 8.25386 20.8861 11.6439 13.8461 16.0939C12.2661 17.0939 6.00606 17.8439 5.11606 19.0239C2.88606 21.9939 1.51606 37.7939 1.51606 37.7939C1.26606 39.8739 2.50606 41.5939 4.27606 41.5939H103.676C105.446 41.5939 115.576 39.8739 114.796 37.7939Z" fill="#F4CC25"/>
<path d="M43.326 21.5339C26.336 21.5339 11.686 27.0639 4.93603 35.0339C4.67603 37.0139 4.53603 38.4239 4.53603 38.4239C4.30603 40.1639 5.46603 41.5839 7.12603 41.5839H20.036C27.746 35.7739 40.176 32.0039 54.216 32.0039C65.976 32.0039 76.606 34.6539 84.286 38.9239C79.486 28.9139 62.966 21.5339 43.336 21.5339H43.326Z" fill="#F2A927"/>
<path d="M72.3661 18.194C74.0761 18.224 74.0661 17.374 71.2461 15.354C68.6561 13.494 65.3061 11.094 63.2161 9.89398C60.7661 8.49398 53.4561 7.65398 46.9661 7.61398C41.3961 7.57398 37.8061 8.16398 34.8761 9.07398C32.8461 9.70398 24.0261 12.914 20.1961 15.914C19.6761 16.324 19.1161 17.324 21.7661 17.364C27.2361 17.454 56.1561 17.914 72.3561 18.194H72.3661Z" fill="#2A2A2B"/>
<path d="M116.136 38.714V36.954C116.136 33.174 115.796 32.304 113.176 32.304H95.7361V34.744C95.7361 36.384 94.4061 37.714 92.7661 37.714H25.4261C23.7861 37.714 22.4561 36.384 22.4561 34.744V32.304H3.37605C1.73605 32.314 0.416054 33.644 0.416054 35.284V38.714C0.416054 40.354 0.356054 41.684 1.98605 41.684H106.826C111.906 41.684 116.136 40.354 116.136 38.714Z" fill="#F29B27"/>
<path d="M29.916 37.2539C29.916 31.3339 25.096 26.5139 19.176 26.5139C13.256 26.5139 8.43604 31.3339 8.43604 37.2539C8.43604 38.7639 8.75603 40.2039 9.32603 41.5139H29.016C29.586 40.2039 29.906 38.7639 29.906 37.2539H29.916Z" fill="#F29B27"/>
<path d="M103.696 37.2539C103.696 31.3339 98.8761 26.5139 92.9561 26.5139C87.0361 26.5139 82.2161 31.3339 82.2161 37.2539C82.2161 38.7639 82.5361 40.2039 83.1061 41.5139H102.796C103.366 40.2039 103.686 38.7639 103.686 37.2539H103.696Z" fill="#F29B27"/>
<path d="M106.826 39.7439H1.98605C0.486054 39.7439 0.416054 38.6239 0.416054 37.1739V38.7239C0.416054 40.3639 0.356054 41.6939 1.98605 41.6939H106.826C111.906 41.6939 116.136 40.3639 116.136 38.7239V36.9639C116.136 36.9039 116.136 36.8439 116.136 36.7839C116.126 38.4239 111.896 39.7439 106.826 39.7439Z" fill="#CE7305"/>
<path d="M28.8261 36.974C28.8261 31.654 24.4961 27.324 19.1761 27.324C13.8561 27.324 9.52606 31.654 9.52606 36.974C9.52606 38.674 9.97606 40.274 10.7561 41.664H27.5961C28.3761 40.274 28.8261 38.674 28.8261 36.974Z" fill="#070707"/>
<path d="M27.8361 36.974C27.8361 41.754 23.9561 45.634 19.1761 45.634C14.3961 45.634 10.5161 41.754 10.5161 36.974C10.5161 32.194 14.3961 28.314 19.1761 28.314C23.9561 28.314 27.8361 32.194 27.8361 36.974Z" fill="#2A2A2B"/>
<path d="M26.5861 36.974C26.5861 41.064 23.2661 44.384 19.1761 44.384C15.0861 44.384 11.7661 41.064 11.7661 36.974C11.7661 32.884 15.0861 29.564 19.1761 29.564C23.2661 29.564 26.5861 32.884 26.5861 36.974Z" fill="#091119"/>
<path d="M19.176 30.4739C15.586 30.4739 12.686 33.3839 12.686 36.9739C12.686 40.5639 15.596 43.4639 19.176 43.4639C22.756 43.4639 25.666 40.5539 25.666 36.9739C25.666 33.3939 22.756 30.4739 19.176 30.4739ZM23.676 32.5439C24.456 33.3239 24.346 34.2839 23.676 34.5939L21.446 35.6139C21.356 35.6539 21.116 35.5139 20.906 35.3039C20.696 35.0939 20.556 34.8639 20.596 34.7639L21.616 32.5339C21.926 31.8639 22.886 31.7539 23.666 32.5339L23.676 32.5439ZM19.246 30.6839C20.346 30.6839 20.946 31.4439 20.696 32.1339L19.846 34.4339C19.816 34.5239 19.546 34.5939 19.246 34.5939C18.946 34.5939 18.686 34.5239 18.646 34.4339L17.796 32.1339C17.546 31.4439 18.146 30.6839 19.246 30.6839ZM14.796 32.5039C15.576 31.7239 16.536 31.8339 16.846 32.5039L17.866 34.7339C17.906 34.8239 17.766 35.0639 17.556 35.2739C17.346 35.4839 17.116 35.6239 17.016 35.5839L14.786 34.5639C14.116 34.2539 14.006 33.2939 14.786 32.5139L14.796 32.5039ZM12.936 36.9339C12.936 35.8339 13.696 35.2339 14.386 35.4839L16.686 36.3339C16.776 36.3639 16.846 36.6339 16.846 36.9339C16.846 37.2339 16.776 37.4939 16.686 37.5339L14.386 38.3839C13.696 38.6339 12.936 38.0339 12.936 36.9339ZM14.756 41.3739C13.976 40.5939 14.086 39.6239 14.756 39.3239L16.986 38.3039C17.076 38.2639 17.316 38.4039 17.526 38.6139C17.736 38.8239 17.876 39.0539 17.836 39.1539L16.816 41.3839C16.506 42.0539 15.546 42.1639 14.766 41.3839L14.756 41.3739ZM19.186 43.2439C18.086 43.2439 17.486 42.4839 17.736 41.7939L18.586 39.4939C18.616 39.4039 18.886 39.3339 19.186 39.3339C19.486 39.3339 19.746 39.4039 19.786 39.4939L20.636 41.7939C20.886 42.4839 20.286 43.2439 19.186 43.2439ZM23.636 41.4239C22.856 42.2039 21.896 42.0939 21.586 41.4239L20.566 39.1939C20.526 39.1039 20.666 38.8639 20.876 38.6539C21.086 38.4439 21.316 38.3039 21.416 38.3439L23.646 39.3639C24.316 39.6739 24.426 40.6339 23.646 41.4139L23.636 41.4239ZM24.046 38.4439L21.746 37.5939C21.656 37.5639 21.586 37.2939 21.586 36.9939C21.586 36.6939 21.656 36.4339 21.746 36.3939L24.046 35.5439C24.736 35.2939 25.496 35.8939 25.496 36.9939C25.496 38.0939 24.736 38.6939 24.046 38.4439Z" fill="#2A2A2B"/>
<path d="M102.606 36.974C102.606 31.654 98.2761 27.324 92.9561 27.324C87.6361 27.324 83.3061 31.654 83.3061 36.974C83.3061 38.674 83.7561 40.274 84.5361 41.664H101.376C102.156 40.274 102.606 38.674 102.606 36.974Z" fill="#070707"/>
<path d="M101.616 36.974C101.616 41.754 97.7361 45.634 92.9561 45.634C88.1761 45.634 84.2961 41.754 84.2961 36.974C84.2961 32.194 88.1761 28.314 92.9561 28.314C97.7361 28.314 101.616 32.194 101.616 36.974Z" fill="#2A2A2B"/>
<path d="M100.182 38.6314C101.096 34.6424 98.6035 30.6675 94.6145 29.7531C90.6255 28.8388 86.6506 31.3313 85.7363 35.3203C84.822 39.3093 87.3145 43.2842 91.3034 44.1985C95.2924 45.1128 99.2673 42.6203 100.182 38.6314Z" fill="#091119"/>
<path d="M92.9561 30.4739C89.3661 30.4739 86.4661 33.3839 86.4661 36.9739C86.4661 40.5639 89.3761 43.4639 92.9561 43.4639C96.5361 43.4639 99.4461 40.5539 99.4461 36.9739C99.4461 33.3939 96.5361 30.4739 92.9561 30.4739ZM97.4561 32.5439C98.2361 33.3239 98.1261 34.2839 97.4561 34.5939L95.2261 35.6139C95.1361 35.6539 94.8961 35.5139 94.6861 35.3039C94.4761 35.0939 94.3361 34.8639 94.3761 34.7639L95.3961 32.5339C95.7061 31.8639 96.6661 31.7539 97.4461 32.5339L97.4561 32.5439ZM93.0261 30.6839C94.1261 30.6839 94.7261 31.4439 94.4761 32.1339L93.6261 34.4339C93.5961 34.5239 93.3261 34.5939 93.0261 34.5939C92.7261 34.5939 92.4661 34.5239 92.4261 34.4339L91.5761 32.1339C91.3261 31.4439 91.9261 30.6839 93.0261 30.6839ZM88.5761 32.5039C89.3561 31.7239 90.3161 31.8339 90.6261 32.5039L91.6461 34.7339C91.6861 34.8239 91.5461 35.0639 91.3361 35.2739C91.1261 35.4839 90.8961 35.6239 90.7961 35.5839L88.5661 34.5639C87.8961 34.2539 87.7861 33.2939 88.5661 32.5139L88.5761 32.5039ZM86.7161 36.9339C86.7161 35.8339 87.4761 35.2339 88.1661 35.4839L90.4661 36.3339C90.5561 36.3639 90.6261 36.6339 90.6261 36.9339C90.6261 37.2339 90.5561 37.4939 90.4661 37.5339L88.1661 38.3839C87.4761 38.6339 86.7161 38.0339 86.7161 36.9339ZM88.5361 41.3739C87.7561 40.5939 87.8661 39.6239 88.5361 39.3239L90.7661 38.3039C90.8561 38.2639 91.0961 38.4039 91.3061 38.6139C91.5161 38.8239 91.6561 39.0539 91.6161 39.1539L90.5961 41.3839C90.2861 42.0539 89.3261 42.1639 88.5461 41.3839L88.5361 41.3739ZM92.9661 43.2439C91.8661 43.2439 91.2661 42.4839 91.5161 41.7939L92.3661 39.4939C92.3961 39.4039 92.6661 39.3339 92.9661 39.3339C93.2661 39.3339 93.5261 39.4039 93.5661 39.4939L94.4161 41.7939C94.6661 42.4839 94.0661 43.2439 92.9661 43.2439ZM97.4161 41.4239C96.6361 42.2039 95.6761 42.0939 95.3661 41.4239L94.3461 39.1939C94.3061 39.1039 94.4461 38.8639 94.6561 38.6539C94.8661 38.4439 95.1061 38.3039 95.1961 38.3439L97.4261 39.3639C98.0961 39.6739 98.2061 40.6339 97.4261 41.4139L97.4161 41.4239ZM97.8261 38.4439L95.5261 37.5939C95.4361 37.5639 95.3661 37.2939 95.3661 36.9939C95.3661 36.6939 95.4361 36.4339 95.5261 36.3939L97.8261 35.5439C98.5161 35.2939 99.2761 35.8939 99.2761 36.9939C99.2761 38.0939 98.5161 38.6939 97.8261 38.4439Z" fill="#2A2A2B"/>
<path opacity="0.3" d="M110.966 26.1838L102.696 26.2738C102.376 26.2738 102.336 26.6238 102.596 27.0438L104.366 29.8438C104.556 30.1438 104.926 30.4238 105.226 30.4738L114.706 32.0238C114.486 30.3438 113.756 28.0838 110.956 26.1738L110.966 26.1838Z" fill="#091119"/>
<path d="M114.726 31.8237C114.556 30.9937 114.226 28.6737 111.526 26.5837H103.396C103.066 26.5837 102.996 26.8837 103.216 27.2437L104.616 29.5237C104.786 29.7937 105.146 30.0537 105.446 30.1037L114.716 31.8137L114.726 31.8237Z" fill="white"/>
<path d="M104.996 26.6137L103.396 26.5837C103.066 26.5837 102.996 26.8837 103.216 27.2437L104.616 29.5237C104.786 29.7937 105.146 30.0537 105.446 30.1037L107.776 30.5337L104.986 26.6037L104.996 26.6137Z" fill="#F49625"/>
<path d="M115.156 35.3538C115.156 36.0038 114.626 36.5338 113.976 36.5338H110.536C109.886 36.5338 109.356 36.0038 109.356 35.3538C109.356 34.7038 109.886 34.1738 110.536 34.1738H113.976C114.626 34.1738 115.156 34.7038 115.156 35.3538Z" fill="#CE7305"/>
<path d="M112.806 35.3038C112.806 35.8038 112.396 36.2138 111.896 36.2138H111.026C110.526 36.2138 110.116 35.8038 110.116 35.3038C110.116 34.8038 110.526 34.3938 111.026 34.3938H111.896C112.396 34.3938 112.806 34.8038 112.806 35.3038Z" fill="white"/>
<path opacity="0.3" d="M3.10608 25.3538H4.85608C5.94608 25.3538 7.02608 24.4638 7.26608 23.3738L7.63608 21.6538C7.87608 20.5638 7.17608 19.6738 6.08608 19.6738H4.62608C4.02608 20.9738 3.52608 23.0838 3.11608 25.3538H3.10608Z" fill="#091119"/>
<path d="M3.18603 24.8638C3.58603 22.7938 3.99603 21.2238 4.42603 20.1738H6.08603C6.44603 20.1738 6.75603 20.3038 6.95603 20.5438C7.16603 20.7938 7.22603 21.1538 7.14603 21.5438L6.77603 23.2638C6.58603 24.1338 5.70603 24.8638 4.83603 24.8638H3.17603H3.18603Z" fill="#DB3535"/>
<path d="M3.50604 23.314C3.39604 23.794 3.28604 24.304 3.18604 24.854H4.84604C5.68603 24.854 6.54604 24.154 6.76604 23.314H3.51604H3.50604Z" fill="#F49625"/>
<path d="M83.5561 18.1839C82.3261 17.8239 69.9661 10.7339 64.7661 8.45389C64.5861 8.37389 64.3961 8.30389 64.2061 8.23389L73.9761 15.1139C75.7361 16.3539 77.6561 17.4239 78.2461 17.5039C78.2461 17.5039 83.7961 18.1939 83.5461 18.1839H83.5561Z" fill="#2A2A2B"/>
<path opacity="0.3" d="M46.496 17.6838H46.246V37.7538H46.496V17.6838Z" fill="#2A2A2B"/>
<path opacity="0.3" d="M72.446 37.7538H72.196L73.216 17.6838H73.476L72.446 37.7538Z" fill="#2A2A2B"/>
<path opacity="0.3" d="M21.466 26.4839C21.536 26.4839 21.596 26.5239 21.656 26.5439L20.006 16.5439H19.756L21.396 26.4839C21.396 26.4839 21.446 26.4839 21.466 26.4839Z" fill="#2A2A2B"/>
<path d="M27.0961 19.1437C27.0961 19.4437 26.8561 19.6937 26.5461 19.6937H22.0961C21.7961 19.6937 21.5461 19.4537 21.5461 19.1437C21.5461 18.8437 21.7861 18.5938 22.0961 18.5938H26.5461C26.8461 18.5938 27.0961 18.8337 27.0961 19.1437Z" fill="#2A2A2B"/>
<path d="M52.686 19.2338C52.686 19.5338 52.446 19.7838 52.136 19.7838H47.686C47.386 19.7838 47.136 19.5438 47.136 19.2338C47.136 18.9338 47.376 18.6838 47.686 18.6838H52.136C52.436 18.6838 52.686 18.9238 52.686 19.2338Z" fill="#2A2A2B"/>
<path opacity="0.2" d="M19.176 27.2838C22.106 27.2838 24.746 28.6438 26.596 30.8038C25.096 28.0538 22.336 26.1938 19.176 26.1938C16.016 26.1938 13.256 28.0538 11.756 30.8038C13.606 28.6438 16.246 27.2838 19.176 27.2838Z" fill="#F9F9F9"/>
<path opacity="0.2" d="M92.9561 26.5138C95.8861 26.5138 98.5261 27.8738 100.376 30.0338C98.8761 27.2838 96.1161 25.4238 92.9561 25.4238C89.7961 25.4238 87.0361 27.2838 85.5361 30.0338C87.3861 27.8738 90.0261 26.5138 92.9561 26.5138Z" fill="#F9F9F9"/>
<path d="M44.766 17.584L24.176 17.174C22.646 17.144 21.936 15.334 22.156 15.174C25.866 12.464 32.906 9.91397 34.946 9.27397C37.616 8.44397 40.536 7.88397 45.596 7.82397L44.776 17.584H44.766ZM69.946 14.674C67.556 12.964 64.896 11.094 63.116 10.074C60.786 8.73397 53.876 7.93397 47.796 7.83397L48.326 17.624L69.096 17.964C69.636 17.964 70.346 14.964 69.946 14.674ZM78.296 17.354C78.296 17.354 81.616 17.764 83.006 17.944C80.276 16.644 69.596 10.564 64.816 8.46397L74.026 14.954C75.796 16.194 77.706 17.264 78.306 17.344L78.296 17.354Z" fill="#80C2DC"/>
<path d="M56.386 23.574H53.816V26.144H56.386V23.574Z" fill="#091119"/>
<path d="M51.3761 26.144V23.574H48.8061V26.144H51.2561V28.564H48.8061V26.144H46.3661V23.574H43.7961V26.144H46.2361V28.564H43.7961V26.144H41.3461V23.574H38.7761V26.144H41.2261V28.564H38.7761V31.134H41.3461V28.714H43.7961V31.134H46.3661V28.714H48.8061V31.134H51.3761V28.714H53.8161V31.134H56.3861V28.564H53.8161V26.144H51.3761Z" fill="#091119"/>
<path opacity="0.6" d="M60.236 2.31389C59.566 1.22389 58.596 0.483887 57.756 0.483887H36.916C36.076 0.483887 35.136 1.22389 34.506 2.31389H60.246H60.236Z" fill="white"/>
<path d="M52.226 1.32397H50.746V2.80397H52.226V1.32397Z" fill="#091119"/>
<path d="M49.336 2.81397V1.32397H47.846V2.81397H49.266V4.21397H47.846V2.81397H46.436V1.32397H44.946V2.81397H46.366V4.21397H44.946V2.81397H43.536V1.32397H42.056V2.81397H43.466V4.21397H42.056V5.69397H43.536V4.29397H44.946V5.69397H46.436V4.29397H47.846V5.69397H49.336V4.29397H50.746V5.69397H52.236V4.21397H50.746V2.81397H49.336Z" fill="#091119"/>
<path opacity="0.7" d="M45.2561 11.7438L44.7661 17.5838L39.5261 17.4738L45.2561 11.7438ZM22.9761 16.7038L27.4961 12.1838C25.5361 13.0838 23.5961 14.1138 22.1561 15.1638C22.0061 15.2738 22.3061 16.1438 22.9861 16.7038H22.9761ZM28.5961 17.2538L32.5161 17.3338L41.8661 7.98377C40.0261 8.13377 38.5261 8.36377 37.1761 8.66377L28.5861 17.2538H28.5961ZM55.0061 8.26377C53.1261 8.06377 51.1161 7.92377 49.1461 7.86377L47.8761 9.13377L48.1961 15.0738C50.4661 12.8038 52.7361 10.5338 55.0061 8.26377ZM65.8661 11.8138C64.8461 11.1238 63.8961 10.5138 63.1161 10.0638C62.7361 9.84377 62.2261 9.64377 61.6261 9.45377L53.3861 17.6938L59.8761 17.8038L65.8661 11.8138ZM64.7361 17.8838H65.4861L69.2261 14.1538C69.0761 14.0438 68.9261 13.9438 68.7761 13.8338C67.4261 15.1838 66.0761 16.5338 64.7361 17.8738V17.8838ZM59.1061 8.85377C58.6761 8.77377 58.2361 8.69377 57.7661 8.62377L48.7661 17.6238L50.3161 17.6538L59.1161 8.85377H59.1061ZM74.7661 15.4738L76.0061 14.2338C75.2161 13.8038 74.4061 13.3638 73.5761 12.9238C73.2361 13.2638 72.8961 13.6038 72.5661 13.9338L74.0161 14.9638C74.2661 15.1338 74.5161 15.3038 74.7561 15.4738H74.7661ZM78.0361 15.3238C77.5961 15.7638 77.1461 16.2138 76.7061 16.6538C77.4261 17.0538 78.0161 17.3138 78.2961 17.3538C78.2961 17.3538 81.6161 17.7638 83.0061 17.9438C82.0861 17.5038 80.2461 16.5138 78.0361 15.3238Z" fill="white"/>
<g opacity="0.6">
<path d="M10.7361 32.314H3.37608C1.73608 32.314 0.416075 33.644 0.416075 35.284V38.714C0.416075 39.744 0.396075 40.644 0.776075 41.184C0.776075 41.044 0.776075 40.904 0.776075 40.754V37.324C0.776075 35.684 2.09607 34.354 3.73607 34.354H9.90607C10.1061 33.644 10.3861 32.954 10.7361 32.324V32.314Z" fill="#EDEDED"/>
</g>
<path opacity="0.6" d="M29.756 35.384C29.696 36.084 29.506 38.254 29.506 38.254L82.236 37.744C81.316 37.094 29.756 35.394 29.756 35.394V35.384Z" fill="white"/>
<path opacity="0.6" d="M113.176 32.314H101.396C101.746 32.954 113.956 33.434 113.956 33.434C115.386 33.434 115.706 34.614 116.096 35.474C115.976 32.954 115.396 32.324 113.166 32.324L113.176 32.314Z" fill="white"/>
<g opacity="0.6">
<path d="M106.946 23.4739C104.786 22.7139 85.8261 18.2639 83.5461 18.1839C82.3161 17.8239 67.5161 9.32386 62.2161 7.27386C60.7261 6.70386 33.4461 6.44386 32.6861 6.86386C30.1761 8.25386 20.8861 11.6439 13.8461 16.0939C12.2661 17.0939 6.00608 17.8439 5.11608 19.0239C3.75608 20.8439 2.70608 27.4539 2.10608 32.3239H2.26608C2.88608 28.1839 3.86608 23.1339 5.11608 21.6639C6.00608 20.6239 17.8861 18.2939 19.0961 16.9539C22.2461 13.4739 33.3361 9.44386 36.0461 8.74386C42.1761 7.16386 51.3061 7.16386 61.0861 9.08386C64.7961 9.64386 74.1261 18.1039 77.3161 19.1239C83.0861 20.5039 100.656 23.9439 102.816 24.6139C105.326 25.3939 113.006 29.1739 114.456 32.3139H114.876C113.846 28.2939 109.746 24.4539 106.946 23.4639V23.4739Z" fill="white"/>
</g>
<path opacity="0.2" d="M19.1761 29.324C23.7861 29.324 27.5461 32.934 27.8061 37.474C27.8061 37.304 27.8361 37.144 27.8361 36.974C27.8361 32.194 23.9561 28.314 19.1761 28.314C14.3961 28.314 10.5161 32.194 10.5161 36.974C10.5161 37.144 10.5361 37.314 10.5461 37.474C10.8061 32.924 14.5661 29.324 19.1761 29.324Z" fill="#EDEDED"/>
<path opacity="0.2" d="M19.1761 44.4439C15.1961 44.5439 11.9561 41.5139 11.7361 37.6039C11.7361 37.6839 11.7361 37.7639 11.7261 37.8539C11.8261 41.8839 15.1261 45.0439 19.1761 44.9439C23.2261 44.8439 26.5261 41.5139 26.6261 37.4839C26.6261 37.4039 26.6261 37.3239 26.6161 37.2439C26.3861 41.1639 23.1461 44.3639 19.1761 44.4639V44.4439Z" fill="#EDEDED"/>
<path opacity="0.2" d="M92.9161 29.324C97.5261 29.324 101.286 32.934 101.546 37.474C101.546 37.304 101.576 37.144 101.576 36.974C101.576 32.194 97.6961 28.314 92.9161 28.314C88.1361 28.314 84.2561 32.194 84.2561 36.974C84.2561 37.144 84.2761 37.314 84.2861 37.474C84.5461 32.924 88.3061 29.324 92.9161 29.324Z" fill="#EDEDED"/>
<path opacity="0.2" d="M92.9161 44.4439C88.9361 44.5439 85.6961 41.5139 85.4761 37.6039C85.4761 37.6839 85.4761 37.7639 85.4661 37.8539C85.5661 41.8839 88.8661 45.0439 92.9161 44.9439C96.9761 44.8439 100.266 41.5139 100.366 37.4839C100.366 37.4039 100.366 37.3239 100.356 37.2439C100.126 41.1639 96.8861 44.3639 92.9161 44.4639V44.4439Z" fill="#EDEDED"/>
</g>
<defs>
<clipPath id="clip0_60_5086">
<rect width="115.72" height="45.14" fill="white" transform="translate(0.416077 0.483887)"/>
</clipPath>
</defs>
</svg>
