<svg width="118" height="37" viewBox="0 0 118 37" fill="none" xmlns="http://www.w3.org/2000/svg">
<g clip-path="url(#clip0_60_5439)">
<path d="M5.31218 8.2147C5.31218 8.2147 1.68218 11.5947 1.70218 14.6047C1.70218 15.4347 2.01218 18.9547 1.49218 19.7847C0.97218 20.6047 -0.107819 21.3847 0.67218 23.0647C0.36218 25.1247 0.51218 27.6047 3.19218 28.7347C5.87218 29.8647 15.8322 31.0047 34.0822 31.3147C52.3322 31.6247 86.1522 31.6247 86.9722 31.7247C87.7922 31.8247 110.382 32.2447 112.852 31.9347C115.322 31.6247 117.272 31.8847 117.172 30.3447C117.072 28.7947 116.512 27.5747 115.842 24.9247C115.782 24.7047 115.272 24.0247 114.312 23.0147C115.872 23.0147 106.302 16.3047 103.772 15.0747C97.5222 12.0447 94.3122 11.0447 80.4722 10.2947C77.1822 10.1147 76.8622 10.3347 76.8622 10.3347C74.8622 9.9447 73.4622 9.4947 72.1222 8.7347C70.0722 7.5747 53.6922 0.604699 45.8322 1.0947C31.1922 2.0247 16.3422 7.0747 13.9722 7.0747C12.4022 7.0747 4.41218 5.2747 5.31218 8.2047V8.2147Z" fill="#D60606"/>
<path d="M112.852 29.3847C110.382 29.6947 87.7922 29.2847 86.9722 29.1747C86.1522 29.0747 52.3322 29.0747 34.0822 28.7647C15.8322 28.4547 7.38218 27.4147 4.70218 26.2847C3.11218 25.6147 0.912183 24.3747 0.672183 23.1147C0.372183 25.1647 0.542183 27.6047 3.20218 28.7347C5.88218 29.8647 15.8422 31.0047 34.0922 31.3147C52.3422 31.6247 86.1622 31.6247 86.9822 31.7247C87.8022 31.8247 110.392 32.2447 112.862 31.9347C115.332 31.6247 117.282 31.8847 117.182 30.3447C117.142 29.7647 117.042 29.2347 116.892 28.6647C116.272 29.2547 114.712 29.1647 112.862 29.3947L112.852 29.3847Z" fill="#341115"/>
<path d="M92.1222 16.6746C86.1922 16.6746 81.3822 21.4846 81.3822 27.4146C81.3822 28.9246 81.6922 30.3646 82.2622 31.6646C85.0622 31.6846 86.8022 31.6946 86.9822 31.7246C87.4522 31.7846 94.9722 31.9446 101.822 32.0146C102.482 30.6246 102.862 29.0646 102.862 27.4246C102.862 21.4946 98.0522 16.6846 92.1222 16.6846V16.6746Z" fill="#200000"/>
<path d="M37.7322 23.0146C36.1022 19.2446 31.9122 14.4446 23.5622 14.4446C17.6322 14.4446 11.0322 20.3246 12.1122 28.0546C12.2922 29.3346 14.0222 30.4346 14.0222 30.4346C23.8422 31.2446 76.6122 30.5346 81.5022 29.1046C63.3022 28.0646 39.6422 27.4446 37.7222 23.0246L37.7322 23.0146Z" fill="#341115"/>
<path d="M34.8422 26.7546C34.8422 20.8246 30.0322 16.0146 24.1022 16.0146C18.1722 16.0146 13.3622 20.8246 13.3622 26.7546C13.3622 28.0546 13.6022 29.2846 14.0222 30.4346C18.9622 30.8446 25.5222 31.1546 33.8122 31.3046C34.4622 29.9246 34.8322 28.3846 34.8322 26.7546H34.8422Z" fill="#200000"/>
<path d="M76.8722 10.3247C75.1422 9.95466 73.3522 9.41466 72.1322 8.72466C70.0722 7.57466 52.5222 0.304658 44.6722 0.794658C30.0322 1.72466 16.3422 7.07466 13.9722 7.07466C13.6722 7.07466 31.1122 5.10466 45.2122 10.1147C52.1722 12.5847 73.8822 10.9947 76.8622 10.3147L76.8722 10.3247Z" fill="#341115"/>
<path d="M63.6422 11.3048C63.6422 11.3048 61.1522 8.64477 50.8922 4.96477C46.6022 3.42477 44.5022 3.58477 39.8022 3.78477C27.5522 6.81477 34.1422 7.37477 41.7822 10.0848C49.6722 12.8948 65.5122 10.9248 63.6522 11.2948L63.6422 11.3048Z" fill="#200000"/>
<path d="M50.6422 4.41468C46.7022 3.27468 43.6722 3.16468 39.7922 3.78468C40.3122 5.89468 41.0622 8.00468 41.7722 10.0847C41.8822 10.1247 42.0022 10.1647 42.1122 10.2047C50.8622 13.1047 65.5522 11.2947 65.2422 11.3147C65.2422 11.3147 61.5922 7.59468 50.6422 4.41468Z" fill="#80C2DC"/>
<path opacity="0.7" d="M41.6722 9.78463C41.4922 9.26463 41.3222 8.75463 41.1422 8.23463C42.7222 6.65463 44.3022 5.07463 45.8822 3.49463C46.4822 3.54463 47.0922 3.63463 47.7122 3.73463L41.6622 9.78463H41.6722ZM53.4922 5.30463C52.6022 5.00463 51.6522 4.70463 50.6422 4.41463C50.3322 4.32463 50.0322 4.24463 49.7322 4.17463L43.3322 10.5746C44.6222 10.9246 46.0022 11.1846 47.4222 11.3746L53.4822 5.31463L53.4922 5.30463ZM56.3722 6.35463C56.0222 6.21463 55.6722 6.07463 55.3022 5.94463L49.6322 11.6146C50.0922 11.6546 50.5522 11.6946 51.0122 11.7146L56.3722 6.35463ZM56.8022 11.8446C61.6622 11.7746 65.4022 11.3046 65.2422 11.3146C65.2422 11.3146 63.9022 9.96463 60.4522 8.19463L56.8022 11.8446ZM58.8122 7.39463C58.5822 7.28463 58.3422 7.18463 58.0922 7.07463C56.5122 8.65463 54.9222 10.2446 53.3422 11.8246C53.6822 11.8246 54.0222 11.8446 54.3622 11.8446L58.8122 7.39463Z" fill="white"/>
<path d="M71.8122 10.9148C74.3022 10.7748 76.1822 10.4848 76.8722 10.3248C75.1422 9.95476 73.3522 9.41476 72.1322 8.72476C70.4022 7.75476 58.5622 2.67476 50.1622 1.37476C61.8222 5.06476 71.8122 10.9048 71.8122 10.9048V10.9148Z" fill="#80C2DC"/>
<path d="M81.9922 17.1047C80.0322 18.8347 76.9122 20.1747 75.0422 20.1147L38.8722 18.8647C36.9922 18.8047 73.6622 19.2247 76.2822 18.3747C77.3522 18.0347 78.9322 17.2347 80.4722 15.3747C81.5822 14.0347 44.0922 12.5447 45.9722 12.6047C45.9722 12.6047 71.1922 12.4347 82.1422 13.8547C84.0022 14.0947 83.9522 15.3747 81.9922 17.0947V17.1047Z" fill="#EA454B"/>
<path d="M79.6622 14.9047C79.5022 14.8847 79.3422 14.8647 79.1822 14.8447C79.7122 15.1647 79.4622 15.8447 78.4322 16.7047C77.5022 17.4747 74.8322 18.3347 73.7122 18.6347C74.1222 18.6847 75.9422 18.5647 76.5822 18.4347C77.6722 18.1247 78.6222 17.6847 79.5122 16.9447C80.8222 15.8547 80.8722 15.0547 79.6622 14.8947V14.9047Z" fill="#341115"/>
<path d="M7.35218 16.2747L3.45218 15.5247L6.39218 16.5047C7.12218 16.7447 7.91218 17.8847 8.18218 19.0547L8.82218 21.7647C9.09218 22.9347 8.64218 23.9847 7.95218 23.8947L3.68218 22.9747L8.57218 24.4647C10.9322 24.9347 10.9522 23.8147 10.6322 22.4347L9.88218 19.2347C9.56218 17.8547 8.43218 16.5347 7.36218 16.2847L7.35218 16.2747Z" fill="#EA454B"/>
<path d="M6.42218 16.2347L3.44218 15.5247L5.45218 16.4647C6.18218 16.7047 6.97218 17.8447 7.24218 19.0147L7.88218 21.7247C8.15218 22.8947 7.84218 23.7647 7.14218 23.6647L3.57218 22.9447L8.34218 24.4147C9.41218 24.6647 10.0122 23.7547 9.69218 22.3847L8.94218 19.1847C8.62218 17.8047 7.49218 16.4847 6.42218 16.2347Z" fill="#341115"/>
<path d="M1.69217 13.6746L4.06217 14.0046C5.45217 14.2046 7.36218 13.1246 8.32218 11.6046C9.28218 10.0846 8.92217 8.69456 7.52217 8.50456L5.18217 8.17456C5.18217 8.17456 5.18217 8.19456 5.18217 8.20456C5.18217 8.20456 2.26217 10.9246 1.68217 13.6646L1.69217 13.6746Z" fill="#341115"/>
<path d="M6.51217 8.52473L5.06217 8.34473C4.49217 8.88473 2.28217 11.0847 1.82217 13.3147L3.24217 13.4947C4.64217 13.6747 6.51217 12.7047 7.41217 11.3347C8.31217 9.96473 7.91217 8.70473 6.51217 8.53473V8.52473Z" fill="#F43B3B"/>
<path d="M7.09218 10.5746C7.09218 9.56463 6.18218 8.75463 4.90218 8.49463C4.74218 8.65463 4.51218 8.88463 4.26218 9.16463C5.28218 9.27463 6.05218 9.86463 6.05218 10.6346C6.05218 11.5246 5.02218 12.3146 3.74218 12.3846C3.16218 12.4146 2.64218 12.2946 2.24218 12.0746C2.12218 12.3346 2.02218 12.5946 1.94218 12.8546C2.46218 13.0546 3.08218 13.1546 3.74218 13.1246C5.59218 13.0146 7.09218 11.8846 7.09218 10.5846V10.5746Z" fill="#D60606"/>
<path d="M14.6022 7.00464C14.1622 7.04464 13.9422 7.07464 13.9722 7.07464C14.1322 7.07464 14.3422 7.04464 14.6022 7.00464Z" fill="#80C2DC"/>
<path d="M116.842 28.4746C116.592 27.5446 116.242 26.4846 115.852 24.9146C115.802 24.6946 115.242 23.9846 114.322 23.0046H111.212C110.192 23.0046 109.722 23.8346 110.182 24.8646L110.962 26.6146C111.412 27.6446 112.612 28.4746 113.642 28.4746H116.852H116.842Z" fill="#341115"/>
<g opacity="0.5">
<path d="M72.1322 8.72466C70.0722 7.57466 52.5222 0.304658 44.6722 0.794658C31.0022 1.66466 18.1822 6.37466 14.6022 7.00466C15.3922 6.93466 16.8922 6.81466 18.9022 6.74466C24.8822 5.57466 40.1822 1.32466 47.6022 1.76466C52.3322 2.04466 68.8522 10.3847 70.5122 11.0047C73.6422 10.7747 76.0222 10.5147 76.8722 10.3147C75.1422 9.94466 73.3522 9.40466 72.1322 8.71466V8.72466Z" fill="white"/>
</g>
<g opacity="0.5">
<path d="M114.322 23.0046C115.882 23.0046 106.312 16.2946 103.782 15.0646C97.5322 12.0346 94.3222 11.0346 80.4822 10.2846C77.1922 10.1046 76.8722 10.3246 76.8722 10.3246C73.8922 11.0046 49.6022 13.6246 42.6422 11.1546C30.3522 6.78465 18.1122 6.68465 14.7022 7.00465C14.3922 7.05465 14.1522 7.08465 13.9822 7.08465C12.4122 7.08465 4.44219 5.28465 5.32219 8.20465L5.20219 8.18465C5.20219 8.18465 5.20219 8.20465 5.20219 8.21465C5.20219 8.21465 2.19218 10.9346 1.70218 13.6746L1.82218 13.6946C1.76218 13.9946 1.71218 14.3046 1.72218 14.6046C1.72218 15.4346 2.03218 18.9546 1.51218 19.7846C0.992185 20.6046 -0.0878152 21.3846 0.692185 23.0646C0.692185 23.0646 0.692185 23.0746 0.692185 23.0846C0.692185 23.0946 0.712185 23.1046 0.712185 23.1146C0.662185 23.3446 2.36218 25.1446 3.94218 25.4346C0.382185 23.3846 2.25218 22.1746 2.33218 16.9246C2.38218 13.9046 5.91219 10.5346 5.91219 10.5346C5.02219 7.60465 12.9522 9.40465 14.5122 9.40465C14.6822 9.40465 14.9322 9.37465 15.2322 9.32465C18.6222 9.01465 29.1022 7.30465 41.3122 11.6746C48.2222 14.1446 74.0222 13.3246 76.9822 12.6546C76.9822 12.6546 77.2922 12.4346 80.5622 12.6146C94.3122 13.3746 97.4922 14.3646 103.702 17.3946C105.242 18.1446 109.392 20.9546 112.032 23.0146H114.322V23.0046Z" fill="white"/>
</g>
<path d="M65.6722 10.0147C65.6722 11.0647 63.6322 11.9147 62.5922 11.9147C61.5522 11.9147 60.7022 11.0647 60.7022 10.0147C60.7022 8.96475 61.5422 8.11475 62.5922 8.11475C63.6422 8.11475 65.6722 8.96475 65.6722 10.0147Z" fill="#200000"/>
<g opacity="0.5">
<path d="M61.1422 9.25465C61.4322 9.70465 61.9322 10.0046 62.5122 10.0046C63.1622 10.0046 64.2522 9.62465 64.8122 9.07465C64.2222 8.58465 63.2422 8.26465 62.6422 8.26465C61.9722 8.26465 61.3922 8.67465 61.1422 9.26465V9.25465Z" fill="white"/>
</g>
<path d="M33.8722 26.7947C33.8722 32.1547 29.5322 36.4947 24.1722 36.4947C18.8122 36.4947 14.4722 32.1547 14.4722 26.7947C14.4722 21.4347 18.8122 17.0947 24.1722 17.0947C29.5322 17.0947 33.8722 21.4347 33.8722 26.7947Z" fill="#070000"/>
<path d="M28.3722 29.5946C26.3622 31.6046 26.6322 28.0746 24.6222 26.0546C22.6122 24.0346 19.0722 24.3146 21.0822 22.3046C23.0922 20.2946 26.3622 20.2946 28.3722 22.3046C30.3822 24.3146 30.3822 27.5846 28.3722 29.5946Z" fill="#D60606"/>
<path d="M24.1622 19.2947C20.0222 19.2947 16.6622 22.6547 16.6622 26.7947C16.6622 30.9347 20.0222 34.2947 24.1622 34.2947C28.3022 34.2947 31.6622 30.9347 31.6622 26.7947C31.6622 22.6547 28.3022 19.2947 24.1622 19.2947ZM30.1122 29.4847L29.3322 28.9147L30.2822 29.0647C30.2322 29.2047 30.1722 29.3447 30.1122 29.4747V29.4847ZM27.4022 27.5147L26.4322 26.8147L27.4022 26.1147L30.5922 25.6047C30.6622 25.9947 30.7022 26.3947 30.7022 26.8047C30.7022 27.2147 30.6622 27.6347 30.5822 28.0247L27.4022 27.5147ZM18.0522 29.0947L19.1522 28.9147L18.2522 29.5647C18.1822 29.4047 18.1122 29.2547 18.0522 29.0847V29.0947ZM17.7522 28.0447C17.6722 27.6447 17.6322 27.2247 17.6322 26.7947C17.6322 26.3647 17.6722 25.9647 17.7522 25.5747L21.0922 26.1047L22.0622 26.8047L21.0922 27.5047L17.7522 28.0347V28.0447ZM18.2422 24.0447L19.1522 24.7047L18.0422 24.5247C18.1022 24.3647 18.1722 24.1947 18.2422 24.0447ZM30.2922 24.5447L29.3322 24.6947L30.1222 24.1247C30.1822 24.2647 30.2422 24.4047 30.2922 24.5447ZM29.6022 23.1747L26.9722 25.0847L25.7922 25.2747L25.9822 24.0947L27.9022 21.4447C28.5722 21.9147 29.1522 22.5047 29.6022 23.1847V23.1747ZM26.3522 21.7147L26.5122 20.6947C26.6622 20.7547 26.8022 20.8147 26.9522 20.8847L26.3522 21.7147ZM25.4722 20.3947L24.9522 23.6647L24.2522 24.6347L23.5522 23.6647L23.0322 20.3747C23.4022 20.3047 23.7822 20.2647 24.1822 20.2647C24.6322 20.2647 25.0622 20.3147 25.4822 20.3947H25.4722ZM22.1422 21.7147L21.5022 20.8247C21.6522 20.7547 21.8122 20.6947 21.9722 20.6347L22.1422 21.7047V21.7147ZM20.5422 21.3547L22.5222 24.0747L22.7122 25.2547L21.5322 25.0647L18.7922 23.0847C19.2622 22.4047 19.8622 21.8147 20.5522 21.3547H20.5422ZM18.8022 30.5147L21.5222 28.5447L22.7022 28.3547L22.5122 29.5347L20.5522 32.2347C19.8622 31.7747 19.2722 31.1947 18.7922 30.5147H18.8022ZM22.1422 31.8947L21.9722 32.9447C21.8122 32.8847 21.6622 32.8347 21.5122 32.7647L22.1422 31.9047V31.8947ZM23.0222 33.2247L23.5422 29.9647L24.2422 28.9947L24.9422 29.9647L25.4622 33.2047C25.0422 33.2847 24.6122 33.3347 24.1622 33.3347C23.7722 33.3347 23.3922 33.2947 23.0222 33.2247ZM26.3522 31.8947L26.9322 32.7047C26.7922 32.7747 26.6522 32.8347 26.5022 32.8847L26.3422 31.8947H26.3522ZM27.8822 32.1647L25.9722 29.5347L25.7822 28.3547L26.9622 28.5447L29.5822 30.4447C29.1222 31.1247 28.5422 31.7047 27.8822 32.1747V32.1647Z" fill="#DCDFE2"/>
<path d="M25.5922 30.0548L26.7122 31.5948L25.8922 31.9348L25.5922 30.0548ZM21.7822 31.5948L22.9022 30.0548L22.6022 31.9348L21.7822 31.5948ZM24.2422 27.9348L23.1522 29.4348L23.4422 27.6048L21.6122 27.8948L23.1122 26.8048L21.6122 25.7148L23.4422 26.0048L23.1522 24.1748L24.2422 25.6748L25.3322 24.1748L25.0422 26.0048L26.8722 25.7148L25.3722 26.8048L26.8722 27.8948L25.0422 27.6048L25.3322 29.4348L24.2422 27.9348ZM27.4922 28.1548L29.3722 28.4548L29.0322 29.2748L27.4922 28.1548ZM19.1222 28.4548L21.0022 28.1548L19.4622 29.2748L19.1222 28.4548ZM19.1222 25.1648L19.4622 24.3448L21.0022 25.4648L19.1222 25.1648ZM29.0322 24.3448L29.3722 25.1648L27.4922 25.4648L29.0322 24.3448ZM25.8922 21.6848L26.7122 22.0248L25.5922 23.5648L25.8922 21.6848ZM21.7822 22.0248L22.6022 21.6848L22.9022 23.5648L21.7822 22.0248Z" fill="#CBCFD1"/>
<path d="M24.1622 18.4648C29.1422 18.4648 33.2022 22.3748 33.4722 27.2948C33.4722 27.1248 33.5022 26.9648 33.5022 26.7948C33.5022 21.6448 29.3222 17.4648 24.1722 17.4648C19.0222 17.4648 14.8422 21.6448 14.8422 26.7948C14.8422 26.9648 14.8622 27.1348 14.8722 27.2948C15.1322 22.3748 19.1922 18.4648 24.1822 18.4648H24.1622Z" fill="#262626"/>
<path d="M24.1622 34.3248C20.1322 34.3248 16.8422 31.1648 16.6322 27.1848C16.6322 27.3248 16.6122 27.4548 16.6122 27.5948C16.6122 31.7648 19.9922 35.1448 24.1622 35.1448C28.3322 35.1448 31.7122 31.7648 31.7122 27.5948C31.7122 27.4548 31.7022 27.3248 31.6922 27.1848C31.4822 31.1648 28.1922 34.3248 24.1622 34.3248Z" fill="#262626"/>
<path d="M101.877 27.5903C102.319 22.2515 98.3502 17.5646 93.0114 17.122C87.6725 16.6793 82.9857 20.6484 82.543 25.9872C82.1003 31.3261 86.0694 36.0129 91.4083 36.4556C96.7471 36.8983 101.434 32.9292 101.877 27.5903Z" fill="#070000"/>
<path d="M96.4122 29.5946C94.4022 31.6046 94.6722 28.0746 92.6622 26.0546C90.6522 24.0446 87.1122 24.3146 89.1222 22.3046C91.1322 20.2946 94.4022 20.2946 96.4122 22.3046C98.4222 24.3146 98.4222 27.5846 96.4122 29.5946Z" fill="#D60606"/>
<path d="M92.2122 19.2944C88.0722 19.2944 84.7122 22.6544 84.7122 26.7944C84.7122 30.9344 88.0722 34.2944 92.2122 34.2944C96.3522 34.2944 99.7122 30.9344 99.7122 26.7944C99.7122 22.6544 96.3522 19.2944 92.2122 19.2944ZM98.1622 29.4844L97.3822 28.9144L98.3322 29.0644C98.2822 29.2044 98.2222 29.3444 98.1622 29.4744V29.4844ZM95.4422 27.5144L94.4722 26.8144L95.4422 26.1144L98.6322 25.6044C98.7022 25.9944 98.7422 26.3944 98.7422 26.8044C98.7422 27.2144 98.7022 27.6344 98.6222 28.0244L95.4422 27.5144ZM86.0922 29.0944L87.1922 28.9144L86.2922 29.5644C86.2222 29.4044 86.1522 29.2544 86.0922 29.0844V29.0944ZM85.7922 28.0444C85.7122 27.6444 85.6722 27.2244 85.6722 26.7944C85.6722 26.3644 85.7122 25.9644 85.7922 25.5744L89.1322 26.1044L90.1022 26.8044L89.1322 27.5044L85.7922 28.0344V28.0444ZM86.2922 24.0444L87.2022 24.7044L86.0922 24.5244C86.1522 24.3644 86.2222 24.1944 86.2922 24.0444ZM98.3322 24.5444L97.3722 24.6944L98.1622 24.1244C98.2222 24.2644 98.2822 24.4044 98.3322 24.5444ZM97.6422 23.1744L95.0122 25.0844L93.8322 25.2744L94.0222 24.0944L95.9422 21.4444C96.6122 21.9144 97.1922 22.5044 97.6422 23.1844V23.1744ZM94.3922 21.7144L94.5522 20.6944C94.7022 20.7544 94.8422 20.8144 94.9922 20.8844L94.3922 21.7144ZM93.5122 20.3944L92.9922 23.6644L92.2922 24.6344L91.5922 23.6644L91.0722 20.3744C91.4422 20.3044 91.8222 20.2644 92.2222 20.2644C92.6722 20.2644 93.1022 20.3144 93.5222 20.3944H93.5122ZM90.1822 21.7144L89.5422 20.8244C89.6922 20.7544 89.8522 20.6944 90.0122 20.6344L90.1822 21.7044V21.7144ZM88.5822 21.3544L90.5522 24.0744L90.7422 25.2544L89.5622 25.0644L86.8222 23.0844C87.2922 22.4044 87.8922 21.8144 88.5822 21.3544ZM86.8422 30.5144L89.5622 28.5444L90.7422 28.3544L90.5522 29.5344L88.5922 32.2344C87.9022 31.7744 87.3022 31.1944 86.8322 30.5144H86.8422ZM90.1822 31.8944L90.0122 32.9444C89.8522 32.8844 89.7022 32.8344 89.5522 32.7644L90.1822 31.9044V31.8944ZM91.0622 33.2244L91.5822 29.9644L92.2822 28.9944L92.9822 29.9644L93.5022 33.2044C93.0822 33.2844 92.6522 33.3344 92.2022 33.3344C91.8122 33.3344 91.4322 33.2944 91.0622 33.2244ZM94.3922 31.8944L94.9722 32.7044C94.8322 32.7744 94.6922 32.8344 94.5422 32.8844L94.3822 31.8944H94.3922ZM95.9222 32.1644L94.0122 29.5344L93.8222 28.3544L95.0022 28.5444L97.6222 30.4444C97.1622 31.1244 96.5822 31.7044 95.9222 32.1744V32.1644Z" fill="#DCDFE2"/>
<path d="M93.6322 30.0546L94.7522 31.5946L93.9322 31.9346L93.6322 30.0546ZM89.8222 31.5946L90.9422 30.0546L90.6422 31.9346L89.8222 31.5946ZM92.2922 27.9346L91.2022 29.4346L91.4922 27.6046L89.6622 27.8946L91.1622 26.8046L89.6622 25.7146L91.4922 26.0046L91.2022 24.1746L92.2922 25.6746L93.3822 24.1746L93.0922 26.0046L94.9222 25.7146L93.4222 26.8046L94.9222 27.8946L93.0922 27.6046L93.3822 29.4346L92.2922 27.9346ZM95.5322 28.1546L97.4122 28.4546L97.0722 29.2746L95.5322 28.1546ZM87.1622 28.4546L89.0422 28.1546L87.5022 29.2746L87.1622 28.4546ZM87.1622 25.1646L87.5022 24.3446L89.0422 25.4646L87.1622 25.1646ZM97.0722 24.3446L97.4122 25.1646L95.5322 25.4646L97.0722 24.3446ZM93.9322 21.6846L94.7522 22.0246L93.6322 23.5646L93.9322 21.6846ZM89.8222 22.0246L90.6422 21.6846L90.9422 23.5646L89.8222 22.0246Z" fill="#CBCFD1"/>
<path d="M92.2122 18.4646C97.1922 18.4646 101.252 22.3746 101.522 27.2946C101.522 27.1246 101.552 26.9646 101.552 26.7946C101.552 21.6446 97.3722 17.4646 92.2222 17.4646C87.0722 17.4646 82.8922 21.6446 82.8922 26.7946C82.8922 26.9646 82.9122 27.1346 82.9222 27.2946C83.1822 22.3746 87.2422 18.4646 92.2322 18.4646H92.2122Z" fill="#262626"/>
<path d="M92.2122 34.3246C88.1822 34.3246 84.8922 31.1646 84.6822 27.1846C84.6822 27.3246 84.6622 27.4546 84.6622 27.5946C84.6622 31.7646 88.0422 35.1446 92.2122 35.1446C96.3822 35.1446 99.7622 31.7646 99.7622 27.5946C99.7622 27.4546 99.7522 27.3246 99.7422 27.1846C99.5322 31.1646 96.2422 34.3246 92.2122 34.3246Z" fill="#262626"/>
<g opacity="0.5">
<path d="M37.7322 23.0148C36.1022 19.2448 31.9122 12.1248 19.2322 13.6748C29.2822 11.6648 35.2722 15.1848 39.0322 22.0248C41.3122 26.1748 63.1622 26.5148 81.5122 29.0948C72.1322 29.2948 39.6522 27.4348 37.7322 23.0148Z" fill="white"/>
</g>
<path d="M80.3022 29.0347C80.3022 29.0347 80.4022 29.0147 80.4422 29.0047C71.7122 28.5047 61.7322 28.1047 53.4922 27.3347C61.5622 28.1347 71.4922 28.5547 80.3122 29.0447L80.3022 29.0347Z" fill="#341115"/>
<g opacity="0.5">
<path d="M12.0822 27.6847C11.2622 20.1347 17.7322 14.4447 23.5722 14.4447C24.0122 14.4447 24.4422 14.4647 24.8522 14.4947C24.1022 14.4047 23.3222 14.3447 22.4922 14.3447C16.6622 14.3447 10.1922 20.0247 11.0022 27.5647C11.3522 27.6047 11.7122 27.6447 12.0822 27.6847Z" fill="white"/>
</g>
<g opacity="0.5">
<path d="M92.1222 16.6746C97.9322 16.6746 102.662 21.2946 102.842 27.0646C102.852 26.8646 102.862 26.6546 102.862 26.4546C102.862 20.5246 98.0522 15.7146 92.1222 15.7146C86.1922 15.7146 81.3822 20.5246 81.3822 26.4546C81.3822 26.6146 81.4022 26.7746 81.4022 26.9246C81.6622 21.2246 86.3522 16.6746 92.1122 16.6746H92.1222Z" fill="white"/>
</g>
</g>
<defs>
<clipPath id="clip0_60_5439">
<rect width="116.78" height="35.72" fill="white" transform="translate(0.402176 0.774658)"/>
</clipPath>
</defs>
</svg>
