<svg width="113" height="37" viewBox="0 0 113 37" fill="none" xmlns="http://www.w3.org/2000/svg">
<g clip-path="url(#clip0_60_5550)">
<path d="M109.394 29.4545L107.214 20.7945C105.964 19.1245 104.774 16.5745 93.5641 15.2545L75.8941 13.0645C70.0241 9.5845 61.3441 5.4545 55.3141 3.1445C51.5941 1.7145 34.6341 1.1045 28.3141 1.6845C23.2641 2.1545 21.2741 3.0745 16.2041 8.3245C12.7341 11.9245 7.09412 11.5945 4.79412 15.2745C2.60412 16.3045 3.30412 21.5745 3.30412 21.5745C2.38412 25.4145 2.42412 26.2145 4.66412 29.7345C7.30412 33.8645 9.51412 33.3945 10.9841 33.3945L104.554 33.5545C106.544 33.5545 110.914 32.2145 109.374 29.4645L109.394 29.4545Z" fill="#191919"/>
<path d="M112.364 24.4445L109.454 19.6745C108.154 18.0045 106.904 15.4545 95.2041 14.1345L76.7641 11.9445C70.6341 8.46454 61.5641 4.33454 55.2741 2.02454C51.3741 0.584542 33.6641 -0.0354583 27.0641 0.554542C21.7941 1.02454 19.7141 1.94454 14.4241 7.19454C10.7941 10.7945 4.91412 10.4645 2.51412 14.1445C0.234118 15.1745 0.964118 20.4445 0.964118 20.4445C0.00411803 24.2845 0.0441182 25.0845 2.38412 28.6045C3.76412 30.6745 5.02412 31.5845 6.14412 31.9845C7.25412 32.3845 8.21412 28.3245 8.98412 28.3245C8.98412 28.3245 11.0941 32.4245 29.4441 32.4245C43.0141 32.4245 67.6941 32.3645 68.8041 32.3645C73.2541 32.3645 78.3441 27.8645 82.3841 27.8645C86.8841 27.8645 96.7641 27.6945 102.474 27.6945C103.744 27.6945 105.124 31.7945 108.734 31.7945C109.144 31.7945 113.964 27.2045 112.354 24.4545L112.364 24.4445Z" fill="#689552"/>
<path opacity="0.2" d="M111.514 23.0544L109.444 19.6644C108.974 19.0644 108.524 18.3544 107.584 17.6344C104.784 17.5244 102.694 18.2544 102.004 19.5644C102.004 19.6744 102.024 19.7944 102.054 19.9044C102.094 20.0844 102.154 20.2644 102.244 20.4444C103.934 21.6244 106.544 22.5844 109.324 22.9244C110.094 23.0244 110.834 23.0544 111.514 23.0444V23.0544Z" fill="white"/>
<path d="M69.2741 28.4946C69.2541 27.9646 69.2541 27.0546 69.2541 25.9046C69.2541 21.6046 69.2741 14.4046 68.0341 12.9946L67.8741 13.1346C69.0641 14.4846 69.0541 21.9046 69.0441 25.9046C69.0441 27.0546 69.0441 27.9646 69.0641 28.5046C69.1141 29.8046 69.0041 30.4946 68.6841 30.8046C68.4141 31.0746 67.9541 31.0946 67.2741 31.0446C66.4741 30.9846 56.8941 30.9646 47.9541 30.9446C46.6441 30.9446 46.6141 30.7246 46.4841 29.6546L46.4541 29.3946C46.3141 28.3846 46.0841 26.3746 45.8041 24.0546C45.3241 19.9346 44.7241 14.8046 44.3741 12.8946L44.1641 12.9346C44.5041 14.8346 45.1041 19.9646 45.5841 24.0846C45.8541 26.4046 46.0941 28.4146 46.2341 29.4346L46.2641 29.6946C46.3441 30.3446 46.4041 30.7346 46.7341 30.9546C40.0241 30.9546 33.9241 30.9546 32.4941 30.9546H32.2641C30.4741 30.9646 29.9341 30.9646 29.6341 26.1746C29.3741 22.0046 26.3541 18.5746 23.4941 17.3446C23.0841 17.1646 22.7741 17.1046 22.5241 17.0546C22.0441 16.9546 21.8241 16.9146 21.5741 16.1846C21.4041 15.6946 20.9341 14.3746 21.5241 11.0646V10.4446C20.5741 13.9946 21.0941 15.4546 21.3741 16.2546C21.6741 17.0946 21.9741 17.1546 22.4841 17.2646C22.7241 17.3146 23.0241 17.3746 23.4141 17.5446C25.6741 18.5146 29.1341 21.6246 29.4241 26.1946C29.7341 31.1846 30.3741 31.1846 32.2641 31.1746H32.4941C35.9041 31.1746 65.8141 31.1746 67.2541 31.2846C67.4341 31.2946 67.6041 31.3046 67.7541 31.3046C68.2341 31.3046 68.5741 31.2246 68.8241 30.9846C69.1941 30.6246 69.3241 29.9046 69.2741 28.5246V28.4946Z" fill="#4C7038"/>
<path d="M25.9641 2.74438C24.4441 4.11438 19.7841 11.8244 21.9741 12.0344C27.7641 12.5944 56.7141 13.1944 68.2741 13.2644C69.1241 13.2644 56.2341 4.19438 54.3041 3.13438C52.3441 2.05438 28.3541 0.574376 25.9641 2.74438Z" fill="#D6D6D6"/>
<path d="M67.9541 13.0644C56.1841 12.9844 27.7041 12.3844 21.9441 11.8244C21.7341 11.8044 21.6841 11.7144 21.6641 11.6644C21.0441 10.3944 24.6941 4.23439 26.1241 2.94439C26.9741 2.17439 31.1941 1.79439 37.5941 1.89439C44.8241 2.00439 53.1441 2.73439 54.2441 3.33439C56.1441 4.37439 66.3441 11.5844 67.9541 13.0644Z" fill="#232122"/>
<path d="M43.6241 12.4344C37.0641 12.2744 25.4341 11.9444 21.9041 11.6044C21.8741 11.6044 21.8541 11.6044 21.8341 11.5944C21.3641 10.4544 24.8241 4.44442 26.2741 3.13442C27.0841 2.40442 31.3641 2.02442 37.6341 2.12442C38.8141 2.14442 40.0641 2.17442 41.3541 2.23442C41.9441 5.51442 42.6941 8.87442 43.6241 12.4444V12.4344Z" fill="#80C2DC"/>
<path d="M61.0941 12.7844C56.0941 12.7144 50.3441 12.5944 44.8341 12.4644C43.9141 8.88442 43.1841 5.54442 42.6141 2.28442C48.3841 2.56442 53.3941 3.10442 54.1741 3.53442C55.2841 4.13442 59.3041 6.90442 62.5041 9.20442C62.0141 10.5144 61.5541 11.6844 61.0841 12.7944L61.0941 12.7844Z" fill="#80C2DC"/>
<path d="M21.5941 1.69458C19.4541 2.58458 17.4741 4.17458 14.4341 7.19458C13.1541 8.46458 11.6041 9.24458 10.0141 9.88458C14.2641 10.6746 19.4541 4.54458 20.6241 3.30458C21.3441 2.54458 21.5741 2.16458 21.5941 1.69458Z" fill="#232122"/>
<path d="M20.4241 3.10443C20.9841 2.51443 21.2441 2.15443 21.3441 1.79443C19.2941 2.70443 17.3541 4.28443 14.4241 7.18443C13.2341 8.36443 11.8041 9.12443 10.3341 9.73443C14.4841 9.97443 19.3041 4.28443 20.4241 3.09443V3.10443Z" fill="#80C2DC"/>
<path d="M55.3141 2.73445C56.7241 3.30445 70.2941 10.9345 72.4141 11.7845C74.0841 12.4545 76.6141 13.0245 78.5241 12.1445L76.7541 11.9345C70.6741 8.47445 61.6941 4.38445 55.4041 2.06445C54.9241 2.23445 54.6541 2.47445 55.3241 2.73445H55.3141Z" fill="#232122"/>
<path d="M77.4241 12.0145L76.7541 11.9345C70.7141 8.5045 61.8241 4.4445 55.5441 2.1145C55.2341 2.2845 55.1341 2.4845 55.6741 2.6945C57.0541 3.2345 70.2641 10.6345 72.3241 11.4445C73.7141 11.9945 75.7141 12.4545 77.4241 12.0145Z" fill="#80C2DC"/>
<path d="M18.4541 17.5645C23.9941 17.4245 28.6041 21.8145 28.7441 27.3545C28.7441 27.6645 28.7441 32.8445 31.9941 32.8445C23.6641 33.0245 11.1341 32.2445 8.74412 32.2445C8.74412 31.3245 8.67412 28.2545 8.66412 27.8545C8.52412 22.3145 12.9141 17.7045 18.4541 17.5645Z" fill="#191919"/>
<path d="M9.27412 27.8044C9.40412 32.9744 13.6941 37.0644 18.8741 36.9344C24.0441 36.8044 28.1341 32.5144 28.0041 27.3344C27.8741 22.1644 23.5841 18.0744 18.4041 18.2044C13.2341 18.3344 9.14412 22.6244 9.27412 27.8044Z" fill="#070000"/>
<path d="M14.6441 30.3743C16.6341 32.2743 16.2841 28.8643 18.1841 26.8743C20.0841 24.8843 23.4941 25.0643 21.5041 23.1643C19.5141 21.2643 16.3641 21.3443 14.4641 23.3343C12.5641 25.3243 12.6441 28.4743 14.6341 30.3743H14.6441Z" fill="#D60606"/>
<path d="M11.4041 27.7444C11.5041 31.7444 14.8241 34.8944 18.8141 34.8044C22.8141 34.7044 25.9641 31.3844 25.8741 27.3944C25.7741 23.3944 22.4541 20.2444 18.4641 20.3344C14.4741 20.4244 11.3141 23.7544 11.4041 27.7444ZM12.7841 29.9144L13.6941 29.7444L12.9541 30.3144C12.8941 30.1844 12.8341 30.0544 12.7841 29.9144ZM12.4741 28.9044C12.3941 28.5244 12.3441 28.1344 12.3341 27.7244C12.3341 27.3244 12.3541 26.9444 12.4141 26.5644L15.5041 26.9744L16.4541 27.6344L15.5341 28.3344L12.4741 28.9044ZM24.4141 30.1044L23.5341 29.4944L24.6041 29.6344C24.5441 29.7944 24.4841 29.9444 24.4241 30.1044H24.4141ZM21.6241 28.1844L20.6741 27.5244L21.5941 26.8244L24.8141 26.2344C24.8941 26.6144 24.9441 27.0044 24.9541 27.4144C24.9641 27.8244 24.9341 28.2344 24.8641 28.6244L21.6241 28.1944V28.1844ZM24.4941 25.2344L23.4241 25.4344L24.2841 24.7744C24.3541 24.9244 24.4241 25.0744 24.4941 25.2344ZM12.8241 25.1344L13.6041 25.6644L12.6741 25.5444C12.7241 25.4044 12.7741 25.2644 12.8241 25.1344ZM14.9141 22.4844L16.8341 24.9944L17.0441 26.1344L15.8941 25.9844L13.3141 24.2044C13.7341 23.5344 14.2841 22.9544 14.9141 22.4844ZM15.8041 21.9444C15.9441 21.8744 16.0841 21.8144 16.2241 21.7544L16.4041 22.7344L15.8041 21.9544V21.9444ZM18.4841 21.2644C18.8641 21.2644 19.2341 21.2844 19.5941 21.3444L19.1641 24.5344L18.5041 25.4844L17.8041 24.5644L17.2241 21.4244C17.6241 21.3344 18.0441 21.2744 18.4841 21.2644ZM20.6141 21.5844C20.7741 21.6344 20.9241 21.6944 21.0741 21.7544L20.4741 22.6244L20.6141 21.5844ZM23.7441 23.8644L21.1541 25.8444L20.0141 26.0544L20.1641 24.9044L22.0041 22.2244C22.6841 22.6544 23.2741 23.2044 23.7441 23.8544V23.8644ZM22.2541 32.7344L20.2941 30.1744L20.0841 29.0344L21.2341 29.1844L23.9141 31.0244C23.4741 31.6944 22.9141 32.2744 22.2641 32.7344H22.2541ZM21.3441 33.2644C21.2041 33.3344 21.0541 33.3944 20.9041 33.4544L20.7141 32.4544L21.3441 33.2744V33.2644ZM18.7941 33.8744C18.3641 33.8844 17.9441 33.8544 17.5341 33.7844L17.9541 30.6444L18.6141 29.6944L19.3141 30.6144L19.8941 33.7544C19.5341 33.8244 19.1741 33.8744 18.7941 33.8844V33.8744ZM16.5241 33.5044C16.3841 33.4544 16.2441 33.3944 16.1041 33.3344L16.6441 32.5444L16.5141 33.5044H16.5241ZM13.4941 31.2144L15.9741 29.3244L17.1141 29.1144L16.9641 30.2644L15.1841 32.8444C14.5241 32.4144 13.9541 31.8644 13.4941 31.2244V31.2144Z" fill="#F9EFF0"/>
<path d="M17.0941 32.5745L16.2941 32.2645L17.3341 30.7545L17.0941 32.5745ZM20.2741 32.4945L19.9441 30.6845L21.0641 32.1445L20.2841 32.4945H20.2741ZM17.5741 30.1545L17.8141 28.3745L16.0541 28.7045L17.4741 27.6145L15.9941 26.5945L17.7741 26.8345L17.4541 25.0745L18.5441 26.4945L19.5641 25.0145L19.3241 26.7945L21.0841 26.4645L19.6541 27.5545L21.1341 28.5745L19.3541 28.3345L19.6841 30.0945L18.5941 28.6745L17.5741 30.1545ZM14.0041 30.0745L13.6541 29.2945L15.4641 28.9645L14.0041 30.0845V30.0745ZM23.2441 29.8445L21.7341 28.8045L23.5541 29.0445L23.2441 29.8445ZM21.6641 26.2145L23.1241 25.0945L23.4741 25.8745L21.6641 26.2045V26.2145ZM15.3941 26.3645L13.5741 26.1245L13.8841 25.3245L15.3941 26.3645ZM17.1841 24.4845L16.0641 23.0245L16.8441 22.6745L17.1741 24.4845H17.1841ZM19.7841 24.4245L20.0241 22.6045L20.8241 22.9145L19.7841 24.4245Z" fill="#999999"/>
<path d="M18.4441 19.5344C13.6341 19.6544 9.80412 23.5244 9.67412 28.2744C9.66412 28.1144 9.64412 27.9544 9.63412 27.7944C9.51412 22.8244 13.4441 18.6844 18.4141 18.5644C23.3841 18.4444 27.5241 22.3744 27.6441 27.3444C27.6441 27.5044 27.6441 27.6644 27.6341 27.8344C27.2641 23.0944 23.2541 19.4144 18.4441 19.5344Z" fill="#262626"/>
<path d="M18.8241 34.8344C22.7141 34.7344 25.8141 31.6044 25.9241 27.7544C25.9341 27.8844 25.9541 28.0144 25.9541 28.1444C26.0541 32.1744 22.8741 35.5144 18.8441 35.6144C14.8141 35.7144 11.4741 32.5344 11.3741 28.5044C11.3741 28.3744 11.3741 28.2444 11.3741 28.1144C11.6741 31.9544 14.9241 34.9244 18.8141 34.8344H18.8241Z" fill="#262626"/>
<path d="M92.1841 17.5645C97.7241 17.4245 102.334 21.8145 102.474 27.3545C102.474 27.6645 102.584 29.9045 102.704 32.4045C94.3741 32.5845 84.7041 33.1245 82.3141 33.1245C82.3141 32.2045 82.4041 28.2545 82.3941 27.8545C82.2541 22.3145 86.6441 17.7045 92.1841 17.5645Z" fill="#191919"/>
<path d="M101.33 30.3201C102.846 25.3721 100.063 20.1323 95.1152 18.6167C90.1672 17.1011 84.9275 19.8836 83.4119 24.8316C81.8963 29.7796 84.6788 35.0194 89.6268 36.535C94.5748 38.0506 99.8146 35.2681 101.33 30.3201Z" fill="#070000"/>
<path d="M88.3641 30.3746C90.3541 32.2746 90.0041 28.8646 91.9041 26.8746C93.8041 24.8846 97.2141 25.0646 95.2241 23.1646C93.2341 21.2646 90.0841 21.3446 88.1841 23.3346C86.2841 25.3246 86.3641 28.4746 88.3541 30.3746H88.3641Z" fill="#D60606"/>
<path d="M85.1341 27.7444C85.2341 31.7444 88.5541 34.8944 92.5441 34.8044C96.5341 34.7144 99.6941 31.3844 99.6041 27.3944C99.5041 23.3944 96.1841 20.2444 92.1941 20.3344C88.2041 20.4244 85.0441 23.7544 85.1341 27.7444ZM86.5141 29.9144L87.4241 29.7444L86.6841 30.3144C86.6241 30.1844 86.5641 30.0544 86.5141 29.9144ZM86.2041 28.9044C86.1241 28.5244 86.0741 28.1344 86.0641 27.7244C86.0641 27.3244 86.0841 26.9444 86.1441 26.5644L89.2341 26.9744L90.1841 27.6344L89.2641 28.3344L86.2041 28.9044ZM98.1341 30.1044L97.2541 29.4944L98.3241 29.6344C98.2641 29.7944 98.2041 29.9444 98.1441 30.1044H98.1341ZM95.3441 28.1844L94.3941 27.5244L95.3141 26.8244L98.5341 26.2344C98.6141 26.6144 98.6641 27.0044 98.6741 27.4144C98.6841 27.8244 98.6541 28.2344 98.5841 28.6244L95.3441 28.1944V28.1844ZM98.2141 25.2344L97.1441 25.4344L98.0041 24.7744C98.0741 24.9244 98.1441 25.0744 98.2141 25.2344ZM86.5441 25.1344L87.3241 25.6644L86.3941 25.5444C86.4441 25.4044 86.4941 25.2644 86.5441 25.1344ZM88.6341 22.4844L90.5541 24.9944L90.7641 26.1344L89.6141 25.9844L87.0341 24.2044C87.4541 23.5344 88.0041 22.9544 88.6341 22.4844ZM89.5341 21.9444C89.6741 21.8744 89.8141 21.8144 89.9541 21.7544L90.1341 22.7344L89.5341 21.9544V21.9444ZM92.2141 21.2644C92.5941 21.2644 92.9641 21.2844 93.3241 21.3444L92.8941 24.5344L92.2341 25.4844L91.5341 24.5644L90.9541 21.4244C91.3541 21.3344 91.7741 21.2744 92.2141 21.2644ZM94.3441 21.5844C94.5041 21.6344 94.6541 21.6944 94.8041 21.7544L94.2041 22.6244L94.3441 21.5844ZM97.4741 23.8644L94.8841 25.8444L93.7441 26.0544L93.8941 24.9044L95.7341 22.2244C96.4141 22.6544 97.0041 23.2044 97.4741 23.8544V23.8644ZM95.9841 32.7344L94.0241 30.1744L93.8141 29.0344L94.9641 29.1844L97.6441 31.0244C97.2041 31.6944 96.6441 32.2744 95.9941 32.7344H95.9841ZM95.0641 33.2644C94.9241 33.3344 94.7741 33.3944 94.6241 33.4544L94.4341 32.4544L95.0641 33.2744V33.2644ZM92.5241 33.8744C92.0941 33.8844 91.6741 33.8544 91.2641 33.7844L91.6841 30.6444L92.3441 29.6944L93.0441 30.6144L93.6241 33.7544C93.2641 33.8244 92.9041 33.8744 92.5241 33.8844V33.8744ZM90.2441 33.5044C90.1041 33.4544 89.9641 33.3944 89.8241 33.3344L90.3641 32.5444L90.2341 33.5044H90.2441ZM87.2141 31.2144L89.6941 29.3244L90.8341 29.1144L90.6841 30.2644L88.9041 32.8444C88.2441 32.4144 87.6741 31.8644 87.2141 31.2244V31.2144Z" fill="#F9EFF0"/>
<path d="M90.8241 32.5745L90.0241 32.2645L91.0641 30.7545L90.8241 32.5745ZM93.9941 32.4945L93.6641 30.6845L94.7841 32.1445L94.0041 32.4945H93.9941ZM91.2941 30.1545L91.5341 28.3745L89.7741 28.7045L91.1941 27.6145L89.7141 26.5945L91.4941 26.8345L91.1741 25.0745L92.2641 26.4945L93.2841 25.0145L93.0441 26.7945L94.8041 26.4645L93.3741 27.5545L94.8541 28.5745L93.0741 28.3345L93.4041 30.0945L92.3141 28.6745L91.2941 30.1545ZM87.7241 30.0745L87.3741 29.2945L89.1841 28.9645L87.7241 30.0845V30.0745ZM96.9641 29.8445L95.4541 28.8045L97.2741 29.0445L96.9641 29.8445ZM95.3841 26.2145L96.8441 25.0945L97.1941 25.8745L95.3841 26.2045V26.2145ZM89.1241 26.3645L87.3041 26.1245L87.6141 25.3245L89.1241 26.3645ZM90.9141 24.4845L89.7941 23.0245L90.5741 22.6745L90.9041 24.4845H90.9141ZM93.5041 24.4245L93.7441 22.6045L94.5441 22.9145L93.5041 24.4245Z" fill="#999999"/>
<path d="M92.1641 19.5344C87.3541 19.6544 83.5241 23.5244 83.3941 28.2744C83.3841 28.1144 83.3641 27.9544 83.3541 27.7944C83.2341 22.8244 87.1641 18.6844 92.1341 18.5644C97.1041 18.4444 101.244 22.3744 101.364 27.3444C101.364 27.5044 101.364 27.6644 101.354 27.8344C100.984 23.0944 96.9741 19.4144 92.1641 19.5344Z" fill="#262626"/>
<path d="M92.5441 34.8344C96.4341 34.7344 99.5341 31.6044 99.6441 27.7544C99.6541 27.8844 99.6741 28.0144 99.6741 28.1444C99.7741 32.1744 96.5941 35.5144 92.5641 35.6144C88.5341 35.7144 85.1941 32.5344 85.0941 28.5044C85.0941 28.3744 85.0941 28.2444 85.1041 28.1144C85.4041 31.9544 88.6541 34.9244 92.5441 34.8344Z" fill="#262626"/>
<path d="M49.9541 14.4544C50.0541 14.9244 49.7641 15.2944 49.2941 15.2744L46.1741 15.1844C45.7041 15.1744 45.2441 14.7844 45.1441 14.3144C45.0441 13.8444 45.3341 13.4744 45.8041 13.4944L48.9241 13.5844C49.3941 13.5944 49.8541 13.9844 49.9541 14.4544Z" fill="#4C7038"/>
<path d="M48.8541 13.7043L45.8841 13.6143C45.5241 13.6043 45.2841 13.8443 45.2441 14.1743C45.4041 14.5543 45.7841 14.8543 46.1641 14.8643L49.1341 14.9543C49.4941 14.9643 49.7341 14.7243 49.7741 14.3943C49.6141 14.0143 49.2341 13.7143 48.8541 13.7043Z" fill="#3D592C"/>
<path d="M48.8541 13.6845L45.8841 13.6145C45.5241 13.6145 45.2841 13.7945 45.2441 14.0745C45.4041 14.3845 45.7841 14.6245 46.1641 14.6345L49.1341 14.7045C49.4941 14.7045 49.7341 14.5245 49.7741 14.2445C49.6141 13.9345 49.2341 13.6945 48.8541 13.6845Z" fill="#689552"/>
<path d="M26.7941 13.7144C26.8941 14.1844 26.6041 14.5544 26.1341 14.5344L23.0141 14.4444C22.5441 14.4344 22.0841 14.0444 21.9841 13.5744C21.8841 13.1044 22.1741 12.7344 22.6441 12.7544L25.7641 12.8444C26.2341 12.8544 26.6941 13.2444 26.7941 13.7144Z" fill="#4C7038"/>
<path d="M25.6941 12.9643L22.7241 12.8743C22.3641 12.8643 22.1241 13.1043 22.0841 13.4343C22.2441 13.8143 22.6241 14.1143 23.0041 14.1243L25.9741 14.2143C26.3341 14.2243 26.5741 13.9843 26.6141 13.6543C26.4541 13.2743 26.0741 12.9743 25.6941 12.9643Z" fill="#3D592C"/>
<path d="M25.6941 12.9445L22.7241 12.8745C22.3641 12.8745 22.1241 13.0545 22.0841 13.3345C22.2441 13.6445 22.6241 13.8845 23.0041 13.8945L25.9741 13.9645C26.3341 13.9645 26.5741 13.7845 26.6141 13.5045C26.4541 13.1945 26.0741 12.9545 25.6941 12.9445Z" fill="#689552"/>
<path d="M110.634 21.6144L109.444 19.6644C108.904 18.9744 108.374 18.1244 107.094 17.2744C103.924 16.9744 101.684 17.9044 102.054 19.4144C102.084 19.5444 102.144 19.6844 102.214 19.8144C103.614 20.6744 105.764 21.3544 108.044 21.5844C108.994 21.6744 109.864 21.6844 110.634 21.6144Z" fill="#4E6D3D"/>
<path d="M110.634 21.6145L109.444 19.6645C109.004 19.0945 108.564 18.4345 107.734 17.7445C104.864 17.4545 102.664 18.0245 102.014 19.1545C102.014 19.2345 102.034 19.3245 102.054 19.4045C102.084 19.5345 102.144 19.6745 102.214 19.8045C103.614 20.6645 105.764 21.3445 108.044 21.5745C108.994 21.6645 109.864 21.6745 110.634 21.6045V21.6145Z" fill="#F9EFF0"/>
<path d="M102.214 19.8144C102.374 19.9144 102.554 20.0144 102.734 20.1044C103.474 19.2844 104.334 18.5344 105.094 17.7444C103.564 17.9144 102.444 18.4144 102.014 19.1644C102.014 19.2444 102.034 19.3344 102.054 19.4144C102.084 19.5444 102.144 19.6844 102.214 19.8144Z" fill="white"/>
<path d="M105.324 19.8046C106.014 19.1346 106.714 18.4646 107.374 17.7646C107.384 17.7546 107.394 17.7446 107.404 17.7346C107.074 17.7046 106.744 17.6946 106.434 17.6846C106.364 17.7646 106.294 17.8546 106.224 17.9346C105.464 18.8246 104.484 19.6446 103.654 20.5346C103.884 20.6246 104.134 20.7146 104.384 20.8046C104.704 20.4746 104.994 20.1246 105.324 19.8146V19.8046Z" fill="white"/>
<path d="M108.574 18.8444C108.574 18.8444 108.654 18.7544 108.694 18.7044C108.554 18.5444 108.414 18.3844 108.244 18.2144C108.094 18.3744 107.944 18.5444 107.794 18.7044C107.044 19.4844 106.354 20.1144 105.414 21.1144C105.664 21.1844 105.914 21.2344 106.174 21.2944C106.944 20.4544 107.834 19.7044 108.584 18.8544L108.574 18.8444Z" fill="white"/>
<path d="M109.294 19.4646C108.664 20.1646 107.944 20.8046 107.274 21.4846C107.524 21.5246 107.784 21.5546 108.044 21.5846C108.994 21.6746 109.864 21.6846 110.634 21.6146L109.444 19.6646C109.394 19.5946 109.344 19.5246 109.284 19.4546L109.294 19.4646Z" fill="white"/>
<path d="M108.834 20.6944C106.304 20.6044 103.884 20.1744 102.094 19.5544C102.124 19.6444 102.164 19.7244 102.204 19.8144C103.604 20.6744 105.754 21.3544 108.034 21.5844C108.984 21.6744 109.854 21.6844 110.624 21.6144L110.074 20.7044C109.674 20.7044 109.254 20.7044 108.824 20.6944H108.834Z" fill="#D86B32"/>
<path opacity="0.2" d="M101.994 24.5144C105.374 24.5144 111.564 24.4644 112.044 24.4644C112.524 24.4644 112.784 26.1644 111.934 27.5944C111.934 26.5444 111.764 25.7244 110.654 25.7244C109.544 25.7244 102.484 25.4144 101.984 24.5244L101.994 24.5144Z" fill="white"/>
<path opacity="0.2" d="M1.16411 20.5344C3.03411 20.5344 8.57411 20.9044 10.4641 20.9044C9.95411 21.4144 9.55411 23.3544 7.21411 23.4344C4.87411 23.5144 0.774113 22.8344 0.434113 23.6944C0.484113 22.9244 0.634113 21.5744 1.17411 20.5344H1.16411Z" fill="white"/>
<path d="M8.29412 14.2444H2.32412C0.784118 15.1744 0.794118 18.2044 0.894118 19.6544H4.65412C5.24412 19.6544 6.03412 19.1844 6.42412 18.5944L8.63412 15.3044C9.02412 14.7144 8.87412 14.2444 8.28412 14.2444H8.29412Z" fill="#4E6D3D"/>
<path d="M7.65411 14.6545H1.84411C0.834108 15.8045 0.804108 18.1345 0.874108 19.4645H4.00411C4.59411 19.4645 5.38411 19.0445 5.77411 18.5245L7.98411 15.6045C8.37411 15.0845 8.22411 14.6645 7.63411 14.6645L7.65411 14.6545Z" fill="#D60606"/>
<path d="M80.3741 15.9246C80.3741 15.9246 82.9841 17.3046 81.4341 18.3746C82.4041 18.3646 83.2941 17.9146 83.2941 17.2146C83.2941 16.7446 82.0541 15.9346 80.3641 15.9346L80.3741 15.9246Z" fill="#191919"/>
<path d="M7.64412 16.0745L8.00412 15.5945C8.39412 15.0745 8.24412 14.6545 7.65412 14.6545H5.15412C4.98412 15.1245 4.82412 15.5945 4.67412 16.0745H7.64412Z" fill="#D86B32"/>
<path d="M4.37411 17.0244C4.13411 17.8244 3.91411 18.6444 3.71411 19.4644H4.01411C4.60411 19.4644 5.39411 19.0444 5.78411 18.5244L6.91411 17.0344H4.36411L4.37411 17.0244Z" fill="#D86B32"/>
<g opacity="0.2">
<path d="M84.1241 16.3845C84.1241 14.1945 75.6241 14.7145 71.5641 15.1345C71.5641 15.1345 84.0041 15.2045 83.9041 16.9845C83.9041 17.1345 83.8741 17.2745 83.8441 17.4045C84.0241 17.1345 84.1241 16.8045 84.1241 16.3845Z" fill="white"/>
</g>
<path d="M71.5041 15.1344C76.8041 15.1344 83.9041 14.8944 83.9041 16.8044C83.9041 19.4144 79.8641 18.7744 78.3741 18.7744C80.3241 18.5644 82.7641 18.5144 82.7641 17.2044C82.7641 16.0644 79.9841 15.6744 71.5041 15.1444V15.1344Z" fill="#4C7038"/>
<path opacity="0.2" d="M112.364 24.4445L109.454 19.6745C108.154 18.0045 106.904 15.4545 95.2041 14.1345L76.7641 11.9445C70.6341 8.46454 61.5641 4.33454 55.2741 2.02454C51.3741 0.584542 33.6641 -0.0354583 27.0641 0.554542C21.7941 1.02454 19.7141 1.94454 14.4241 7.19454C10.7941 10.7945 4.91411 10.4645 2.51411 14.1445C0.23411 15.1745 0.96411 20.4445 0.96411 20.4445C0.0541099 24.0745 0.0441099 24.9845 2.02411 28.0445C2.04411 28.0445 2.06411 28.0345 2.08411 28.0245C2.10411 28.0045 2.13411 27.9845 2.15411 27.9645C1.06411 26.0345 1.20411 24.9545 1.94411 22.1245C1.94411 22.1245 1.22411 17.1645 3.47411 16.1845C5.84411 12.7145 18.5941 14.6045 21.1141 10.3745C24.6441 4.43454 24.2641 2.61454 29.4541 2.17454C35.9541 1.62454 50.5841 1.58454 54.2441 3.33454C58.1141 5.18454 63.4141 10.0545 69.4441 13.3345L87.5341 14.8845C99.0641 16.1345 106.474 19.9745 107.754 21.5445L111.654 25.8745C112.164 26.7145 112.014 27.7345 111.564 28.7345C112.474 27.3245 113.084 25.6845 112.354 24.4345L112.364 24.4445Z" fill="white"/>
<path opacity="0.2" d="M92.1541 17.6345C86.7241 17.7645 82.4041 22.1345 82.2541 27.5045C82.2441 27.3245 82.2141 27.1445 82.2141 26.9545C82.0741 21.3445 86.5141 16.6745 92.1241 16.5345C97.7341 16.3945 102.404 20.8345 102.544 26.4445C102.544 26.6245 102.544 26.8145 102.534 26.9945C102.114 21.6445 97.5841 17.4945 92.1641 17.6245L92.1541 17.6345Z" fill="white"/>
<path opacity="0.2" d="M18.4241 17.6345C12.9941 17.7645 8.67412 22.1345 8.52412 27.5045C8.51412 27.3245 8.48412 27.1445 8.48412 26.9545C8.34412 21.3445 12.7841 16.6745 18.3941 16.5345C24.0041 16.3945 28.6741 20.8345 28.8141 26.4445C28.8141 26.6245 28.8141 26.8145 28.8041 26.9945C28.3841 21.6445 23.8541 17.4945 18.4341 17.6245L18.4241 17.6345Z" fill="white"/>
<path opacity="0.2" d="M21.4741 12.9146L72.5641 15.0346C72.5641 15.0346 52.0041 17.1546 21.8941 15.4546C20.6241 14.6046 21.4741 12.9146 21.4741 12.9146Z" fill="white"/>
<path opacity="0.2" d="M30.3741 26.9045C42.2441 26.9045 47.7541 27.7545 54.5441 25.2045C61.3341 22.6545 73.2241 20.1845 84.0141 20.9645C83.1641 22.6645 82.5341 23.2945 82.1041 25.6245C78.5041 25.6245 71.7141 24.9845 62.1741 27.5345C52.6341 30.0845 44.1541 28.3845 30.3741 26.8945V26.9045Z" fill="white"/>
<path opacity="0.7" d="M53.4941 3.32459C52.1241 3.02459 49.1341 2.69459 45.5341 2.45459C44.7241 3.26459 43.9141 4.07459 43.1041 4.88459C43.5641 7.20459 44.1041 9.58459 44.7341 12.0746L53.4841 3.32459H53.4941Z" fill="white"/>
<path opacity="0.7" d="M58.7441 6.5444C57.4541 5.6544 56.2541 4.8444 55.3741 4.2644L47.1241 12.5144C48.9641 12.5544 50.8241 12.5944 52.6541 12.6344C54.6841 10.6044 56.7141 8.5744 58.7441 6.5444Z" fill="white"/>
<path opacity="0.7" d="M21.9041 11.6045C22.5641 11.6645 23.5141 11.7345 24.6641 11.7945L34.3441 2.12451C29.8941 2.18451 26.9341 2.54451 26.2841 3.14451C24.8341 4.45451 21.3741 10.4545 21.8441 11.6045C21.8541 11.6045 21.8741 11.6045 21.9141 11.6145L21.9041 11.6045Z" fill="white"/>
<path opacity="0.7" d="M38.3541 2.1345C38.1141 2.1345 37.8741 2.1345 37.6341 2.1245C36.9641 2.1145 36.3241 2.1145 35.6941 2.1145C32.4441 5.3645 29.1941 8.6145 25.9441 11.8645C26.7441 11.9045 27.6041 11.9445 28.5141 11.9745L38.3541 2.1345Z" fill="white"/>
<path opacity="0.7" d="M35.7641 12.2246C38.6241 12.3146 41.4141 12.3846 43.6241 12.4446C43.0341 10.1946 42.5241 8.03455 42.0741 5.91455C39.9741 8.01455 37.8641 10.1246 35.7641 12.2246Z" fill="white"/>
<path d="M65.4841 12.7545C65.2441 13.9845 62.6641 14.5045 61.4441 14.2645C60.2241 14.0245 59.4341 12.8345 59.6741 11.6145C59.9141 10.3945 61.1041 9.59454 62.3141 9.83454C63.5341 10.0745 65.7141 11.5345 65.4741 12.7645L65.4841 12.7545Z" fill="#547C3E"/>
<g opacity="0.5">
<path d="M60.3641 10.8146C60.6041 11.4046 61.1241 11.8746 61.7941 12.0046C62.5541 12.1546 63.9141 11.9546 64.7041 11.4446C64.1241 10.7446 63.0541 10.1346 62.3541 9.99464C61.5641 9.83464 60.7941 10.1846 60.3641 10.8146Z" fill="white"/>
</g>
</g>
<defs>
<clipPath id="clip0_60_5550">
<rect width="112.32" height="36.6" fill="white" transform="translate(0.374115 0.334473)"/>
</clipPath>
</defs>
</svg>
