<svg width="120" height="43" viewBox="0 0 120 43" fill="none" xmlns="http://www.w3.org/2000/svg">
<g clip-path="url(#clip0_60_5213)">
<path d="M118.1 35.3143C117.72 35.1943 117.77 34.1043 117.81 32.4243C118.97 32.8843 117.38 24.1243 116.37 21.6843C115.53 19.6743 112.54 15.1043 83.9701 14.1943C73.5701 8.08434 61.2101 0.124342 47.4901 0.614342C27.2001 1.33434 19.6401 5.26434 14.3101 8.35434C8.91008 11.4943 6.88008 15.6343 6.55008 16.9543C4.50008 17.1943 3.02008 19.7343 2.66008 23.0243C1.99008 23.5043 2.12008 28.0343 2.12008 28.0343C0.230078 28.0343 0.730078 33.3943 1.11008 34.3843C1.93008 36.5243 6.03008 36.9243 13.4301 37.5743C20.8301 38.2243 71.7401 37.8343 84.6001 37.4443C97.4601 37.0543 124.45 37.3943 118.09 35.3143H118.1Z" fill="#E3E3E3"/>
<path d="M21.2401 21.4644C27.3401 21.4644 32.2801 26.4044 32.2801 32.5044C32.2801 32.8544 32.3501 35.1644 32.4201 37.9144C23.2601 37.8944 15.9201 37.7944 13.4501 37.5744C12.2801 37.4744 11.1801 37.3544 10.1501 37.2244C10.1701 34.8644 10.2001 32.9444 10.2001 32.5044C10.2001 26.4044 15.1401 21.4644 21.2401 21.4644Z" fill="#191919"/>
<path d="M91.8801 21.4644C97.9801 21.4644 102.92 26.4044 102.92 32.5044C102.92 32.8144 102.94 34.8944 103.01 37.2244C97.1601 37.4044 90.4801 37.2644 84.6101 37.4444C83.5701 37.4744 82.2801 37.5044 80.7901 37.5344C80.8101 35.0444 80.8501 32.9644 80.8501 32.5044C80.8501 26.4044 85.7901 21.4644 91.8901 21.4644H91.8801Z" fill="#191919"/>
<path d="M101.345 33.8307C101.982 28.6672 98.3119 23.9653 93.1485 23.3286C87.9851 22.6918 83.2832 26.3614 82.6464 31.5248C82.0097 36.6883 85.6793 41.3902 90.8427 42.0269C96.0061 42.6637 100.708 38.9941 101.345 33.8307Z" fill="#070000"/>
<path d="M84.7201 32.6843C84.7201 36.7043 87.9801 39.9543 91.9901 39.9543C96.0001 39.9543 99.2601 36.6943 99.2601 32.6843C99.2601 28.6743 96.0001 25.4143 91.9901 25.4143C87.9801 25.4143 84.7201 28.6743 84.7201 32.6843ZM86.0601 34.8843L86.9801 34.7343L86.2201 35.2843C86.1601 35.1543 86.1101 35.0143 86.0601 34.8843ZM85.7701 33.8743C85.7001 33.4843 85.6501 33.0943 85.6501 32.6843C85.6501 32.2743 85.6901 31.9043 85.7601 31.5243L88.8501 32.0143L89.7901 32.6943L88.8501 33.3743L85.7601 33.8643L85.7701 33.8743ZM97.7301 35.3743L96.8601 34.7443L97.9301 34.9143C97.8701 35.0743 97.8101 35.2243 97.7301 35.3743ZM94.9801 33.3743L94.0401 32.6943L94.9801 32.0143L98.2301 31.4943C98.3001 31.8743 98.3401 32.2743 98.3401 32.6843C98.3401 33.0943 98.3001 33.5043 98.2201 33.8943L94.9801 33.3743ZM97.9401 30.4743L96.8601 30.6443L97.7401 30.0043C97.8101 30.1543 97.8801 30.3143 97.9401 30.4743ZM86.2101 30.0943L86.9801 30.6543L86.0501 30.5043C86.1001 30.3643 86.1501 30.2343 86.2101 30.0943ZM88.3801 27.4843L90.2401 30.0543L90.4201 31.2043L89.2701 31.0243L86.7201 29.1743C87.1601 28.5143 87.7201 27.9443 88.3701 27.4943L88.3801 27.4843ZM89.2901 26.9543C89.4301 26.8843 89.5701 26.8243 89.7101 26.7743L89.8701 27.7643L89.2901 26.9643V26.9543ZM92.0001 26.3443C92.3801 26.3443 92.7501 26.3843 93.1101 26.4443L92.6001 29.6343L91.9201 30.5743L91.2401 29.6343L90.7401 26.4643C91.1501 26.3843 91.5701 26.3343 92.0101 26.3343L92.0001 26.3443ZM94.1301 26.7143C94.2801 26.7743 94.4401 26.8243 94.5901 26.8943L93.9701 27.7543L94.1401 26.7143H94.1301ZM97.2201 29.0843L94.5601 31.0143L93.4101 31.1943L93.5901 30.0443L95.5101 27.4043C96.1801 27.8543 96.7601 28.4243 97.2101 29.0843H97.2201ZM95.5001 37.9643L93.6001 35.3443L93.4201 34.1943L94.5701 34.3743L97.2101 36.2943C96.7501 36.9543 96.1701 37.5243 95.5101 37.9643H95.5001ZM94.5701 38.4743C94.4201 38.5343 94.2701 38.5943 94.1201 38.6543L93.9601 37.6443L94.5701 38.4843V38.4743ZM92.0001 39.0243C91.5701 39.0243 91.1501 38.9843 90.7401 38.8943L91.2401 35.7543L91.9201 34.8143L92.6001 35.7543L93.1001 38.9243C92.7401 38.9843 92.3701 39.0243 91.9901 39.0243H92.0001ZM89.7201 38.5943C89.5801 38.5443 89.4401 38.4843 89.3101 38.4143L89.8801 37.6343L89.7301 38.5943H89.7201ZM86.7301 36.2143L89.2701 34.3743L90.4201 34.1943L90.2401 35.3443L88.3901 37.8943C87.7401 37.4443 87.1801 36.8743 86.7401 36.2243L86.7301 36.2143Z" fill="#757575"/>
<path d="M90.3201 37.6744L89.5301 37.3444L90.6101 35.8444L90.3201 37.6644V37.6744ZM93.5101 37.6744L93.2201 35.8544L94.3001 37.3544L93.5101 37.6844V37.6744ZM90.8601 35.2444L91.1401 33.4644L89.3601 33.7444L90.8201 32.6844L89.3601 31.6244L91.1401 31.9044L90.8601 30.1244L91.9201 31.5844L92.9801 30.1244L92.7001 31.9044L94.4801 31.6244L93.0201 32.6844L94.4801 33.7444L92.7001 33.4644L92.9801 35.2444L91.9201 33.7844L90.8601 35.2444ZM87.2701 35.0844L86.9401 34.2944L88.7601 34.0044L87.2601 35.0844H87.2701ZM96.5601 35.0844L95.0701 34.0044L96.8901 34.2944L96.5601 35.0844ZM95.0701 31.3944L96.5701 30.3144L96.9001 31.1044L95.0801 31.3944H95.0701ZM88.7701 31.3944L86.9501 31.1044L87.2801 30.3144L88.7701 31.3944ZM90.6101 29.5444L89.5301 28.0444L90.3201 27.7144L90.6101 29.5344V29.5444ZM93.2201 29.5444L93.5101 27.7244L94.3001 28.0544L93.2201 29.5544V29.5444Z" fill="#999999"/>
<path d="M92.0001 24.6043C87.1601 24.6043 83.2201 28.4043 82.9701 33.1743C82.9701 33.0143 82.9501 32.8543 82.9501 32.6843C82.9501 27.6843 87.0001 23.6243 92.0101 23.6243C97.0201 23.6243 101.07 27.6743 101.07 32.6843C101.07 32.8443 101.05 33.0143 101.05 33.1743C100.8 28.4043 96.8601 24.6043 92.0201 24.6043H92.0001Z" fill="#262626"/>
<path d="M92.0001 39.9942C95.9101 39.9942 99.1001 36.9242 99.3101 33.0642C99.3101 33.1942 99.3301 33.3242 99.3301 33.4542C99.3301 37.5042 96.0501 40.7842 92.0001 40.7842C87.9501 40.7842 84.6701 37.5042 84.6701 33.4542C84.6701 33.3242 84.6801 33.1942 84.6901 33.0642C84.9001 36.9242 88.0801 39.9942 92.0001 39.9942Z" fill="#262626"/>
<path d="M11.4101 32.6844C11.4101 37.8844 15.6301 42.1044 20.8301 42.1044C26.0301 42.1044 30.2501 37.8844 30.2501 32.6844C30.2501 27.4844 26.0301 23.2644 20.8301 23.2644C15.6301 23.2644 11.4101 27.4844 11.4101 32.6844Z" fill="#070000"/>
<path d="M13.5601 32.6843C13.5601 36.7043 16.8201 39.9543 20.8301 39.9543C24.8401 39.9543 28.1001 36.6943 28.1001 32.6843C28.1001 28.6743 24.8401 25.4143 20.8301 25.4143C16.8201 25.4143 13.5601 28.6743 13.5601 32.6843ZM14.8901 34.8843L15.8101 34.7343L15.0501 35.2843C14.9901 35.1543 14.9401 35.0143 14.8901 34.8843ZM14.6101 33.8743C14.5401 33.4843 14.4901 33.0943 14.4901 32.6843C14.4901 32.2743 14.5301 31.9043 14.6001 31.5243L17.6901 32.0143L18.6301 32.6943L17.6901 33.3743L14.6001 33.8643L14.6101 33.8743ZM26.5601 35.3743L25.6901 34.7443L26.7601 34.9143C26.7001 35.0743 26.6401 35.2243 26.5601 35.3743ZM23.8101 33.3743L22.8701 32.6943L23.8101 32.0143L27.0601 31.4943C27.1301 31.8743 27.1701 32.2743 27.1701 32.6843C27.1701 33.0943 27.1301 33.5043 27.0501 33.8943L23.8101 33.3743ZM26.7701 30.4743L25.6901 30.6443L26.5701 30.0043C26.6401 30.1543 26.7101 30.3143 26.7701 30.4743ZM15.0501 30.0943L15.8201 30.6543L14.8901 30.5043C14.9401 30.3643 14.9901 30.2343 15.0501 30.0943ZM17.2101 27.4843L19.0701 30.0543L19.2501 31.2043L18.1001 31.0243L15.5501 29.1743C15.9901 28.5143 16.5501 27.9443 17.2001 27.4943L17.2101 27.4843ZM18.1201 26.9543C18.2601 26.8843 18.4001 26.8243 18.5401 26.7743L18.7001 27.7643L18.1201 26.9643V26.9543ZM20.8301 26.3443C21.2101 26.3443 21.5801 26.3843 21.9401 26.4443L21.4301 29.6343L20.7501 30.5743L20.0701 29.6343L19.5701 26.4643C19.9801 26.3843 20.4001 26.3343 20.8401 26.3343L20.8301 26.3443ZM22.9601 26.7143C23.1101 26.7743 23.2701 26.8243 23.4201 26.8943L22.8001 27.7543L22.9701 26.7143H22.9601ZM26.0501 29.0843L23.3901 31.0143L22.2401 31.1943L22.4201 30.0443L24.3401 27.4043C25.0101 27.8543 25.5901 28.4243 26.0401 29.0843H26.0501ZM24.3301 37.9643L22.4301 35.3443L22.2501 34.1943L23.4001 34.3743L26.0401 36.2943C25.5801 36.9543 25.0001 37.5243 24.3401 37.9643H24.3301ZM23.4101 38.4743C23.2601 38.5343 23.1101 38.5943 22.9601 38.6543L22.8001 37.6443L23.4101 38.4843V38.4743ZM20.8301 39.0243C20.4001 39.0243 19.9801 38.9843 19.5701 38.8943L20.0701 35.7543L20.7501 34.8143L21.4301 35.7543L21.9301 38.9243C21.5701 38.9843 21.2001 39.0243 20.8201 39.0243H20.8301ZM18.5501 38.5943C18.4101 38.5443 18.2701 38.4843 18.1401 38.4143L18.7101 37.6343L18.5601 38.5943H18.5501ZM15.5701 36.2143L18.1101 34.3743L19.2601 34.1943L19.0801 35.3443L17.2301 37.8943C16.5801 37.4443 16.0201 36.8743 15.5801 36.2243L15.5701 36.2143Z" fill="#757575"/>
<path d="M19.1601 37.6744L18.3701 37.3444L19.4501 35.8444L19.1601 37.6644V37.6744ZM22.3501 37.6744L22.0601 35.8544L23.1401 37.3544L22.3501 37.6844V37.6744ZM19.6901 35.2444L19.9701 33.4644L18.1901 33.7444L19.6501 32.6844L18.1901 31.6244L19.9701 31.9044L19.6901 30.1244L20.7501 31.5844L21.8101 30.1244L21.5301 31.9044L23.3101 31.6244L21.8501 32.6844L23.3101 33.7444L21.5301 33.4644L21.8101 35.2444L20.7501 33.7844L19.6901 35.2444ZM16.1101 35.0844L15.7801 34.2944L17.6001 34.0044L16.1001 35.0844H16.1101ZM25.4001 35.0844L23.9001 34.0044L25.7201 34.2944L25.3901 35.0844H25.4001ZM23.9001 31.3944L25.4001 30.3144L25.7301 31.1044L23.9101 31.3944H23.9001ZM17.6001 31.3944L15.7801 31.1044L16.1101 30.3144L17.6101 31.3944H17.6001ZM19.4501 29.5444L18.3701 28.0444L19.1601 27.7144L19.4501 29.5344V29.5444ZM22.0601 29.5444L22.3501 27.7244L23.1401 28.0544L22.0601 29.5544V29.5444Z" fill="#999999"/>
<path d="M20.8301 24.6045C15.9901 24.6045 12.0501 28.4045 11.8001 33.1745C11.8001 33.0145 11.7801 32.8545 11.7801 32.6845C11.7801 27.6845 15.8301 23.6245 20.8401 23.6245C25.8501 23.6245 29.9001 27.6745 29.9001 32.6845C29.9001 32.8445 29.8801 33.0145 29.8801 33.1745C29.6301 28.4045 25.6901 24.6045 20.8501 24.6045H20.8301Z" fill="#262626"/>
<path d="M20.8301 39.9945C24.7401 39.9945 27.9301 36.9245 28.1401 33.0645C28.1401 33.1945 28.1601 33.3245 28.1601 33.4545C28.1601 37.5045 24.8801 40.7845 20.8301 40.7845C16.7801 40.7845 13.5001 37.5045 13.5001 33.4545C13.5001 33.3245 13.5101 33.1945 13.5201 33.0645C13.7301 36.9245 16.9101 39.9945 20.8301 39.9945Z" fill="#262626"/>
<path d="M114.48 25.9843C113.65 22.2343 110.42 20.4143 104.58 20.4143C102.95 20.4143 101.35 20.5543 100.06 20.6543L99.6701 20.6843L99.6401 20.9343C102.93 21.9443 105.52 25.9043 105.54 25.9443L105.58 26.0043H105.65C105.65 26.0043 107.1 25.9743 108.88 25.9743C110.52 25.9743 112.8 26.0043 114.34 26.1343L114.52 26.1543L114.48 25.9843Z" fill="#191919"/>
<path d="M114.35 26.0142C111.36 25.7542 105.65 25.8842 105.65 25.8842C105.65 25.8842 103.05 21.8542 99.6801 20.8242C104.36 20.4342 112.93 19.5242 114.35 26.0142Z" fill="white"/>
<path d="M108.72 25.8443C107.05 24.0543 105.32 22.3143 103.62 20.5543C104.3 20.5343 105 20.5343 105.69 20.5543C107.6 22.2143 109.42 23.9943 111.13 25.8543C110.31 25.8343 109.47 25.8343 108.72 25.8343V25.8443Z" fill="#C3EAE8"/>
<path d="M106.9 20.6443C110.35 20.9843 113.53 22.2743 114.35 26.0043C113.71 25.9443 112.95 25.9143 112.14 25.8843C110.49 24.0443 108.74 22.2843 106.9 20.6443Z" fill="#C3EAE8"/>
<path d="M114.03 25.0743C114.03 25.0743 114.06 25.0743 114.07 25.0743C114.18 25.3643 114.28 25.6743 114.35 26.0143C111.36 25.7543 105.65 25.8843 105.65 25.8843C105.65 25.8843 103.05 21.8543 99.6801 20.8243C100.41 20.7643 101.24 20.6843 102.13 20.6343C105.76 22.8543 109.86 24.2643 114.04 25.0843L114.03 25.0743Z" fill="#FFF48D"/>
<path d="M110.48 32.4243H117.81C117.91 33.3843 118 34.3543 118.1 35.3143L109.21 35.6843C108.84 35.7043 108.75 35.3643 109 34.9343L110.48 32.4243Z" fill="#2B2B2B"/>
<path d="M24.4401 14.4043C22.9601 14.4043 21.3101 14.4043 21.2601 14.4043C15.7401 14.4043 16.6501 3.48432 48.4901 2.10432C58.6101 1.66432 75.7901 12.9543 77.4601 13.9043C77.5001 13.9243 77.4601 14.0043 77.4601 14.0543L24.4501 14.4143L24.4401 14.4043Z" fill="#757575"/>
<path d="M21.2701 14.0044C19.9701 14.0044 19.1101 13.3444 19.0901 12.3344C19.0401 9.96439 24.2201 3.57439 48.5201 2.51439C48.7101 2.51439 48.9001 2.50439 49.0901 2.50439C55.0801 2.50439 64.2401 6.26439 76.2901 13.6644L24.4501 14.0144H21.2701V14.0044Z" fill="#2B2B2B"/>
<path d="M71.1401 10.6344C61.6001 5.23439 54.1901 2.49438 49.0801 2.49438C48.8901 2.49438 48.7001 2.49438 48.5101 2.50438C47.1301 2.56438 45.8201 2.64438 44.5501 2.73438C46.1001 6.46438 47.9301 10.0744 49.4001 13.8344L70.0401 13.6944C70.4201 12.6744 70.7901 11.6544 71.1401 10.6244V10.6344Z" fill="#80C2DC"/>
<path d="M26.1001 13.9942L48.2301 13.8442C46.7501 10.1242 44.9201 6.54423 43.4101 2.83423C34.1001 3.61423 28.1701 5.25423 24.4901 7.01423C25.0001 9.34423 25.5501 11.6742 26.0901 13.9942H26.1001Z" fill="#80C2DC"/>
<path d="M58.4201 1.89429C66.0201 3.62429 77.6701 10.4643 84.0401 14.1943L81.3301 14.1543C72.7001 7.76429 57.5801 2.49429 58.4201 1.89429Z" fill="#80C2DC"/>
<path d="M77.4701 13.9944L77.3801 14.0644C78.8201 17.1844 78.8201 18.3144 78.6201 24.5844C78.5801 25.8844 78.5701 27.1144 78.5601 28.2944C78.5301 32.7344 78.5201 35.9444 76.6601 35.9444H57.7701C55.6501 35.9444 53.6701 33.8244 51.8901 29.6444C50.3501 26.0144 49.4601 21.9844 49.2301 20.8344C48.8201 18.8344 48.3501 15.6444 48.7701 14.2444H48.6601C48.2601 15.7144 48.7201 18.8644 49.1301 20.8644C49.3601 22.0144 50.2501 26.0644 51.8001 29.7044C53.6001 33.9244 55.6101 36.0744 57.7701 36.0744H76.6601C78.6201 36.0744 78.6401 32.8144 78.6601 28.2944C78.6601 27.1044 78.6701 25.8744 78.7201 24.5844C78.9201 18.2844 78.9201 17.1544 77.4601 13.9944H77.4701Z" fill="#231F20"/>
<path d="M6.95007 16.9243L16.4301 20.5643L10.7201 24.2043L2.67007 23.0343C2.67007 23.0343 3.06007 17.0643 6.96007 16.9343L6.95007 16.9243Z" fill="#BE5041"/>
<path d="M5.32007 21.0643C4.56007 21.0443 3.79007 21.0243 3.04007 20.9743C3.44007 19.5343 4.24007 17.7643 5.84007 17.1443C7.13007 18.5143 8.38007 19.9343 9.55007 21.4143C8.14007 21.2643 6.74007 21.1143 5.33007 21.0643H5.32007Z" fill="#711814"/>
<path d="M5.66006 21.7943C7.16006 21.8843 8.66006 22.0443 10.1501 22.1943C10.5501 22.7243 10.9401 23.2543 11.3201 23.7943L10.7101 24.1843L2.66006 23.0143C2.66006 23.0143 2.70006 22.4543 2.86006 21.6643C3.79006 21.7243 4.72006 21.7343 5.66006 21.7843V21.7943Z" fill="#D77C7B"/>
<path d="M15.2601 20.2943L6.55008 16.9543C6.68008 16.9343 6.81008 16.9243 6.95008 16.9143L16.4301 20.5543L11.2501 23.8543L15.2601 20.2943Z" fill="#1C171D"/>
<g opacity="0.5">
<path d="M105.11 18.5244C105.11 18.5244 47.6501 17.0244 22.9301 20.0444C15.0201 18.3344 15.9001 17.6444 9.23007 17.1344C65.9101 11.0344 105.11 18.5144 105.11 18.5144V18.5244Z" fill="white"/>
</g>
<g opacity="0.5">
<path d="M90.6901 19.3944C95.4401 19.0644 104.77 21.4244 107.84 30.8344L103.05 29.9044C99.9001 21.4644 94.3801 21.1244 90.8601 21.3644C85.3201 21.7444 81.5501 26.2744 80.8301 30.7844C80.4001 25.1644 85.1501 19.7744 90.6901 19.3844V19.3944Z" fill="white"/>
</g>
<g opacity="0.5">
<path d="M80.0601 32.8944L32.6601 29.7744L46.3001 33.4544L80.0601 32.8944Z" fill="white"/>
</g>
<g opacity="0.5">
<path d="M110.45 32.0742L103.01 30.5942L103.25 32.7742L110.45 32.0742Z" fill="white"/>
</g>
<g opacity="0.5">
<path d="M118.1 35.3145L103 35.7045L106.82 36.6545L118.91 35.6745L118.1 35.3145Z" fill="white"/>
</g>
<g opacity="0.5">
<path d="M117.59 31.7344L109.77 31.7144L111.58 32.3344L118.13 32.1244L117.59 31.7344Z" fill="white"/>
</g>
<path d="M50.2901 17.1444C50.2901 17.5044 51.4901 17.8044 52.9801 17.8044C54.4701 17.8044 55.6701 17.5144 55.6701 17.1444C55.6701 16.7744 54.4701 16.4844 52.9801 16.4844C51.4901 16.4844 50.2901 16.7744 50.2901 17.1444Z" fill="#231F20"/>
<path d="M50.6101 17.0045C50.6101 17.2445 51.6701 17.4445 52.9801 17.4445C54.2901 17.4445 55.3501 17.2445 55.3501 17.0045C55.3501 16.7645 54.2901 16.5645 52.9801 16.5645C51.6701 16.5645 50.6101 16.7645 50.6101 17.0045Z" fill="#757575"/>
<path d="M24.5901 17.1444C24.5901 17.5044 25.7901 17.8044 27.2801 17.8044C28.7701 17.8044 29.9701 17.5144 29.9701 17.1444C29.9701 16.7744 28.7701 16.4844 27.2801 16.4844C25.7901 16.4844 24.5901 16.7744 24.5901 17.1444Z" fill="#231F20"/>
<path d="M24.9101 17.0045C24.9101 17.2445 25.9701 17.4445 27.2801 17.4445C28.5901 17.4445 29.6501 17.2445 29.6501 17.0045C29.6501 16.7645 28.5901 16.5645 27.2801 16.5645C25.9701 16.5645 24.9101 16.7645 24.9101 17.0045Z" fill="#757575"/>
<path d="M78.7201 15.0944C78.4501 16.4444 75.6201 17.0244 74.2801 16.7544C72.9401 16.4944 72.0701 15.1844 72.3301 13.8344C72.6001 12.4844 73.9001 11.6044 75.2401 11.8744C76.5801 12.1344 78.9901 13.7444 78.7201 15.0944Z" fill="#200000"/>
<g opacity="0.5">
<path d="M73.0901 12.9645C73.3501 13.6145 73.9201 14.1345 74.6601 14.2745C75.5001 14.4345 77.0001 14.2245 77.8601 13.6545C77.2201 12.8745 76.0501 12.2145 75.2701 12.0545C74.4001 11.8845 73.5501 12.2645 73.0801 12.9545L73.0901 12.9645Z" fill="white"/>
</g>
<g opacity="0.5">
<path d="M10.2401 29.0943C10.2401 29.0943 4.07006 28.3343 2.69006 28.2143C1.31006 28.0943 1.05006 29.8543 1.18006 32.3043C1.68006 30.9843 2.38006 28.8443 10.2401 29.0943Z" fill="white"/>
</g>
<path d="M58.6701 36.0744H34.9301C34.7501 36.0744 34.7401 35.7244 34.7201 34.8844C34.6701 33.1844 34.5901 30.0244 32.9301 26.9644C31.0201 23.4244 27.9901 22.1744 26.1801 21.4244C25.8501 21.2844 25.5701 21.1744 25.3301 21.0544C24.4901 20.6444 23.2801 17.6244 23.6901 15.8244C23.9001 14.8944 24.3501 14.0044 26.0801 13.9644L26.1701 14.3744C24.4501 14.3744 23.9901 14.9644 23.7901 15.8444C23.3901 17.6144 24.5601 20.5644 25.3801 20.9544C25.6101 21.0644 25.9001 21.1844 26.2301 21.3144C28.0501 22.0644 31.0901 23.3244 33.0201 26.8944C34.6801 29.9744 34.7701 33.1444 34.8201 34.8544C34.8301 35.3444 34.8501 35.9444 34.9301 35.9444H58.6701V36.0444V36.0744Z" fill="#231F20"/>
<path d="M27.2601 3.07422C21.0001 4.62422 17.3001 6.62422 14.3101 8.36422C12.2101 9.58422 10.6201 10.9642 9.44007 12.2642C8.44007 13.3642 15.5301 7.02422 27.2601 3.08422V3.07422Z" fill="#80C2DC"/>
<path d="M117.44 30.6042C117.55 30.9942 117.86 31.3242 118.2 31.4642C118.26 29.3242 117.26 24.1742 116.49 22.0342H115.87C115.42 22.0342 115.17 22.4442 115.31 22.9642L117.44 30.6142V30.6042Z" fill="#2B2B2B"/>
<path opacity="0.7" d="M30.8301 4.81432L25.2501 10.3943C25.4501 11.2743 25.6501 12.1443 25.8601 13.0243L34.9601 3.92432C33.4501 4.19432 32.0801 4.49432 30.8301 4.81432Z" fill="white"/>
<path opacity="0.7" d="M35.4901 13.9342H37.3301C39.8601 11.3942 42.3901 8.8642 44.9201 6.3342C44.7301 5.9142 44.5501 5.4842 44.3701 5.0542L35.4901 13.9342Z" fill="white"/>
<path opacity="0.7" d="M41.4601 3.02417C40.5201 3.12417 39.6001 3.22417 38.7301 3.33417C35.1801 6.88417 31.6301 10.4342 28.0801 13.9842L30.5101 13.9642C34.1601 10.3142 37.8101 6.66417 41.4501 3.02417H41.4601Z" fill="white"/>
<path opacity="0.7" d="M46.6701 10.2243C46.2501 9.27429 45.8301 8.33429 45.4101 7.39429L38.8901 13.9143L43.0101 13.8843L46.6701 10.2243Z" fill="white"/>
<path opacity="0.7" d="M48.5101 2.51416C47.9301 2.53416 47.3801 2.57416 46.8301 2.60416L45.2001 4.23416C45.3801 4.66416 45.5601 5.08416 45.7501 5.51416L48.7501 2.51416C48.6701 2.51416 48.5901 2.51416 48.5101 2.51416Z" fill="white"/>
<path opacity="0.7" d="M53.7601 3.13419C52.5001 2.83419 51.3201 2.62419 50.2501 2.54419L46.2301 6.56419C46.6601 7.50419 47.0801 8.44419 47.5001 9.38419L53.7501 3.13419H53.7601Z" fill="white"/>
<path opacity="0.7" d="M53.8901 13.8042C56.5201 11.1742 59.1601 8.53423 61.7901 5.90423C59.8501 5.05423 58.0301 4.36423 56.3401 3.83423L48.5101 11.6642C48.8201 12.3842 49.1201 13.1042 49.4001 13.8342L53.8901 13.8042Z" fill="white"/>
<path opacity="0.7" d="M68.5101 9.1843C67.6701 8.7343 66.8401 8.3043 66.0301 7.9043L60.1701 13.7643L63.9601 13.7343L68.5201 9.1743L68.5101 9.1843Z" fill="white"/>
<path opacity="0.7" d="M70.2701 10.1541C70.0201 10.0141 69.7601 9.87413 69.5001 9.73413L65.5001 13.7341H66.7001L70.2701 10.1541Z" fill="white"/>
</g>
<defs>
<clipPath id="clip0_60_5213">
<rect width="118.29" height="41.5" fill="white" transform="translate(0.760071 0.594238)"/>
</clipPath>
</defs>
</svg>
