<svg width="125" height="50" viewBox="0 0 125 50" fill="none" xmlns="http://www.w3.org/2000/svg">
<g clip-path="url(#clip0_60_4572)">
<path d="M113.286 45.7345C112.709 42.1941 113.12 36.689 114.08 33.9875L111.034 34.3739C111.034 34.3739 112.218 41.4905 111.511 43.7698C110.802 46.0491 111.465 46.6451 111.564 46.6451C111.663 46.6451 113.289 45.7345 113.289 45.7345H113.286Z" fill="#441F18"/>
<path d="M70.6855 20.5905C70.6635 19.7267 70.7297 18.7085 71.4195 18.9458C72.1122 19.1831 71.9825 21.0209 71.9825 21.0209L70.6855 20.5877V20.5905Z" fill="#33221F"/>
<path d="M76.9108 33.3143C72.2225 33.524 70.1309 32.6134 70.1309 26.664L71.1215 26.6199C71.1215 31.7359 72.4957 32.4947 76.9081 32.296V33.3115L76.9108 33.3143Z" fill="#33221F"/>
<path d="M66.058 25.988H64.6313L63.3482 37.8674H64.3278L66.058 25.988Z" fill="#33221F"/>
<path d="M23.5902 22.7871H22.1608L23.386 37.8674H24.3684L23.5902 22.7871Z" fill="#33221F"/>
<path d="M46.7805 37.8033L34.9626 37.9395L34.9114 33.4998L46.7293 33.3637L46.7805 37.8033Z" fill="#33221F"/>
<path d="M63.7649 38.5242L18.0962 38.5242V37.3818L63.7649 37.3818V38.5242Z" fill="#33221F"/>
<path d="M44.1039 45.8392V38.4495H44.7192V45.8392H44.1039Z" fill="#442233"/>
<path d="M37.3046 45.8392V38.4495H37.92V45.8392H37.3046Z" fill="#442233"/>
<path d="M44.6971 45.2598H37.3074V44.0318H44.6971V45.2598Z" fill="#442233"/>
<path d="M44.6971 42.6245H37.3074V41.8684H44.6971V42.6245Z" fill="#442233"/>
<path d="M61.033 26.3549V22.4751H60.1114L60.6081 26.3549H61.033Z" fill="#33221F"/>
<path d="M68.1579 26.3549V22.4751H67.388L67.9178 26.3549H68.1579Z" fill="#33221F"/>
<path d="M69.6949 25.974L51.8882 24.7185V26.686H69.6949V25.974Z" fill="#33221F"/>
<path d="M77.4517 34.4319L78.5251 31.2034L76.0168 31.2806L76.1244 34.901L77.4517 34.4319Z" fill="#33221F"/>
<path d="M71.6403 27.6133H69.5928C69.3337 27.6133 69.1237 27.4033 69.1237 27.1442V25.5741C69.1237 25.315 69.3337 25.105 69.5928 25.105H71.6403C71.8994 25.105 72.1094 25.315 72.1094 25.5741V27.1442C72.1094 27.4033 71.8994 27.6133 71.6403 27.6133Z" fill="#33221F"/>
<path d="M59.0076 17.4474H62.8101L61.6318 10.168C60.815 4.71261 58.1742 6.31308 58.1742 6.31308L59.0103 17.4474H59.0076Z" fill="#562F44"/>
<path d="M60.5612 13.1429C59.8409 10.4359 59.7471 7.95238 60.2079 6.58094C59.2256 5.67585 58.1715 6.31052 58.1715 6.31052L59.0076 17.4448H62.2941C61.6291 16.3273 61.0109 14.8289 60.5612 13.1401V13.1429Z" fill="#442233"/>
<path d="M58.3812 21.3934H68.2931C68.2931 21.3934 68.1248 18.3304 67.7219 17.4777C67.1259 16.2112 64.8493 15.6979 62.3382 15.5434L58.3784 15.3005V21.3906L58.3812 21.3934Z" fill="#562F44"/>
<path d="M66.1242 18.0629C63.3979 17.4282 61.32 16.2941 61.3448 15.4856L58.3784 15.3035V21.3935H68.2903C68.2903 21.3935 68.191 19.6137 67.9675 18.3885C67.3852 18.3195 66.7671 18.2119 66.1242 18.0629Z" fill="#442233"/>
<path d="M104.696 22.8037L117.822 11.3134C109.693 7.31219 104.869 15.7423 104.693 22.8037H104.696Z" fill="#441F18"/>
<path d="M81.1328 33.9463C80.4319 27.1084 75.4428 20.2843 81.5715 16.7053C86.9221 13.5789 88.0148 20.1242 89.0027 21.5398C89.9906 22.9554 88.8951 23.2976 88.0617 21.7827C87.2284 20.2677 85.0346 19.3847 83.9391 20.2208C82.2724 21.4902 85.868 29.1586 81.1328 33.9463Z" fill="#5E372C"/>
<path d="M81.1935 33.8965C81.2845 31.206 80.8927 29.5283 79.8248 26.0238C78.5389 21.7964 80.7409 19.1169 83.0727 18.4078C85.1836 17.7648 87.9293 19.1252 89.3835 22.5304C89.4138 22.3234 89.309 21.9812 88.9972 21.5342C88.0065 20.1186 87.2642 13.0958 81.3673 16.3934C74.7999 20.0634 80.4319 27.1138 81.1438 33.9517C81.1604 33.9351 81.1769 33.9158 81.1935 33.8992V33.8965Z" fill="#894D3F"/>
<path d="M118.645 12.6544L119.624 12.969C120.176 12.373 121.175 11.374 121.172 8.35522C119.034 9.44244 118.319 10.7063 118.645 12.6544Z" fill="#5E372C"/>
<path d="M89.767 21.5756C84.8221 24.6579 88.5833 31.4378 91.9332 35.0306C92.3637 36.3331 89.7808 37.0505 89.5684 37.7487C89.2096 38.9325 92.2561 41.6643 92.4906 48.4194L94.4526 46.2698C94.4526 46.2698 90.1837 39.672 93.4813 37.7404C95.4653 36.5787 97.292 34.3408 97.9847 30.9632C98.6524 27.7181 94.8996 18.3747 89.7643 21.5784L89.767 21.5756Z" fill="#441F18"/>
<path d="M92.4768 48.8223H96.489C96.489 48.8223 94.7478 45.3702 93.633 45.4999C92.2947 45.6572 92.4741 48.8223 92.4741 48.8223H92.4768Z" fill="#5E372C"/>
<path d="M111.398 36.954C110.507 34.5175 108.876 33.2012 108.94 31.9788C109.102 28.8468 114.494 24.2165 115.317 25.701C116.139 27.1856 113.493 37.023 112.875 37.3542C112.256 37.6825 111.655 37.6549 111.401 36.9568L111.398 36.954Z" fill="#562D22"/>
<path d="M111.249 48.8224H114.834C114.834 48.8224 113.402 44.8847 112.4 45.0337C111.2 45.213 111.249 48.8224 111.249 48.8224Z" fill="#562D22"/>
<path d="M88.4563 31.8022C91.3731 29.6084 100.675 37.2824 109.475 34.8652C116.106 33.0439 115.441 24.9091 114.693 22.1027C114.199 20.2484 107.254 18.4023 107.254 18.4023C107.254 18.4023 105.482 22.8036 100.162 21.7744C95.7854 20.9272 90.5149 18.7749 87.0131 21.4598C85.3823 22.7098 84.4386 29.7409 88.4536 31.7994L88.4563 31.8022Z" fill="#704436"/>
<path d="M107.254 18.4022C107.254 18.4022 105.482 22.8035 100.162 21.7742C96.5111 21.0678 92.234 19.4535 88.884 20.4993C89.9492 22.7538 93.2964 24.4012 97.2644 24.4012C101.967 24.4012 107.11 21.3658 107.372 18.4325C107.298 18.4132 107.254 18.3994 107.254 18.3994V18.4022Z" fill="#824E40"/>
<path d="M117.458 16.7079L115.924 11.0952C108.468 11.8403 106.969 20.8719 105.016 21.8377L113.931 31.3936C117.458 25 112.723 20.0441 117.458 16.7107V16.7079Z" fill="#704436"/>
<path d="M117.795 17.1661L116.525 14.0535C112.43 14.6578 115.689 22.5305 111.048 28.2673L113.931 31.391C117.458 24.9974 113.057 20.4995 117.795 17.1661Z" fill="#562D22"/>
<path d="M114.696 22.1028C110.471 35.6185 104.271 31.5042 97.5542 30.7315C91.1606 29.9975 86.257 26.4793 86.1936 22.7209C85.2057 25.1961 85.2002 30.1327 88.4591 31.8022C91.3758 29.6085 100.678 37.2825 109.478 34.8652C116.109 33.044 115.444 24.9091 114.696 22.1028Z" fill="#562D22"/>
<path d="M99.3368 31.6835L104.676 31.2282L103.694 21.6501L101.768 21.9095L101.152 30.0388L98.5779 30.6238L99.3368 31.6835Z" fill="#562D22"/>
<path d="M109.508 45.7428C109.411 42.208 110.568 36.7167 111.892 34.0208L108.793 34.4043C108.793 34.4043 109.014 41.5071 107.996 43.7809C106.98 46.0547 107.56 46.6507 107.656 46.6507C107.753 46.6507 109.503 45.7401 109.503 45.7401L109.508 45.7428Z" fill="#704436"/>
<path d="M107.684 45.0528C108.159 43.4661 108.981 42.2051 109.803 41.6504C110.22 38.7999 111.224 35.6955 112.099 33.9185L108.622 34.382C108.622 34.382 109.014 41.5097 107.996 43.7862C107.444 45.0197 107.364 45.7537 107.419 46.1731C107.48 45.8089 107.565 45.4364 107.679 45.0555L107.684 45.0528Z" fill="#562D22"/>
<path d="M108.81 36.9788C108.25 34.5449 106.796 33.2342 107.025 32.0145C107.61 28.8908 112.436 23.0436 113.048 24.5254C115.057 29.3903 110.893 37.045 110.231 37.3761C109.569 37.7045 108.97 37.6741 108.81 36.9788Z" fill="#704436"/>
<path d="M113.217 24.4373C113.217 24.4373 113.035 24.509 113.029 24.5007C113.164 25.3175 113.236 26.2005 113.236 27.1194C113.236 31.3579 111.677 34.7962 109.754 34.7962C108.655 34.7962 107.676 33.6731 107.038 31.9236C107.033 31.954 106.911 32.0864 106.906 32.114C106.677 33.3337 108.244 34.5451 108.804 36.9789C108.964 37.6743 109.563 37.7046 110.226 37.3763C110.888 37.0479 115.289 29.7381 113.214 24.44L113.217 24.4373Z" fill="#562D22"/>
<path d="M107.052 48.8224H110.637C110.637 48.8224 109.737 44.893 108.716 45.042C107.491 45.2213 107.052 48.8224 107.052 48.8224Z" fill="#8E5749"/>
<path d="M87.4905 21.0264C82.3386 24.1087 85.2581 31.435 88.368 35.0305C88.7102 36.333 86.0804 37.0505 85.8211 37.7486C85.3823 38.9324 88.2466 41.6642 88.0258 48.4193L90.1313 46.2697C90.1313 46.2697 86.3067 39.6719 89.7339 37.7403C91.7952 36.5786 93.771 34.3407 94.6927 30.9631C95.5784 27.718 92.8383 17.8282 87.4878 21.0292L87.4905 21.0264Z" fill="#704436"/>
<path d="M94.4195 26.2749C94.8223 30.4886 93.324 34.0565 90.8901 34.4291C88.2963 34.8292 85.6251 31.4489 84.9215 26.8792C84.8304 26.2804 84.7752 25.6899 84.7587 25.116C84.2675 28.488 86.039 32.5665 88.1362 34.9892C88.4784 36.2917 86.0832 37.0478 85.8238 37.7459C85.6362 38.2537 86.0556 39.0484 86.5799 40.3232C87.129 39.3629 87.8658 38.7724 88.6771 38.7724C88.6881 38.7724 88.6964 38.7724 88.7074 38.7752C88.9337 38.3613 89.2648 38.0025 89.7367 37.7349C91.798 36.5732 93.9835 34.3794 94.9024 31.0018C95.1949 29.9284 94.8831 28.0851 94.4195 26.2722V26.2749Z" fill="#562D22"/>
<path d="M87.9845 48.8223H91.9967C91.9967 48.8223 90.49 45.3702 89.3642 45.4999C88.0148 45.6572 87.9817 48.8223 87.9817 48.8223H87.9845Z" fill="#8E5749"/>
<path d="M76.5383 31.9015L103.443 29.6719L104.036 30.4335L76.6818 33.6041L76.5383 31.9015Z" fill="#33221F"/>
<path d="M103.666 22.1524L103.062 22.4118C103.062 22.4118 104.61 30.3617 107.35 35.2597L108.153 35.1742C106.826 32.3485 103.666 22.1497 103.666 22.1497V22.1524Z" fill="#33221F"/>
<path d="M101.815 30.4775C101.815 30.3616 101.779 23.8355 101.765 21.8018C101.765 21.4596 102.027 21.1754 102.375 21.134L102.924 21.0705C103.327 21.0236 103.683 21.3217 103.697 21.7135L104.031 30.4333L101.812 30.4775H101.815Z" fill="#33221F"/>
<path d="M117.679 19.5804C114.98 19.3817 112.968 16.5864 112.924 13.965C112.897 12.2651 113.799 11.3987 116.012 11.0924C117.811 10.844 120.518 11.7822 121.078 13.758C121.639 15.731 121.363 16.6085 121.694 17.4308C122.022 18.2531 123.592 19.7984 123.592 20.5545C123.592 21.3106 122.475 22.8531 121.586 23.1125C120.598 23.3967 119.05 22.5468 118.932 21.7742C118.777 20.7642 117.682 19.5804 117.682 19.5804H117.679Z" fill="#704436"/>
<path d="M115.537 11.2029C117.419 10.9491 120.121 11.9783 120.706 13.9955C121.291 16.0126 121.131 16.8377 121.476 17.6766C121.821 18.5154 123.46 20.0938 123.46 20.8665C123.46 20.9906 123.427 21.1369 123.371 21.2942C123.507 21.0182 123.589 20.7589 123.589 20.5547C123.589 19.7986 122.022 18.2533 121.691 17.431C121.363 16.6087 121.636 15.7312 121.076 13.7582C120.515 11.7852 117.808 10.8442 116.009 11.0925C115.681 11.1367 115.386 11.1974 115.112 11.2691C115.248 11.2443 115.388 11.2222 115.535 11.2029H115.537Z" fill="#5E372C"/>
<path d="M120.767 17.0281C121.2 17.3123 121.647 17.6711 122.083 18.0988C121.909 17.8504 121.765 17.6214 121.691 17.431C121.363 16.6087 121.636 15.7312 121.076 13.7582C120.929 13.2394 120.631 12.7951 120.245 12.4226C120.259 12.4419 120.273 12.4612 120.286 12.4833C121.238 13.9679 121.368 15.7063 120.767 17.0281Z" fill="#5E372C"/>
<path d="M119.012 19.5724C117.389 19.8484 114.779 18.4052 113.691 16.7054C113.617 16.5922 113.553 16.4736 113.49 16.3577C114.276 18.0602 115.165 19.6386 117.759 19.9615C117.759 19.9615 118.774 20.7617 118.929 21.7717C119.047 22.5416 120.595 23.3942 121.583 23.11C121.641 23.0935 121.699 23.0714 121.76 23.0438C121.098 22.6271 119.34 20.3037 119.014 19.5724H119.012Z" fill="#5E372C"/>
<path d="M116.685 11.8845L117.701 12.0556C118.162 11.3878 119.006 10.2565 118.576 7.27075C116.614 8.65047 116.087 10.0054 116.685 11.8873V11.8845Z" fill="#704436"/>
<path d="M116.942 11.0041L117.571 11.109C117.855 10.6951 118.382 9.99416 118.112 8.14258C116.895 8.998 116.569 9.83687 116.942 11.0041Z" fill="#562D22"/>
<path d="M73.9941 24.2938C73.9941 22.2187 72.3136 20.5382 70.2385 20.5382H64.8879L64.4326 19.1612C59.9154 19.1612 59.1262 11.9673 59.1262 11.9673V4.55274C42.3737 -0.17694 25.2762 -0.193497 8.75546 4.55274C8.75546 9.58319 9.73229 19.2854 13.9956 23.8191L18.9295 23.8578C24.0648 23.8578 29.8652 27.0008 29.8652 35.3426H31.2642C34.0623 35.3426 36.3305 37.6108 36.3305 40.4089H45.6712C45.6712 37.6108 47.9395 35.3426 50.7375 35.3426H51.4026C51.4026 27.216 55.1361 24.2137 63.2709 24.2137L73.9969 24.2965L73.9941 24.2938Z" fill="#7A405A"/>
<path d="M73.9113 23.5156C66.4774 24.1916 57.6113 23.9736 48.1961 22.696C30.3895 20.2815 15.4802 14.7323 8.94586 8.73877C9.39289 13.852 10.7312 20.3477 13.9929 23.8163L18.9267 23.855C24.0621 23.855 29.8624 26.998 29.8624 35.3398H31.2614C34.0595 35.3398 36.3278 37.608 36.3278 40.4061H45.6685C45.6685 37.608 47.9367 35.3398 50.7348 35.3398H51.3998C51.3998 27.2132 55.1333 24.2109 63.2682 24.2109L73.9941 24.2937C73.9941 24.0261 73.9637 23.7639 73.9113 23.5128V23.5156Z" fill="#66334D"/>
<path d="M46.4935 7.1604V34.1836H34.7494V7.1604H46.4935ZM45.8313 7.41979H35.4116V33.353H45.8313V7.41979Z" fill="#442233"/>
<path d="M44.8048 32.5774C44.6751 31.8461 45.4063 31.3191 45.4063 31.3191C45.009 31.882 45.2904 32.5746 45.9361 32.547L45.616 33.2811C45.616 33.2811 44.8986 33.1182 44.802 32.5774H44.8048Z" fill="#FFAE39"/>
<path d="M44.9814 32.4476C44.2529 32.1551 43.6982 32.696 43.6982 32.696C44.2777 32.4669 44.9786 32.6987 44.8572 33.3886L45.6574 33.3555C45.6574 33.3555 45.5222 32.6628 44.9814 32.4476Z" fill="#FFAE39"/>
<path d="M44.3688 31.6364C44.4847 31.664 44.5675 31.7744 44.5509 31.882C44.5343 31.9924 44.4267 32.0586 44.3108 32.0338C44.1949 32.0062 44.1121 31.8958 44.1287 31.7882C44.1453 31.6806 44.2529 31.6116 44.3688 31.6364Z" fill="#FFAE39"/>
<path d="M36.1346 32.2545C36.8217 31.9703 37.4922 32.5718 37.4922 32.5718C36.8576 32.3042 36.2422 32.7291 36.4078 33.3555L35.6213 33.201C35.6213 33.201 35.6269 32.4642 36.1346 32.2573V32.2545Z" fill="#FFAE39"/>
<path d="M36.2974 32.4008C36.4271 31.6254 35.7786 31.2004 35.7786 31.2004C36.1263 31.7165 36.0518 32.4505 35.3509 32.4808L35.5551 33.2562C35.5551 33.2562 36.2008 32.9748 36.2974 32.4008Z" fill="#FFAE39"/>
<path d="M36.9569 31.6282C36.9569 31.7469 36.8659 31.8517 36.7555 31.86C36.6451 31.8683 36.5568 31.7772 36.5568 31.6586C36.5568 31.5399 36.6479 31.4351 36.7582 31.4268C36.8686 31.4185 36.9569 31.5096 36.9569 31.6282Z" fill="#FFAE39"/>
<path d="M55.2879 20.3063C55.4562 21.0651 54.747 21.7356 54.747 21.7356C55.1196 21.0761 54.7967 20.3835 54.1455 20.5132L54.4297 19.6826C54.4297 19.6826 55.1609 19.7461 55.2879 20.3063Z" fill="#FFAE39"/>
<path d="M55.1168 20.4718C55.8674 20.6705 56.3999 20.011 56.3999 20.011C55.8287 20.3422 55.1085 20.2042 55.1941 19.4536L54.3883 19.6109C54.3883 19.6109 54.5621 20.3256 55.1168 20.4718Z" fill="#FFAE39"/>
<path d="M55.7791 21.2361C55.6604 21.2251 55.5721 21.1202 55.5831 21.0015C55.5942 20.8829 55.699 20.7946 55.8177 20.8056C55.9363 20.8167 56.0246 20.9215 56.0136 21.0402C56.0026 21.1588 55.8977 21.2471 55.7791 21.2361Z" fill="#FFAE39"/>
<path d="M55.5914 7.12995C56.3089 6.83745 57.0925 7.42521 57.0925 7.42521C56.3806 7.16859 55.7514 7.60182 55.986 8.22269L55.1195 8.08196C55.1195 8.08196 55.0588 7.35071 55.5914 7.13271V7.12995Z" fill="#FFAE39"/>
<path d="M55.7818 7.27347C55.8508 6.50083 55.114 6.08691 55.114 6.08691C55.5362 6.59465 55.5197 7.32866 54.7663 7.37005L55.0561 8.13718C55.0561 8.13718 55.7321 7.84744 55.7818 7.27347Z" fill="#FFAE39"/>
<path d="M56.4275 6.49258C56.4385 6.61124 56.3502 6.71609 56.2288 6.72713C56.1102 6.73817 56.0053 6.64987 55.9943 6.52845C55.9832 6.4098 56.0715 6.30494 56.193 6.2939C56.3116 6.28286 56.4165 6.37116 56.4275 6.49258Z" fill="#FFAE39"/>
<path d="M48.0278 7.42533C47.9008 6.6582 48.6487 6.02905 48.6487 6.02905C48.2403 6.66648 48.5217 7.37566 49.1785 7.2846L48.8473 8.09587C48.8473 8.09587 48.1188 7.99101 48.0278 7.42533Z" fill="#FFAE39"/>
<path d="M48.2099 7.26794C47.4731 7.02787 46.9047 7.65426 46.9047 7.65426C47.4952 7.35624 48.2044 7.53285 48.0775 8.28065L48.8915 8.16752C48.8915 8.16752 48.759 7.44454 48.2127 7.26794H48.2099Z" fill="#FFAE39"/>
<path d="M47.5918 6.46496C47.7104 6.48151 47.7932 6.59189 47.7739 6.71055C47.7573 6.8292 47.647 6.91199 47.5283 6.89267C47.4097 6.87611 47.3269 6.76574 47.3462 6.64708C47.3627 6.52842 47.4731 6.44564 47.5918 6.46496Z" fill="#FFAE39"/>
<path d="M48.301 20.5051C47.5311 20.6044 46.9268 19.8345 46.9268 19.8345C47.5476 20.2678 48.2679 20.0084 48.2016 19.3489L49.0019 19.7076C49.0019 19.7076 48.8722 20.4306 48.3037 20.5051H48.301Z" fill="#FFAE39"/>
<path d="M48.152 20.3173C47.8843 21.0458 48.4914 21.6364 48.4914 21.6364C48.2127 21.0376 48.4169 20.3339 49.1591 20.4884L49.0764 19.6716C49.0764 19.6716 48.3479 19.7792 48.152 20.3173Z" fill="#FFAE39"/>
<path d="M47.3269 20.9051C47.349 20.7865 47.4593 20.7092 47.578 20.7313C47.6967 20.7534 47.7739 20.8638 47.7518 20.9824C47.7298 21.1011 47.6194 21.1783 47.5007 21.1563C47.3821 21.1342 47.3048 21.0238 47.3269 20.9051Z" fill="#FFAE39"/>
<path d="M33.022 20.3063C33.1903 21.0651 32.4811 21.7356 32.4811 21.7356C32.8536 21.0761 32.5308 20.3835 31.8796 20.5132L32.1638 19.6826C32.1638 19.6826 32.895 19.7461 33.022 20.3063Z" fill="#FFAE39"/>
<path d="M32.8481 20.4718C33.5987 20.6705 34.1313 20.011 34.1313 20.011C33.5601 20.3422 32.8398 20.2042 32.9254 19.4536L32.1196 19.6109C32.1196 19.6109 32.2935 20.3256 32.8481 20.4718Z" fill="#FFAE39"/>
<path d="M33.5104 21.2361C33.3917 21.2251 33.3034 21.1202 33.3145 21.0015C33.3255 20.8829 33.4304 20.7946 33.549 20.8056C33.6677 20.8167 33.756 20.9215 33.7449 21.0402C33.7339 21.1588 33.629 21.2471 33.5104 21.2361Z" fill="#FFAE39"/>
<path d="M32.6715 7.12995C33.389 6.83745 34.1726 7.42521 34.1726 7.42521C33.4607 7.16859 32.8315 7.60182 33.0661 8.22269L32.1996 8.08196C32.1996 8.08196 32.1389 7.35071 32.6715 7.13271V7.12995Z" fill="#FFAE39"/>
<path d="M32.8647 7.27347C32.9336 6.50083 32.1969 6.08691 32.1969 6.08691C32.6191 6.59465 32.6025 7.32866 31.8492 7.37005L32.1389 8.13718C32.1389 8.13718 32.815 7.84744 32.8647 7.27347Z" fill="#FFAE39"/>
<path d="M33.5076 6.49258C33.5187 6.61124 33.4303 6.71609 33.3089 6.72713C33.1903 6.73817 33.0854 6.64987 33.0744 6.52845C33.0633 6.4098 33.1516 6.30494 33.2731 6.2939C33.3917 6.28286 33.4966 6.37116 33.5076 6.49258Z" fill="#FFAE39"/>
<path d="M20.8694 7.42533C20.7425 6.6582 21.4903 6.02905 21.4903 6.02905C21.0819 6.66648 21.3633 7.37566 22.0201 7.2846L21.689 8.09587C21.689 8.09587 20.9605 7.99101 20.8694 7.42533Z" fill="#FFAE39"/>
<path d="M21.0515 7.26794C20.3148 7.02787 19.7463 7.65426 19.7463 7.65426C20.3368 7.35624 21.046 7.53285 20.9191 8.28065L21.7331 8.16752C21.7331 8.16752 21.6006 7.44454 21.0543 7.26794H21.0515Z" fill="#FFAE39"/>
<path d="M20.4362 6.46496C20.5548 6.48151 20.6376 6.59189 20.6183 6.71055C20.6017 6.8292 20.4913 6.91199 20.3727 6.89267C20.254 6.87611 20.1713 6.76574 20.1906 6.64708C20.2099 6.52842 20.3175 6.44564 20.4362 6.46496Z" fill="#FFAE39"/>
<path d="M22.7762 20.5161C22.0504 20.7892 21.2861 20.1822 21.2861 20.1822C21.9897 20.4581 22.6327 20.0414 22.4119 19.415L23.2729 19.5806C23.2729 19.5806 23.3143 20.3146 22.7762 20.5161Z" fill="#FFAE39"/>
<path d="M22.5885 20.367C22.4975 21.1369 23.226 21.5729 23.226 21.5729C22.8176 21.0541 22.8534 20.3229 23.6095 20.3008L23.3391 19.5254C23.3391 19.5254 22.6575 19.7986 22.5885 20.367Z" fill="#FFAE39"/>
<path d="M21.9235 21.1314C21.918 21.0127 22.0091 20.9106 22.1277 20.9023C22.2464 20.8968 22.3485 20.9879 22.3567 21.1065C22.3623 21.2252 22.2712 21.3273 22.1525 21.3356C22.0339 21.3411 21.9318 21.25 21.9235 21.1314Z" fill="#FFAE39"/>
<path d="M32.9668 7.41968H20.9936L22.6961 20.3421H32.9668V7.41968Z" fill="#442233"/>
<path d="M55.7818 7.41968H48.2706V20.3421H55.0285L55.7818 7.41968Z" fill="#442233"/>
<path d="M45.3153 20.1931H35.9332V7.73701L45.3153 7.73701V20.1931Z" fill="#442233"/>
<path d="M44.9979 19.4702H36.2505V8.11237L44.9979 8.11237V19.4702Z" fill="#6FA8A8"/>
<path d="M44.6502 15.7256L36.5071 14.5142V19.1252H44.6502V15.7256Z" fill="#559391"/>
<path d="M55.1582 8.1123H48.7894V19.4702H54.5539L55.1582 8.1123Z" fill="#6FA8A8"/>
<path d="M21.9594 8.1123H32.4259V19.4702H23.2287L21.9594 8.1123Z" fill="#6FA8A8"/>
<path d="M63.8063 40.6322C62.3646 40.6322 61.1958 39.4635 61.1958 38.0218C61.1958 36.5801 62.3646 35.4114 63.8063 35.4114C65.248 35.4114 66.4167 36.5801 66.4167 38.0218C66.4167 39.4635 65.248 40.6322 63.8063 40.6322Z" fill="#33221F"/>
<path d="M62.7687 38.6261L62.6169 38.2288L54.7857 40.7426L55.2548 41.9761L62.7687 38.6261Z" fill="#AD5A44"/>
<path d="M64.8521 37.3734L65.0039 37.7708L72.8351 35.2569L72.366 34.0234L64.8521 37.3734Z" fill="#AD5A44"/>
<path d="M64.4354 39.04L64.0381 39.1918L66.5519 47.0259L67.7854 46.554L64.4354 39.04Z" fill="#AD5A44"/>
<path d="M63.1854 36.9594L63.5827 36.8077L61.0689 28.9736L59.8354 29.4455L63.1854 36.9594Z" fill="#AD5A44"/>
<path d="M64.9901 38.2922L64.8162 38.6813L72.1315 42.4424L72.6696 41.2366L64.9901 38.2922Z" fill="#AD5A44"/>
<path d="M62.6307 37.7073L62.8046 37.3182L55.4893 33.5571L54.9512 34.763L62.6307 37.7073Z" fill="#AD5A44"/>
<path d="M64.1043 36.8214L64.4934 36.9953L68.2545 29.6773L67.0486 29.1392L64.1043 36.8214Z" fill="#AD5A44"/>
<path d="M63.5165 39.178L63.1274 39.0042L59.3663 46.3222L60.5722 46.8603L63.5165 39.178Z" fill="#AD5A44"/>
<path d="M73.4036 39.3491C72.6696 44.7521 67.6971 48.5353 62.2941 47.804C56.8911 47.07 53.1079 42.0975 53.8392 36.6945C54.5732 31.2915 59.5457 27.5084 64.9487 28.2396C70.3516 28.9736 74.1348 33.9461 73.4036 39.3491ZM72.4212 39.2167C73.0752 34.4042 69.6645 29.967 64.8052 29.3075C59.9458 28.648 55.4755 32.0145 54.8243 36.8297C54.1703 41.6422 57.581 46.0794 62.4403 46.7389C67.2997 47.3984 71.77 44.0319 72.4212 39.2167Z" fill="#51261D"/>
<path d="M65.4592 38.0218C65.4592 37.1084 64.7196 36.3689 63.8063 36.3689C62.8929 36.3689 62.1534 37.1084 62.1534 38.0218C62.1534 38.9352 62.8929 39.6747 63.8063 39.6747C64.7196 39.6747 65.4592 38.9352 65.4592 38.0218Z" fill="#AD5A44"/>
<path d="M65.0535 38.0219C65.0535 37.3321 64.4961 36.7747 63.8063 36.7747C63.1164 36.7747 62.559 37.3321 62.559 38.0219C62.559 38.7118 63.1164 39.2692 63.8063 39.2692C64.4961 39.2692 65.0535 38.7118 65.0535 38.0219Z" fill="#CC9D7D"/>
<path d="M61.974 31.7993L61.0661 28.9736L59.8327 29.4455L61.0054 32.0752C61.32 31.9621 61.6429 31.871 61.974 31.7993Z" fill="#51261D"/>
<path d="M57.5837 34.6333L55.4893 33.5571L54.9512 34.763L57.0098 35.5522C57.1809 35.2321 57.3713 34.9258 57.5865 34.6361L57.5837 34.6333Z" fill="#51261D"/>
<path d="M66.8361 32.4367L68.2545 29.6773L67.0486 29.1392L65.9338 32.0504C66.2456 32.158 66.5464 32.2877 66.8361 32.4367Z" fill="#51261D"/>
<path d="M70.2606 36.0847L72.8379 35.2569L72.366 34.0234L69.7915 35.1714C69.9681 35.4639 70.1254 35.7674 70.2633 36.0847H70.2606Z" fill="#51261D"/>
<path d="M56.2675 40.2654L54.7857 40.74L55.2575 41.9735L56.56 41.394C56.433 41.0297 56.3365 40.6517 56.2675 40.2654Z" fill="#51261D"/>
<path d="M70.3986 41.5511L72.1315 42.4424L72.6696 41.2365L70.7049 40.4832C70.6304 40.8502 70.5255 41.2061 70.3986 41.5511Z" fill="#51261D"/>
<path d="M66.1739 45.842L66.5547 47.0258L67.7881 46.554L67.239 45.3232C66.8996 45.5219 66.5436 45.6958 66.1739 45.842Z" fill="#51261D"/>
<path d="M59.8548 45.3702L59.3663 46.3194L60.5722 46.8575L60.9447 45.8807C60.5639 45.74 60.1997 45.5661 59.852 45.3674L59.8548 45.3702Z" fill="#51261D"/>
<path d="M74.2673 39.4679C73.4698 45.3482 68.0558 49.4681 62.1754 48.6678C56.2951 47.8703 52.1752 42.4563 52.9755 36.576C53.7729 30.6956 59.187 26.5758 65.0673 27.376C70.9477 28.1735 75.0675 33.5875 74.2673 39.4679ZM73.1994 39.3216C73.9113 34.0814 70.1999 29.2552 64.91 28.535C59.6202 27.8175 54.7581 31.482 54.0461 36.7222C53.3342 41.9624 57.0456 46.7886 62.3355 47.5089C67.6253 48.2263 72.4874 44.5618 73.1994 39.3216Z" fill="#CC9D7D"/>
<path d="M74.2673 38.6012C73.4698 44.4816 68.0558 48.6014 62.1754 47.8012C56.927 47.0893 53.0858 42.699 52.8872 37.583C52.6581 43.0605 56.6345 47.9143 62.1754 48.6649C68.0558 49.4624 73.467 45.3426 74.2673 39.4649C74.3528 38.833 74.3777 38.2066 74.3556 37.5913C74.3418 37.9252 74.3142 38.2618 74.2673 38.5985V38.6012Z" fill="#BC8B69"/>
<path d="M64.91 27.6712C59.6202 26.9538 54.758 30.6183 54.0461 35.8585C53.9688 36.4352 53.9468 37.0092 53.9716 37.5721C53.9854 37.2907 54.0075 37.0092 54.0461 36.725C54.758 31.4848 59.6202 27.8203 64.91 28.5377C69.6149 29.1751 73.0697 33.0687 73.2739 37.6107C73.5002 32.7072 69.9129 28.3528 64.91 27.674V27.6712Z" fill="#BC8B69"/>
<path d="M18.4245 40.6322C16.9828 40.6322 15.8141 39.4635 15.8141 38.0218C15.8141 36.5801 16.9828 35.4114 18.4245 35.4114C19.8662 35.4114 21.035 36.5801 21.035 38.0218C21.035 39.4635 19.8662 40.6322 18.4245 40.6322Z" fill="#33221F"/>
<path d="M17.3897 38.6261L17.238 38.2288L9.40391 40.7426L9.87578 41.9761L17.3897 38.6261Z" fill="#AD5A44"/>
<path d="M19.4703 37.3734L19.6221 37.7708L27.4562 35.2569L26.9843 34.0234L19.4703 37.3734Z" fill="#AD5A44"/>
<path d="M19.0564 39.04L18.6591 39.1918L21.1729 47.0259L22.4064 46.554L19.0564 39.04Z" fill="#AD5A44"/>
<path d="M17.8036 36.9594L18.201 36.8077L15.6872 28.9736L14.4537 29.4455L17.8036 36.9594Z" fill="#AD5A44"/>
<path d="M19.6083 38.2922L19.4345 38.6813L26.7525 42.4424L27.2906 41.2366L19.6083 38.2922Z" fill="#AD5A44"/>
<path d="M17.2518 37.7073L17.4256 37.3182L10.1103 33.5571L9.56948 34.763L17.2518 37.7073Z" fill="#AD5A44"/>
<path d="M18.7225 36.8214L19.1116 36.9953L22.8727 29.6773L21.6669 29.1392L18.7225 36.8214Z" fill="#AD5A44"/>
<path d="M18.1375 39.178L17.7485 39.0042L13.9873 46.3222L15.1932 46.8603L18.1375 39.178Z" fill="#AD5A44"/>
<path d="M28.0246 39.3491C27.2906 44.7521 22.3181 48.5353 16.9151 47.804C11.5121 47.07 7.72895 42.0975 8.4602 36.6945C9.19421 31.2915 14.1667 27.5084 19.5697 28.2396C24.9727 28.9736 28.7559 33.9461 28.0246 39.3491ZM27.0423 39.2167C27.6962 34.4042 24.2856 29.967 19.4262 29.3075C14.5668 28.648 10.0965 32.0145 9.44532 36.8297C8.79133 41.6422 12.202 46.0794 17.0614 46.7389C21.9207 47.3984 26.391 44.0319 27.0423 39.2167Z" fill="#51261D"/>
<path d="M20.0774 38.0218C20.0774 37.1084 19.3379 36.3689 18.4245 36.3689C17.5112 36.3689 16.7716 37.1084 16.7716 38.0218C16.7716 38.9352 17.5112 39.6747 18.4245 39.6747C19.3379 39.6747 20.0774 38.9352 20.0774 38.0218Z" fill="#AD5A44"/>
<path d="M18.4245 39.2692C17.7357 39.2692 17.1773 38.7108 17.1773 38.0219C17.1773 37.3331 17.7357 36.7747 18.4245 36.7747C19.1134 36.7747 19.6718 37.3331 19.6718 38.0219C19.6718 38.7108 19.1134 39.2692 18.4245 39.2692Z" fill="#CC9D7D"/>
<path d="M16.595 31.7993L15.6872 28.9736L14.4537 29.4455L15.6265 32.0752C15.941 31.9621 16.2639 31.871 16.595 31.7993Z" fill="#51261D"/>
<path d="M12.2048 34.6333L10.1103 33.5571L9.57224 34.763L11.6308 35.5522C11.8019 35.2321 11.9923 34.9258 12.2075 34.6361L12.2048 34.6333Z" fill="#51261D"/>
<path d="M21.4544 32.4367L22.8727 29.6773L21.6669 29.1392L20.5521 32.0504C20.8639 32.158 21.1646 32.2877 21.4544 32.4367Z" fill="#51261D"/>
<path d="M24.8788 36.0847L27.4562 35.2569L26.9843 34.0234L24.4097 35.1714C24.5863 35.4639 24.7436 35.7674 24.8816 36.0847H24.8788Z" fill="#51261D"/>
<path d="M10.8857 40.2654L9.40391 40.74L9.87578 41.9735L11.1782 41.394C11.0513 41.0297 10.9547 40.6517 10.8857 40.2654Z" fill="#51261D"/>
<path d="M25.0168 41.5511L26.7497 42.4424L27.2878 41.2365L25.3231 40.4832C25.2486 40.8502 25.1438 41.2061 25.0168 41.5511Z" fill="#51261D"/>
<path d="M20.7921 45.842L21.1729 47.0258L22.4064 46.554L21.8573 45.3232C21.5178 45.5219 21.1619 45.6958 20.7921 45.842Z" fill="#51261D"/>
<path d="M14.4758 45.3702L13.9873 46.3194L15.1932 46.8575L15.5657 45.8807C15.1849 45.74 14.8207 45.5661 14.473 45.3674L14.4758 45.3702Z" fill="#51261D"/>
<path d="M28.8883 39.4679C28.0908 45.3482 22.6768 49.4681 16.7965 48.6678C10.9161 47.8703 6.79625 42.4563 7.59649 36.576C8.39396 30.6956 13.808 26.5758 19.6883 27.376C25.5687 28.1735 29.6886 33.5875 28.8883 39.4679ZM27.8177 39.3216C28.5296 34.0814 24.8181 29.2552 19.5283 28.535C14.2385 27.8175 9.37632 31.482 8.66439 36.7222C7.95245 41.9624 11.6639 46.7886 16.9537 47.5089C22.2436 48.2263 27.1057 44.5618 27.8177 39.3216Z" fill="#CC9D7D"/>
<path d="M28.8883 38.6012C28.0908 44.4816 22.6768 48.6014 16.7965 47.8012C11.548 47.0893 7.70686 42.699 7.50818 37.583C7.27915 43.0605 11.2555 47.9143 16.7965 48.6649C22.6768 49.4624 28.0881 45.3426 28.8883 39.4649C28.9739 38.833 28.9987 38.2066 28.9766 37.5913C28.9628 37.9252 28.9352 38.2618 28.8883 38.5985V38.6012Z" fill="#BC8B69"/>
<path d="M19.5283 27.6712C14.2384 26.9538 9.37632 30.6183 8.66438 35.8585C8.58712 36.4352 8.56505 37.0092 8.58988 37.5721C8.60368 37.2907 8.62575 37.0092 8.66438 36.725C9.37632 31.4848 14.2384 27.8203 19.5283 28.5377C24.2331 29.1751 27.688 33.0687 27.8921 37.6107C28.1184 32.7072 24.5312 28.3528 19.5283 27.674V27.6712Z" fill="#BC8B69"/>
<path d="M69.7087 26.8821C69.5818 26.8821 69.4824 26.9842 69.4824 27.1084V27.1166C69.4824 27.2436 69.5845 27.3429 69.7087 27.3429C69.8356 27.3429 69.935 27.2408 69.935 27.1166V27.1084C69.935 26.9814 69.8329 26.8821 69.7087 26.8821Z" fill="#AD5A44"/>
<path d="M69.7087 25.3835C69.5818 25.3835 69.4824 25.4856 69.4824 25.6098V25.6181C69.4824 25.745 69.5845 25.8444 69.7087 25.8444C69.8356 25.8444 69.935 25.7423 69.935 25.6181V25.6098C69.935 25.4829 69.8329 25.3835 69.7087 25.3835Z" fill="#AD5A44"/>
<path d="M71.552 26.8821C71.4251 26.8821 71.3257 26.9842 71.3257 27.1084V27.1166C71.3257 27.2436 71.4278 27.3429 71.552 27.3429C71.6789 27.3429 71.7783 27.2408 71.7783 27.1166V27.1084C71.7783 26.9814 71.6762 26.8821 71.552 26.8821Z" fill="#AD5A44"/>
<path d="M71.552 25.3835C71.4251 25.3835 71.3257 25.4856 71.3257 25.6098V25.6181C71.3257 25.745 71.4278 25.8444 71.552 25.8444C71.6789 25.8444 71.7783 25.7423 71.7783 25.6181V25.6098C71.7783 25.4829 71.6762 25.3835 71.552 25.3835Z" fill="#AD5A44"/>
<path d="M55.9612 7.25146H48.1023V20.5106H55.1885L55.9612 7.25146ZM48.4417 7.59088H55.6025L54.8684 20.1739H48.439V7.59088H48.4417Z" fill="#FFAE39"/>
<path d="M46.0051 7.19067H35.2406V33.4274H46.0051V7.19067ZM35.5413 7.51077H45.7043V33.1073H35.5413V7.51077Z" fill="#FFAE39"/>
<path d="M33.1351 7.25146H20.7977L22.5444 20.5106H33.1351V7.25146ZM21.1867 7.59088H32.7984V20.1739H22.8452L21.1867 7.59088Z" fill="#FFAE39"/>
<path d="M45.8423 40.4061C45.8423 37.7074 48.0388 35.5109 50.7376 35.5109H51.5709V35.3425C51.5709 27.5582 54.9595 24.382 63.2709 24.382H63.4613L74.1624 24.4648V24.2937C74.1624 22.1303 72.4019 20.3698 70.2385 20.3698H65.0121L64.5568 18.9929H64.4354C60.1224 18.9929 59.3056 12.0225 59.2973 11.9701V4.42302L59.1732 4.38715C42.2854 -0.378399 25.3066 -0.378399 8.71131 4.38715L8.5899 4.42302V4.54996C8.5899 10.8994 9.97513 19.7848 13.8742 23.9323L13.9239 23.9847L18.9323 24.0233C23.8993 24.0233 29.6996 26.987 29.6996 35.337V35.5053H31.2697C33.9685 35.5053 36.165 37.7019 36.165 40.4006V40.5689H45.8451V40.4006L45.8423 40.4061ZM31.2642 35.1714H30.0335C29.9562 26.7 24.0179 23.6867 18.9295 23.6867L14.0674 23.648C10.298 19.5779 8.9431 10.9298 8.92379 4.67689C25.3783 -0.0251913 42.2109 -0.0251913 58.9552 4.67689V11.9839C58.9883 12.2819 59.7996 19.2026 64.3085 19.3268L64.7638 20.7037H70.2358C72.1563 20.7037 73.7292 22.2214 73.8175 24.1199L63.2654 24.0371H62.9315L62.9343 24.0426C54.6836 24.1254 51.2756 27.3705 51.2287 35.1687H50.7348C47.9036 35.1687 45.5912 37.4259 45.5029 40.235H36.4933C36.4023 37.4259 34.0899 35.1687 31.2614 35.1687L31.2642 35.1714Z" fill="#FFAE39"/>
<g style="mix-blend-mode:multiply" opacity="0.44">
<path d="M34.5893 4.42295C43.472 4.42295 51.8634 5.26734 59.2973 6.76847V4.42571L59.1732 4.38984C42.2854 -0.375714 25.3066 -0.375714 8.71131 4.38984L8.5899 4.42571V4.55264C8.5899 5.34184 8.61197 6.16967 8.65612 7.02234C16.3853 5.36392 25.2155 4.42295 34.5921 4.42295H34.5893Z" fill="#66334D"/>
</g>
<path d="M60.8316 5.41898V3.962C42.9449 -1.08777 24.6912 -1.10433 7.05012 3.962C7.05012 4.16896 7.05288 5.18167 7.05564 5.40518C24.7547 1.63579 42.9201 1.65235 60.8316 5.42174V5.41898Z" fill="#FFAE39"/>
<path d="M14.9587 2.0415C12.3096 2.57132 9.67435 3.20875 7.05012 3.96207C7.05012 4.16903 7.05288 5.18174 7.05564 5.40526C12.1578 4.31804 17.2959 3.54816 22.4588 3.09009C19.589 2.82518 17.0476 2.46646 14.9587 2.0415Z" fill="#FF8F3B"/>
<path d="M53.5273 2.18506C51.386 2.58518 48.828 2.91631 45.972 3.15914C50.9335 3.62824 55.8922 4.37881 60.8316 5.41912V3.96214C58.4033 3.2778 55.9667 2.68728 53.5273 2.18782V2.18506Z" fill="#FF8F3B"/>
<path d="M50.6603 34.3352C49.9208 34.1034 49.1895 34.7519 49.1895 34.7519C49.8766 34.4373 50.5416 34.8181 50.3568 35.4555L51.2067 35.2431C51.2067 35.2431 51.2067 34.5091 50.6603 34.3352Z" fill="#FFAE39"/>
<path d="M50.4837 34.4953C50.3512 33.731 51.0521 33.2563 51.0521 33.2563C50.6713 33.7972 50.7486 34.5257 51.5074 34.5036L51.2812 35.2928C51.2812 35.2928 50.583 35.0583 50.4865 34.4926L50.4837 34.4953Z" fill="#FFAE39"/>
<path d="M49.7745 33.7694C49.7745 33.8881 49.8711 33.9847 49.9898 33.9847C50.1084 33.9847 50.205 33.8881 50.205 33.7694C50.205 33.6508 50.1084 33.5542 49.9898 33.5542C49.8711 33.5542 49.7745 33.6508 49.7745 33.7694Z" fill="#FFAE39"/>
<path d="M63.5303 20.0359C63.4089 20.803 64.1595 21.4294 64.1595 21.4294C63.7456 20.7947 64.0243 20.0828 64.681 20.1711L64.3443 19.3625C64.3443 19.3625 63.6186 19.4702 63.5276 20.0386L63.5303 20.0359Z" fill="#FFAE39"/>
<path d="M63.7124 20.1904C62.9757 20.436 62.4045 19.8124 62.4045 19.8124C62.995 20.1077 63.7042 19.9228 63.5717 19.1777L64.3857 19.2854C64.3857 19.2854 64.256 20.0083 63.7124 20.1904Z" fill="#FFAE39"/>
<path d="M63.0998 20.996C63.2185 20.9795 63.2985 20.8691 63.282 20.7505C63.2654 20.6318 63.155 20.5518 63.0364 20.5683C62.9177 20.5849 62.8377 20.6953 62.8543 20.8139C62.8708 20.9326 62.9812 21.0126 63.0998 20.996Z" fill="#FFAE39"/>
<path d="M45.0393 39.4099C44.2998 39.1781 43.5685 39.8266 43.5685 39.8266C44.2556 39.512 44.9206 39.8928 44.7358 40.5302L45.5857 40.3178C45.5857 40.3178 45.5857 39.5838 45.0393 39.4099Z" fill="#FFAE39"/>
<path d="M44.8599 39.5671C44.7275 38.8027 45.4284 38.3281 45.4284 38.3281C45.0476 38.869 45.1249 39.5975 45.8837 39.5754L45.6574 40.3646C45.6574 40.3646 44.9593 40.13 44.8627 39.5644L44.8599 39.5671Z" fill="#FFAE39"/>
<path d="M44.1535 38.8441C44.1535 38.9628 44.2501 39.0594 44.3688 39.0594C44.4874 39.0594 44.584 38.9628 44.584 38.8441C44.584 38.7255 44.4874 38.6289 44.3688 38.6289C44.2501 38.6289 44.1535 38.7255 44.1535 38.8441Z" fill="#FFAE39"/>
<path d="M30.5881 34.2195C31.3277 33.9877 32.0589 34.6362 32.0589 34.6362C31.3718 34.3216 30.7068 34.7024 30.8917 35.3398L30.0418 35.1273C30.0418 35.1273 30.0418 34.3933 30.5881 34.2195Z" fill="#FFAE39"/>
<path d="M30.7675 34.3794C30.9 33.615 30.1991 33.1404 30.1991 33.1404C30.5799 33.6812 30.5026 34.4097 29.7438 34.3876L29.97 35.1768C29.97 35.1768 30.6682 34.9423 30.7647 34.3766L30.7675 34.3794Z" fill="#FFAE39"/>
<path d="M31.4739 33.6537C31.4739 33.7724 31.3773 33.8689 31.2587 33.8689C31.14 33.8689 31.0435 33.7724 31.0435 33.6537C31.0435 33.5351 31.14 33.4385 31.2587 33.4385C31.3773 33.4385 31.4739 33.5351 31.4739 33.6537Z" fill="#FFAE39"/>
<path d="M14.3599 22.8009C15.0856 22.5277 15.8527 23.1348 15.8527 23.1348C15.1491 22.8588 14.5061 23.2755 14.7269 23.9019L13.8659 23.7363C13.8659 23.7363 13.8245 23.0023 14.3626 22.8009H14.3599Z" fill="#FFAE39"/>
<path d="M14.5475 22.9498C14.6386 22.1799 13.9101 21.7439 13.9101 21.7439C14.3185 22.2627 14.2826 22.9939 13.5265 23.016L13.7969 23.7914C13.7969 23.7914 14.4785 23.5182 14.5475 22.9498Z" fill="#FFAE39"/>
<path d="M15.2153 22.1854C15.2208 22.304 15.1298 22.4061 15.0111 22.4144C14.8924 22.4199 14.7904 22.3289 14.7821 22.2102C14.7766 22.0916 14.8676 21.9895 14.9863 21.9812C15.1049 21.9757 15.207 22.0667 15.2153 22.1854Z" fill="#FFAE39"/>
<path d="M37.0452 39.3518C37.7847 39.12 38.516 39.7685 38.516 39.7685C37.8289 39.4539 37.1639 39.8347 37.3488 40.4721L36.4988 40.2597C36.4988 40.2597 36.4988 39.5257 37.0452 39.3518Z" fill="#FFAE39"/>
<path d="M37.2246 39.5119C37.357 38.7476 36.6561 38.2729 36.6561 38.2729C37.0369 38.8138 36.9597 39.5423 36.2008 39.5202L36.4271 40.3094C36.4271 40.3094 37.1252 40.0749 37.2218 39.5092L37.2246 39.5119Z" fill="#FFAE39"/>
<path d="M37.931 38.7863C37.931 38.9049 37.8344 39.0015 37.7158 39.0015C37.5971 39.0015 37.5005 38.9049 37.5005 38.7863C37.5005 38.6676 37.5971 38.571 37.7158 38.571C37.8344 38.571 37.931 38.6676 37.931 38.7863Z" fill="#FFAE39"/>
<path d="M43.9273 44.9011H37.8151V44.3244H43.9273V44.9011Z" fill="#FFAE39"/>
<path d="M44.882 22.6435C44.882 22.2765 44.584 21.9812 44.2198 21.9812C43.8555 21.9812 43.5575 22.2792 43.5575 22.6435C43.5575 23.0077 43.8555 23.3057 44.2198 23.3057C44.584 23.3057 44.882 23.0077 44.882 22.6435Z" fill="#FFAE39"/>
<path d="M40.4117 22.9885C41.4934 21.4956 44.3936 22.0034 44.3936 22.0034L44.0432 22.3621C44.0432 22.3621 42.9615 21.8433 41.9239 22.7953C41.2258 23.4355 40.409 22.9913 40.409 22.9913L40.4117 22.9885Z" fill="#FFAE39"/>
<path d="M44.7082 8.4021H36.474V10.4413L44.7082 11.5451V8.4021Z" fill="#8BCCCA"/>
<path d="M32.1665 8.4021H22.3347L22.5499 10.4413L32.1665 11.5451V8.4021Z" fill="#8BCCCA"/>
<path d="M54.9705 8.28613H49.0598V10.3281L54.598 11.4291L54.9705 8.28613Z" fill="#8BCCCA"/>
<path d="M71.3561 22.8229C71.3561 23.1348 71.6072 23.3859 71.919 23.3859C72.2308 23.3859 72.4819 23.1348 72.4819 22.8229C72.4819 22.5111 72.2308 22.26 71.919 22.26C71.6072 22.26 71.3561 22.5111 71.3561 22.8229Z" fill="#FFAE39"/>
<path d="M9.94477 6.79339C9.94477 7.10521 10.1959 7.35632 10.5077 7.35632C10.8195 7.35632 11.0706 7.10521 11.0706 6.79339C11.0706 6.48158 10.8195 6.23047 10.5077 6.23047C10.1959 6.23047 9.94477 6.48158 9.94477 6.79339Z" fill="#FFAE39"/>
<path d="M111.194 23.063C112.773 24.5034 113.838 26.722 113.838 26.722L113.755 24.7462L111.194 23.0657V23.063Z" fill="#562D22"/>
<path d="M102.334 21.617C102.336 21.5149 102.27 21.4321 102.182 21.4321C102.093 21.4321 102.019 21.5149 102.016 21.617C102.013 21.7191 102.08 21.8019 102.168 21.8019C102.256 21.8019 102.331 21.7191 102.334 21.617Z" fill="#FFAE39"/>
<path d="M103.404 21.4211C103.352 21.3328 103.25 21.3024 103.178 21.3493C103.103 21.3962 103.087 21.5066 103.139 21.5949C103.192 21.6832 103.294 21.7136 103.366 21.6667C103.44 21.6198 103.457 21.5094 103.404 21.4211Z" fill="#FFAE39"/>
<path d="M103.183 29.8125C103.183 29.6166 103.023 29.4565 102.827 29.4565C102.632 29.4565 102.472 29.6166 102.472 29.8125C102.472 30.0084 102.632 30.1685 102.827 30.1685C103.023 30.1685 103.183 30.0084 103.183 29.8125Z" fill="#FFAE39"/>
<path d="M81.0638 27.1413C82.6422 24.5474 81.0058 18.9596 83.4452 18.3138C83.4452 18.3138 81.9496 16.9121 80.3712 19.2465C78.7928 21.581 81.0638 27.1385 81.0638 27.1385V27.1413Z" fill="#894D3F"/>
<path d="M122.864 21.0926C123.093 20.56 122.842 19.5694 122.144 19.0865C121.445 18.6036 122.676 21.5286 122.864 21.0926Z" fill="#562D22"/>
<path d="M118.429 14.6272C117.102 15.306 117.047 14.2961 117.32 13.7332C117.579 13.7773 118.429 14.6272 118.429 14.6272Z" fill="#562D22"/>
<path d="M118.093 14.4646C117.406 14.815 117.375 14.2935 117.519 14.001C117.654 14.0231 118.093 14.4646 118.093 14.4646Z" fill="#3A1B15"/>
<path d="M118.664 14.7819L116.801 13.6754C116.801 13.6754 117.337 13.0242 118.051 13.3332C118.766 13.6395 118.664 14.7819 118.664 14.7819Z" fill="#845042"/>
<path d="M103.926 20.3366C105.424 19.9917 106.031 18.6202 106.031 18.6202L105.642 17.6406C105.248 18.7968 104.704 19.7378 103.926 20.3366Z" fill="#441F18"/>
<path d="M104.453 18.485C106.448 18.1069 107.358 16.1836 107.358 16.1836L106.934 14.7432C106.031 16.1146 105.521 17.6847 104.453 18.485Z" fill="#441F18"/>
<path d="M117.717 20.345C119.224 19.1446 121.445 16.5342 121.445 16.5342L122.315 18.2368L118.429 20.9879L117.72 20.3422L117.717 20.345Z" fill="#33221F"/>
<path d="M120.411 20.3725C120.411 19.9117 120.038 19.5364 119.575 19.5364C119.111 19.5364 118.738 19.9089 118.738 20.3725C118.738 20.8361 119.114 21.2086 119.575 21.2086C120.035 21.2086 120.411 20.8361 120.411 20.3725Z" fill="#33221F"/>
<path d="M119.991 20.3725C119.991 20.1435 119.804 19.9558 119.575 19.9558C119.345 19.9558 119.158 20.1435 119.158 20.3725C119.158 20.6015 119.345 20.7892 119.575 20.7892C119.804 20.7892 119.991 20.6015 119.991 20.3725Z" fill="#FFAE39"/>
<path d="M103.415 21.8433L103.517 22.7264C112.709 21.9206 114.839 25.9273 114.839 25.9273L115.126 25.6541C112.695 22.2269 108.117 21.3246 103.412 21.8406L103.415 21.8433Z" fill="#33221F"/>
<path d="M92.0491 28.8467C85.0043 28.8467 77.7193 25.8113 71.2705 19.9475L71.4996 19.6964C81.2597 28.5652 92.9376 30.9025 102.742 25.952C103.658 25.4885 104.842 24.7682 106.097 24.0066C110.424 21.3797 115.811 18.107 118.628 19.6992L118.462 19.9944C115.816 18.5016 110.3 21.8515 106.274 24.2964C105.013 25.0635 103.821 25.7865 102.894 26.2528C99.4527 27.9913 95.7854 28.8439 92.0491 28.8439V28.8467Z" fill="#33221F"/>
<path d="M112.549 33.3006C115.59 28.9434 114.74 25.5134 114.74 25.5134L115.446 25.6873C115.353 29.7823 114.058 31.6283 112.549 33.3033V33.3006Z" fill="#33221F"/>
<path d="M54.3662 15.7256L49.0902 14.5142V19.1252H54.3662V15.7256Z" fill="#559391"/>
<path d="M32.1362 15.7256L23.0549 14.5142L23.7861 19.1252H32.1362V15.7256Z" fill="#559391"/>
<path d="M125.002 48.7285H0.581995C0.581995 48.7285 21.5592 49.9399 68.4145 49.9399C115.27 49.9399 125.002 48.7285 125.002 48.7285Z" fill="#4F4141"/>
</g>
<defs>
<clipPath id="clip0_60_4572">
<rect width="124.42" height="49.772" fill="white" transform="matrix(-1 0 0 1 125.002 0.167969)"/>
</clipPath>
</defs>
</svg>
