<svg width="116" height="39" viewBox="0 0 116 39" fill="none" xmlns="http://www.w3.org/2000/svg">
<g clip-path="url(#clip0_60_5345)">
<path d="M3.54314 19.7595C3.07314 21.6295 2.16314 23.0095 1.51314 22.8495C0.86314 22.6895 0.72314 21.0395 1.19314 19.1695C1.66314 17.2995 2.57314 15.9195 3.22314 16.0795C3.87314 16.2395 4.01314 17.8895 3.54314 19.7595Z" fill="#D60606"/>
<path d="M29.8731 8.9295C30.5431 10.0495 30.1731 11.4995 29.0531 12.1695C27.9331 12.8395 26.4831 12.4695 25.8131 11.3495L24.6031 9.3195C23.9331 8.1995 24.3031 6.7495 25.4231 6.0795C26.5431 5.4095 27.9931 5.7795 28.6631 6.8995L29.8731 8.9295Z" fill="#070000"/>
<path d="M50.6331 10.2293C51.3031 11.3493 50.9331 12.7993 49.8131 13.4693C48.6931 14.1393 47.2431 13.7693 46.5731 12.6493L45.3631 10.6193C44.6931 9.4993 45.0631 8.0493 46.1831 7.3793C47.3031 6.7093 48.7531 7.0793 49.4231 8.1993L50.6331 10.2293Z" fill="#070000"/>
<path d="M114.423 31.2494C114.043 31.1294 114.093 30.0394 114.133 28.3594C115.293 28.8194 116.103 21.4894 115.073 19.0594C113.253 14.7694 97.2231 10.1294 80.2931 10.1294C73.1131 5.91941 65.0931 1.88941 58.8231 0.649411C58.4731 0.579411 56.4331 1.15941 59.3031 2.65941C64.3631 5.28941 74.9431 10.1194 66.3331 10.1194C35.9031 10.1194 29.5131 9.98941 28.7531 8.47941C25.6031 3.44941 15.7031 9.55941 11.1331 11.2894C5.29314 13.5094 1.65314 14.4694 2.43314 17.5294C3.05314 19.9594 2.37314 21.0294 1.22314 21.4194C-0.0568567 21.8494 1.54314 31.3894 4.33314 32.1194C6.39314 32.6594 9.85314 33.2294 12.9531 33.5094C17.7931 33.9294 65.4931 33.8494 80.9331 33.3794C93.7931 32.9894 120.783 33.3294 114.413 31.2494H114.423Z" fill="#861E29"/>
<path d="M114.423 31.2493C114.223 31.1893 114.143 30.8593 114.123 30.3193C107.733 31.0093 90.8731 30.9193 81.4331 31.1893C65.6331 31.6593 16.8431 31.7393 11.8931 31.3193C8.72314 31.0493 5.18315 30.4793 3.07315 29.9293C2.72315 29.8393 2.39315 29.6093 2.08315 29.2893C2.67315 30.7393 3.44315 31.8693 4.33315 32.1093C6.39315 32.6493 9.85315 33.2193 12.9531 33.4993C17.7931 33.9193 65.4931 33.8393 80.9331 33.3693C93.7931 32.9793 120.783 33.3193 114.413 31.2393L114.423 31.2493Z" fill="#540C16"/>
<path d="M114.123 23.0693C114.093 24.7493 114.043 25.8393 114.413 25.9593C114.783 26.0793 115.033 26.1993 115.193 26.2993C115.553 24.4593 115.673 21.8093 115.343 20.0593C115.103 21.8693 114.643 23.2693 114.123 23.0593V23.0693Z" fill="#191919"/>
<path d="M20.7531 17.3994C26.8531 17.3994 31.7931 22.3394 31.7931 28.4394C31.7931 28.7894 31.8631 31.0994 31.9331 33.8494C22.7731 33.8294 15.4331 33.7294 12.9631 33.5094C11.7931 33.4094 10.6931 33.2894 9.66314 33.1594C9.68314 30.7994 9.71314 28.8794 9.71314 28.4394C9.71314 22.3394 14.6531 17.3994 20.7531 17.3994Z" fill="#191919"/>
<path d="M88.2031 17.3994C94.3031 17.3994 99.2431 22.3394 99.2431 28.4394C99.2431 28.7494 99.2631 30.8294 99.3331 33.1594C93.4831 33.3394 86.8031 33.1994 80.9331 33.3794C79.8931 33.4094 78.6031 33.4394 77.1131 33.4694C77.1331 30.9794 77.1731 28.8994 77.1731 28.4394C77.1731 22.3394 82.1131 17.3994 88.2131 17.3994H88.2031Z" fill="#191919"/>
<path d="M88.3231 38.0395C93.5257 38.0395 97.7431 33.822 97.7431 28.6195C97.7431 23.4169 93.5257 19.1995 88.3231 19.1995C83.1206 19.1995 78.9031 23.4169 78.9031 28.6195C78.9031 33.822 83.1206 38.0395 88.3231 38.0395Z" fill="#070000"/>
<path d="M84.2331 31.3394C86.1831 33.2894 85.9231 29.8594 87.8731 27.9094C89.8231 25.9594 93.2631 26.2194 91.3031 24.2694C89.3531 22.3194 86.1831 22.3194 84.2231 24.2694C82.2731 26.2194 82.2731 29.3894 84.2231 31.3494L84.2331 31.3394Z" fill="#D60606"/>
<path d="M81.0531 28.6194C81.0531 32.6394 84.3131 35.8894 88.3231 35.8894C92.3331 35.8894 95.5931 32.6294 95.5931 28.6194C95.5931 24.6094 92.3331 21.3494 88.3231 21.3494C84.3131 21.3494 81.0531 24.6094 81.0531 28.6194ZM82.3831 30.8294L83.3031 30.6794L82.5431 31.2294C82.4831 31.0994 82.4331 30.9594 82.3831 30.8294ZM82.0931 29.8094C82.0231 29.4194 81.9731 29.0294 81.9731 28.6194C81.9731 28.2094 82.0131 27.8394 82.0831 27.4594L85.1731 27.9494L86.1131 28.6294L85.1731 29.3094L82.0831 29.7994L82.0931 29.8094ZM94.0531 31.3094L93.1831 30.6794L94.2531 30.8494C94.1931 31.0094 94.1331 31.1594 94.0531 31.3094ZM91.3031 29.3194L90.3631 28.6394L91.3031 27.9594L94.5531 27.4394C94.6231 27.8194 94.6631 28.2194 94.6631 28.6294C94.6631 29.0394 94.6231 29.4494 94.5431 29.8394L91.3031 29.3194ZM94.2631 26.4194L93.1831 26.5894L94.0631 25.9494C94.1331 26.0994 94.2031 26.2594 94.2631 26.4194ZM82.5331 26.0294L83.3031 26.5894L82.3731 26.4394C82.4231 26.2994 82.4731 26.1694 82.5331 26.0294ZM84.7031 23.4194L86.5631 25.9894L86.7431 27.1394L85.5931 26.9594L83.0431 25.1094C83.4831 24.4494 84.0431 23.8794 84.6931 23.4294L84.7031 23.4194ZM85.6131 22.8894C85.7531 22.8194 85.8931 22.7594 86.0331 22.7094L86.1931 23.6994L85.6131 22.8994V22.8894ZM88.3231 22.2794C88.7031 22.2794 89.0731 22.3194 89.4331 22.3794L88.9231 25.5694L88.2431 26.5094L87.5631 25.5694L87.0631 22.3994C87.4731 22.3194 87.8931 22.2694 88.3331 22.2694L88.3231 22.2794ZM90.4531 22.6594C90.6031 22.7194 90.7631 22.7694 90.9131 22.8394L90.2931 23.6994L90.4631 22.6594H90.4531ZM93.5431 25.0294L90.8831 26.9594L89.7331 27.1394L89.9131 25.9894L91.8331 23.3494C92.5031 23.7994 93.0831 24.3694 93.5331 25.0294H93.5431ZM91.8231 33.8994L89.9231 31.2794L89.7431 30.1294L90.8931 30.3094L93.5331 32.2294C93.0731 32.8894 92.4931 33.4594 91.8331 33.8994H91.8231ZM90.8931 34.4094C90.7431 34.4694 90.5931 34.5294 90.4431 34.5894L90.2831 33.5794L90.8931 34.4194V34.4094ZM88.3231 34.9594C87.8931 34.9594 87.4731 34.9194 87.0631 34.8294L87.5631 31.6894L88.2431 30.7494L88.9231 31.6894L89.4231 34.8594C89.0631 34.9194 88.6931 34.9594 88.3131 34.9594H88.3231ZM86.0431 34.5294C85.9031 34.4794 85.7631 34.4194 85.6331 34.3494L86.2031 33.5694L86.0531 34.5294H86.0431ZM83.0631 32.1594L85.6031 30.3194L86.7531 30.1394L86.5731 31.2894L84.7231 33.8394C84.0731 33.3894 83.5131 32.8194 83.0731 32.1694L83.0631 32.1594Z" fill="#F9EFF0"/>
<path d="M86.6531 33.6094L85.8631 33.2794L86.9431 31.7794L86.6531 33.5994V33.6094ZM89.8431 33.6094L89.5531 31.7894L90.6331 33.2894L89.8431 33.6194V33.6094ZM87.1831 31.1894L87.4631 29.4094L85.6831 29.6894L87.1431 28.6294L85.6831 27.5694L87.4631 27.8494L87.1831 26.0694L88.2431 27.5294L89.3031 26.0694L89.0231 27.8494L90.8031 27.5694L89.3431 28.6294L90.8031 29.6894L89.0231 29.4094L89.3031 31.1894L88.2431 29.7294L87.1831 31.1894ZM83.6031 31.0194L83.2731 30.2294L85.0931 29.9394L83.5931 31.0194H83.6031ZM92.8931 31.0194L91.3931 29.9394L93.2131 30.2294L92.8831 31.0194H92.8931ZM91.3931 27.3294L92.8931 26.2494L93.2231 27.0394L91.4031 27.3294H91.3931ZM85.0931 27.3294L83.2731 27.0394L83.6031 26.2494L85.1031 27.3294H85.0931ZM86.9431 25.4794L85.8631 23.9794L86.6531 23.6494L86.9431 25.4694V25.4794ZM89.5531 25.4794L89.8431 23.6594L90.6331 23.9894L89.5531 25.4894V25.4794Z" fill="#999999"/>
<path d="M88.3231 20.5396C83.4831 20.5396 79.5431 24.3396 79.2931 29.1096C79.2931 28.9496 79.2731 28.7896 79.2731 28.6196C79.2731 23.6196 83.3231 19.5596 88.3331 19.5596C93.3431 19.5596 97.3931 23.6096 97.3931 28.6196C97.3931 28.7796 97.3731 28.9496 97.3731 29.1096C97.1231 24.3396 93.1831 20.5396 88.3431 20.5396H88.3231Z" fill="#262626"/>
<path d="M88.3231 35.9295C92.2331 35.9295 95.4231 32.8595 95.6331 28.9995C95.6331 29.1295 95.6531 29.2595 95.6531 29.3895C95.6531 33.4395 92.3731 36.7195 88.3231 36.7195C84.2731 36.7195 80.9931 33.4395 80.9931 29.3895C80.9931 29.2595 81.0031 29.1295 81.0131 28.9995C81.2231 32.8595 84.4031 35.9295 88.3231 35.9295Z" fill="#262626"/>
<path d="M10.9231 28.6195C10.9231 33.8195 15.1431 38.0395 20.3431 38.0395C25.5431 38.0395 29.7631 33.8195 29.7631 28.6195C29.7631 23.4195 25.5431 19.1995 20.3431 19.1995C15.1431 19.1995 10.9231 23.4195 10.9231 28.6195Z" fill="#070000"/>
<path d="M16.2631 31.3394C18.2131 33.2894 17.9531 29.8594 19.9031 27.9094C21.8531 25.9594 25.2931 26.2194 23.3331 24.2694C21.3831 22.3194 18.2131 22.3194 16.2531 24.2694C14.3031 26.2194 14.3031 29.3894 16.2531 31.3494L16.2631 31.3394Z" fill="#D60606"/>
<path d="M13.0731 28.6194C13.0731 32.6394 16.3331 35.8894 20.3431 35.8894C24.3531 35.8894 27.6131 32.6294 27.6131 28.6194C27.6131 24.6094 24.3531 21.3494 20.3431 21.3494C16.3331 21.3494 13.0731 24.6094 13.0731 28.6194ZM14.4031 30.8294L15.3231 30.6794L14.5631 31.2294C14.5031 31.0994 14.4531 30.9594 14.4031 30.8294ZM14.1231 29.8094C14.0531 29.4194 14.0131 29.0294 14.0131 28.6194C14.0131 28.2094 14.0531 27.8394 14.1231 27.4594L17.2131 27.9494L18.1531 28.6294L17.2131 29.3094L14.1231 29.7994V29.8094ZM26.0731 31.3094L25.2031 30.6794L26.2731 30.8494C26.2131 31.0094 26.1531 31.1594 26.0731 31.3094ZM23.3231 29.3194L22.3831 28.6394L23.3231 27.9594L26.5731 27.4394C26.6431 27.8194 26.6831 28.2194 26.6831 28.6294C26.6831 29.0394 26.6431 29.4494 26.5631 29.8394L23.3231 29.3194ZM26.2831 26.4194L25.2031 26.5894L26.0831 25.9494C26.1531 26.0994 26.2231 26.2594 26.2831 26.4194ZM14.5631 26.0294L15.3331 26.5894L14.4031 26.4394C14.4531 26.2994 14.5031 26.1694 14.5631 26.0294ZM16.7231 23.4194L18.5831 25.9894L18.7631 27.1394L17.6131 26.9594L15.0631 25.1094C15.5031 24.4494 16.0631 23.8794 16.7131 23.4294L16.7231 23.4194ZM17.6331 22.8894C17.7731 22.8194 17.9131 22.7594 18.0531 22.7094L18.2131 23.6994L17.6331 22.8994V22.8894ZM20.3431 22.2794C20.7231 22.2794 21.0931 22.3194 21.4531 22.3794L20.9431 25.5694L20.2631 26.5094L19.5831 25.5694L19.0831 22.3994C19.4931 22.3194 19.9131 22.2694 20.3531 22.2694L20.3431 22.2794ZM22.4731 22.6594C22.6231 22.7194 22.7831 22.7694 22.9331 22.8394L22.3131 23.6994L22.4831 22.6594H22.4731ZM25.5631 25.0294L22.9031 26.9594L21.7531 27.1394L21.9331 25.9894L23.8531 23.3494C24.5231 23.7994 25.1031 24.3694 25.5531 25.0294H25.5631ZM23.8431 33.8994L21.9431 31.2794L21.7631 30.1294L22.9131 30.3094L25.5531 32.2294C25.0931 32.8894 24.5131 33.4594 23.8531 33.8994H23.8431ZM22.9231 34.4094C22.7731 34.4694 22.6231 34.5294 22.4731 34.5894L22.3131 33.5794L22.9231 34.4194V34.4094ZM20.3431 34.9594C19.9131 34.9594 19.4931 34.9194 19.0831 34.8294L19.5831 31.6894L20.2631 30.7494L20.9431 31.6894L21.4431 34.8594C21.0831 34.9194 20.7131 34.9594 20.3331 34.9594H20.3431ZM18.0631 34.5294C17.9231 34.4794 17.7831 34.4194 17.6531 34.3494L18.2231 33.5694L18.0731 34.5294H18.0631ZM15.0831 32.1594L17.6231 30.3194L18.7731 30.1394L18.5931 31.2894L16.7431 33.8394C16.0931 33.3894 15.5331 32.8194 15.0931 32.1694L15.0831 32.1594Z" fill="#F9EFF0"/>
<path d="M18.6731 33.6094L17.8831 33.2794L18.9631 31.7794L18.6731 33.5994V33.6094ZM21.8631 33.6094L21.5731 31.7894L22.6531 33.2894L21.8631 33.6194V33.6094ZM19.2031 31.1894L19.4831 29.4094L17.7031 29.6894L19.1631 28.6294L17.7031 27.5694L19.4831 27.8494L19.2031 26.0694L20.2631 27.5294L21.3231 26.0694L21.0431 27.8494L22.8231 27.5694L21.3631 28.6294L22.8231 29.6894L21.0431 29.4094L21.3231 31.1894L20.2631 29.7294L19.2031 31.1894ZM15.6231 31.0194L15.2931 30.2294L17.1131 29.9394L15.6131 31.0194H15.6231ZM24.9131 31.0194L23.4131 29.9394L25.2331 30.2294L24.9031 31.0194H24.9131ZM23.4131 27.3294L24.9131 26.2494L25.2431 27.0394L23.4231 27.3294H23.4131ZM17.1131 27.3294L15.2931 27.0394L15.6231 26.2494L17.1231 27.3294H17.1131ZM18.9631 25.4794L17.8831 23.9794L18.6731 23.6494L18.9631 25.4694V25.4794ZM21.5731 25.4794L21.8631 23.6594L22.6531 23.9894L21.5731 25.4894V25.4794Z" fill="#999999"/>
<path d="M20.3431 20.5396C15.5031 20.5396 11.5631 24.3396 11.3131 29.1096C11.3131 28.9496 11.2931 28.7896 11.2931 28.6196C11.2931 23.6196 15.3431 19.5596 20.3531 19.5596C25.3631 19.5596 29.4131 23.6096 29.4131 28.6196C29.4131 28.7796 29.3931 28.9496 29.3931 29.1096C29.1431 24.3396 25.2031 20.5396 20.3631 20.5396H20.3431Z" fill="#262626"/>
<path d="M20.3431 35.9295C24.2531 35.9295 27.4431 32.8595 27.6531 28.9995C27.6531 29.1295 27.6731 29.2595 27.6731 29.3895C27.6731 33.4395 24.3931 36.7195 20.3431 36.7195C16.2931 36.7195 13.0131 33.4395 13.0131 29.3895C13.0131 29.2595 13.0231 29.1295 13.0331 28.9995C13.2431 32.8595 16.4231 35.9295 20.3431 35.9295Z" fill="#262626"/>
<path d="M107.443 28.1094L108.893 25.6594C109.143 25.2294 109.653 24.8694 110.023 24.8594L113.683 24.8894C114.273 24.8894 114.833 28.1094 114.273 28.1094H107.453H107.443Z" fill="#2B2B2B"/>
<path d="M102.533 31.3395L104.473 29.3495C104.723 28.9195 105.273 28.7295 105.643 28.7195L113.663 28.4595C114.253 28.4595 114.273 31.0495 113.723 31.0495L102.543 31.3395H102.533Z" fill="#2B2B2B"/>
<path d="M58.8731 0.709473C66.4731 2.43947 73.9931 6.40947 80.3631 10.1295L77.6531 10.0895C69.0231 3.70947 58.0331 1.30947 58.8731 0.709473Z" fill="#80C2DC"/>
<path d="M48.5531 32.0094H72.3631C74.8931 32.0094 74.9231 28.7494 74.9531 24.2294C74.9531 23.0394 74.9731 21.8094 75.0231 20.5194C75.2831 14.2194 75.2731 13.0894 73.4031 9.92944L73.2931 9.99944C75.1531 13.1194 75.1631 14.2494 74.9031 20.5194C74.8531 21.8194 74.8431 23.0494 74.8331 24.2294C74.8031 28.6694 74.7731 31.8794 72.3731 31.8794H48.5631C45.8131 31.8794 43.2631 29.7594 40.9631 25.5794C38.9631 21.9494 37.8231 17.9194 37.5231 16.7694C36.9431 14.5694 37.0931 12.8794 37.9531 11.7594C38.7331 10.7494 40.1031 10.2094 41.9331 10.2094V10.0794C40.0731 10.0794 38.6631 10.6294 37.8531 11.6794C36.9631 12.8294 36.8131 14.5594 37.4031 16.7994C37.7031 17.9494 38.8531 21.9994 40.8531 25.6394C43.1731 29.8594 45.7731 32.0094 48.5731 32.0094H48.5531Z" fill="#231F20"/>
<g opacity="0.5">
<path d="M95.8431 13.8095C63.2431 13.8195 44.6231 13.2795 22.4531 15.9895C18.7331 13.8995 11.4531 14.7295 11.4531 14.7295C54.8831 7.9395 95.8431 13.7995 95.8431 13.7995V13.8095Z" fill="white"/>
</g>
<g opacity="0.5">
<path d="M87.0231 15.3295C91.7731 14.9995 101.103 17.3595 104.173 26.7695L99.3831 25.8395C96.2331 17.3995 90.7132 17.0595 87.1932 17.2995C81.6532 17.6795 77.8831 22.2095 77.1631 26.7195C76.7331 21.0995 81.4831 15.7095 87.0231 15.3195V15.3295Z" fill="white"/>
</g>
<g opacity="0.5">
<path d="M76.4431 27.1093L29.4631 19.0493L40.8331 22.7193L76.4431 27.1093Z" fill="white"/>
</g>
<g opacity="0.5">
<path d="M106.783 28.0093L99.3331 26.5393L99.5731 28.7093L106.783 28.0093Z" fill="white"/>
</g>
<g opacity="0.5">
<path d="M114.423 31.2495L99.3331 31.6495L103.143 32.5995L115.233 31.6095L114.423 31.2495Z" fill="white"/>
</g>
<path d="M41.1531 15.6095C43.042 15.6095 44.5731 15.3006 44.5731 14.9195C44.5731 14.5384 43.042 14.2295 41.1531 14.2295C39.2643 14.2295 37.7331 14.5384 37.7331 14.9195C37.7331 15.3006 39.2643 15.6095 41.1531 15.6095Z" fill="#231F20"/>
<path d="M38.1431 14.7793C38.1431 15.0293 39.4931 15.2393 41.1531 15.2393C42.8131 15.2393 44.1631 15.0293 44.1631 14.7793C44.1631 14.5293 42.8131 14.3193 41.1531 14.3193C39.4931 14.3193 38.1431 14.5293 38.1431 14.7793Z" fill="#540C16"/>
<path d="M75.0431 11.0395C74.7731 12.3895 71.9431 12.9695 70.6031 12.6995C69.2631 12.4395 68.3931 11.1295 68.6531 9.77946C68.9231 8.42946 70.2231 7.54946 71.5631 7.81946C72.9031 8.07946 75.3131 9.68946 75.0431 11.0395Z" fill="#200000"/>
<g opacity="0.5">
<path d="M69.4131 8.89956C69.6731 9.54956 70.2431 10.0696 70.9831 10.2096C71.8231 10.3696 73.3231 10.1596 74.1831 9.58956C73.5431 8.81956 72.3731 8.14956 71.5931 7.98956C70.7231 7.81956 69.8731 8.19956 69.4031 8.88956L69.4131 8.89956Z" fill="white"/>
</g>
<g opacity="0.5">
<path d="M58.4731 2.1594C58.6931 1.9594 59.0931 1.8794 59.2331 1.9094C64.8931 2.9694 70.5031 6.6494 77.4531 10.4994C103.123 12.8894 110.643 16.6594 113.443 20.9394C114.223 22.1294 114.353 25.1494 115.073 26.8894C115.393 25.0894 115.893 21.7094 115.013 19.1294C113.643 15.0994 98.1531 10.2394 80.2831 10.1194C73.1131 5.9194 65.0931 1.8894 58.8231 0.649403C58.5131 0.589403 56.9031 1.0294 58.4731 2.1594Z" fill="white"/>
<path d="M1.75314 22.5295C3.02314 22.0995 3.98314 20.9495 3.94314 18.3995C3.89314 15.2595 7.71314 14.2595 13.8831 12.0295C18.6031 10.3195 22.9431 7.69948 28.7531 9.87948C33.7831 11.4095 37.8231 10.7095 66.4231 10.4995C68.6231 10.4795 69.4531 10.1395 69.4031 9.58948C69.0331 9.92948 68.0831 10.1295 66.3331 10.1295C35.9031 10.1295 29.5131 9.99948 28.7531 8.48948C25.6031 3.45948 15.7031 9.56948 11.1331 11.2995C5.29314 13.5095 1.65314 14.4695 2.43314 17.5295C3.05314 19.9595 2.37314 21.0295 1.22314 21.4195C0.783141 21.5695 0.693141 22.7895 0.863141 24.3495C1.10314 23.3395 1.41314 22.6395 1.75314 22.5195V22.5295Z" fill="white"/>
</g>
<path d="M114.063 21.4894C114.723 22.4694 114.443 23.2994 113.403 23.2994H107.443C106.403 23.2994 105.223 22.4694 104.823 21.4894L104.423 20.4994C104.063 19.6094 104.533 18.9094 105.473 18.9094H110.623C111.563 18.9094 112.793 19.6094 113.393 20.4994L114.063 21.4894Z" fill="#540C16"/>
<path d="M107.143 23.0595C106.273 23.0595 105.243 22.3495 104.903 21.4995L104.503 20.5095C104.383 20.2095 104.383 19.9395 104.503 19.7495C104.623 19.5695 104.863 19.4695 105.183 19.4695H110.333C111.153 19.4695 112.243 20.0995 112.773 20.8795L113.443 21.8695C113.753 22.3295 113.773 22.6595 113.683 22.8195C113.583 23.0195 113.283 23.0495 113.113 23.0495H107.153L107.143 23.0595Z" fill="white"/>
<path d="M108.063 29.9694C108.443 29.5094 108.383 29.1294 107.923 29.1294H106.383C105.923 29.1294 105.233 29.4994 104.853 29.9694C104.473 30.4294 104.533 30.8094 104.993 30.8094H106.533C106.993 30.8094 107.683 30.4394 108.063 29.9694Z" fill="white"/>
<path d="M113.713 22.6795C113.723 22.4995 113.663 22.2295 113.433 21.8895L112.763 20.8995C112.233 20.1195 111.143 19.4895 110.323 19.4895H105.173C104.863 19.4895 104.613 19.5895 104.493 19.7695C104.383 19.9395 104.383 20.1795 104.473 20.4395C107.903 20.0395 111.453 20.2195 113.713 22.6795Z" fill="#DEFCFF"/>
<path d="M105.253 22.0693C105.723 22.6393 106.483 23.0593 107.143 23.0593H110.853C109.013 22.5493 107.143 22.2293 105.243 22.0693H105.253Z" fill="#DEFCFF"/>
</g>
<defs>
<clipPath id="clip0_60_5345">
<rect width="114.76" height="37.39" fill="white" transform="translate(0.783142 0.649414)"/>
</clipPath>
</defs>
</svg>
