<svg width="117" height="40" viewBox="0 0 117 40" fill="none" xmlns="http://www.w3.org/2000/svg">
<g clip-path="url(#clip0_60_5286)">
<path d="M62.1441 16.0344C61.9941 16.3444 61.6141 16.4744 61.3041 16.3244C60.9941 16.1744 60.8541 15.7944 61.0141 15.4844L64.1241 9.02443C64.2741 8.71443 64.6541 8.57443 64.9641 8.73443C65.2741 8.88443 65.4041 9.26443 65.2541 9.57443L62.1441 16.0344Z" fill="#070000"/>
<path d="M57.5541 2.38439C57.5441 2.31439 57.4741 2.25439 57.3741 2.18439C55.2841 0.904385 33.6941 -1.75561 19.2041 9.14439C24.2041 8.35439 25.7341 7.13439 27.5641 10.1944C29.4041 10.9644 32.3041 12.0344 36.1341 11.7244C36.1341 5.54439 48.2841 2.15439 57.3141 4.08439L57.5541 2.39439V2.38439Z" fill="#262626"/>
<path d="M3.5541 21.2944C3.0841 23.1644 2.1741 24.5444 1.5241 24.3844C0.874104 24.2244 0.734104 22.5744 1.2041 20.7044C1.6741 18.8344 2.5841 17.4544 3.2341 17.6144C3.8841 17.7744 4.0241 19.4244 3.5541 21.2944Z" fill="#D60606"/>
<path d="M28.2641 10.6346C28.9341 11.7546 28.5641 13.2046 27.4441 13.8746C26.3241 14.5446 24.8741 14.1746 24.2041 13.0546L22.9941 11.0246C22.3241 9.90458 22.6941 8.45458 23.8141 7.78458C24.9341 7.11458 26.3841 7.48458 27.0541 8.60458L28.2641 10.6346Z" fill="#070000"/>
<path d="M49.0241 11.9344C49.6941 13.0544 49.3241 14.5044 48.2041 15.1744C47.0841 15.8444 45.6341 15.4744 44.9641 14.3544L43.7541 12.3244C43.0841 11.2044 43.4541 9.75438 44.5741 9.08438C45.6941 8.41438 47.1441 8.78438 47.8141 9.90438L49.0241 11.9344Z" fill="#070000"/>
<path d="M68.7141 13.6144C67.9341 14.6544 66.4541 14.8744 65.4041 14.0844C64.3641 13.3044 64.1441 11.8244 64.9341 10.7744L66.3541 8.88445C67.1341 7.84445 68.6141 7.62445 69.6641 8.41445C70.7041 9.19445 70.9241 10.6744 70.1341 11.7244L68.7141 13.6144Z" fill="#070000"/>
<path d="M115.324 32.9545C115.324 32.9545 115.224 31.9445 115.114 30.2645C115.714 29.3645 113.804 25.2045 112.574 22.7845C110.404 18.4945 96.3841 11.8445 79.4541 11.8445C71.9341 7.6345 63.5841 3.6045 57.2141 2.3645C56.8641 2.2945 54.8641 2.8745 57.8641 4.3745C63.1341 7.0045 74.1241 11.8345 65.5041 11.8345C35.0741 11.8345 28.6741 11.7045 27.7941 10.1945C24.2341 5.1645 14.8341 11.2745 10.4141 13.0045C4.75411 15.2145 1.18411 16.1745 2.22411 19.2345C3.04411 21.6645 2.45411 22.7345 1.33411 23.1245C0.084114 23.5545 -0.155886 31.0145 0.914114 31.9345C2.55411 33.3545 10.9341 34.9345 14.0541 35.2045C18.9341 35.6245 66.6141 35.5445 82.0241 35.0745C94.8441 34.6845 121.864 35.0245 115.334 32.9445L115.324 32.9545Z" fill="#F4CC25"/>
<path d="M115.974 32.9745C115.774 32.9145 116.284 31.7945 115.284 31.2045C112.414 31.5145 110.544 31.1045 104.484 31.4345C103.184 31.5045 97.6941 25.8045 96.3641 25.8745C90.0841 26.1945 84.2441 33.0245 79.9541 33.1445C78.5341 33.1845 76.8441 33.2245 74.9341 33.2645C66.9241 33.4145 55.1741 33.5145 43.8641 33.5445C39.4941 33.5545 33.2841 25.7945 29.2941 25.7845C18.7941 25.7645 12.3241 33.4445 10.4241 33.2745C7.25411 33.0045 10.6641 28.8545 8.55411 28.3145C8.20411 28.2245 0.60411 27.1345 0.29411 26.8145C-0.17589 33.2845 1.97411 33.8445 2.86411 34.0745C4.92411 34.6145 8.38411 35.1845 11.4841 35.4645C16.3241 35.8845 64.0241 35.8045 79.4641 35.3345C92.3241 34.9445 122.354 35.0445 115.994 32.9745H115.974Z" fill="#191919"/>
<path d="M111.194 24.7846C112.114 26.4346 113.974 29.5746 114.374 29.5646C114.764 29.5646 115.044 29.5846 115.224 29.6346C114.964 27.7746 113.514 24.4646 112.634 22.9246C112.524 24.2046 111.194 24.7846 111.194 24.7846Z" fill="#191919"/>
<path d="M19.1341 19.1145C25.2341 19.1145 30.1741 24.0545 30.1741 30.1545C30.1741 30.4945 30.2441 32.8145 30.3141 35.5645C21.1541 35.5445 13.8141 35.4445 11.3441 35.2245C10.1741 35.1245 9.07411 35.0045 8.04411 34.8745C8.06411 32.5145 8.09411 30.5945 8.09411 30.1545C8.09411 24.0545 13.0341 19.1145 19.1341 19.1145Z" fill="#191919"/>
<path d="M86.5941 19.1145C92.6941 19.1145 97.6341 24.0545 97.6341 30.1545C97.6341 30.4645 97.6541 32.5445 97.7241 34.8745C91.8741 35.0545 85.1941 34.9145 79.3241 35.0945C78.2841 35.1245 76.9941 35.1545 75.5041 35.1845C75.5241 32.6945 75.5641 30.6145 75.5641 30.1545C75.5641 24.0545 80.5041 19.1145 86.6041 19.1145H86.5941Z" fill="#191919"/>
<path d="M86.7141 39.7445C91.9166 39.7445 96.1341 35.5271 96.1341 30.3245C96.1341 25.122 91.9166 20.9045 86.7141 20.9045C81.5116 20.9045 77.2941 25.122 77.2941 30.3245C77.2941 35.5271 81.5116 39.7445 86.7141 39.7445Z" fill="#070000"/>
<path d="M82.6241 33.0445C84.5741 34.9945 84.3141 31.5645 86.2641 29.6145C88.2141 27.6645 91.6541 27.9245 89.6941 25.9745C87.7341 24.0245 84.5741 24.0245 82.6141 25.9745C80.6641 27.9245 80.6641 31.0945 82.6141 33.0545L82.6241 33.0445Z" fill="#F2A927"/>
<path d="M79.4341 30.3244C79.4341 34.3444 82.6941 37.5944 86.7041 37.5944C90.7141 37.5944 93.9741 34.3344 93.9741 30.3244C93.9741 26.3144 90.7141 23.0544 86.7041 23.0544C82.6941 23.0544 79.4341 26.3144 79.4341 30.3244ZM80.7741 32.5344L81.6941 32.3844L80.9341 32.9344C80.8741 32.8044 80.8241 32.6644 80.7741 32.5344ZM80.4841 31.5144C80.4141 31.1244 80.3641 30.7344 80.3641 30.3244C80.3641 29.9144 80.4041 29.5444 80.4741 29.1644L83.5641 29.6544L84.5041 30.3344L83.5641 31.0144L80.4741 31.5044L80.4841 31.5144ZM92.4441 33.0244L91.5741 32.3944L92.6441 32.5644C92.5841 32.7244 92.5241 32.8744 92.4441 33.0244ZM89.6941 31.0244L88.7541 30.3444L89.6941 29.6644L92.9441 29.1444C93.0141 29.5244 93.0541 29.9244 93.0541 30.3344C93.0541 30.7444 93.0141 31.1544 92.9341 31.5444L89.6941 31.0244ZM92.6541 28.1244L91.5741 28.2944L92.4541 27.6544C92.5241 27.8044 92.5941 27.9644 92.6541 28.1244ZM80.9241 27.7444L81.6941 28.3044L80.7641 28.1544C80.8141 28.0144 80.8641 27.8844 80.9241 27.7444ZM83.0941 25.1244L84.9541 27.6944L85.1341 28.8444L83.9841 28.6644L81.4341 26.8144C81.8741 26.1544 82.4341 25.5844 83.0841 25.1344L83.0941 25.1244ZM84.0041 24.6044C84.1441 24.5344 84.2841 24.4744 84.4241 24.4244L84.5841 25.4144L84.0041 24.6144V24.6044ZM86.7141 23.9844C87.0941 23.9844 87.4641 24.0244 87.8241 24.0844L87.3141 27.2744L86.6341 28.2144L85.9541 27.2744L85.4541 24.1044C85.8641 24.0244 86.2841 23.9744 86.7241 23.9744L86.7141 23.9844ZM88.8441 24.3644C88.9941 24.4244 89.1541 24.4744 89.3041 24.5444L88.6841 25.4044L88.8541 24.3644H88.8441ZM91.9341 26.7344L89.2741 28.6644L88.1241 28.8444L88.3041 27.6944L90.2241 25.0544C90.8941 25.5044 91.4741 26.0744 91.9241 26.7344H91.9341ZM90.2141 35.6144L88.3141 32.9944L88.1341 31.8444L89.2841 32.0244L91.9241 33.9444C91.4641 34.6044 90.8841 35.1744 90.2241 35.6144H90.2141ZM89.2841 36.1244C89.1341 36.1844 88.9841 36.2444 88.8341 36.3044L88.6741 35.2944L89.2841 36.1344V36.1244ZM86.7141 36.6744C86.2841 36.6744 85.8641 36.6344 85.4541 36.5444L85.9541 33.4044L86.6341 32.4644L87.3141 33.4044L87.8141 36.5744C87.4541 36.6344 87.0841 36.6744 86.7041 36.6744H86.7141ZM84.4341 36.2444C84.2941 36.1944 84.1541 36.1344 84.0241 36.0644L84.5941 35.2844L84.4441 36.2444H84.4341ZM81.4441 33.8644L83.9841 32.0244L85.1341 31.8444L84.9541 32.9944L83.1041 35.5444C82.4541 35.0944 81.8941 34.5244 81.4541 33.8744L81.4441 33.8644Z" fill="#F9EFF0"/>
<path d="M85.0341 35.3145L84.2441 34.9845L85.3241 33.4845L85.0341 35.3045V35.3145ZM88.2241 35.3145L87.9341 33.4945L89.0141 34.9945L88.2241 35.3245V35.3145ZM85.5741 32.8945L85.8541 31.1145L84.0741 31.3945L85.5341 30.3345L84.0741 29.2745L85.8541 29.5545L85.5741 27.7745L86.6341 29.2345L87.6941 27.7745L87.4141 29.5545L89.1941 29.2745L87.7341 30.3345L89.1941 31.3945L87.4141 31.1145L87.6941 32.8945L86.6341 31.4345L85.5741 32.8945ZM81.9841 32.7345L81.6541 31.9445L83.4741 31.6545L81.9741 32.7345H81.9841ZM91.2741 32.7345L89.7841 31.6545L91.6041 31.9445L91.2741 32.7345ZM89.7841 29.0345L91.2841 27.9545L91.6141 28.7445L89.7941 29.0345H89.7841ZM83.4841 29.0345L81.6641 28.7445L81.9941 27.9545L83.4841 29.0345ZM85.3241 27.1945L84.2441 25.6945L85.0341 25.3645L85.3241 27.1845V27.1945ZM87.9341 27.1945L88.2241 25.3745L89.0141 25.7045L87.9341 27.2045V27.1945Z" fill="#999999"/>
<path d="M86.7141 22.2446C81.8741 22.2446 77.9341 26.0446 77.6841 30.8146C77.6841 30.6546 77.6641 30.4946 77.6641 30.3246C77.6641 25.3246 81.7141 21.2646 86.7241 21.2646C91.7341 21.2646 95.7841 25.3146 95.7841 30.3246C95.7841 30.4846 95.7641 30.6546 95.7641 30.8146C95.5141 26.0446 91.5741 22.2446 86.7341 22.2446H86.7141Z" fill="#262626"/>
<path d="M86.7141 37.6346C90.6241 37.6346 93.8141 34.5646 94.0241 30.7046C94.0241 30.8346 94.0441 30.9646 94.0441 31.0946C94.0441 35.1446 90.7641 38.4246 86.7141 38.4246C82.6641 38.4246 79.3841 35.1446 79.3841 31.0946C79.3841 30.9646 79.3941 30.8346 79.4041 30.7046C79.6141 34.5646 82.7941 37.6346 86.7141 37.6346Z" fill="#262626"/>
<path d="M9.31412 30.3245C9.31412 35.5245 13.5341 39.7445 18.7341 39.7445C23.9341 39.7445 28.1541 35.5245 28.1541 30.3245C28.1541 25.1245 23.9341 20.9045 18.7341 20.9045C13.5341 20.9045 9.31412 25.1245 9.31412 30.3245Z" fill="#070000"/>
<path d="M14.6441 33.0445C16.5941 34.9945 16.3341 31.5645 18.2841 29.6145C20.2341 27.6645 23.6741 27.9245 21.7141 25.9745C19.7641 24.0245 16.5941 24.0245 14.6341 25.9745C12.6841 27.9245 12.6841 31.0945 14.6341 33.0545L14.6441 33.0445Z" fill="#F2A927"/>
<path d="M11.4641 30.3244C11.4641 34.3444 14.7241 37.5944 18.7341 37.5944C22.7441 37.5944 26.0041 34.3344 26.0041 30.3244C26.0041 26.3144 22.7441 23.0544 18.7341 23.0544C14.7241 23.0544 11.4641 26.3144 11.4641 30.3244ZM12.7941 32.5344L13.7141 32.3844L12.9541 32.9344C12.8941 32.8044 12.8441 32.6644 12.7941 32.5344ZM12.5041 31.5144C12.4341 31.1244 12.3841 30.7344 12.3841 30.3244C12.3841 29.9144 12.4241 29.5444 12.4941 29.1644L15.5841 29.6544L16.5241 30.3344L15.5841 31.0144L12.4941 31.5044L12.5041 31.5144ZM24.4641 33.0244L23.5941 32.3944L24.6641 32.5644C24.6041 32.7244 24.5441 32.8744 24.4641 33.0244ZM21.7141 31.0244L20.7741 30.3444L21.7141 29.6644L24.9641 29.1444C25.0341 29.5244 25.0741 29.9244 25.0741 30.3344C25.0741 30.7444 25.0341 31.1544 24.9541 31.5444L21.7141 31.0244ZM24.6741 28.1244L23.5941 28.2944L24.4741 27.6544C24.5441 27.8044 24.6141 27.9644 24.6741 28.1244ZM12.9441 27.7444L13.7141 28.3044L12.7841 28.1544C12.8341 28.0144 12.8841 27.8844 12.9441 27.7444ZM15.1141 25.1244L16.9741 27.6944L17.1541 28.8444L16.0041 28.6644L13.4541 26.8144C13.8941 26.1544 14.4541 25.5844 15.1041 25.1344L15.1141 25.1244ZM16.0241 24.6044C16.1641 24.5344 16.3041 24.4744 16.4441 24.4244L16.6041 25.4144L16.0241 24.6144V24.6044ZM18.7341 23.9844C19.1141 23.9844 19.4841 24.0244 19.8441 24.0844L19.3341 27.2744L18.6541 28.2144L17.9741 27.2744L17.4741 24.1044C17.8841 24.0244 18.3041 23.9744 18.7441 23.9744L18.7341 23.9844ZM20.8641 24.3644C21.0141 24.4244 21.1741 24.4744 21.3241 24.5444L20.7041 25.4044L20.8741 24.3644H20.8641ZM23.9541 26.7344L21.2941 28.6644L20.1441 28.8444L20.3241 27.6944L22.2441 25.0544C22.9141 25.5044 23.4941 26.0744 23.9441 26.7344H23.9541ZM22.2341 35.6144L20.3341 32.9944L20.1541 31.8444L21.3041 32.0244L23.9441 33.9444C23.4841 34.6044 22.9041 35.1744 22.2441 35.6144H22.2341ZM21.3041 36.1244C21.1541 36.1844 21.0041 36.2444 20.8541 36.3044L20.6941 35.2944L21.3041 36.1344V36.1244ZM18.7341 36.6744C18.3041 36.6744 17.8841 36.6344 17.4741 36.5444L17.9741 33.4044L18.6541 32.4644L19.3341 33.4044L19.8341 36.5744C19.4741 36.6344 19.1041 36.6744 18.7241 36.6744H18.7341ZM16.4541 36.2444C16.3141 36.1944 16.1741 36.1344 16.0441 36.0644L16.6141 35.2844L16.4641 36.2444H16.4541ZM13.4741 33.8644L16.0141 32.0244L17.1641 31.8444L16.9841 32.9944L15.1341 35.5444C14.4841 35.0944 13.9241 34.5244 13.4841 33.8744L13.4741 33.8644Z" fill="#F9EFF0"/>
<path d="M17.0541 35.3145L16.2641 34.9845L17.3441 33.4845L17.0541 35.3045V35.3145ZM20.2541 35.3145L19.9641 33.4945L21.0441 34.9945L20.2541 35.3245V35.3145ZM17.5941 32.8945L17.8741 31.1145L16.0941 31.3945L17.5541 30.3345L16.0941 29.2745L17.8741 29.5545L17.5941 27.7745L18.6541 29.2345L19.7141 27.7745L19.4341 29.5545L21.2141 29.2745L19.7541 30.3345L21.2141 31.3945L19.4341 31.1145L19.7141 32.8945L18.6541 31.4345L17.5941 32.8945ZM14.0041 32.7345L13.6741 31.9445L15.4941 31.6545L13.9941 32.7345H14.0041ZM23.3041 32.7345L21.8141 31.6545L23.6341 31.9445L23.3041 32.7345ZM21.8041 29.0345L23.3041 27.9545L23.6341 28.7445L21.8141 29.0345H21.8041ZM15.5041 29.0345L13.6841 28.7445L14.0141 27.9545L15.5141 29.0345H15.5041ZM17.3541 27.1945L16.2741 25.6945L17.0641 25.3645L17.3541 27.1845V27.1945ZM19.9641 27.1945L20.2541 25.3745L21.0441 25.7045L19.9641 27.2045V27.1945Z" fill="#999999"/>
<path d="M18.7341 22.2446C13.8941 22.2446 9.95411 26.0446 9.70411 30.8146C9.70411 30.6546 9.68411 30.4946 9.68411 30.3246C9.68411 25.3246 13.7341 21.2646 18.7441 21.2646C23.7541 21.2646 27.8041 25.3146 27.8041 30.3246C27.8041 30.4846 27.7841 30.6546 27.7841 30.8146C27.5341 26.0446 23.5941 22.2446 18.7541 22.2446H18.7341Z" fill="#262626"/>
<path d="M18.7341 37.6346C22.6441 37.6346 25.8341 34.5646 26.0441 30.7046C26.0441 30.8346 26.0641 30.9646 26.0641 31.0946C26.0641 35.1446 22.7841 38.4246 18.7341 38.4246C14.6841 38.4246 11.4041 35.1446 11.4041 31.0946C11.4041 30.9646 11.4141 30.8346 11.4241 30.7046C11.6341 34.5646 14.8141 37.6346 18.7341 37.6346Z" fill="#262626"/>
<path d="M103.794 33.0546L105.734 31.0646C105.984 30.6346 106.534 30.4446 106.904 30.4346L114.924 30.1746C115.514 30.1746 115.534 32.7646 114.984 32.7646L103.804 33.0546H103.794Z" fill="#2B2B2B"/>
<path d="M57.2541 2.41455C64.8541 4.14455 72.3741 8.11455 78.7441 11.8446L76.0341 11.8046C67.4041 5.41455 56.4041 3.01455 57.2441 2.41455H57.2541Z" fill="#80C2DC"/>
<path d="M46.9441 33.7245H70.7541C73.2841 33.7245 73.3141 30.4645 73.3441 25.9445C73.3441 24.7545 73.3641 23.5245 73.4141 22.2345C73.6741 15.9345 73.6641 14.8045 71.7941 11.6445L71.6841 11.7145C73.5441 14.8345 73.5541 15.9645 73.2941 22.2345C73.2441 23.5345 73.2341 24.7645 73.2241 25.9445C73.1941 30.3845 73.1641 33.5945 70.7641 33.5945H46.9541C44.2041 33.5945 41.6541 31.4745 39.3541 27.2945C37.3541 23.6645 36.2141 19.6345 35.9141 18.4845C35.3341 16.2845 35.4841 14.5945 36.3441 13.4745C37.1241 12.4645 38.4941 11.9245 40.3241 11.9245V11.7945C38.4641 11.7945 37.0541 12.3445 36.2441 13.3945C35.3541 14.5445 35.2041 16.2745 35.7941 18.5145C36.0941 19.6645 37.2441 23.7145 39.2441 27.3545C41.5641 31.5745 44.1641 33.7245 46.9641 33.7245H46.9441Z" fill="#231F20"/>
<g opacity="0.5">
<path d="M94.2341 15.5146C61.6341 15.5246 43.0141 14.9846 20.8441 17.6946C17.1241 15.6046 9.84412 16.4346 9.84412 16.4346C53.2741 9.64458 94.2341 15.5046 94.2341 15.5046V15.5146Z" fill="white"/>
</g>
<g opacity="0.5">
<path d="M85.2741 16.6145C90.0241 16.2845 96.7341 16.9545 99.0841 26.1445L96.8841 25.7045C93.7941 19.9445 89.0941 18.7645 85.5741 19.0145C80.0341 19.3945 76.2641 23.9245 75.5441 28.4345C75.1141 22.8145 79.7341 16.9945 85.2741 16.6145Z" fill="white"/>
</g>
<g opacity="0.5">
<path d="M75.4641 24.0444L26.0541 20.7644L29.6641 25.2144L75.4641 24.0444Z" fill="white"/>
</g>
<g opacity="0.5">
<path d="M113.204 29.3245L98.1741 26.5745L102.394 30.1045L113.204 29.3245Z" fill="white"/>
</g>
<g opacity="0.5">
<path d="M112.814 32.9546L97.7141 33.3546L101.534 34.1946L112.434 33.3046L112.814 32.9546Z" fill="white"/>
</g>
<path d="M39.5441 17.3246C41.4329 17.3246 42.9641 17.0157 42.9641 16.6346C42.9641 16.2535 41.4329 15.9446 39.5441 15.9446C37.6553 15.9446 36.1241 16.2535 36.1241 16.6346C36.1241 17.0157 37.6553 17.3246 39.5441 17.3246Z" fill="#231F20"/>
<path d="M36.5341 16.4844C36.5341 16.7344 37.8841 16.9444 39.5441 16.9444C41.2041 16.9444 42.5541 16.7344 42.5541 16.4844C42.5541 16.2344 41.2041 16.0244 39.5441 16.0244C37.8841 16.0244 36.5341 16.2344 36.5341 16.4844Z" fill="#540C16"/>
<g opacity="0.5">
<path d="M56.8641 3.87449C57.0841 3.67449 57.4841 3.59449 57.6241 3.62449C63.2841 4.68449 68.8941 8.36449 75.8441 12.2145C101.514 14.6045 108.214 20.3045 111.004 24.5945C111.784 25.7845 114.564 30.6145 115.284 32.3545C115.474 27.9145 113.454 25.3645 112.574 22.7845C111.204 18.7545 96.5341 11.9645 78.6741 11.8445C71.5041 7.63449 63.4741 3.60449 57.2141 2.36449C56.9041 2.30449 55.2941 2.74449 56.8641 3.87449Z" fill="white"/>
<path d="M1.71411 24.3044C2.95411 23.8744 3.89411 22.7244 3.85411 20.1744C3.80411 17.0344 7.53411 16.0344 13.5641 13.8044C18.1741 12.0944 22.4141 9.47438 28.0941 11.6544C33.0041 13.1744 36.9541 12.4844 64.8841 12.2744C67.0341 12.2544 67.8441 11.9144 67.7941 11.3644C67.4341 11.7044 66.5041 11.9044 64.7941 11.9044C35.0741 11.9044 28.8241 11.7744 28.0841 10.2644C25.0141 5.23438 15.3441 11.3444 10.8741 13.0744C5.16411 15.2844 1.46411 15.8644 2.22411 18.9344C2.83411 21.3644 2.31411 22.8144 1.19411 23.1944C0.764111 23.3444 0.244111 25.9744 0.354111 26.9344C0.584111 25.9244 1.37411 24.4144 1.70411 24.2944L1.71411 24.3044Z" fill="white"/>
</g>
<path d="M110.354 31.7946C110.734 31.3346 110.674 30.9546 110.214 30.9546H108.674C108.214 30.9546 107.524 31.3246 107.144 31.7946C106.764 32.2546 106.824 32.6346 107.284 32.6346H108.824C109.284 32.6346 109.974 32.2646 110.354 31.7946Z" fill="white"/>
<path d="M101.054 16.5944C103.014 14.1044 105.904 13.2244 105.904 13.2244C105.904 13.2244 106.564 16.4644 105.724 18.9244C104.284 19.0044 101.054 16.5944 101.054 16.5944Z" fill="#F9EFF0"/>
<path d="M101.054 16.5944C103.014 14.1044 105.904 13.2244 105.904 13.2244C105.904 13.2244 105.524 15.5044 105.724 18.9244C104.284 19.0044 101.054 16.5944 101.054 16.5944Z" fill="#F4CC25"/>
<path d="M73.4341 12.7443C73.1641 14.0943 70.3341 14.6743 68.9941 14.4043C67.6541 14.1443 66.7841 12.8343 67.0441 11.4843C67.3141 10.1343 68.6141 9.25429 69.9541 9.52429C71.2941 9.78429 73.7041 11.3943 73.4341 12.7443Z" fill="#FFE161"/>
<g opacity="0.5">
<path d="M67.8041 10.6144C68.0641 11.2644 68.6341 11.7844 69.3741 11.9244C70.2141 12.0844 71.7141 11.8744 72.5741 11.3044C71.9341 10.5344 70.7641 9.86441 69.9841 9.70441C69.1141 9.53441 68.2641 9.91441 67.7941 10.6044L67.8041 10.6144Z" fill="white"/>
</g>
<g opacity="0.5">
<path d="M37.0441 29.4043C45.5141 31.3143 67.7441 32.0843 74.9641 29.4843C68.2541 31.7543 43.7641 36.3643 37.0441 29.4043Z" fill="white"/>
</g>
</g>
<defs>
<clipPath id="clip0_60_5286">
<rect width="116.64" height="38.8" fill="white" transform="translate(0.214111 0.944336)"/>
</clipPath>
</defs>
</svg>
