<svg width="138" height="34" viewBox="0 0 138 34" fill="none" xmlns="http://www.w3.org/2000/svg">
<g clip-path="url(#clip0_60_4998)">
<path d="M90.7112 2.15747C90.7112 2.15747 101.338 7.23355 110.776 13.4129C110.776 13.4129 107.955 13.6137 105.171 13.2758C102.387 12.9378 90.7144 2.15747 90.7144 2.15747H90.7112Z" fill="#3D5456"/>
<path d="M102.183 9.70142C103.554 10.084 107.543 10.76 107.891 11.0055C107.891 11.0055 109.772 12.2235 109.587 12.4403C109.402 12.6603 104.355 12.4148 104.355 12.4148L102.183 9.70142Z" fill="#403F3F"/>
<path d="M133.249 14.6402C133.23 14.6339 121.267 10.9767 103.765 10.9767C71.8034 10.9767 6.38508 10.6387 3.7482 12.0416C2.4441 12.7367 1.13044 16.2855 1.4748 23.3767C1.74263 28.9566 4.80678 22.1555 2.70875 28.5516H135.58C135.58 28.5516 137.362 23.2811 136.992 21.1894C136.963 21.0172 136.466 22.5477 136.09 21.9355C135.867 21.572 135.895 20.2073 135.484 18.2369C135.025 16.0464 134.212 14.9399 133.246 14.637L133.249 14.6402Z" fill="#494949"/>
<path d="M136.163 28.4784C136.036 28.7175 135.714 28.912 135.443 28.912H1.47161C0.314188 28.9152 0.467236 21.2501 0.467236 21.2501C0.473613 20.979 0.696807 20.759 0.967829 20.759H24.6137C24.8847 20.759 25.1972 20.9599 25.312 21.2054L27.1709 25.2229C27.2857 25.4684 27.5981 25.6693 27.8692 25.6693H111.768C112.039 25.6693 112.374 25.478 112.511 25.2484L114.937 21.1831C115.074 20.9503 115.409 20.7622 115.68 20.7622H136.871C137.142 20.7622 137.359 20.9822 137.352 21.2532L137.273 25.9148C137.27 26.1858 137.161 26.6004 137.034 26.8395L136.166 28.4816L136.163 28.4784Z" fill="#2D2C2C"/>
<path d="M111.969 21.1926H24.6934V18.8108H113.053L111.969 21.1926Z" fill="#2D2C2C"/>
<path d="M88.61 1.03824C84.3278 0.0561805 32.3043 -0.0586053 28.6982 1.03824C23.2108 2.7122 10.8968 12.3797 10.8968 12.3797L109.597 15.5204C108.87 15.6288 110.866 15.1983 110.123 14.685C105.627 11.5762 92.1779 1.85449 88.6068 1.03505L88.61 1.03824Z" fill="#494949"/>
<path d="M101.351 10.9416C101.067 10.9288 100.777 10.9161 100.478 10.8969C97.3018 10.7056 83.4191 10.6642 72.3327 10.6642C52.7458 10.6642 28.8767 10.7885 22.5699 10.8714V9.97546C23.3542 9.31544 24.1227 8.6044 24.9325 7.85511C27.1071 5.84317 29.3486 3.76427 31.7527 2.92888C32.2948 2.75989 37.9001 2.46655 55.405 2.46655C72.9098 2.46655 87.3505 2.74076 88.3357 2.96396C90.2999 3.41354 96.3452 7.52669 101.201 10.8332L101.351 10.9352V10.9416Z" fill="#283D3D"/>
<path d="M55.4082 2.96399C72.2115 2.96399 87.105 3.23182 88.2273 3.44864C89.93 3.83764 95.2484 7.38643 99.6358 10.3677C95.2867 10.2082 82.6092 10.1732 72.3359 10.1732C53.2304 10.1732 30.0501 10.2911 23.0641 10.3741V10.2019C23.7974 9.57693 24.5149 8.91053 25.2737 8.20906C27.3973 6.24495 29.5909 4.21069 31.8867 3.404C32.6296 3.2382 38.3912 2.95761 55.4082 2.95761V2.96399ZM55.4082 1.98193C38.9651 1.98193 32.3012 2.24658 31.5933 2.46977C29.0935 3.34023 26.8106 5.45102 24.6073 7.49165C23.7432 8.29196 22.9206 9.05401 22.082 9.74592V11.3689C27.5471 11.2828 52.2739 11.152 72.3359 11.152C83.4159 11.152 97.2859 11.1935 100.452 11.3848C101.243 11.4326 101.983 11.4581 102.658 11.4581C102.77 11.4581 102.878 11.4581 102.987 11.4581C102.493 11.1233 101.992 10.7822 101.485 10.4346C96.3389 6.93048 90.5039 2.9608 88.4505 2.49209C87.3059 2.23064 71.2486 1.98193 55.4114 1.98193H55.4082Z" fill="#2D2C2C"/>
<path d="M34.2525 10.878C35.0177 10.9163 35.7957 10.8398 36.5833 10.878L39.4051 2.35836L38.4071 2.30735C37.9862 2.33605 37.492 2.18937 37.0839 2.22445L34.2525 10.8812V10.878Z" fill="#2D2C2C"/>
<path d="M79.9532 10.878C79.188 10.9163 78.2984 10.8398 77.514 10.878L76.0186 2.35836L77.0134 2.30735C77.4343 2.33605 78.0369 2.18937 78.4451 2.22445L79.9532 10.8812V10.878Z" fill="#2D2C2C"/>
<g style="mix-blend-mode:darken" opacity="0.4">
<path d="M105.566 26.1189C105.557 19.7036 105.263 12.7304 101.9 11.2254L102.049 10.8906C105.611 12.4849 105.923 19.5856 105.933 26.1189H105.566Z" fill="#2D2C2C"/>
</g>
<g style="mix-blend-mode:darken" opacity="0.7">
<path d="M80.1062 26.1189C80.0935 18.5558 79.5961 13.3713 78.665 11.1298L79.0062 10.9895C79.9691 13.3075 80.4633 18.3996 80.4761 26.1189H80.1094H80.1062Z" fill="#2D2C2C"/>
</g>
<path d="M96.1061 8.76076C97.627 8.83728 98.8004 10.0872 98.7239 11.5539C98.6505 13.0206 97.356 14.1461 95.8351 14.0664L96.1029 8.75757L96.1061 8.76076Z" fill="#2D2C2C"/>
<path d="M129.094 28.8229C129.33 28.3 129.528 27.7516 129.671 27.1776C130.988 21.9644 127.828 16.6684 122.615 15.3515C117.402 14.0347 112.109 17.1976 110.792 22.4108C110.228 24.6396 110.486 26.8811 111.369 28.8229H129.094Z" fill="#2B2A2A"/>
<g style="mix-blend-mode:darken" opacity="0.7">
<path d="M33.0983 25.9595C32.062 18.2242 34.1313 11.0532 35.5311 9.3761C35.7479 9.11783 35.9488 8.9871 36.1528 8.97754L36.1752 9.46857C36.1752 9.46857 36.0859 9.47813 35.9073 9.69176C34.5937 11.2669 32.5817 18.4123 33.5829 25.8957L33.0951 25.9595H33.0983Z" fill="#2D2C2C"/>
</g>
<path d="M95.6246 7.16968L94.8722 10.7599H100.898L95.6246 7.16968Z" fill="#2D2C2C"/>
<path d="M95.6246 11.8473C95.9626 11.9876 96.1826 12.418 96.1826 12.418C96.1826 12.418 97.8279 11.2638 99.1671 11.3212C100.506 11.3785 98.1882 9.70459 98.1882 9.70459L96.1858 10.0266L95.6278 11.8504L95.6246 11.8473Z" fill="#2D2C2C"/>
<path d="M94.6649 7.90625C95.9786 7.90625 97.0467 9.04773 97.0467 10.4539C97.0467 11.86 95.9786 13.0015 94.6649 13.0015V7.90625Z" fill="#363535"/>
<g style="mix-blend-mode:screen" opacity="0.2">
<path d="M94.6649 7.90625V9.25179C95.8 9.35064 96.7056 10.2976 96.8363 11.4997C96.9702 11.1808 97.0467 10.8301 97.0467 10.457C97.0467 9.05092 95.9818 7.90944 94.6649 7.90944V7.90625Z" fill="#363535"/>
</g>
<path d="M33.6531 28.8229C33.889 28.3 34.0867 27.7516 34.2302 27.1776C35.547 21.9644 32.3872 16.6684 27.1709 15.3515C21.9577 14.0347 16.6648 17.1976 15.3479 22.4108C14.7868 24.6396 15.0418 26.8811 15.9251 28.8229H33.6499H33.6531Z" fill="#2B2A2A"/>
<path d="M22.5954 33.5831C17.9179 32.4034 15.0801 27.6493 16.263 22.9686C17.4428 18.2879 22.1968 15.4533 26.8744 16.6331C31.5551 17.8128 34.3896 22.5669 33.2099 27.2476C32.027 31.9283 27.2761 34.7629 22.5954 33.5831Z" fill="#444442"/>
<path d="M24.7444 31.1217C24.2502 31.1217 23.7528 31.058 23.265 30.9368C21.709 30.5446 20.3985 29.5689 19.5759 28.1883C18.7532 26.8077 18.5173 25.1911 18.9095 23.6352C19.5854 20.96 21.98 19.0916 24.7317 19.0916C25.2259 19.0916 25.7233 19.1521 26.2079 19.2765C29.4219 20.0864 31.3797 23.3641 30.5666 26.5781C29.8907 29.2533 27.4961 31.1217 24.7444 31.1217Z" fill="#403F3F"/>
<g opacity="0.4">
<path d="M23.8261 28.7143C21.8333 28.2105 20.6281 26.189 21.1287 24.1994C21.6325 22.2066 23.654 21.0013 25.6436 21.5019C27.6364 22.0057 28.8416 24.0272 28.3379 26.0168C27.8341 28.0065 25.8126 29.2149 23.823 28.7111L23.8261 28.7143Z" fill="#B9B9B1"/>
</g>
<path d="M23.7592 28.979C21.6197 28.4402 20.3252 26.2688 20.864 24.1325C21.4029 21.993 23.5743 20.6985 25.7137 21.2374C27.8532 21.7762 29.1477 23.9476 28.6089 26.0871C28.0668 28.2233 25.8987 29.5211 23.7592 28.979Z" fill="#CDCDC5"/>
<path d="M24.3905 26.476L25.0824 23.7403L19.4356 23.0325L19.0848 24.4195L24.3905 26.476Z" fill="#CDCDC5"/>
<path d="M23.3224 25.1975L26.141 25.0094L25.0697 19.4199L23.6412 19.5156L23.3224 25.1975Z" fill="#CDCDC5"/>
<path d="M24.2119 23.7882L25.261 26.4091L30.2478 23.6638L29.7121 22.3342L24.2119 23.7882Z" fill="#CDCDC5"/>
<path d="M25.8253 24.1963L23.6572 26.0042L27.8086 29.8973L28.9086 28.979L25.8253 24.1963Z" fill="#CDCDC5"/>
<path d="M25.9369 25.8575L23.5455 24.3557L21.1287 29.5051L22.3403 30.2704L25.9369 25.8575Z" fill="#CDCDC5"/>
<path d="M30.0182 25.1432C30.0182 25.1432 30.0182 25.1432 30.0182 25.1368C30.0341 22.2576 27.7065 19.9013 24.8241 19.8822C21.9417 19.8662 19.5854 22.1938 19.5695 25.0762V25.0826H18.7213V25.073C18.7405 21.7251 21.4826 19.0181 24.8305 19.0372C28.1784 19.0563 30.8886 21.7953 30.8695 25.1432C30.8695 25.1432 30.8695 25.1464 30.8695 25.1496L30.0214 25.1432H30.0182Z" fill="#CDCDC5" stroke="#CDCDC5" stroke-width="0.242326" stroke-miterlimit="10"/>
<path d="M24.1482 27.4453C22.8632 27.1169 22.0852 25.8065 22.4105 24.5151C22.7357 23.2238 24.043 22.4426 25.3279 22.771C26.6129 23.0994 27.3909 24.4131 27.0657 25.7044C26.7404 26.9958 25.4332 27.777 24.1482 27.4485V27.4453Z" fill="#B9B9B1"/>
<path d="M19.5121 25.1367C19.528 27.9904 21.8429 30.3181 24.7062 30.334C27.5694 30.3499 29.913 28.051 29.9608 25.1973H30.8089C30.7579 28.5229 28.0318 31.2013 24.703 31.1789C21.3742 31.1598 18.6799 28.4528 18.6671 25.1304H19.5153L19.5121 25.1367Z" fill="#CDCDC5" stroke="#CDCDC5" stroke-width="0.242326" stroke-miterlimit="10"/>
<path d="M118.269 33.478C113.649 32.311 110.85 27.6175 112.017 22.9942C113.184 18.3709 117.877 15.5714 122.497 16.7384C127.121 17.9054 129.92 22.5989 128.753 27.2222C127.586 31.8455 122.893 34.645 118.269 33.478Z" fill="#444442"/>
<path d="M120.386 31.1535C119.889 31.1535 119.388 31.0897 118.901 30.9686C115.671 30.1523 113.707 26.8618 114.523 23.6287C115.202 20.9408 117.609 19.0627 120.377 19.0627C120.874 19.0627 121.372 19.1265 121.863 19.2477C125.093 20.0639 127.06 23.3576 126.244 26.5876C125.565 29.2755 123.157 31.1535 120.39 31.1535H120.386Z" fill="#403F3F"/>
<g opacity="0.4">
<path d="M119.471 28.7143C117.479 28.2105 116.273 26.189 116.774 24.1994C117.278 22.2066 119.299 21.0013 121.289 21.5019C123.282 22.0057 124.487 24.0272 123.983 26.0168C123.483 28.0065 121.461 29.2149 119.468 28.7111L119.471 28.7143Z" fill="#B9B9B1"/>
</g>
<path d="M119.459 29.0684C117.319 28.5295 116.025 26.3582 116.563 24.2219C117.102 22.0824 119.274 20.7879 121.413 21.3267C123.553 21.8656 124.847 24.0369 124.308 26.1764C123.769 28.3127 121.598 29.6104 119.459 29.0684Z" fill="#CDCDC5"/>
<path d="M120.039 26.476L120.728 23.7403L115.081 23.0325L114.73 24.4195L120.039 26.476Z" fill="#CDCDC5"/>
<path d="M118.971 25.1975L121.786 25.0094L120.715 19.4199L119.286 19.5156L118.971 25.1975Z" fill="#CDCDC5"/>
<path d="M119.857 23.7882L120.906 26.4091L125.893 23.6638L125.357 22.3342L119.857 23.7882Z" fill="#CDCDC5"/>
<path d="M121.471 24.1963L119.306 26.0042L123.457 29.8973L124.554 28.979L121.471 24.1963Z" fill="#CDCDC5"/>
<path d="M121.582 25.8575L119.194 24.3557L116.774 29.5051L117.986 30.2704L121.582 25.8575Z" fill="#CDCDC5"/>
<path d="M125.663 25.1432V25.1368C125.679 22.2576 123.349 19.9013 120.466 19.8822C117.584 19.8662 115.228 22.1938 115.208 25.0762V25.0826H114.36V25.073C114.379 21.7251 117.118 19.0181 120.469 19.0372C123.817 19.0563 126.528 21.7953 126.505 25.1432V25.1496L125.66 25.1432H125.663Z" fill="#CDCDC5" stroke="#CDCDC5" stroke-width="0.242326" stroke-miterlimit="10"/>
<path d="M119.793 27.4453C118.508 27.1169 117.73 25.8065 118.059 24.5151C118.384 23.2238 119.691 22.4426 120.976 22.771C122.261 23.0994 123.036 24.4131 122.711 25.7044C122.386 26.9958 121.078 27.777 119.793 27.4485V27.4453Z" fill="#B9B9B1"/>
<path d="M115.157 25.1367C115.173 27.9904 117.488 30.3181 120.351 30.334C123.215 30.3499 125.558 28.051 125.606 25.1973H126.454C126.403 28.5229 123.677 31.2013 120.348 31.1789C117.019 31.1598 114.325 28.4528 114.312 25.1304H115.157V25.1367Z" fill="#CDCDC5" stroke="#CDCDC5" stroke-width="0.242326" stroke-miterlimit="10"/>
<g opacity="0.7">
<path d="M77.8487 3.04668L77.194 3.15283L78.3494 10.2785L79.0041 10.1724L77.8487 3.04668Z" fill="#D3D3C7"/>
</g>
<g opacity="0.7">
<path d="M37.5871 2.99502L35.2667 10.1196L35.8973 10.325L38.2177 3.2004L37.5871 2.99502Z" fill="#D3D3C7"/>
</g>
<path d="M133.411 15.1824C132.726 14.9528 131.693 15.1059 131.693 15.1059C131.693 15.1059 134.314 19.0214 134.489 19.2764C134.668 19.5315 134.942 19.6877 135.162 19.6846C135.535 19.6814 134.24 15.4949 133.408 15.1824H133.411Z" fill="#DBDBD5"/>
<path d="M2.5844 19.251C4.31257 19.2 4.4975 17.7205 4.29025 16.0242C4.083 14.3279 3.59516 13.9453 3.10732 13.9453H2.41541C1.9212 14.9529 1.57046 17.2199 1.47162 19.2701C1.84148 19.2701 2.20497 19.2637 2.58759 19.251H2.5844Z" fill="#771C31"/>
<path d="M131.693 15.106C131.693 15.106 134.314 19.0214 134.489 19.2765C134.559 19.3785 134.649 19.4614 134.744 19.5284C134.744 19.42 133.829 16.0019 132.93 15.0868C132.327 15.0167 131.693 15.1092 131.693 15.1092V15.106Z" fill="#E57920"/>
<path d="M53.967 10.878C53.1985 10.9163 50.7753 10.8398 49.9877 10.878V2.35836L50.3225 2.30735C50.7434 2.33605 53.5588 2.18937 53.967 2.22445V10.8812V10.878Z" fill="#2D2C2C"/>
<g opacity="0.7">
<path d="M51.6489 3.02148H50.9857V10.2179H51.6489V3.02148Z" fill="#D3D3C7"/>
</g>
<g opacity="0.7">
<path d="M52.953 3.02148H52.2898V10.2179H52.953V3.02148Z" fill="#D3D3C7"/>
</g>
<g style="mix-blend-mode:darken" opacity="0.7">
<path d="M52.3951 11.1172H51.904V25.9246H52.3951V11.1172Z" fill="#2D2C2C"/>
</g>
<g style="mix-blend-mode:overlay" opacity="0.5">
<path d="M92.8379 4.72723C90.912 3.54748 89.3305 2.69616 88.4473 2.49209C87.2644 2.23064 75.4032 1.98193 57.841 1.98193C40.2788 1.98193 32.3298 2.24658 31.5933 2.47296C30.0756 2.99906 28.6376 3.9875 27.2474 5.13854C30.2764 5.08753 32.9771 5.23101 34.616 5.81769C38.9364 7.36411 42.7211 7.14411 46.356 5.81769C49.9909 4.49128 55.8864 4.55505 59.9167 5.12898C63.9469 5.70609 77.3705 5.81769 81.286 5.81769C83.6582 5.81769 88.4218 5.20869 92.8379 4.73042V4.72723Z" fill="#A2B9BA"/>
</g>
<path d="M85.1632 13.0046H81.6208C81.5116 13.0046 81.4231 13.0931 81.4231 13.2023V14.2928C81.4231 14.402 81.5116 14.4905 81.6208 14.4905H85.1632C85.2724 14.4905 85.3609 14.402 85.3609 14.2928V13.2023C85.3609 13.0931 85.2724 13.0046 85.1632 13.0046Z" fill="#2D2C2C"/>
<path d="M85.1632 12.6316H81.6208C81.5116 12.6316 81.4231 12.7201 81.4231 12.8293V13.5913C81.4231 13.7005 81.5116 13.789 81.6208 13.789H85.1632C85.2724 13.789 85.3609 13.7005 85.3609 13.5913V12.8293C85.3609 12.7201 85.2724 12.6316 85.1632 12.6316Z" fill="#3E3D3D"/>
<path d="M40.5689 13.0046H37.0265C36.9173 13.0046 36.8288 13.0931 36.8288 13.2023V14.2928C36.8288 14.402 36.9173 14.4905 37.0265 14.4905H40.5689C40.6781 14.4905 40.7666 14.402 40.7666 14.2928V13.2023C40.7666 13.0931 40.6781 13.0046 40.5689 13.0046Z" fill="#2D2C2C"/>
<path d="M40.5689 12.6316H37.0265C36.9173 12.6316 36.8288 12.7201 36.8288 12.8293V13.5913C36.8288 13.7005 36.9173 13.789 37.0265 13.789H40.5689C40.6781 13.789 40.7666 13.7005 40.7666 13.5913V12.8293C40.7666 12.7201 40.6781 12.6316 40.5689 12.6316Z" fill="#3E3D3D"/>
<path d="M109.188 15.5713H109.992C110.107 15.5713 110.199 15.6638 110.199 15.7785V16.2249C110.199 16.3397 110.107 16.429 109.995 16.429H109.192C109.077 16.429 108.988 16.3365 108.988 16.2249V15.7754C108.988 15.6638 109.08 15.5713 109.192 15.5713H109.188Z" fill="#FFB419"/>
<g style="mix-blend-mode:overlay" opacity="0.7">
<path fill-rule="evenodd" clip-rule="evenodd" d="M109.89 16.0304C109.89 16.0815 109.849 16.1261 109.794 16.1261H109.214C109.163 16.1261 109.118 16.0815 109.118 16.0304V15.8232C109.118 15.7722 109.16 15.7275 109.214 15.7275H109.794C109.845 15.7275 109.89 15.7722 109.89 15.8232V16.0304Z" fill="white"/>
</g>
<path d="M94.9965 7.90625H94.3333V13.0015H94.9965V7.90625Z" fill="#2D2C2C"/>
</g>
<defs>
<clipPath id="clip0_60_4998">
<rect width="136.888" height="33.594" fill="white" transform="translate(0.460876 0.25708)"/>
</clipPath>
</defs>
</svg>
