<svg width="145" height="64" viewBox="0 0 145 64" fill="none" xmlns="http://www.w3.org/2000/svg">
<g clip-path="url(#clip0_60_4211)">
<path d="M90.8261 12.1007H88.0937V19.0764H96.3487L90.8261 12.1007Z" fill="#3A2B2A"/>
<path d="M82.5277 8.84216L81.9339 9.42146L87.8765 16.4212L88.4703 15.842L82.5277 8.84216Z" fill="#231818"/>
<path d="M82.6629 9.61455C86.1579 6.20154 86.2497 5.68501 86.0083 5.40019C85.7669 5.11537 85.2745 5.1733 81.7843 8.5863C78.294 11.9993 78.1975 12.5158 78.4389 12.8007C78.6802 13.0855 79.1726 13.0275 82.6629 9.61455Z" fill="#3A2B2A"/>
<path d="M38.96 -0.00170898C36.9856 -0.00170898 35.4312 1.25825 35.7015 2.63408L39.0614 19.8053H45.5253L42.0158 1.87617C41.8034 0.789992 40.5145 -0.00170898 38.96 -0.00170898Z" fill="#5E504F"/>
<path d="M39.6841 13.24H44.2364L42.011 1.87617C41.7986 0.789992 40.5096 -0.00170898 38.9552 -0.00170898C38.2938 -0.00170898 37.6808 0.143114 37.1642 0.384486L39.6793 13.24H39.6841Z" fill="#846D6D"/>
<path d="M65.3082 1.29688C63.3097 1.29688 61.6587 2.56167 61.8469 3.94714L64.2172 21.2053H70.7632L68.2867 3.18441C68.1371 2.0934 66.8771 1.29688 65.3082 1.29688Z" fill="#5E504F"/>
<path d="M63.4303 1.70238L65.0958 13.8241H69.7495L68.2867 3.18441C68.1371 2.0934 66.8771 1.29688 65.3082 1.29688C64.6179 1.29688 63.9758 1.45135 63.4303 1.70238Z" fill="#846D6D"/>
<path d="M114.934 19.9066V39.9164L122.847 36.5082L121.08 25.1734C120.607 22.1417 118 19.9066 114.929 19.9066H114.934Z" fill="#5E504F"/>
<path d="M114.133 21.1426V39.091L121.234 36.0304L119.651 25.8638C119.226 23.146 116.885 21.1426 114.133 21.1426Z" fill="#3A2B2A"/>
<path d="M113.95 22.4315V38.1448L120.162 35.4656L118.777 26.5638C118.405 24.1838 116.358 22.4266 113.95 22.4266V22.4315Z" fill="#5E504F"/>
<path d="M124.42 30.6091L112.511 34.3359L108.755 39.424L106.67 46.2645L124.309 45.1156L124.42 30.6091Z" fill="#281C1B"/>
<path d="M123.73 44.348H47.7122L49.0252 46.95H124.179L123.73 44.348Z" fill="#281C1B"/>
<path d="M89.1027 17.5075V14.3069H15.8752C16.0297 23.4501 19.3413 32.9794 23.8356 38.8496H45.1198L49.1314 46.5156L106.173 47.2638L109.339 38.5889L115.596 32.5015L114.678 17.5027H89.1075L89.1027 17.5075Z" fill="#3A2B2A"/>
<path d="M78.714 14.302H71.7577L69.4164 34.2104H76.3679L78.714 14.302Z" fill="#473737"/>
<path d="M61.0745 14.302H54.1182L51.7769 34.2104H58.7332L61.0745 14.302Z" fill="#473737"/>
<path d="M115.287 27.4471L112.564 17.4833L111.888 28.1423L90.0344 32.4966V21.157L95.108 17.5026L92.7233 14.302H86.6552V44.1742L50.488 43.6432C48.4218 34.5097 42.3682 30.3484 38.68 28.8471L34.1133 16.0882H15.9428C16.4641 24.6665 19.6309 33.3559 23.8308 38.8447H45.115L49.1266 46.5107L106.168 47.259L109.334 38.584L115.591 32.4966L115.282 27.4423L115.287 27.4471Z" fill="#281D1D"/>
<path d="M42.9571 35.5041L31.6995 31.5842L20.3551 34.2538L29.4258 49.3492L36.947 45.8735L48.3784 45.6659L42.9571 35.5041Z" fill="#281C1B"/>
<path d="M90.8985 11.7483H87.7269V14.693H93.235C93.5536 14.693 93.7274 14.3744 93.5343 14.1572L91.6998 12.1103C91.4971 11.8835 91.2026 11.7531 90.8937 11.7531L90.8985 11.7483Z" fill="#BF4141"/>
<path d="M115.069 17.0054H113.496C112.97 17.0054 112.559 17.4592 112.612 17.9805L114.094 32.9746L117.449 31.927L115.953 17.8019C115.905 17.3481 115.523 17.0054 115.069 17.0054Z" fill="#FFBB4D"/>
<path d="M115.654 18.0336C115.61 17.6232 115.263 17.3094 114.852 17.3094H113.423C113.336 17.3094 113.254 17.3288 113.177 17.3529C113.177 17.4832 113.167 17.6184 113.167 17.7487C113.167 21.6735 114.326 24.8547 115.76 24.8547C115.963 24.8547 116.165 24.7823 116.354 24.6616L115.654 18.0287V18.0336Z" fill="#FFDC78"/>
<path d="M108.089 18.7191H107.346V24.8934L108.089 24.7486V18.7191Z" fill="#231818"/>
<path d="M106.322 18.7191H105.492V25.2603L106.322 25.0962V18.7191Z" fill="#231818"/>
<path d="M104.343 18.7191H103.406V25.6706L104.343 25.4872V18.7191Z" fill="#231818"/>
<path d="M102.103 18.7191H101.036V26.1389L102.103 25.9265V18.7191Z" fill="#231818"/>
<path d="M99.5493 18.7191H98.3279V26.6699L99.5493 26.4285V18.7191Z" fill="#231818"/>
<path d="M96.6142 18.7191H95.1949V27.2878L96.6142 27.0078V18.7191Z" fill="#231818"/>
<path d="M61.9 14.302V30.3581C61.9 32.4387 60.5339 34.1283 58.8588 34.1283H51.4921C49.8169 34.1283 48.4508 32.4387 48.4508 30.3581V14.302H47.8136V30.3581C47.8136 32.8732 49.4645 34.92 51.4921 34.92H58.8588C60.8863 34.92 62.5373 32.8732 62.5373 30.3581V14.302H61.9Z" fill="#231818"/>
<path d="M79.6602 14.302V30.2422C79.6602 32.3084 78.3327 33.9835 76.7058 33.9835H69.5467C67.9199 33.9835 66.5923 32.3035 66.5923 30.2422V14.302H65.9744V30.2422C65.9744 32.738 67.5771 34.7704 69.5467 34.7704H76.7058C78.6754 34.7704 80.2781 32.738 80.2781 30.2422V14.302H79.6602Z" fill="#231818"/>
<path d="M15.9379 2.8224L15.4021 2.88033C14.7407 2.95274 14.3208 4.08719 14.5766 5.10578L14.8759 6.30781L14.5814 6.45263C13.809 6.834 13.6401 8.53809 14.3014 9.31048L13.9539 9.54703C13.2877 10.0008 13.1429 11.4683 13.6884 12.2504L13.7318 12.3131C13.4035 13.2931 13.8235 14.5 14.4994 14.5H41.142L41.2241 13.269L17.1448 0.722458C16.3772 0.32178 15.6628 1.55761 15.9331 2.8224H15.9379Z" fill="#BF4141"/>
<path d="M17.1448 0.722438C16.9421 0.616234 16.7393 0.625889 16.5607 0.722438C19.4909 2.4217 22.595 4.60853 22.3585 5.02369C22.1267 5.42919 18.7523 3.97613 15.88 2.38308C15.8848 2.5279 15.9042 2.67272 15.9331 2.82238L15.5566 2.86582C17.9413 3.79752 21.4364 6.07607 21.1999 6.77605C20.9633 7.4712 17.1062 6.35606 14.6925 5.59333L14.8711 6.30779L14.5766 6.45261C14.5477 6.4671 14.5187 6.4864 14.4897 6.50571C16.2759 6.94984 20.4082 8.42704 20.3502 9.12219C20.2971 9.83665 16.0007 9.48425 14.1421 9.0884C14.1856 9.17046 14.2387 9.2477 14.2966 9.31529L13.949 9.55183C13.9056 9.5808 13.8718 9.62424 13.8332 9.66286C15.9138 9.87044 19.544 10.5028 19.573 11.0918C19.602 11.7194 15.7883 12.0669 13.5097 11.9221C13.558 12.0428 13.616 12.1538 13.6835 12.2552L13.727 12.318C13.7028 12.3952 13.6835 12.4724 13.6642 12.5545C14.2339 12.4773 14.8904 12.4338 15.5856 12.4338C17.7531 12.4338 19.5103 12.849 19.5103 13.3559C19.5103 13.8627 17.7531 14.2779 15.5856 14.2779C15.0014 14.2779 14.4511 14.2489 13.949 14.191C14.0939 14.3841 14.2821 14.5 14.4897 14.5H41.1324L41.2144 13.269L17.1448 0.722438Z" fill="#A52D2D"/>
<path d="M134.128 29.9333C117.643 24.7679 107.867 33.2449 105.873 46.699L48.9866 45.6128C45.7088 31.4153 35.1994 25.7913 17.4345 32.2311C16.5172 32.5642 16.0152 33.5587 16.2952 34.4952C16.6041 35.509 17.7 36.0496 18.6992 35.6827C38.1394 28.5526 45.0136 36.2476 48.3397 47.901V47.9976H48.3687C48.3687 47.9976 48.3735 48.012 48.3784 48.0217H49.2183C49.2183 48.0217 49.2183 48.0072 49.2183 47.9976L106.25 47.9493H106.844C109.04 35.4317 119.221 28.3016 133.211 32.8249C134.065 33.1001 134.978 32.5932 135.171 31.7146C135.34 30.9422 134.891 30.1698 134.138 29.9333H134.128Z" fill="#FFBB4D"/>
<path d="M26.8576 48.1182C26.8576 50.503 28.7886 52.434 31.1734 52.434C33.5581 52.434 35.4891 50.503 35.4891 48.1182C35.4891 45.7335 33.5581 43.8025 31.1734 43.8025C28.7886 43.8025 26.8576 45.7335 26.8576 48.1182Z" fill="#281C1B"/>
<path d="M35.9139 45.3908C38.4145 43.6964 40.3648 42.2047 40.2683 42.0647C40.1717 41.9199 38.0621 43.1798 35.5615 44.8743C33.0609 46.5687 31.1106 48.0604 31.2071 48.2004C31.3037 48.3404 33.4133 47.0852 35.9139 45.3908Z" fill="#916044"/>
<path d="M27.1666 51.3189C29.6672 49.6245 31.6175 48.1328 31.5209 47.9928C31.4244 47.848 29.3148 49.1079 26.8142 50.8024C24.3136 52.4968 22.3633 53.9885 22.4598 54.1285C22.5564 54.2685 24.666 53.0133 27.1666 51.3189Z" fill="#916044"/>
<path d="M34.0698 52.6463C35.7643 55.147 37.2559 57.0973 37.3959 57.0007C37.5408 56.9042 36.2808 54.7946 34.5864 52.2939C32.8919 49.7933 31.4003 47.843 31.2603 47.9396C31.1154 48.0361 32.3754 50.1457 34.0698 52.6463Z" fill="#916044"/>
<path d="M28.1417 43.899C29.8362 46.3997 31.3278 48.3499 31.4678 48.2534C31.6127 48.1568 30.3527 46.0472 28.6583 43.5466C26.9638 41.046 25.4721 39.0957 25.3322 39.1923C25.1873 39.2888 26.4473 41.3984 28.1417 43.899Z" fill="#916044"/>
<path d="M32.6699 42.9674C33.2395 39.9986 33.5678 37.5655 33.394 37.5317C33.225 37.4979 32.6264 39.8779 32.0519 42.8467C31.4823 45.8156 31.154 48.2487 31.3278 48.2824C31.4968 48.3162 32.0954 45.9363 32.6699 42.9674Z" fill="#916044"/>
<path d="M30.6761 53.3463C31.2458 50.3775 31.574 47.9444 31.4003 47.9106C31.2313 47.8768 30.6327 50.2568 30.0582 53.2256C29.4886 56.1945 29.1603 58.6276 29.3341 58.6613C29.5031 58.6951 30.1017 56.3152 30.6761 53.3463Z" fill="#916044"/>
<path d="M36.498 49.4024C39.4669 49.972 41.8999 50.3003 41.9337 50.1265C41.9675 49.9575 39.5876 49.3589 36.6187 48.7845C33.6498 48.2148 31.2168 47.8866 31.183 48.0604C31.1492 48.2342 33.5292 48.8279 36.498 49.4024Z" fill="#916044"/>
<path d="M26.1142 47.4037C29.0831 47.9734 31.5161 48.3016 31.5499 48.1279C31.5837 47.9589 29.2038 47.3603 26.2349 46.7858C23.266 46.2162 20.833 45.8879 20.7992 46.0617C20.7654 46.2307 23.1453 46.8293 26.1142 47.4037Z" fill="#916044"/>
<path d="M36.6091 47.3555C39.5731 46.7569 41.9482 46.1341 41.9096 45.9652C41.8758 45.7962 39.4476 46.1438 36.4836 46.7424C33.5195 47.341 31.1444 47.9637 31.183 48.1327C31.2216 48.3017 33.645 47.9541 36.6091 47.3555Z" fill="#916044"/>
<path d="M26.2445 49.4506C29.2086 48.852 31.5837 48.2292 31.5451 48.0603C31.5113 47.8913 29.0831 48.2389 26.119 48.8375C23.155 49.4361 20.7799 50.0588 20.8185 50.2278C20.8523 50.3968 23.2805 50.0492 26.2445 49.4506Z" fill="#916044"/>
<path d="M32.1051 53.3415C32.7037 56.3056 33.3264 58.6807 33.4954 58.6421C33.6643 58.6083 33.3167 56.1801 32.7181 53.216C32.1195 50.252 31.4968 47.8769 31.3278 47.9155C31.1589 47.9541 31.5065 50.3775 32.1051 53.3415Z" fill="#916044"/>
<path d="M30.0148 42.977C30.6134 45.9411 31.2361 48.3162 31.4051 48.2776C31.574 48.2438 31.2265 45.8156 30.6279 42.8515C30.0293 39.8875 29.4065 37.5124 29.2376 37.551C29.0686 37.5848 29.4162 40.013 30.0148 42.977Z" fill="#916044"/>
<path d="M34.5477 43.8653C36.218 41.3454 37.4587 39.2262 37.3139 39.1344C37.169 39.0427 35.6967 41.0027 34.0264 43.5226C32.3561 46.0425 31.1154 48.1618 31.2603 48.2535C31.4051 48.35 32.8775 46.3853 34.5477 43.8653Z" fill="#916044"/>
<path d="M28.7017 52.6753C30.372 50.1554 31.6127 48.0362 31.4678 47.9445C31.323 47.8479 29.8506 49.8127 28.1803 52.3326C26.51 54.8525 25.2694 56.9718 25.4142 57.0635C25.559 57.1552 27.0314 55.1953 28.7017 52.6753Z" fill="#916044"/>
<path d="M35.5953 51.2803C38.1152 52.9506 40.2345 54.1913 40.3262 54.0464C40.4227 53.9016 38.458 52.4292 35.938 50.7589C33.4181 49.0886 31.2989 47.848 31.2071 47.9928C31.1106 48.1376 33.0754 49.61 35.5953 51.2803Z" fill="#916044"/>
<path d="M26.79 45.4341C29.31 47.1044 31.4292 48.3451 31.5209 48.2002C31.6175 48.0554 29.6527 46.583 27.1328 44.9128C24.6129 43.2425 22.4936 42.0018 22.4019 42.1466C22.3054 42.2914 24.2701 43.7638 26.79 45.4341Z" fill="#916044"/>
<path d="M43.0199 49.7258C42.1317 56.2718 36.107 60.8531 29.561 59.9648C23.015 59.0766 18.4337 53.0519 19.322 46.5059C20.2102 39.9599 26.2349 35.3786 32.7809 36.2669C39.3269 37.1551 43.9082 43.1798 43.0199 49.7258ZM32.3706 39.2889C27.4466 38.6227 22.9184 42.0308 22.2571 46.9066C21.5957 51.7823 25.0473 56.2766 29.9713 56.9476C34.8953 57.6138 39.4235 54.2057 40.0848 49.3299C40.7462 44.4542 37.2946 39.9599 32.3706 39.2889Z" fill="#916044"/>
<path d="M43.0199 49.7258C42.1317 56.2718 36.107 60.8531 29.561 59.9648C23.015 59.0766 18.4337 53.0519 19.322 46.5059C20.2102 39.9599 26.2349 35.3786 32.7809 36.2669C39.3269 37.1551 43.9082 43.1798 43.0199 49.7258ZM40.0317 46.5928C39.7179 46.6748 39.3559 46.7569 38.9842 46.8438C38.9214 46.6652 38.8538 46.4866 38.7766 46.3128C39.1869 46.2404 39.5779 46.1776 39.9255 46.1245C39.6938 45.1397 39.3028 44.2129 38.7718 43.3729C38.4049 43.648 37.9849 43.9522 37.5263 44.2756C37.4008 44.1211 37.2656 43.9811 37.1304 43.8363C37.6277 43.5129 38.0911 43.2232 38.4966 42.977C37.927 42.1853 37.2366 41.4757 36.4305 40.9012C36.1553 41.3598 35.827 41.8909 35.465 42.4605C35.296 42.3543 35.1319 42.2481 34.9581 42.1515C35.3491 41.5867 35.7112 41.0702 36.0346 40.6357C35.2043 40.1047 34.2774 39.6944 33.2733 39.453C33.1961 40.0082 33.0899 40.6647 32.9643 41.3743C32.7713 41.326 32.5781 41.2778 32.385 41.244C32.5299 40.5488 32.6747 39.9068 32.805 39.3661C32.6602 39.3371 32.5202 39.3033 32.3754 39.284C31.5065 39.1682 30.6568 39.1827 29.8313 39.3033C29.9665 39.8247 30.1113 40.4378 30.261 41.1136C30.0631 41.1233 29.8651 41.1426 29.672 41.1667C29.5513 40.5054 29.45 39.9019 29.3727 39.3854C28.3445 39.593 27.3742 39.9647 26.4956 40.4957C26.7707 40.8578 27.0845 41.2874 27.4224 41.7605C27.2438 41.8329 27.0749 41.9198 26.9011 42.0067C26.6066 41.5481 26.3363 41.1136 26.1142 40.7468C25.2597 41.3212 24.5067 42.0309 23.8936 42.866C24.1784 43.0301 24.5018 43.2281 24.8398 43.4405C24.7046 43.566 24.5742 43.6915 24.4487 43.8267C24.1543 43.6191 23.8839 43.4212 23.6425 43.2425C23.0681 44.1115 22.6384 45.0914 22.4019 46.1535C22.5419 46.1728 22.6867 46.1921 22.8364 46.2162C22.7688 46.3659 22.706 46.5155 22.6433 46.67C22.5322 46.6411 22.4212 46.6169 22.315 46.588C22.2957 46.699 22.2667 46.8004 22.2522 46.9114C22.1847 47.3941 22.1654 47.8721 22.175 48.3403C22.0929 48.8279 22.0398 49.3203 22.0398 49.832C22.0398 54.6546 25.9501 58.5697 30.7775 58.5697C34.7939 58.5697 38.1683 55.8566 39.1869 52.1685C39.5297 51.4926 39.7904 50.7685 39.9545 50.001C39.8145 49.9816 39.6552 49.9575 39.5055 49.9334C39.5055 49.8996 39.5104 49.8658 39.5104 49.8368C39.5104 49.692 39.4959 49.5472 39.4862 49.4024C39.6793 49.4458 39.8676 49.4892 40.0414 49.5327C40.051 49.4651 40.0703 49.4024 40.08 49.3348C40.2055 48.4031 40.1814 47.481 40.0221 46.5976L40.0317 46.5928Z" fill="#683F2B"/>
<path d="M44.8157 49.9671C43.7923 57.5027 36.8553 62.7791 29.3244 61.7557C21.7936 60.7323 16.5124 53.7953 17.5358 46.2644C18.5592 38.7288 25.4963 33.4524 33.0271 34.4758C40.5627 35.4992 45.8391 42.4363 44.8157 49.9671ZM32.554 37.9516C26.8866 37.184 21.673 41.1087 20.9102 46.723C20.1475 52.3374 24.1253 57.5124 29.7927 58.2799C35.4601 59.0475 40.6738 55.1228 41.4365 49.5085C42.1992 43.8942 38.2214 38.7191 32.554 37.9516Z" fill="#C9B289"/>
<path d="M33.0947 48.3789C32.9499 49.4313 31.9747 50.1651 30.9175 50.0203C29.8555 49.8754 29.112 48.9099 29.2569 47.8576C29.4017 46.8052 30.3768 46.0714 31.434 46.2162C32.4961 46.3611 33.2395 47.3265 33.0947 48.3789Z" fill="#C9B289"/>
<path d="M17.531 47.3506C18.5544 39.815 25.4915 34.5386 33.0223 35.562C39.7517 36.4744 44.6757 42.108 44.9268 48.6685C45.2164 41.6543 40.1234 35.4413 33.0223 34.4759C25.4866 33.4524 18.5496 38.7337 17.531 46.2645C17.42 47.0707 17.391 47.8672 17.42 48.6492C17.4393 48.2196 17.4731 47.7851 17.531 47.3458V47.3506Z" fill="#E5D1B3"/>
<path d="M29.7927 59.3663C35.4601 60.1338 40.6738 56.2091 41.4365 50.5948C41.5234 49.9383 41.5427 49.2914 41.5089 48.6542C41.4944 48.939 41.4751 49.2238 41.4365 49.5086C40.6738 55.1229 35.4601 59.0525 29.7927 58.2801C24.7867 57.5994 21.1033 53.4816 20.8378 48.6638C20.5675 53.9402 24.4149 58.6373 29.7927 59.3663Z" fill="#E5D1B3"/>
<path d="M32.554 37.0151C26.8866 36.2475 21.673 40.1722 20.9102 45.7865C20.8282 46.3996 20.8088 47.0079 20.8378 47.6065C20.8523 47.312 20.8716 47.0224 20.9102 46.7231C21.673 41.1087 26.8866 37.1792 32.554 37.9516C37.6035 38.6371 41.3013 42.8177 41.5137 47.6885C41.7696 42.4218 37.927 37.7392 32.554 37.0102V37.0151Z" fill="#B29360"/>
<path d="M44.8157 49.0306C43.7923 56.5663 36.8553 61.8427 29.3245 60.8193C22.566 59.902 17.6276 54.225 17.42 47.6259C17.1641 54.616 22.2474 60.7951 29.3245 61.7558C36.8601 62.7792 43.7971 57.498 44.8157 49.9672C44.9219 49.1899 44.9557 48.4224 44.9316 47.6693C44.9171 48.1183 44.8785 48.5769 44.8157 49.0306Z" fill="#B29360"/>
<path d="M124.02 52.685C121.209 52.685 118.931 50.407 118.931 47.5969C118.931 44.7868 121.209 42.5088 124.02 42.5088C126.83 42.5088 129.108 44.7868 129.108 47.5969C129.108 50.407 126.83 52.685 124.02 52.685Z" fill="#281C1B"/>
<path d="M128.987 45.3908C131.488 43.6964 133.438 42.2047 133.341 42.0647C133.245 41.9199 131.135 43.1798 128.635 44.8743C126.134 46.5687 124.184 48.0604 124.28 48.2004C124.377 48.3452 126.486 47.0852 128.987 45.3908Z" fill="#916044"/>
<path d="M120.235 51.3189C122.735 49.6245 124.686 48.1328 124.589 47.9928C124.493 47.848 122.383 49.1079 119.882 50.8024C117.382 52.4968 115.432 53.9885 115.528 54.1285C115.625 54.2733 117.734 53.0133 120.235 51.3189Z" fill="#916044"/>
<path d="M127.138 52.6463C128.833 55.147 130.324 57.0973 130.464 57.0007C130.609 56.9042 129.349 54.7946 127.655 52.2939C125.96 49.7933 124.469 47.843 124.329 47.9396C124.184 48.0361 125.444 50.1457 127.138 52.6463Z" fill="#916044"/>
<path d="M121.21 43.899C122.904 46.3997 124.396 48.3499 124.536 48.2534C124.681 48.1568 123.421 46.0472 121.727 43.5466C120.032 41.046 118.54 39.0957 118.4 39.1923C118.256 39.2888 119.516 41.3984 121.21 43.899Z" fill="#916044"/>
<path d="M125.738 42.9674C126.308 39.9986 126.636 37.5655 126.462 37.5317C126.288 37.4979 125.695 39.8779 125.12 42.8467C124.551 45.8156 124.222 48.2487 124.396 48.2824C124.565 48.3162 125.164 45.9363 125.738 42.9674Z" fill="#916044"/>
<path d="M123.744 53.3463C124.314 50.3775 124.642 47.9444 124.469 47.9106C124.3 47.8768 123.701 50.2568 123.127 53.2256C122.557 56.1945 122.229 58.6276 122.402 58.6613C122.571 58.6951 123.17 56.3152 123.744 53.3463Z" fill="#916044"/>
<path d="M129.566 49.4024C132.535 49.972 134.968 50.3003 135.002 50.1265C135.036 49.9575 132.656 49.3589 129.687 48.7845C126.718 48.2148 124.285 47.8866 124.251 48.0604C124.218 48.2342 126.597 48.8279 129.566 49.4024Z" fill="#916044"/>
<path d="M119.187 47.4037C122.156 47.9734 124.589 48.3016 124.623 48.1279C124.657 47.9589 122.277 47.3603 119.308 46.7858C116.339 46.2162 113.906 45.8879 113.872 46.0617C113.838 46.2307 116.218 46.8293 119.187 47.4037Z" fill="#916044"/>
<path d="M129.677 47.3555C132.641 46.7569 135.016 46.1341 134.978 45.9652C134.944 45.7962 132.516 46.1438 129.552 46.7424C126.588 47.341 124.213 47.9637 124.251 48.1327C124.29 48.3017 126.713 47.9541 129.677 47.3555Z" fill="#916044"/>
<path d="M119.318 49.4506C122.282 48.852 124.657 48.2292 124.618 48.0603C124.584 47.8913 122.156 48.2389 119.192 48.8375C116.228 49.4361 113.853 50.0588 113.892 50.2278C113.93 50.3968 116.354 50.0492 119.318 49.4506Z" fill="#916044"/>
<path d="M125.173 53.3415C125.772 56.3056 126.395 58.6807 126.564 58.6421C126.733 58.6083 126.385 56.1801 125.786 53.216C125.188 50.252 124.565 47.8769 124.396 47.9155C124.227 47.9493 124.575 50.3775 125.173 53.3415Z" fill="#916044"/>
<path d="M123.083 42.977C123.682 45.9411 124.304 48.3162 124.473 48.2776C124.642 48.239 124.295 45.8156 123.696 42.8515C123.098 39.8875 122.475 37.5124 122.306 37.551C122.137 37.5848 122.484 40.013 123.083 42.977Z" fill="#916044"/>
<path d="M127.616 43.8653C129.286 41.3454 130.527 39.2262 130.382 39.1344C130.237 39.0427 128.765 41.0027 127.095 43.5226C125.424 46.0425 124.184 48.1618 124.329 48.2535C124.473 48.35 125.946 46.3853 127.616 43.8653Z" fill="#916044"/>
<path d="M121.77 52.6754C123.44 50.1555 124.681 48.0362 124.536 47.9445C124.391 47.8528 122.919 49.8127 121.249 52.3326C119.578 54.8526 118.338 56.9718 118.483 57.0635C118.627 57.1601 120.1 55.1953 121.77 52.6754Z" fill="#916044"/>
<path d="M128.664 51.2803C131.184 52.9506 133.303 54.1913 133.394 54.0464C133.491 53.9016 131.526 52.4292 129.006 50.7589C126.486 49.0886 124.367 47.848 124.275 47.9928C124.179 48.1376 126.144 49.61 128.664 51.2803Z" fill="#916044"/>
<path d="M119.858 45.4341C122.378 47.1044 124.497 48.3451 124.589 48.2002C124.686 48.0554 122.721 46.583 120.201 44.9128C117.681 43.2425 115.562 42.0018 115.47 42.1466C115.374 42.2914 117.338 43.7638 119.858 45.4341Z" fill="#916044"/>
<path d="M136.088 49.7258C135.2 56.2718 129.175 60.8531 122.629 59.9648C116.083 59.0766 111.502 53.0519 112.39 46.5059C113.279 39.9599 119.303 35.3786 125.849 36.2669C132.395 37.1551 136.976 43.1798 136.088 49.7258ZM125.439 39.2889C120.515 38.6227 115.987 42.0308 115.325 46.9066C114.664 51.7823 118.116 56.2766 123.04 56.9476C127.964 57.6138 132.492 54.2057 133.153 49.3299C133.814 44.4542 130.363 39.9599 125.439 39.2889Z" fill="#916044"/>
<path d="M136.088 49.7258C135.2 56.2718 129.175 60.8531 122.629 59.9648C116.083 59.0766 111.502 53.0519 112.39 46.5059C113.279 39.9599 119.303 35.3786 125.849 36.2669C132.395 37.1551 136.976 43.1798 136.088 49.7258ZM133.1 46.5928C132.781 46.6748 132.424 46.7569 132.052 46.8438C131.99 46.6652 131.922 46.4866 131.845 46.3128C132.255 46.2404 132.646 46.1776 132.994 46.1245C132.762 45.1397 132.371 44.2129 131.84 43.3729C131.473 43.648 131.053 43.9522 130.595 44.2756C130.469 44.1211 130.334 43.9811 130.199 43.8363C130.696 43.5129 131.159 43.2232 131.565 42.977C130.995 42.1853 130.305 41.4757 129.499 40.9012C129.224 41.3598 128.895 41.8909 128.533 42.4605C128.364 42.3543 128.2 42.2481 128.026 42.1515C128.417 41.5867 128.779 41.0702 129.103 40.6357C128.273 40.1047 127.346 39.6944 126.342 39.453C126.264 40.0082 126.158 40.6647 126.033 41.3743C125.84 41.326 125.646 41.2778 125.453 41.244C125.598 40.5488 125.743 39.9068 125.873 39.3661C125.728 39.3371 125.588 39.3033 125.444 39.284C124.575 39.1682 123.725 39.1827 122.9 39.3033C123.035 39.8247 123.18 40.4378 123.329 41.1136C123.131 41.1233 122.933 41.1426 122.74 41.1667C122.62 40.5054 122.518 39.9019 122.441 39.3854C121.413 39.593 120.442 39.9647 119.564 40.4957C119.839 40.8578 120.153 41.2874 120.491 41.7605C120.312 41.8329 120.143 41.9198 119.969 42.0067C119.675 41.5481 119.405 41.1136 119.182 40.7468C118.328 41.3212 117.575 42.0309 116.962 42.866C117.247 43.0301 117.57 43.2281 117.908 43.4405C117.773 43.566 117.643 43.6915 117.517 43.8267C117.223 43.6191 116.952 43.4212 116.716 43.2425C116.141 44.1115 115.712 45.0914 115.475 46.1535C115.615 46.1728 115.76 46.1921 115.909 46.2162C115.842 46.3659 115.779 46.5155 115.716 46.67C115.605 46.6411 115.494 46.6169 115.388 46.588C115.369 46.699 115.34 46.8004 115.325 46.9114C115.258 47.3941 115.238 47.8721 115.248 48.3403C115.166 48.8279 115.113 49.3203 115.113 49.832C115.113 54.6546 119.023 58.5697 123.851 58.5697C127.867 58.5697 131.241 55.8566 132.26 52.1685C132.603 51.4926 132.863 50.7685 133.028 50.001C132.888 49.9816 132.728 49.9575 132.579 49.9334C132.579 49.8996 132.583 49.8658 132.583 49.8368C132.583 49.692 132.569 49.5472 132.559 49.4024C132.752 49.4458 132.941 49.4892 133.114 49.5327C133.124 49.4651 133.143 49.4024 133.153 49.3348C133.279 48.4031 133.254 47.481 133.095 46.5976L133.1 46.5928Z" fill="#683F2B"/>
<path d="M137.884 49.9671C136.861 57.5027 129.924 62.7791 122.393 61.7557C114.862 60.7323 109.581 53.7953 110.604 46.2644C111.628 38.7288 118.565 33.4524 126.095 34.4758C133.631 35.4992 138.907 42.4363 137.884 49.9671ZM125.622 37.9516C119.955 37.184 114.741 41.1087 113.978 46.723C113.216 52.3374 117.194 57.5124 122.861 58.2799C128.528 59.0475 133.742 55.1228 134.505 49.5085C135.268 43.8942 131.29 38.7191 125.622 37.9516Z" fill="#C9B289"/>
<path d="M126.163 48.3789C126.018 49.4313 125.043 50.1651 123.986 50.0203C122.924 49.8754 122.18 48.9099 122.325 47.8576C122.47 46.8052 123.445 46.0714 124.502 46.2162C125.564 46.3611 126.308 47.3265 126.163 48.3789Z" fill="#C9B289"/>
<path d="M110.599 47.3506C111.623 39.815 118.56 34.5386 126.091 35.562C132.82 36.4744 137.744 42.108 137.995 48.6685C138.285 41.6543 133.192 35.4413 126.091 34.4759C118.555 33.4524 111.618 38.7337 110.599 46.2645C110.488 47.0707 110.459 47.8672 110.488 48.6492C110.508 48.2196 110.541 47.7851 110.599 47.3458V47.3506Z" fill="#E5D1B3"/>
<path d="M122.861 59.3663C128.528 60.1338 133.742 56.2091 134.505 50.5948C134.592 49.9383 134.611 49.2914 134.577 48.6542C134.563 48.939 134.543 49.2238 134.505 49.5086C133.742 55.1229 128.528 59.0525 122.861 58.2801C117.855 57.5994 114.172 53.4816 113.906 48.6638C113.636 53.9402 117.483 58.6373 122.861 59.3663Z" fill="#E5D1B3"/>
<path d="M125.622 37.0151C119.955 36.2475 114.741 40.1722 113.978 45.7865C113.896 46.3996 113.877 47.0079 113.906 47.6065C113.921 47.312 113.94 47.0224 113.978 46.7231C114.741 41.1087 119.955 37.1792 125.622 37.9516C130.672 38.6371 134.37 42.8177 134.582 47.6885C134.838 42.4218 130.995 37.7392 125.622 37.0102V37.0151Z" fill="#B29360"/>
<path d="M137.884 49.0306C136.861 56.5663 129.924 61.8427 122.393 60.8193C115.634 59.902 110.696 54.225 110.488 47.6259C110.232 54.616 115.316 60.7951 122.393 61.7558C129.928 62.7792 136.865 57.498 137.884 49.9672C137.99 49.1899 138.024 48.4224 138 47.6693C137.985 48.1183 137.947 48.5769 137.884 49.0306Z" fill="#B29360"/>
<path d="M87.7317 10.9034L87.6786 19.5011H88.171L88.7841 11.3234C88.8034 11.0965 88.3255 10.9034 87.7317 10.9034Z" fill="#FFBB4D"/>
<path d="M87.3214 43.3439L50.1307 42.3446V43.508L87.3214 44.5121V43.3439Z" fill="#473737"/>
<path d="M100.52 29.938C103.02 28.2436 104.97 26.7519 104.874 26.6119C104.777 26.4671 102.668 27.7271 100.167 29.4215C97.6666 31.1159 95.7163 32.6076 95.8128 32.7476C95.9094 32.8924 98.019 31.6325 100.52 29.938Z" fill="#916044"/>
<path d="M91.7674 35.8661C94.268 34.1717 96.2183 32.68 96.1218 32.54C96.0252 32.3952 93.9156 33.6552 91.415 35.3496C88.9144 37.044 86.9641 38.5357 87.0607 38.6757C87.1572 38.8205 89.2668 37.5606 91.7674 35.8661Z" fill="#916044"/>
<path d="M98.6755 37.1937C100.37 39.6943 101.862 41.6446 102.006 41.5481C102.151 41.4515 100.891 39.3419 99.1969 36.8413C97.5024 34.3407 96.0108 32.3904 95.8659 32.487C95.7211 32.5835 96.9811 34.6931 98.6755 37.1937Z" fill="#916044"/>
<path d="M92.7474 28.4416C94.4418 30.9423 95.9335 32.8925 96.0735 32.796C96.2183 32.6994 94.9584 30.5898 93.2639 28.0892C91.5695 25.5886 90.0778 23.6383 89.933 23.7349C89.7882 23.8314 91.0481 25.941 92.7426 28.4416H92.7474Z" fill="#916044"/>
<path d="M97.2755 27.5099C97.8452 24.541 98.1734 22.108 97.9997 22.0742C97.8307 22.0404 97.2321 24.4203 96.6576 27.3892C96.088 30.3581 95.7597 32.7911 95.9335 32.8249C96.1025 32.8587 96.7011 30.4788 97.2755 27.5099Z" fill="#916044"/>
<path d="M95.277 37.8889C95.8466 34.9201 96.1749 32.487 96.0011 32.4532C95.8321 32.4194 95.2335 34.7994 94.6591 37.7682C94.0894 40.7371 93.7612 43.1702 93.935 43.204C94.1039 43.2377 94.7025 40.8578 95.277 37.8889Z" fill="#916044"/>
<path d="M101.099 33.9449C104.068 34.5145 106.501 34.8428 106.535 34.669C106.568 34.5 104.188 33.9014 101.22 33.327C98.2507 32.7573 95.8177 32.4291 95.7839 32.6028C95.7501 32.7766 98.13 33.3704 101.099 33.9449Z" fill="#916044"/>
<path d="M90.7199 31.9511C93.6887 32.5207 96.1218 32.849 96.1556 32.6752C96.1894 32.5063 93.8094 31.9077 90.8406 31.3332C87.8717 30.7635 85.4386 30.4353 85.4049 30.6091C85.3711 30.778 87.751 31.3766 90.7199 31.9511Z" fill="#916044"/>
<path d="M101.21 31.9028C104.174 31.3042 106.549 30.6815 106.51 30.5125C106.472 30.3436 104.048 30.6912 101.084 31.2898C98.1203 31.8884 95.7452 32.5111 95.7839 32.6801C95.8177 32.849 98.2459 32.5014 101.21 31.9028Z" fill="#916044"/>
<path d="M90.8502 33.9932C93.8143 33.3946 96.1894 32.7718 96.1507 32.6029C96.117 32.4339 93.6887 32.7815 90.7247 33.3801C87.7606 33.9787 85.3855 34.6014 85.4242 34.7704C85.458 34.9394 87.8862 34.5918 90.8502 33.9932Z" fill="#916044"/>
<path d="M96.7107 37.884C97.3093 40.8481 97.9321 43.2232 98.101 43.1846C98.27 43.1508 97.9224 40.7226 97.3238 37.7585C96.7252 34.7945 96.1025 32.4194 95.9335 32.458C95.7645 32.4966 96.1121 34.92 96.7107 37.884Z" fill="#916044"/>
<path d="M94.6156 27.5244C95.2142 30.4885 95.837 32.8636 96.0059 32.8249C96.1749 32.7912 95.8273 30.3629 95.2287 27.3989C94.6301 24.4348 94.0074 22.0597 93.8384 22.0984C93.6694 22.1322 94.017 24.5604 94.6156 27.5244Z" fill="#916044"/>
<path d="M99.1534 28.4127C100.824 25.8927 102.064 23.7735 101.92 23.6818C101.775 23.5852 100.302 25.55 98.6321 28.0699C96.9618 30.5898 95.7211 32.7091 95.8659 32.8008C96.0108 32.8973 97.4831 30.9326 99.1534 28.4127Z" fill="#916044"/>
<path d="M93.3074 37.2179C94.9777 34.698 96.2183 32.5788 96.0735 32.4871C95.9287 32.3905 94.4563 34.3553 92.786 36.8752C91.1157 39.3951 89.8751 41.5144 90.0199 41.6061C90.1647 41.6978 91.6371 39.7379 93.3074 37.2179Z" fill="#916044"/>
<path d="M100.201 35.8275C102.721 37.4978 104.84 38.7385 104.932 38.5937C105.028 38.4488 103.064 36.9765 100.544 35.3062C98.0238 33.6359 95.9045 32.3952 95.8128 32.5401C95.7163 32.6849 97.681 34.1573 100.201 35.8275Z" fill="#916044"/>
<path d="M91.3957 29.9815C93.9156 31.6518 96.0349 32.8924 96.1266 32.7476C96.2232 32.6028 94.2584 31.1304 91.7385 29.4601C89.2185 27.7898 87.0993 26.5492 87.0076 26.694C86.911 26.8388 88.8758 28.3112 91.3957 29.9815Z" fill="#916044"/>
<path d="M107.626 34.2683C106.737 40.8143 100.713 45.3955 94.1667 44.5073C87.6207 43.619 83.0394 37.5944 83.9277 31.0484C84.8159 24.5024 90.8406 19.9211 97.3866 20.8094C103.933 21.6976 108.514 27.7223 107.626 34.2683ZM96.9762 23.8313C92.0522 23.1652 87.5241 26.5733 86.8627 31.449C86.2014 36.3248 89.6578 40.8191 94.577 41.4901C99.501 42.1563 104.029 38.7481 104.69 33.8724C105.352 28.9967 101.9 24.5024 96.9762 23.8313Z" fill="#916044"/>
<path d="M107.626 34.2683C106.737 40.8143 100.713 45.3955 94.1667 44.5073C87.6207 43.619 83.0394 37.5944 83.9277 31.0484C84.8159 24.5024 90.8406 19.9211 97.3866 20.8094C103.933 21.6976 108.514 27.7223 107.626 34.2683ZM104.633 31.1353C104.314 31.2173 103.957 31.2994 103.585 31.3863C103.522 31.2077 103.455 31.0291 103.377 30.8553C103.788 30.7829 104.179 30.7201 104.526 30.667C104.295 29.6822 103.904 28.7553 103.373 27.9154C103.006 28.1905 102.586 28.4947 102.127 28.8181C102.002 28.6636 101.866 28.5236 101.731 28.3788C102.228 28.0554 102.692 27.7657 103.097 27.5195C102.528 26.7278 101.837 26.0182 101.031 25.4437C100.756 25.9023 100.428 26.4333 100.066 27.003C99.8968 26.8968 99.7327 26.7906 99.5589 26.694C99.9499 26.1292 100.312 25.6127 100.635 25.1782C99.8051 24.6472 98.8783 24.2368 97.8741 23.9955C97.7969 24.5506 97.6907 25.2072 97.5652 25.9168C97.3721 25.8685 97.179 25.8202 96.9859 25.7865C97.1307 25.0913 97.2755 24.4493 97.4059 23.9086C97.2611 23.8796 97.1211 23.8458 96.9762 23.8265C96.1073 23.7107 95.2577 23.7251 94.4322 23.8458C94.5673 24.3672 94.7122 24.9803 94.8618 25.6561C94.6639 25.6658 94.466 25.6851 94.2729 25.7092C94.1522 25.0479 94.0508 24.4444 93.9736 23.9279C92.9453 24.1355 91.975 24.5072 91.0964 25.0382C91.3716 25.4003 91.6854 25.8299 92.0233 26.303C91.8447 26.3754 91.6757 26.4623 91.5019 26.5492C91.2074 26.0906 90.9371 25.6561 90.715 25.2892C89.8606 25.8637 89.1075 26.5733 88.4944 27.4085C88.7792 27.5726 89.1027 27.7705 89.4406 27.9829C89.3054 28.1085 89.1751 28.234 89.0496 28.3691C88.7551 28.1616 88.4848 27.9636 88.2434 27.785C87.6689 28.654 87.2393 29.6339 87.0027 30.696C87.1427 30.7153 87.2876 30.7346 87.4372 30.7587C87.3696 30.9084 87.3069 31.058 87.2441 31.2125C87.1331 31.1835 87.0221 31.1594 86.9159 31.1304C86.8965 31.2415 86.8676 31.3428 86.8531 31.4539C86.7855 31.9366 86.7662 32.4145 86.7759 32.8828C86.6938 33.3704 86.6407 33.8628 86.6407 34.3745C86.6407 39.1971 90.5509 43.1122 95.3784 43.1122C99.3948 43.1122 102.769 40.3991 103.788 36.711C104.131 36.0351 104.391 35.311 104.555 34.5434C104.415 34.5241 104.256 34.5 104.106 34.4759C104.106 34.4421 104.111 34.4083 104.111 34.3793C104.111 34.2345 104.097 34.0897 104.087 33.9448C104.28 33.9883 104.468 34.0317 104.642 34.0752C104.652 34.0076 104.671 33.9448 104.681 33.8773C104.806 32.9407 104.782 32.0235 104.623 31.1401L104.633 31.1353Z" fill="#683F2B"/>
<path d="M109.417 34.5145C108.393 42.0501 101.456 47.3265 93.9253 46.3031C86.3945 45.2797 81.1133 38.3426 82.1367 30.8118C83.1601 23.2762 90.0972 17.9998 97.628 19.0232C105.164 20.0466 110.44 26.9836 109.417 34.5145ZM97.1549 22.4989C91.4875 21.7314 86.2738 25.6561 85.5111 31.2704C84.7483 36.8847 88.7262 42.0597 94.3936 42.8273C100.061 43.5949 105.275 39.6702 106.037 34.0558C106.8 28.4415 102.822 23.2665 97.1549 22.4989Z" fill="#C9B289"/>
<path d="M97.6955 32.9215C97.5507 33.9739 96.5756 34.7077 95.5184 34.5629C94.4563 34.418 93.7129 33.4525 93.8577 32.4002C94.0025 31.3478 94.9777 30.614 96.0349 30.7588C97.0969 30.9037 97.8404 31.8691 97.6955 32.9215Z" fill="#C9B289"/>
<path d="M82.1367 31.8932C83.1601 24.3576 90.0971 19.0812 97.6279 20.1046C104.357 21.017 109.281 26.6506 109.532 33.2111C109.822 26.1969 104.729 19.9839 97.6279 19.0185C90.0923 17.995 83.1553 23.2763 82.1367 30.8071C82.0256 31.6133 81.9967 32.4098 82.0256 33.1918C82.045 32.7622 82.0787 32.3277 82.1367 31.8884V31.8932Z" fill="#E5D1B3"/>
<path d="M94.3984 43.9135C100.066 44.6811 105.279 40.7564 106.042 35.1421C106.129 34.4855 106.148 33.8386 106.115 33.2014C106.1 33.4862 106.081 33.7711 106.042 34.0559C105.279 39.6702 100.066 43.5997 94.3984 42.8273C89.3923 42.1467 85.709 38.0289 85.4435 33.2111C85.1731 38.4875 89.0206 43.1846 94.3984 43.9135Z" fill="#E5D1B3"/>
<path d="M97.1549 21.5577C91.4874 20.7901 86.2738 24.7148 85.5111 30.3291C85.429 30.9422 85.4097 31.5505 85.4386 32.1491C85.4531 31.8546 85.4724 31.565 85.5111 31.2657C86.2738 25.6513 91.4874 21.7218 97.1549 22.4942C102.204 23.1797 105.902 27.3603 106.11 32.2311C106.366 26.9644 102.523 22.2818 97.1549 21.5528V21.5577Z" fill="#B29360"/>
<path d="M109.417 33.578C108.393 41.1136 101.456 46.39 93.9253 45.3666C87.1669 44.4494 82.2284 38.7723 82.0208 32.1732C81.765 39.1634 86.8483 45.3425 93.9253 46.3031C101.461 47.3266 108.398 42.0453 109.417 34.5145C109.523 33.7373 109.557 32.9697 109.532 32.2167C109.518 32.6656 109.479 33.1242 109.417 33.578Z" fill="#B29360"/>
<path d="M48.6294 46.4479L106.327 47.5341C108.335 34.3842 118.54 25.9989 134.862 30.445C134.679 30.2133 134.428 30.0298 134.128 29.9333C117.643 24.7679 107.867 33.2449 105.873 46.699L48.9866 45.6128C45.7088 31.4153 35.1994 25.7913 17.4345 32.2311C17.1738 32.3277 16.9517 32.4773 16.7683 32.6608C34.3691 26.8871 45.3178 32.5642 48.6246 46.4479H48.6294Z" fill="#FFDC78"/>
<path d="M39.3076 13.9062C39.3076 14.8379 40.0655 15.5958 40.9972 15.5958C41.9289 15.5958 42.6868 14.8379 42.6868 13.9062C42.6868 12.9745 41.9289 12.2166 40.9972 12.2166C40.0655 12.2166 39.3076 12.9745 39.3076 13.9062Z" fill="#FFBB4D"/>
<path d="M40.0607 13.9061C40.0607 14.4227 40.4807 14.8427 40.9972 14.8427C41.5137 14.8427 41.9337 14.4227 41.9337 13.9061C41.9337 13.3896 41.5137 12.9696 40.9972 12.9696C40.4807 12.9696 40.0607 13.3896 40.0607 13.9061Z" fill="#281D1D"/>
<path d="M88.591 14.9054L42.1268 14.9054V13.9109L88.591 13.9109V14.9054Z" fill="#FFBB4D"/>
<path d="M119.805 18.3667C118.072 18.3812 116.677 19.3998 116.677 20.6597C116.677 21.9197 118.072 22.9335 119.805 22.9528V18.3715V18.3667Z" fill="#C9B289"/>
<path d="M117.005 19.6508C116.798 19.9549 116.677 20.2976 116.677 20.6597C116.677 21.9148 118.072 22.9334 119.805 22.9527V20.9542C118.511 20.7031 117.493 20.2301 117.005 19.6508Z" fill="#B29360"/>
<path d="M120.264 23.3679H119.39V18.0288H120.264V23.3679Z" fill="#BF4141"/>
<path d="M24.8398 13.6745C24.8398 13.8483 23.9467 13.9689 22.8508 13.9448C21.7502 13.9207 20.8619 13.7614 20.8619 13.5924C20.8619 13.4234 21.755 13.2979 22.8508 13.3221C23.9515 13.3462 24.8398 13.5055 24.8398 13.6745Z" fill="#BF4141"/>
<path d="M31.7864 11.2656C31.743 11.4828 29.4886 10.8166 26.7563 9.77389C24.0239 8.73116 21.8419 7.7174 21.8902 7.50017C21.9336 7.28293 24.188 7.94912 26.9204 8.99185C29.6527 10.0297 31.8347 11.0483 31.7864 11.2656Z" fill="#BF4141"/>
<path d="M28.5376 11.4151C28.2479 11.4634 27.2824 11.362 25.9742 11.1062C23.8308 10.6959 20.9006 9.91381 21.113 9.65313C21.3592 9.34417 25.1246 10.1166 27.2631 10.7586C28.4652 11.1207 28.8465 11.3572 28.5376 11.4103V11.4151Z" fill="#BF4141"/>
<path d="M27.4997 12.3035C27.49 12.4773 25.9549 12.4724 24.0625 12.3035C22.1702 12.1345 20.6495 11.8497 20.6544 11.6759C20.664 11.5021 22.1992 11.5069 24.0915 11.6759C25.979 11.8497 27.5045 12.1297 27.4997 12.3035Z" fill="#BF4141"/>
<path d="M36.498 12.1731C36.4304 12.371 33.3505 11.058 29.6093 9.23801C25.8728 7.41806 22.8943 5.78639 22.9619 5.58846C23.0295 5.39054 26.1094 6.7036 29.8506 8.52355C33.5871 10.3435 36.5656 11.9752 36.498 12.1731Z" fill="#BF4141"/>
</g>
<defs>
<clipPath id="clip0_60_4211">
<rect width="143.39" height="63.423" fill="white" transform="matrix(-1 0 0 1 144.324 -0.00170898)"/>
</clipPath>
</defs>
</svg>
